G04 #@! TF.FileFunction,Soldermask,Top*
%FSLAX46Y46*%
G04 Gerber Fmt 4.6, Leading zero omitted, Abs format (unit mm)*
G04 Created by KiCad (PCBNEW 4.0.7) date Tue May 22 04:59:50 2018*
%MOMM*%
%LPD*%
G01*
G04 APERTURE LIST*
%ADD10C,0.100000*%
%ADD11R,1.801600X1.801600*%
%ADD12O,1.801600X1.801600*%
%ADD13R,1.351600X1.601600*%
%ADD14R,1.601600X1.351600*%
%ADD15R,2.601600X2.101600*%
%ADD16R,0.461600X0.351600*%
%ADD17R,1.001600X0.901600*%
%ADD18R,1.301600X1.001600*%
%ADD19R,2.101600X1.801600*%
%ADD20R,1.001600X1.301600*%
%ADD21R,1.801600X2.101600*%
%ADD22C,1.101600*%
%ADD23R,1.501600X2.201600*%
%ADD24C,1.601600*%
%ADD25R,0.740000X1.690000*%
%ADD26R,1.661600X0.751600*%
%ADD27C,4.276600*%
%ADD28R,2.101600X1.701600*%
%ADD29R,1.401600X1.701600*%
%ADD30R,0.351600X0.461600*%
G04 APERTURE END LIST*
D10*
D11*
X123713240Y-71043800D03*
D12*
X123713240Y-73583800D03*
X123713240Y-76123800D03*
X123713240Y-78663800D03*
D13*
X96271080Y-77907200D03*
X96271080Y-75407200D03*
D10*
G36*
X93976911Y-78061683D02*
X94932637Y-79017409D01*
X93800135Y-80149911D01*
X92844409Y-79194185D01*
X93976911Y-78061683D01*
X93976911Y-78061683D01*
G37*
G36*
X92209145Y-79829449D02*
X93164871Y-80785175D01*
X92032369Y-81917677D01*
X91076643Y-80961951D01*
X92209145Y-79829449D01*
X92209145Y-79829449D01*
G37*
G36*
X87614623Y-70561749D02*
X88570349Y-69606023D01*
X89702851Y-70738525D01*
X88747125Y-71694251D01*
X87614623Y-70561749D01*
X87614623Y-70561749D01*
G37*
G36*
X89382389Y-72329515D02*
X90338115Y-71373789D01*
X91470617Y-72506291D01*
X90514891Y-73462017D01*
X89382389Y-72329515D01*
X89382389Y-72329515D01*
G37*
D13*
X125243092Y-101908078D03*
X125243092Y-99408078D03*
D14*
X84431820Y-68780660D03*
X86931820Y-68780660D03*
D10*
G36*
X85328897Y-84175051D02*
X84373171Y-85130777D01*
X83240669Y-83998275D01*
X84196395Y-83042549D01*
X85328897Y-84175051D01*
X85328897Y-84175051D01*
G37*
G36*
X83561131Y-82407285D02*
X82605405Y-83363011D01*
X81472903Y-82230509D01*
X82428629Y-81274783D01*
X83561131Y-82407285D01*
X83561131Y-82407285D01*
G37*
G36*
X79883037Y-75181001D02*
X79174799Y-74472763D01*
X80095169Y-73552393D01*
X80803407Y-74260631D01*
X79883037Y-75181001D01*
X79883037Y-75181001D01*
G37*
G36*
X81438671Y-73625367D02*
X80730433Y-72917129D01*
X81650803Y-71996759D01*
X82359041Y-72704997D01*
X81438671Y-73625367D01*
X81438671Y-73625367D01*
G37*
D15*
X111152940Y-79326740D03*
X111152940Y-75326740D03*
D14*
X120685880Y-106418380D03*
X118185880Y-106418380D03*
X94137160Y-69766180D03*
X96637160Y-69766180D03*
D10*
G36*
X74942600Y-65857706D02*
X75898326Y-64901980D01*
X77030828Y-66034482D01*
X76075102Y-66990208D01*
X74942600Y-65857706D01*
X74942600Y-65857706D01*
G37*
G36*
X76710366Y-67625472D02*
X77666092Y-66669746D01*
X78798594Y-67802248D01*
X77842868Y-68757974D01*
X76710366Y-67625472D01*
X76710366Y-67625472D01*
G37*
D14*
X73576500Y-88087200D03*
X71076500Y-88087200D03*
D10*
G36*
X77560983Y-74484066D02*
X75721374Y-72644457D01*
X77207429Y-71158402D01*
X79047038Y-72998011D01*
X77560983Y-74484066D01*
X77560983Y-74484066D01*
G37*
G36*
X80389411Y-71655638D02*
X78549802Y-69816029D01*
X80035857Y-68329974D01*
X81875466Y-70169583D01*
X80389411Y-71655638D01*
X80389411Y-71655638D01*
G37*
D15*
X113035080Y-60019700D03*
X113035080Y-56019700D03*
X98455480Y-56278780D03*
X98455480Y-60278780D03*
X103012240Y-56329580D03*
X103012240Y-60329580D03*
D13*
X95582740Y-57083320D03*
X95582740Y-59583320D03*
D15*
X111561880Y-68485520D03*
X111561880Y-64485520D03*
X108165900Y-68475360D03*
X108165900Y-64475360D03*
D13*
X105237280Y-67724660D03*
X105237280Y-65224660D03*
D16*
X119310520Y-60236100D03*
X120150520Y-60236100D03*
D11*
X94254320Y-64193420D03*
D12*
X94254320Y-66733420D03*
X96794320Y-64193420D03*
X96794320Y-66733420D03*
X99334320Y-64193420D03*
X99334320Y-66733420D03*
D11*
X123299220Y-57251600D03*
D12*
X123299220Y-59791600D03*
D17*
X117771980Y-58460400D03*
X116171980Y-59110400D03*
X116171980Y-57810400D03*
D18*
X123266200Y-106276140D03*
X125466200Y-106276140D03*
D19*
X124948700Y-109636560D03*
X120948700Y-109636560D03*
D20*
X114968020Y-85720100D03*
X114968020Y-83520100D03*
D21*
X107337860Y-75290680D03*
X107337860Y-79290680D03*
D19*
X117957600Y-109608620D03*
X113957600Y-109608620D03*
D18*
X112790880Y-105483660D03*
X114990880Y-105483660D03*
D10*
G36*
X89900642Y-69496400D02*
X90608880Y-68788162D01*
X91529250Y-69708532D01*
X90821012Y-70416770D01*
X89900642Y-69496400D01*
X89900642Y-69496400D01*
G37*
G36*
X91456276Y-71052034D02*
X92164514Y-70343796D01*
X93084884Y-71264166D01*
X92376646Y-71972404D01*
X91456276Y-71052034D01*
X91456276Y-71052034D01*
G37*
D19*
X100490520Y-72679560D03*
X104490520Y-72679560D03*
D21*
X72758300Y-68683120D03*
X72758300Y-72683120D03*
D20*
X102913180Y-65346580D03*
X102913180Y-67546580D03*
D22*
X125407420Y-92250260D03*
X122867420Y-89710260D03*
X122867420Y-94790260D03*
D23*
X70352920Y-85099340D03*
X70352920Y-75999340D03*
X74852920Y-75999340D03*
X74852920Y-85099340D03*
D24*
X83200240Y-66352420D03*
X122234960Y-112849660D03*
X99921060Y-76852780D03*
X116410740Y-78153260D03*
X123827540Y-85036660D03*
X108488480Y-98750120D03*
X87690960Y-84607400D03*
X125920500Y-112654080D03*
X91272360Y-67193160D03*
D10*
G36*
X84628082Y-71525168D02*
X85575605Y-72472691D01*
X85264478Y-72783818D01*
X84316955Y-71836295D01*
X84628082Y-71525168D01*
X84628082Y-71525168D01*
G37*
G36*
X84274528Y-71878721D02*
X85222051Y-72826244D01*
X84910924Y-73137371D01*
X83963401Y-72189848D01*
X84274528Y-71878721D01*
X84274528Y-71878721D01*
G37*
G36*
X83920975Y-72232274D02*
X84868498Y-73179797D01*
X84557371Y-73490924D01*
X83609848Y-72543401D01*
X83920975Y-72232274D01*
X83920975Y-72232274D01*
G37*
G36*
X83567422Y-72585828D02*
X84514945Y-73533351D01*
X84203818Y-73844478D01*
X83256295Y-72896955D01*
X83567422Y-72585828D01*
X83567422Y-72585828D01*
G37*
G36*
X83213868Y-72939381D02*
X84161391Y-73886904D01*
X83850264Y-74198031D01*
X82902741Y-73250508D01*
X83213868Y-72939381D01*
X83213868Y-72939381D01*
G37*
G36*
X82860315Y-73292934D02*
X83807838Y-74240457D01*
X83496711Y-74551584D01*
X82549188Y-73604061D01*
X82860315Y-73292934D01*
X82860315Y-73292934D01*
G37*
G36*
X82506761Y-73646488D02*
X83454284Y-74594011D01*
X83143157Y-74905138D01*
X82195634Y-73957615D01*
X82506761Y-73646488D01*
X82506761Y-73646488D01*
G37*
G36*
X82153208Y-74000041D02*
X83100731Y-74947564D01*
X82789604Y-75258691D01*
X81842081Y-74311168D01*
X82153208Y-74000041D01*
X82153208Y-74000041D01*
G37*
G36*
X81799655Y-74353595D02*
X82747178Y-75301118D01*
X82436051Y-75612245D01*
X81488528Y-74664722D01*
X81799655Y-74353595D01*
X81799655Y-74353595D01*
G37*
G36*
X81446101Y-74707148D02*
X82393624Y-75654671D01*
X82082497Y-75965798D01*
X81134974Y-75018275D01*
X81446101Y-74707148D01*
X81446101Y-74707148D01*
G37*
G36*
X81092548Y-75060701D02*
X82040071Y-76008224D01*
X81728944Y-76319351D01*
X80781421Y-75371828D01*
X81092548Y-75060701D01*
X81092548Y-75060701D01*
G37*
G36*
X80738995Y-75414255D02*
X81686518Y-76361778D01*
X81375391Y-76672905D01*
X80427868Y-75725382D01*
X80738995Y-75414255D01*
X80738995Y-75414255D01*
G37*
G36*
X81375391Y-77535575D02*
X81686518Y-77846702D01*
X80738995Y-78794225D01*
X80427868Y-78483098D01*
X81375391Y-77535575D01*
X81375391Y-77535575D01*
G37*
G36*
X81728944Y-77889129D02*
X82040071Y-78200256D01*
X81092548Y-79147779D01*
X80781421Y-78836652D01*
X81728944Y-77889129D01*
X81728944Y-77889129D01*
G37*
G36*
X82082497Y-78242682D02*
X82393624Y-78553809D01*
X81446101Y-79501332D01*
X81134974Y-79190205D01*
X82082497Y-78242682D01*
X82082497Y-78242682D01*
G37*
G36*
X82436051Y-78596235D02*
X82747178Y-78907362D01*
X81799655Y-79854885D01*
X81488528Y-79543758D01*
X82436051Y-78596235D01*
X82436051Y-78596235D01*
G37*
G36*
X82789604Y-78949789D02*
X83100731Y-79260916D01*
X82153208Y-80208439D01*
X81842081Y-79897312D01*
X82789604Y-78949789D01*
X82789604Y-78949789D01*
G37*
G36*
X83143157Y-79303342D02*
X83454284Y-79614469D01*
X82506761Y-80561992D01*
X82195634Y-80250865D01*
X83143157Y-79303342D01*
X83143157Y-79303342D01*
G37*
G36*
X83496711Y-79656896D02*
X83807838Y-79968023D01*
X82860315Y-80915546D01*
X82549188Y-80604419D01*
X83496711Y-79656896D01*
X83496711Y-79656896D01*
G37*
G36*
X83850264Y-80010449D02*
X84161391Y-80321576D01*
X83213868Y-81269099D01*
X82902741Y-80957972D01*
X83850264Y-80010449D01*
X83850264Y-80010449D01*
G37*
G36*
X84203818Y-80364002D02*
X84514945Y-80675129D01*
X83567422Y-81622652D01*
X83256295Y-81311525D01*
X84203818Y-80364002D01*
X84203818Y-80364002D01*
G37*
G36*
X84557371Y-80717556D02*
X84868498Y-81028683D01*
X83920975Y-81976206D01*
X83609848Y-81665079D01*
X84557371Y-80717556D01*
X84557371Y-80717556D01*
G37*
G36*
X84910924Y-81071109D02*
X85222051Y-81382236D01*
X84274528Y-82329759D01*
X83963401Y-82018632D01*
X84910924Y-81071109D01*
X84910924Y-81071109D01*
G37*
G36*
X85264478Y-81424662D02*
X85575605Y-81735789D01*
X84628082Y-82683312D01*
X84316955Y-82372185D01*
X85264478Y-81424662D01*
X85264478Y-81424662D01*
G37*
G36*
X86749402Y-81424662D02*
X87696925Y-82372185D01*
X87385798Y-82683312D01*
X86438275Y-81735789D01*
X86749402Y-81424662D01*
X86749402Y-81424662D01*
G37*
G36*
X87102956Y-81071109D02*
X88050479Y-82018632D01*
X87739352Y-82329759D01*
X86791829Y-81382236D01*
X87102956Y-81071109D01*
X87102956Y-81071109D01*
G37*
G36*
X87456509Y-80717556D02*
X88404032Y-81665079D01*
X88092905Y-81976206D01*
X87145382Y-81028683D01*
X87456509Y-80717556D01*
X87456509Y-80717556D01*
G37*
G36*
X87810062Y-80364002D02*
X88757585Y-81311525D01*
X88446458Y-81622652D01*
X87498935Y-80675129D01*
X87810062Y-80364002D01*
X87810062Y-80364002D01*
G37*
G36*
X88163616Y-80010449D02*
X89111139Y-80957972D01*
X88800012Y-81269099D01*
X87852489Y-80321576D01*
X88163616Y-80010449D01*
X88163616Y-80010449D01*
G37*
G36*
X88517169Y-79656896D02*
X89464692Y-80604419D01*
X89153565Y-80915546D01*
X88206042Y-79968023D01*
X88517169Y-79656896D01*
X88517169Y-79656896D01*
G37*
G36*
X88870723Y-79303342D02*
X89818246Y-80250865D01*
X89507119Y-80561992D01*
X88559596Y-79614469D01*
X88870723Y-79303342D01*
X88870723Y-79303342D01*
G37*
G36*
X89224276Y-78949789D02*
X90171799Y-79897312D01*
X89860672Y-80208439D01*
X88913149Y-79260916D01*
X89224276Y-78949789D01*
X89224276Y-78949789D01*
G37*
G36*
X89577829Y-78596235D02*
X90525352Y-79543758D01*
X90214225Y-79854885D01*
X89266702Y-78907362D01*
X89577829Y-78596235D01*
X89577829Y-78596235D01*
G37*
G36*
X89931383Y-78242682D02*
X90878906Y-79190205D01*
X90567779Y-79501332D01*
X89620256Y-78553809D01*
X89931383Y-78242682D01*
X89931383Y-78242682D01*
G37*
G36*
X90284936Y-77889129D02*
X91232459Y-78836652D01*
X90921332Y-79147779D01*
X89973809Y-78200256D01*
X90284936Y-77889129D01*
X90284936Y-77889129D01*
G37*
G36*
X90638489Y-77535575D02*
X91586012Y-78483098D01*
X91274885Y-78794225D01*
X90327362Y-77846702D01*
X90638489Y-77535575D01*
X90638489Y-77535575D01*
G37*
G36*
X91274885Y-75414255D02*
X91586012Y-75725382D01*
X90638489Y-76672905D01*
X90327362Y-76361778D01*
X91274885Y-75414255D01*
X91274885Y-75414255D01*
G37*
G36*
X90921332Y-75060701D02*
X91232459Y-75371828D01*
X90284936Y-76319351D01*
X89973809Y-76008224D01*
X90921332Y-75060701D01*
X90921332Y-75060701D01*
G37*
G36*
X90567779Y-74707148D02*
X90878906Y-75018275D01*
X89931383Y-75965798D01*
X89620256Y-75654671D01*
X90567779Y-74707148D01*
X90567779Y-74707148D01*
G37*
G36*
X90214225Y-74353595D02*
X90525352Y-74664722D01*
X89577829Y-75612245D01*
X89266702Y-75301118D01*
X90214225Y-74353595D01*
X90214225Y-74353595D01*
G37*
G36*
X89860672Y-74000041D02*
X90171799Y-74311168D01*
X89224276Y-75258691D01*
X88913149Y-74947564D01*
X89860672Y-74000041D01*
X89860672Y-74000041D01*
G37*
G36*
X89507119Y-73646488D02*
X89818246Y-73957615D01*
X88870723Y-74905138D01*
X88559596Y-74594011D01*
X89507119Y-73646488D01*
X89507119Y-73646488D01*
G37*
G36*
X89153565Y-73292934D02*
X89464692Y-73604061D01*
X88517169Y-74551584D01*
X88206042Y-74240457D01*
X89153565Y-73292934D01*
X89153565Y-73292934D01*
G37*
G36*
X88800012Y-72939381D02*
X89111139Y-73250508D01*
X88163616Y-74198031D01*
X87852489Y-73886904D01*
X88800012Y-72939381D01*
X88800012Y-72939381D01*
G37*
G36*
X88446458Y-72585828D02*
X88757585Y-72896955D01*
X87810062Y-73844478D01*
X87498935Y-73533351D01*
X88446458Y-72585828D01*
X88446458Y-72585828D01*
G37*
G36*
X88092905Y-72232274D02*
X88404032Y-72543401D01*
X87456509Y-73490924D01*
X87145382Y-73179797D01*
X88092905Y-72232274D01*
X88092905Y-72232274D01*
G37*
G36*
X87739352Y-71878721D02*
X88050479Y-72189848D01*
X87102956Y-73137371D01*
X86791829Y-72826244D01*
X87739352Y-71878721D01*
X87739352Y-71878721D01*
G37*
G36*
X87385798Y-71525168D02*
X87696925Y-71836295D01*
X86749402Y-72783818D01*
X86438275Y-72472691D01*
X87385798Y-71525168D01*
X87385798Y-71525168D01*
G37*
D25*
X122715792Y-97960278D03*
X121445792Y-97960278D03*
X120175792Y-97960278D03*
X118905792Y-97960278D03*
X118905792Y-103360278D03*
X120175792Y-103360278D03*
X121445792Y-103360278D03*
X122715792Y-103360278D03*
D10*
G36*
X82358283Y-58276837D02*
X83632207Y-59550761D01*
X82075441Y-61107527D01*
X80801517Y-59833603D01*
X82358283Y-58276837D01*
X82358283Y-58276837D01*
G37*
G36*
X78186353Y-62448767D02*
X79460277Y-63722691D01*
X77903511Y-65279457D01*
X76629587Y-64005533D01*
X78186353Y-62448767D01*
X78186353Y-62448767D01*
G37*
G36*
X80095541Y-64357955D02*
X81369465Y-65631879D01*
X79812699Y-67188645D01*
X78538775Y-65914721D01*
X80095541Y-64357955D01*
X80095541Y-64357955D01*
G37*
G36*
X84267471Y-60186025D02*
X85541395Y-61459949D01*
X83984629Y-63016715D01*
X82710705Y-61742791D01*
X84267471Y-60186025D01*
X84267471Y-60186025D01*
G37*
D26*
X109453660Y-59245580D03*
X109453660Y-58295580D03*
X109453660Y-57345580D03*
X106753660Y-57345580D03*
X106753660Y-59245580D03*
D27*
X70064600Y-95000000D03*
X119323000Y-85000000D03*
X70064600Y-114000000D03*
X119323000Y-115000000D03*
D21*
X113085880Y-91159580D03*
X113085880Y-95159580D03*
X115785900Y-95134180D03*
X115785900Y-91134180D03*
D28*
X114150140Y-102478840D03*
D29*
X112500140Y-98478840D03*
X115800140Y-98478840D03*
D30*
X120317260Y-74982440D03*
X120317260Y-75822440D03*
X120337580Y-72903080D03*
X120337580Y-72063080D03*
D14*
X112674080Y-107276900D03*
X115174080Y-107276900D03*
M02*
