G04 #@! TF.FileFunction,Soldermask,Bot*
%FSLAX46Y46*%
G04 Gerber Fmt 4.6, Leading zero omitted, Abs format (unit mm)*
G04 Created by KiCad (PCBNEW 4.0.7) date Fri Jul 20 20:57:52 2018*
%MOMM*%
%LPD*%
G01*
G04 APERTURE LIST*
%ADD10C,0.100000*%
%ADD11C,1.101600*%
%ADD12R,1.801600X1.801600*%
%ADD13O,1.801600X1.801600*%
%ADD14R,0.461600X0.351600*%
%ADD15R,5.140000X0.921250*%
%ADD16R,5.140000X43.890000*%
%ADD17C,4.276600*%
G04 APERTURE END LIST*
D10*
D11*
X124540000Y-88080000D03*
X127080000Y-85540000D03*
X122000000Y-85540000D03*
D12*
X125950000Y-60310000D03*
D13*
X123410000Y-60310000D03*
X120870000Y-60310000D03*
X118330000Y-60310000D03*
D14*
X120870000Y-62250000D03*
X120030000Y-62250000D03*
X123420000Y-62300000D03*
X122580000Y-62300000D03*
D15*
X92020000Y-123359375D03*
X97180000Y-122578125D03*
X92020000Y-121796875D03*
X97180000Y-121015625D03*
X92020000Y-120234375D03*
X97180000Y-119453125D03*
X92020000Y-118671875D03*
X97180000Y-117890625D03*
X92020000Y-117109375D03*
X97180000Y-116328125D03*
X92020000Y-115546875D03*
X97180000Y-114765625D03*
X92020000Y-113984375D03*
X97180000Y-113203125D03*
X92020000Y-112421875D03*
X97180000Y-111640625D03*
X92020000Y-110859375D03*
X97180000Y-110078125D03*
X92020000Y-109296875D03*
X97180000Y-108515625D03*
X92020000Y-107734375D03*
X97180000Y-106953125D03*
X92020000Y-106171875D03*
X97180000Y-105390625D03*
X92020000Y-104609375D03*
X97180000Y-103828125D03*
X92020000Y-103046875D03*
X97180000Y-102265625D03*
X92020000Y-101484375D03*
X97180000Y-100703125D03*
X92020000Y-99921875D03*
X97180000Y-99140625D03*
X92020000Y-98359375D03*
X97180000Y-97578125D03*
X92020000Y-96796875D03*
X97180000Y-96015625D03*
X92020000Y-95234375D03*
X97180000Y-94453125D03*
X92020000Y-93671875D03*
X97180000Y-92890625D03*
X92020000Y-92109375D03*
X97180000Y-91328125D03*
X92020000Y-90546875D03*
X97180000Y-89765625D03*
X92020000Y-88984375D03*
X97180000Y-88203125D03*
X92020000Y-87421875D03*
X97180000Y-86640625D03*
D16*
X102820000Y-105000000D03*
D17*
X79485100Y-80000000D03*
X114902500Y-120000000D03*
X79485100Y-120000000D03*
X114902500Y-80000000D03*
M02*
