%FSLAX45Y45*%
G04 Gerber Fmt 4.5, Leading zero omitted, Abs format (unit mm)*
G04 Created by KiCad (PCBNEW 4.0.7) date Fri Jul 20 21:21:12 2018*
%MOMM*%
%LPD*%
G01*
G04 APERTURE LIST*
%ADD10C,0.127000*%
%ADD11C,0.150000*%
%ADD12C,0.200000*%
%ADD13C,0.300000*%
G04 APERTURE END LIST*
D10*
D11*
X14100000Y-12800000D02*
G75*
G03X14900000Y-12000000I0J800000D01*
G01*
X7100000Y-12000000D02*
G75*
G03X7900000Y-12800000I800000J0D01*
G01*
X7900000Y-5600000D02*
G75*
G03X7100000Y-6400000I0J-800000D01*
G01*
X14900000Y-6400000D02*
G75*
G03X14100000Y-5600000I-800000J0D01*
G01*
X7100000Y-12000000D02*
X7100000Y-6400000D01*
X14100000Y-12800000D02*
X7900000Y-12800000D01*
X14900000Y-6400000D02*
X14900000Y-12000000D01*
X7900000Y-5600000D02*
X14100000Y-5600000D01*
D12*
X7453490Y-6813490D02*
X7486510Y-6846510D01*
X7486510Y-6813490D02*
X7453490Y-6846510D01*
X7868490Y-8998490D02*
X7901510Y-9031510D01*
X7901510Y-8998490D02*
X7868490Y-9031510D01*
X8983490Y-9193490D02*
X9016510Y-9226510D01*
X9016510Y-9193490D02*
X8983490Y-9226510D01*
X8983490Y-9823490D02*
X9016510Y-9856510D01*
X9016510Y-9823490D02*
X8983490Y-9856510D01*
X8983490Y-10443490D02*
X9016510Y-10476510D01*
X9016510Y-10443490D02*
X8983490Y-10476510D01*
X8983490Y-11063490D02*
X9016510Y-11096510D01*
X9016510Y-11063490D02*
X8983490Y-11096510D01*
X8983490Y-11693490D02*
X9016510Y-11726510D01*
X9016510Y-11693490D02*
X8983490Y-11726510D01*
X8983490Y-12323490D02*
X9016510Y-12356510D01*
X9016510Y-12323490D02*
X8983490Y-12356510D01*
X9083490Y-9033490D02*
X9116510Y-9066510D01*
X9116510Y-9033490D02*
X9083490Y-9066510D01*
X9083490Y-9663490D02*
X9116510Y-9696510D01*
X9116510Y-9663490D02*
X9083490Y-9696510D01*
X9083490Y-10283490D02*
X9116510Y-10316510D01*
X9116510Y-10283490D02*
X9083490Y-10316510D01*
X9083490Y-10913490D02*
X9116510Y-10946510D01*
X9116510Y-10913490D02*
X9083490Y-10946510D01*
X9083490Y-11533490D02*
X9116510Y-11566510D01*
X9116510Y-11533490D02*
X9083490Y-11566510D01*
X9083490Y-12163490D02*
X9116510Y-12196510D01*
X9116510Y-12163490D02*
X9083490Y-12196510D01*
X9183490Y-8883490D02*
X9216510Y-8916510D01*
X9216510Y-8883490D02*
X9183490Y-8916510D01*
X9183490Y-9503490D02*
X9216510Y-9536510D01*
X9216510Y-9503490D02*
X9183490Y-9536510D01*
X9183490Y-10133490D02*
X9216510Y-10166510D01*
X9216510Y-10133490D02*
X9183490Y-10166510D01*
X9183490Y-10753490D02*
X9216510Y-10786510D01*
X9216510Y-10753490D02*
X9183490Y-10786510D01*
X9183490Y-11383490D02*
X9216510Y-11416510D01*
X9216510Y-11383490D02*
X9183490Y-11416510D01*
X9183490Y-12013490D02*
X9216510Y-12046510D01*
X9216510Y-12013490D02*
X9183490Y-12046510D01*
X9191968Y-8212156D02*
X9224988Y-8245176D01*
X9224988Y-8212156D02*
X9191968Y-8245176D01*
X9228490Y-6583490D02*
X9261510Y-6616510D01*
X9261510Y-6583490D02*
X9228490Y-6616510D01*
X9248634Y-7405038D02*
X9281654Y-7438058D01*
X9281654Y-7405038D02*
X9248634Y-7438058D01*
X9260490Y-7610490D02*
X9293510Y-7643510D01*
X9293510Y-7610490D02*
X9260490Y-7643510D01*
X9283490Y-8723490D02*
X9316510Y-8756510D01*
X9316510Y-8723490D02*
X9283490Y-8756510D01*
X9283490Y-9353490D02*
X9316510Y-9386510D01*
X9316510Y-9353490D02*
X9283490Y-9386510D01*
X9283490Y-9973490D02*
X9316510Y-10006510D01*
X9316510Y-9973490D02*
X9283490Y-10006510D01*
X9283490Y-10603490D02*
X9316510Y-10636510D01*
X9316510Y-10603490D02*
X9283490Y-10636510D01*
X9283490Y-11223490D02*
X9316510Y-11256510D01*
X9316510Y-11223490D02*
X9283490Y-11256510D01*
X9283490Y-11853490D02*
X9316510Y-11886510D01*
X9316510Y-11853490D02*
X9283490Y-11886510D01*
X9354490Y-6935490D02*
X9387510Y-6968510D01*
X9387510Y-6935490D02*
X9354490Y-6968510D01*
X9509811Y-7306374D02*
X9542831Y-7339394D01*
X9542831Y-7306374D02*
X9509811Y-7339394D01*
X9583490Y-9113490D02*
X9616510Y-9146510D01*
X9616510Y-9113490D02*
X9583490Y-9146510D01*
X9583490Y-9738490D02*
X9616510Y-9771510D01*
X9616510Y-9738490D02*
X9583490Y-9771510D01*
X9583490Y-10363490D02*
X9616510Y-10396510D01*
X9616510Y-10363490D02*
X9583490Y-10396510D01*
X9583490Y-10988490D02*
X9616510Y-11021510D01*
X9616510Y-10988490D02*
X9583490Y-11021510D01*
X9583490Y-11613490D02*
X9616510Y-11646510D01*
X9616510Y-11613490D02*
X9583490Y-11646510D01*
X9583490Y-12243490D02*
X9616510Y-12276510D01*
X9616510Y-12243490D02*
X9583490Y-12276510D01*
X9590113Y-7330407D02*
X9623133Y-7363427D01*
X9623133Y-7330407D02*
X9590113Y-7363427D01*
X9628490Y-7673490D02*
X9661510Y-7706510D01*
X9661510Y-7673490D02*
X9628490Y-7706510D01*
X9683490Y-8958490D02*
X9716510Y-8991510D01*
X9716510Y-8958490D02*
X9683490Y-8991510D01*
X9683490Y-9583490D02*
X9716510Y-9616510D01*
X9716510Y-9583490D02*
X9683490Y-9616510D01*
X9683490Y-10208490D02*
X9716510Y-10241510D01*
X9716510Y-10208490D02*
X9683490Y-10241510D01*
X9683490Y-10833490D02*
X9716510Y-10866510D01*
X9716510Y-10833490D02*
X9683490Y-10866510D01*
X9683490Y-11463490D02*
X9716510Y-11496510D01*
X9716510Y-11463490D02*
X9683490Y-11496510D01*
X9683490Y-12083490D02*
X9716510Y-12116510D01*
X9716510Y-12083490D02*
X9683490Y-12116510D01*
X9702690Y-7622960D02*
X9735710Y-7655980D01*
X9735710Y-7622960D02*
X9702690Y-7655980D01*
X9731490Y-6952490D02*
X9764510Y-6985510D01*
X9764510Y-6952490D02*
X9731490Y-6985510D01*
X9788249Y-8808490D02*
X9821269Y-8841510D01*
X9821269Y-8808490D02*
X9788249Y-8841510D01*
X9788249Y-9428490D02*
X9821269Y-9461510D01*
X9821269Y-9428490D02*
X9788249Y-9461510D01*
X9788249Y-10053490D02*
X9821269Y-10086510D01*
X9821269Y-10053490D02*
X9788249Y-10086510D01*
X9788249Y-10678490D02*
X9821269Y-10711510D01*
X9821269Y-10678490D02*
X9788249Y-10711510D01*
X9788249Y-11303490D02*
X9821269Y-11336510D01*
X9821269Y-11303490D02*
X9788249Y-11336510D01*
X9788249Y-11933490D02*
X9821269Y-11966510D01*
X9821269Y-11933490D02*
X9788249Y-11966510D01*
X9883490Y-8643490D02*
X9916510Y-8676510D01*
X9916510Y-8643490D02*
X9883490Y-8676510D01*
X9883490Y-9273490D02*
X9916510Y-9306510D01*
X9916510Y-9273490D02*
X9883490Y-9306510D01*
X9883490Y-9893490D02*
X9916510Y-9926510D01*
X9916510Y-9893490D02*
X9883490Y-9926510D01*
X9883490Y-10518490D02*
X9916510Y-10551510D01*
X9916510Y-10518490D02*
X9883490Y-10551510D01*
X9883490Y-11148490D02*
X9916510Y-11181510D01*
X9916510Y-11148490D02*
X9883490Y-11181510D01*
X9883490Y-11773490D02*
X9916510Y-11806510D01*
X9916510Y-11773490D02*
X9883490Y-11806510D01*
X9896490Y-7798490D02*
X9929510Y-7831510D01*
X9929510Y-7798490D02*
X9896490Y-7831510D01*
X9983490Y-7375490D02*
X10016510Y-7408510D01*
X10016510Y-7375490D02*
X9983490Y-7408510D01*
X10152342Y-7867918D02*
X10185362Y-7900938D01*
X10185362Y-7867918D02*
X10152342Y-7900938D01*
X10154490Y-6329490D02*
X10187510Y-6362510D01*
X10187510Y-6329490D02*
X10154490Y-6362510D01*
X10288490Y-8948490D02*
X10321510Y-8981510D01*
X10321510Y-8948490D02*
X10288490Y-8981510D01*
X10288490Y-10083490D02*
X10321510Y-10116510D01*
X10321510Y-10083490D02*
X10288490Y-10116510D01*
X10288490Y-10083490D02*
X10321510Y-10116510D01*
X10321510Y-10083490D02*
X10288490Y-10116510D01*
X10288490Y-11283490D02*
X10321510Y-11316510D01*
X10321510Y-11283490D02*
X10288490Y-11316510D01*
X10288490Y-12378490D02*
X10321510Y-12411510D01*
X10321510Y-12378490D02*
X10288490Y-12411510D01*
X10299490Y-7605490D02*
X10332510Y-7638510D01*
X10332510Y-7605490D02*
X10299490Y-7638510D01*
X10323120Y-6804120D02*
X10356140Y-6837140D01*
X10356140Y-6804120D02*
X10323120Y-6837140D01*
X10329490Y-7398490D02*
X10362510Y-7431510D01*
X10362510Y-7398490D02*
X10329490Y-7431510D01*
X10508490Y-7243490D02*
X10541510Y-7276510D01*
X10541510Y-7243490D02*
X10508490Y-7276510D01*
X10915990Y-7355990D02*
X10949010Y-7389010D01*
X10949010Y-7355990D02*
X10915990Y-7389010D01*
X10950490Y-6324490D02*
X10983510Y-6357510D01*
X10983510Y-6324490D02*
X10950490Y-6357510D01*
X11183490Y-6488490D02*
X11216510Y-6521510D01*
X11216510Y-6488490D02*
X11183490Y-6521510D01*
X11371490Y-5884250D02*
X11404510Y-5917270D01*
X11404510Y-5884250D02*
X11371490Y-5917270D01*
X11483490Y-11078490D02*
X11516510Y-11111510D01*
X11516510Y-11078490D02*
X11483490Y-11111510D01*
X11744490Y-10443490D02*
X11777510Y-10476510D01*
X11777510Y-10443490D02*
X11744490Y-10476510D01*
X11916490Y-10529490D02*
X11949510Y-10562510D01*
X11949510Y-10529490D02*
X11916490Y-10562510D01*
X12323490Y-9460490D02*
X12356510Y-9493510D01*
X12356510Y-9460490D02*
X12323490Y-9493510D01*
X12391529Y-10333959D02*
X12424549Y-10366979D01*
X12424549Y-10333959D02*
X12391529Y-10366979D01*
X12589490Y-8629490D02*
X12622510Y-8662510D01*
X12622510Y-8629490D02*
X12589490Y-8662510D01*
X12644490Y-9819490D02*
X12677510Y-9852510D01*
X12677510Y-9819490D02*
X12644490Y-9852510D01*
X12816730Y-8420490D02*
X12849750Y-8453510D01*
X12849750Y-8420490D02*
X12816730Y-8453510D01*
X12990990Y-6495990D02*
X13024010Y-6529010D01*
X13024010Y-6495990D02*
X12990990Y-6529010D01*
X13014490Y-10133490D02*
X13047510Y-10166510D01*
X13047510Y-10133490D02*
X13014490Y-10166510D01*
X13021490Y-8302490D02*
X13054510Y-8335510D01*
X13054510Y-8302490D02*
X13021490Y-8335510D01*
X13030490Y-9826490D02*
X13063510Y-9859510D01*
X13063510Y-9826490D02*
X13030490Y-9859510D01*
X13056490Y-8804490D02*
X13089510Y-8837510D01*
X13089510Y-8804490D02*
X13056490Y-8837510D01*
X13066490Y-8955490D02*
X13099510Y-8988510D01*
X13099510Y-8955490D02*
X13066490Y-8988510D01*
X13088490Y-10620490D02*
X13121510Y-10653510D01*
X13121510Y-10620490D02*
X13088490Y-10653510D01*
X13191921Y-9452811D02*
X13224941Y-9485831D01*
X13224941Y-9452811D02*
X13191921Y-9485831D01*
X13231490Y-9226490D02*
X13264510Y-9259510D01*
X13264510Y-9226490D02*
X13231490Y-9259510D01*
X13279490Y-9519490D02*
X13312510Y-9552510D01*
X13312510Y-9519490D02*
X13279490Y-9552510D01*
X13293490Y-6218490D02*
X13326510Y-6251510D01*
X13326510Y-6218490D02*
X13293490Y-6251510D01*
X13355490Y-9296490D02*
X13388510Y-9329510D01*
X13388510Y-9296490D02*
X13355490Y-9329510D01*
X13382490Y-7762490D02*
X13415510Y-7795510D01*
X13415510Y-7762490D02*
X13382490Y-7795510D01*
X13403490Y-7558490D02*
X13436510Y-7591510D01*
X13436510Y-7558490D02*
X13403490Y-7591510D01*
X13548490Y-9165490D02*
X13581510Y-9198510D01*
X13581510Y-9165490D02*
X13548490Y-9198510D01*
X13708490Y-6253490D02*
X13741510Y-6286510D01*
X13741510Y-6253490D02*
X13708490Y-6286510D01*
X13802490Y-9164490D02*
X13835510Y-9197510D01*
X13835510Y-9164490D02*
X13802490Y-9197510D01*
X13903490Y-7957490D02*
X13936510Y-7990510D01*
X13936510Y-7957490D02*
X13903490Y-7990510D01*
X14011490Y-6711490D02*
X14044510Y-6744510D01*
X14044510Y-6711490D02*
X14011490Y-6744510D01*
X12225000Y-8554000D02*
G75*
G03X12225000Y-8554000I-25000J0D01*
G01*
X12479000Y-8808000D02*
G75*
G03X12479000Y-8808000I-25000J0D01*
G01*
X12733000Y-8554000D02*
G75*
G03X12733000Y-8554000I-25000J0D01*
G01*
X11833000Y-5981000D02*
X11833000Y-6081000D01*
X11783000Y-6031000D02*
X11883000Y-6031000D01*
X12087000Y-5981000D02*
X12087000Y-6081000D01*
X12037000Y-6031000D02*
X12137000Y-6031000D01*
X12341000Y-5981000D02*
X12341000Y-6081000D01*
X12291000Y-6031000D02*
X12391000Y-6031000D01*
X12595000Y-5981000D02*
X12595000Y-6081000D01*
X12545000Y-6031000D02*
X12645000Y-6031000D01*
X8060764Y-8112254D02*
X8060764Y-7887746D01*
X7836256Y-7887746D01*
X7836256Y-8112254D01*
X8060764Y-8112254D01*
X8060764Y-12112254D02*
X8060764Y-11887746D01*
X7836256Y-11887746D01*
X7836256Y-12112254D01*
X8060764Y-12112254D01*
X11602504Y-8112254D02*
X11602504Y-7887746D01*
X11377996Y-7887746D01*
X11377996Y-8112254D01*
X11602504Y-8112254D01*
X11602504Y-12112254D02*
X11602504Y-11887746D01*
X11377996Y-11887746D01*
X11377996Y-12112254D01*
X11602504Y-12112254D01*
D13*
X7363928Y-13273214D02*
X7363928Y-12973214D01*
X7435357Y-12973214D01*
X7478214Y-12987500D01*
X7506786Y-13016071D01*
X7521071Y-13044643D01*
X7535357Y-13101786D01*
X7535357Y-13144643D01*
X7521071Y-13201786D01*
X7506786Y-13230357D01*
X7478214Y-13258929D01*
X7435357Y-13273214D01*
X7363928Y-13273214D01*
X7663928Y-13273214D02*
X7663928Y-13073214D01*
X7663928Y-13130357D02*
X7678214Y-13101786D01*
X7692500Y-13087500D01*
X7721071Y-13073214D01*
X7749643Y-13073214D01*
X7849643Y-13273214D02*
X7849643Y-13073214D01*
X7849643Y-12973214D02*
X7835357Y-12987500D01*
X7849643Y-13001786D01*
X7863928Y-12987500D01*
X7849643Y-12973214D01*
X7849643Y-13001786D01*
X8035357Y-13273214D02*
X8006786Y-13258929D01*
X7992500Y-13230357D01*
X7992500Y-12973214D01*
X8192500Y-13273214D02*
X8163928Y-13258929D01*
X8149643Y-13230357D01*
X8149643Y-12973214D01*
X8535357Y-13273214D02*
X8535357Y-12973214D01*
X8635357Y-13187500D01*
X8735357Y-12973214D01*
X8735357Y-13273214D01*
X9006786Y-13273214D02*
X9006786Y-13116071D01*
X8992500Y-13087500D01*
X8963929Y-13073214D01*
X8906786Y-13073214D01*
X8878214Y-13087500D01*
X9006786Y-13258929D02*
X8978214Y-13273214D01*
X8906786Y-13273214D01*
X8878214Y-13258929D01*
X8863929Y-13230357D01*
X8863929Y-13201786D01*
X8878214Y-13173214D01*
X8906786Y-13158929D01*
X8978214Y-13158929D01*
X9006786Y-13144643D01*
X9149643Y-13073214D02*
X9149643Y-13373214D01*
X9149643Y-13087500D02*
X9178214Y-13073214D01*
X9235357Y-13073214D01*
X9263929Y-13087500D01*
X9278214Y-13101786D01*
X9292500Y-13130357D01*
X9292500Y-13216071D01*
X9278214Y-13244643D01*
X9263929Y-13258929D01*
X9235357Y-13273214D01*
X9178214Y-13273214D01*
X9149643Y-13258929D01*
X9421071Y-13244643D02*
X9435357Y-13258929D01*
X9421071Y-13273214D01*
X9406786Y-13258929D01*
X9421071Y-13244643D01*
X9421071Y-13273214D01*
X9421071Y-13087500D02*
X9435357Y-13101786D01*
X9421071Y-13116071D01*
X9406786Y-13101786D01*
X9421071Y-13087500D01*
X9421071Y-13116071D01*
X7059480Y-13750990D02*
X7092500Y-13784010D01*
X7092500Y-13750990D02*
X7059480Y-13784010D01*
X7421071Y-13603214D02*
X7449643Y-13603214D01*
X7478214Y-13617500D01*
X7492500Y-13631786D01*
X7506786Y-13660357D01*
X7521071Y-13717500D01*
X7521071Y-13788929D01*
X7506786Y-13846071D01*
X7492500Y-13874643D01*
X7478214Y-13888929D01*
X7449643Y-13903214D01*
X7421071Y-13903214D01*
X7392500Y-13888929D01*
X7378214Y-13874643D01*
X7363928Y-13846071D01*
X7349643Y-13788929D01*
X7349643Y-13717500D01*
X7363928Y-13660357D01*
X7378214Y-13631786D01*
X7392500Y-13617500D01*
X7421071Y-13603214D01*
X7649643Y-13874643D02*
X7663928Y-13888929D01*
X7649643Y-13903214D01*
X7635357Y-13888929D01*
X7649643Y-13874643D01*
X7649643Y-13903214D01*
X7763928Y-13603214D02*
X7949643Y-13603214D01*
X7849643Y-13717500D01*
X7892500Y-13717500D01*
X7921071Y-13731786D01*
X7935357Y-13746071D01*
X7949643Y-13774643D01*
X7949643Y-13846071D01*
X7935357Y-13874643D01*
X7921071Y-13888929D01*
X7892500Y-13903214D01*
X7806786Y-13903214D01*
X7778214Y-13888929D01*
X7763928Y-13874643D01*
X8049643Y-13603214D02*
X8235357Y-13603214D01*
X8135357Y-13717500D01*
X8178214Y-13717500D01*
X8206786Y-13731786D01*
X8221071Y-13746071D01*
X8235357Y-13774643D01*
X8235357Y-13846071D01*
X8221071Y-13874643D01*
X8206786Y-13888929D01*
X8178214Y-13903214D01*
X8092500Y-13903214D01*
X8063928Y-13888929D01*
X8049643Y-13874643D01*
X8363928Y-13903214D02*
X8363928Y-13703214D01*
X8363928Y-13731786D02*
X8378214Y-13717500D01*
X8406786Y-13703214D01*
X8449643Y-13703214D01*
X8478214Y-13717500D01*
X8492500Y-13746071D01*
X8492500Y-13903214D01*
X8492500Y-13746071D02*
X8506786Y-13717500D01*
X8535357Y-13703214D01*
X8578214Y-13703214D01*
X8606786Y-13717500D01*
X8621071Y-13746071D01*
X8621071Y-13903214D01*
X8763929Y-13903214D02*
X8763929Y-13703214D01*
X8763929Y-13731786D02*
X8778214Y-13717500D01*
X8806786Y-13703214D01*
X8849643Y-13703214D01*
X8878214Y-13717500D01*
X8892500Y-13746071D01*
X8892500Y-13903214D01*
X8892500Y-13746071D02*
X8906786Y-13717500D01*
X8935357Y-13703214D01*
X8978214Y-13703214D01*
X9006786Y-13717500D01*
X9021071Y-13746071D01*
X9021071Y-13903214D01*
X9606786Y-13588929D02*
X9349643Y-13974643D01*
X9992500Y-13603214D02*
X10021071Y-13603214D01*
X10049643Y-13617500D01*
X10063928Y-13631786D01*
X10078214Y-13660357D01*
X10092500Y-13717500D01*
X10092500Y-13788929D01*
X10078214Y-13846071D01*
X10063928Y-13874643D01*
X10049643Y-13888929D01*
X10021071Y-13903214D01*
X9992500Y-13903214D01*
X9963928Y-13888929D01*
X9949643Y-13874643D01*
X9935357Y-13846071D01*
X9921071Y-13788929D01*
X9921071Y-13717500D01*
X9935357Y-13660357D01*
X9949643Y-13631786D01*
X9963928Y-13617500D01*
X9992500Y-13603214D01*
X10221071Y-13874643D02*
X10235357Y-13888929D01*
X10221071Y-13903214D01*
X10206786Y-13888929D01*
X10221071Y-13874643D01*
X10221071Y-13903214D01*
X10421071Y-13603214D02*
X10449643Y-13603214D01*
X10478214Y-13617500D01*
X10492500Y-13631786D01*
X10506786Y-13660357D01*
X10521071Y-13717500D01*
X10521071Y-13788929D01*
X10506786Y-13846071D01*
X10492500Y-13874643D01*
X10478214Y-13888929D01*
X10449643Y-13903214D01*
X10421071Y-13903214D01*
X10392500Y-13888929D01*
X10378214Y-13874643D01*
X10363928Y-13846071D01*
X10349643Y-13788929D01*
X10349643Y-13717500D01*
X10363928Y-13660357D01*
X10378214Y-13631786D01*
X10392500Y-13617500D01*
X10421071Y-13603214D01*
X10806786Y-13903214D02*
X10635357Y-13903214D01*
X10721071Y-13903214D02*
X10721071Y-13603214D01*
X10692500Y-13646071D01*
X10663928Y-13674643D01*
X10635357Y-13688929D01*
X10906786Y-13603214D02*
X11092500Y-13603214D01*
X10992500Y-13717500D01*
X11035357Y-13717500D01*
X11063928Y-13731786D01*
X11078214Y-13746071D01*
X11092500Y-13774643D01*
X11092500Y-13846071D01*
X11078214Y-13874643D01*
X11063928Y-13888929D01*
X11035357Y-13903214D01*
X10949643Y-13903214D01*
X10921071Y-13888929D01*
X10906786Y-13874643D01*
X11206786Y-13603214D02*
X11206786Y-13660357D01*
X11321071Y-13603214D02*
X11321071Y-13660357D01*
X11763928Y-14017500D02*
X11749643Y-14003214D01*
X11721071Y-13960357D01*
X11706785Y-13931786D01*
X11692500Y-13888929D01*
X11678214Y-13817500D01*
X11678214Y-13760357D01*
X11692500Y-13688929D01*
X11706785Y-13646071D01*
X11721071Y-13617500D01*
X11749643Y-13574643D01*
X11763928Y-13560357D01*
X12035357Y-13903214D02*
X11863928Y-13903214D01*
X11949643Y-13903214D02*
X11949643Y-13603214D01*
X11921071Y-13646071D01*
X11892500Y-13674643D01*
X11863928Y-13688929D01*
X12221071Y-13603214D02*
X12249643Y-13603214D01*
X12278214Y-13617500D01*
X12292500Y-13631786D01*
X12306785Y-13660357D01*
X12321071Y-13717500D01*
X12321071Y-13788929D01*
X12306785Y-13846071D01*
X12292500Y-13874643D01*
X12278214Y-13888929D01*
X12249643Y-13903214D01*
X12221071Y-13903214D01*
X12192500Y-13888929D01*
X12178214Y-13874643D01*
X12163928Y-13846071D01*
X12149643Y-13788929D01*
X12149643Y-13717500D01*
X12163928Y-13660357D01*
X12178214Y-13631786D01*
X12192500Y-13617500D01*
X12221071Y-13603214D01*
X12578214Y-13703214D02*
X12578214Y-13903214D01*
X12506785Y-13588929D02*
X12435357Y-13803214D01*
X12621071Y-13803214D01*
X12963928Y-13903214D02*
X12963928Y-13603214D01*
X13092500Y-13903214D02*
X13092500Y-13746071D01*
X13078214Y-13717500D01*
X13049643Y-13703214D01*
X13006785Y-13703214D01*
X12978214Y-13717500D01*
X12963928Y-13731786D01*
X13278214Y-13903214D02*
X13249643Y-13888929D01*
X13235357Y-13874643D01*
X13221071Y-13846071D01*
X13221071Y-13760357D01*
X13235357Y-13731786D01*
X13249643Y-13717500D01*
X13278214Y-13703214D01*
X13321071Y-13703214D01*
X13349643Y-13717500D01*
X13363928Y-13731786D01*
X13378214Y-13760357D01*
X13378214Y-13846071D01*
X13363928Y-13874643D01*
X13349643Y-13888929D01*
X13321071Y-13903214D01*
X13278214Y-13903214D01*
X13549643Y-13903214D02*
X13521071Y-13888929D01*
X13506786Y-13860357D01*
X13506786Y-13603214D01*
X13778214Y-13888929D02*
X13749643Y-13903214D01*
X13692500Y-13903214D01*
X13663928Y-13888929D01*
X13649643Y-13860357D01*
X13649643Y-13746071D01*
X13663928Y-13717500D01*
X13692500Y-13703214D01*
X13749643Y-13703214D01*
X13778214Y-13717500D01*
X13792500Y-13746071D01*
X13792500Y-13774643D01*
X13649643Y-13803214D01*
X13906786Y-13888929D02*
X13935357Y-13903214D01*
X13992500Y-13903214D01*
X14021071Y-13888929D01*
X14035357Y-13860357D01*
X14035357Y-13846071D01*
X14021071Y-13817500D01*
X13992500Y-13803214D01*
X13949643Y-13803214D01*
X13921071Y-13788929D01*
X13906786Y-13760357D01*
X13906786Y-13746071D01*
X13921071Y-13717500D01*
X13949643Y-13703214D01*
X13992500Y-13703214D01*
X14021071Y-13717500D01*
X14135357Y-14017500D02*
X14149643Y-14003214D01*
X14178214Y-13960357D01*
X14192500Y-13931786D01*
X14206786Y-13888929D01*
X14221071Y-13817500D01*
X14221071Y-13760357D01*
X14206786Y-13688929D01*
X14192500Y-13646071D01*
X14178214Y-13617500D01*
X14149643Y-13574643D01*
X14135357Y-13560357D01*
X7092500Y-14163500D02*
G75*
G03X7092500Y-14163500I-25000J0D01*
G01*
X7421071Y-13999214D02*
X7449643Y-13999214D01*
X7478214Y-14013500D01*
X7492500Y-14027786D01*
X7506786Y-14056357D01*
X7521071Y-14113500D01*
X7521071Y-14184929D01*
X7506786Y-14242071D01*
X7492500Y-14270643D01*
X7478214Y-14284929D01*
X7449643Y-14299214D01*
X7421071Y-14299214D01*
X7392500Y-14284929D01*
X7378214Y-14270643D01*
X7363928Y-14242071D01*
X7349643Y-14184929D01*
X7349643Y-14113500D01*
X7363928Y-14056357D01*
X7378214Y-14027786D01*
X7392500Y-14013500D01*
X7421071Y-13999214D01*
X7649643Y-14270643D02*
X7663928Y-14284929D01*
X7649643Y-14299214D01*
X7635357Y-14284929D01*
X7649643Y-14270643D01*
X7649643Y-14299214D01*
X7935357Y-13999214D02*
X7792500Y-13999214D01*
X7778214Y-14142071D01*
X7792500Y-14127786D01*
X7821071Y-14113500D01*
X7892500Y-14113500D01*
X7921071Y-14127786D01*
X7935357Y-14142071D01*
X7949643Y-14170643D01*
X7949643Y-14242071D01*
X7935357Y-14270643D01*
X7921071Y-14284929D01*
X7892500Y-14299214D01*
X7821071Y-14299214D01*
X7792500Y-14284929D01*
X7778214Y-14270643D01*
X8135357Y-13999214D02*
X8163928Y-13999214D01*
X8192500Y-14013500D01*
X8206786Y-14027786D01*
X8221071Y-14056357D01*
X8235357Y-14113500D01*
X8235357Y-14184929D01*
X8221071Y-14242071D01*
X8206786Y-14270643D01*
X8192500Y-14284929D01*
X8163928Y-14299214D01*
X8135357Y-14299214D01*
X8106786Y-14284929D01*
X8092500Y-14270643D01*
X8078214Y-14242071D01*
X8063928Y-14184929D01*
X8063928Y-14113500D01*
X8078214Y-14056357D01*
X8092500Y-14027786D01*
X8106786Y-14013500D01*
X8135357Y-13999214D01*
X8363928Y-14299214D02*
X8363928Y-14099214D01*
X8363928Y-14127786D02*
X8378214Y-14113500D01*
X8406786Y-14099214D01*
X8449643Y-14099214D01*
X8478214Y-14113500D01*
X8492500Y-14142071D01*
X8492500Y-14299214D01*
X8492500Y-14142071D02*
X8506786Y-14113500D01*
X8535357Y-14099214D01*
X8578214Y-14099214D01*
X8606786Y-14113500D01*
X8621071Y-14142071D01*
X8621071Y-14299214D01*
X8763929Y-14299214D02*
X8763929Y-14099214D01*
X8763929Y-14127786D02*
X8778214Y-14113500D01*
X8806786Y-14099214D01*
X8849643Y-14099214D01*
X8878214Y-14113500D01*
X8892500Y-14142071D01*
X8892500Y-14299214D01*
X8892500Y-14142071D02*
X8906786Y-14113500D01*
X8935357Y-14099214D01*
X8978214Y-14099214D01*
X9006786Y-14113500D01*
X9021071Y-14142071D01*
X9021071Y-14299214D01*
X9606786Y-13984929D02*
X9349643Y-14370643D01*
X9992500Y-13999214D02*
X10021071Y-13999214D01*
X10049643Y-14013500D01*
X10063928Y-14027786D01*
X10078214Y-14056357D01*
X10092500Y-14113500D01*
X10092500Y-14184929D01*
X10078214Y-14242071D01*
X10063928Y-14270643D01*
X10049643Y-14284929D01*
X10021071Y-14299214D01*
X9992500Y-14299214D01*
X9963928Y-14284929D01*
X9949643Y-14270643D01*
X9935357Y-14242071D01*
X9921071Y-14184929D01*
X9921071Y-14113500D01*
X9935357Y-14056357D01*
X9949643Y-14027786D01*
X9963928Y-14013500D01*
X9992500Y-13999214D01*
X10221071Y-14270643D02*
X10235357Y-14284929D01*
X10221071Y-14299214D01*
X10206786Y-14284929D01*
X10221071Y-14270643D01*
X10221071Y-14299214D01*
X10421071Y-13999214D02*
X10449643Y-13999214D01*
X10478214Y-14013500D01*
X10492500Y-14027786D01*
X10506786Y-14056357D01*
X10521071Y-14113500D01*
X10521071Y-14184929D01*
X10506786Y-14242071D01*
X10492500Y-14270643D01*
X10478214Y-14284929D01*
X10449643Y-14299214D01*
X10421071Y-14299214D01*
X10392500Y-14284929D01*
X10378214Y-14270643D01*
X10363928Y-14242071D01*
X10349643Y-14184929D01*
X10349643Y-14113500D01*
X10363928Y-14056357D01*
X10378214Y-14027786D01*
X10392500Y-14013500D01*
X10421071Y-13999214D01*
X10635357Y-14027786D02*
X10649643Y-14013500D01*
X10678214Y-13999214D01*
X10749643Y-13999214D01*
X10778214Y-14013500D01*
X10792500Y-14027786D01*
X10806786Y-14056357D01*
X10806786Y-14084929D01*
X10792500Y-14127786D01*
X10621071Y-14299214D01*
X10806786Y-14299214D01*
X10992500Y-13999214D02*
X11021071Y-13999214D01*
X11049643Y-14013500D01*
X11063928Y-14027786D01*
X11078214Y-14056357D01*
X11092500Y-14113500D01*
X11092500Y-14184929D01*
X11078214Y-14242071D01*
X11063928Y-14270643D01*
X11049643Y-14284929D01*
X11021071Y-14299214D01*
X10992500Y-14299214D01*
X10963928Y-14284929D01*
X10949643Y-14270643D01*
X10935357Y-14242071D01*
X10921071Y-14184929D01*
X10921071Y-14113500D01*
X10935357Y-14056357D01*
X10949643Y-14027786D01*
X10963928Y-14013500D01*
X10992500Y-13999214D01*
X11206786Y-13999214D02*
X11206786Y-14056357D01*
X11321071Y-13999214D02*
X11321071Y-14056357D01*
X11763928Y-14413500D02*
X11749643Y-14399214D01*
X11721071Y-14356357D01*
X11706785Y-14327786D01*
X11692500Y-14284929D01*
X11678214Y-14213500D01*
X11678214Y-14156357D01*
X11692500Y-14084929D01*
X11706785Y-14042071D01*
X11721071Y-14013500D01*
X11749643Y-13970643D01*
X11763928Y-13956357D01*
X11849643Y-13999214D02*
X12035357Y-13999214D01*
X11935357Y-14113500D01*
X11978214Y-14113500D01*
X12006785Y-14127786D01*
X12021071Y-14142071D01*
X12035357Y-14170643D01*
X12035357Y-14242071D01*
X12021071Y-14270643D01*
X12006785Y-14284929D01*
X11978214Y-14299214D01*
X11892500Y-14299214D01*
X11863928Y-14284929D01*
X11849643Y-14270643D01*
X12392500Y-14299214D02*
X12392500Y-13999214D01*
X12521071Y-14299214D02*
X12521071Y-14142071D01*
X12506785Y-14113500D01*
X12478214Y-14099214D01*
X12435357Y-14099214D01*
X12406785Y-14113500D01*
X12392500Y-14127786D01*
X12706785Y-14299214D02*
X12678214Y-14284929D01*
X12663928Y-14270643D01*
X12649643Y-14242071D01*
X12649643Y-14156357D01*
X12663928Y-14127786D01*
X12678214Y-14113500D01*
X12706785Y-14099214D01*
X12749643Y-14099214D01*
X12778214Y-14113500D01*
X12792500Y-14127786D01*
X12806785Y-14156357D01*
X12806785Y-14242071D01*
X12792500Y-14270643D01*
X12778214Y-14284929D01*
X12749643Y-14299214D01*
X12706785Y-14299214D01*
X12978214Y-14299214D02*
X12949643Y-14284929D01*
X12935357Y-14256357D01*
X12935357Y-13999214D01*
X13206786Y-14284929D02*
X13178214Y-14299214D01*
X13121071Y-14299214D01*
X13092500Y-14284929D01*
X13078214Y-14256357D01*
X13078214Y-14142071D01*
X13092500Y-14113500D01*
X13121071Y-14099214D01*
X13178214Y-14099214D01*
X13206786Y-14113500D01*
X13221071Y-14142071D01*
X13221071Y-14170643D01*
X13078214Y-14199214D01*
X13335357Y-14284929D02*
X13363928Y-14299214D01*
X13421071Y-14299214D01*
X13449643Y-14284929D01*
X13463928Y-14256357D01*
X13463928Y-14242071D01*
X13449643Y-14213500D01*
X13421071Y-14199214D01*
X13378214Y-14199214D01*
X13349643Y-14184929D01*
X13335357Y-14156357D01*
X13335357Y-14142071D01*
X13349643Y-14113500D01*
X13378214Y-14099214D01*
X13421071Y-14099214D01*
X13449643Y-14113500D01*
X13563928Y-14413500D02*
X13578214Y-14399214D01*
X13606786Y-14356357D01*
X13621071Y-14327786D01*
X13635357Y-14284929D01*
X13649643Y-14213500D01*
X13649643Y-14156357D01*
X13635357Y-14084929D01*
X13621071Y-14042071D01*
X13606786Y-14013500D01*
X13578214Y-13970643D01*
X13563928Y-13956357D01*
X7042500Y-14509500D02*
X7042500Y-14609500D01*
X6992500Y-14559500D02*
X7092500Y-14559500D01*
X7521071Y-14695214D02*
X7349643Y-14695214D01*
X7435357Y-14695214D02*
X7435357Y-14395214D01*
X7406786Y-14438071D01*
X7378214Y-14466643D01*
X7349643Y-14480929D01*
X7649643Y-14666643D02*
X7663928Y-14680929D01*
X7649643Y-14695214D01*
X7635357Y-14680929D01*
X7649643Y-14666643D01*
X7649643Y-14695214D01*
X7849643Y-14395214D02*
X7878214Y-14395214D01*
X7906786Y-14409500D01*
X7921071Y-14423786D01*
X7935357Y-14452357D01*
X7949643Y-14509500D01*
X7949643Y-14580929D01*
X7935357Y-14638071D01*
X7921071Y-14666643D01*
X7906786Y-14680929D01*
X7878214Y-14695214D01*
X7849643Y-14695214D01*
X7821071Y-14680929D01*
X7806786Y-14666643D01*
X7792500Y-14638071D01*
X7778214Y-14580929D01*
X7778214Y-14509500D01*
X7792500Y-14452357D01*
X7806786Y-14423786D01*
X7821071Y-14409500D01*
X7849643Y-14395214D01*
X8135357Y-14395214D02*
X8163928Y-14395214D01*
X8192500Y-14409500D01*
X8206786Y-14423786D01*
X8221071Y-14452357D01*
X8235357Y-14509500D01*
X8235357Y-14580929D01*
X8221071Y-14638071D01*
X8206786Y-14666643D01*
X8192500Y-14680929D01*
X8163928Y-14695214D01*
X8135357Y-14695214D01*
X8106786Y-14680929D01*
X8092500Y-14666643D01*
X8078214Y-14638071D01*
X8063928Y-14580929D01*
X8063928Y-14509500D01*
X8078214Y-14452357D01*
X8092500Y-14423786D01*
X8106786Y-14409500D01*
X8135357Y-14395214D01*
X8363928Y-14695214D02*
X8363928Y-14495214D01*
X8363928Y-14523786D02*
X8378214Y-14509500D01*
X8406786Y-14495214D01*
X8449643Y-14495214D01*
X8478214Y-14509500D01*
X8492500Y-14538071D01*
X8492500Y-14695214D01*
X8492500Y-14538071D02*
X8506786Y-14509500D01*
X8535357Y-14495214D01*
X8578214Y-14495214D01*
X8606786Y-14509500D01*
X8621071Y-14538071D01*
X8621071Y-14695214D01*
X8763929Y-14695214D02*
X8763929Y-14495214D01*
X8763929Y-14523786D02*
X8778214Y-14509500D01*
X8806786Y-14495214D01*
X8849643Y-14495214D01*
X8878214Y-14509500D01*
X8892500Y-14538071D01*
X8892500Y-14695214D01*
X8892500Y-14538071D02*
X8906786Y-14509500D01*
X8935357Y-14495214D01*
X8978214Y-14495214D01*
X9006786Y-14509500D01*
X9021071Y-14538071D01*
X9021071Y-14695214D01*
X9606786Y-14380929D02*
X9349643Y-14766643D01*
X9992500Y-14395214D02*
X10021071Y-14395214D01*
X10049643Y-14409500D01*
X10063928Y-14423786D01*
X10078214Y-14452357D01*
X10092500Y-14509500D01*
X10092500Y-14580929D01*
X10078214Y-14638071D01*
X10063928Y-14666643D01*
X10049643Y-14680929D01*
X10021071Y-14695214D01*
X9992500Y-14695214D01*
X9963928Y-14680929D01*
X9949643Y-14666643D01*
X9935357Y-14638071D01*
X9921071Y-14580929D01*
X9921071Y-14509500D01*
X9935357Y-14452357D01*
X9949643Y-14423786D01*
X9963928Y-14409500D01*
X9992500Y-14395214D01*
X10221071Y-14666643D02*
X10235357Y-14680929D01*
X10221071Y-14695214D01*
X10206786Y-14680929D01*
X10221071Y-14666643D01*
X10221071Y-14695214D01*
X10421071Y-14395214D02*
X10449643Y-14395214D01*
X10478214Y-14409500D01*
X10492500Y-14423786D01*
X10506786Y-14452357D01*
X10521071Y-14509500D01*
X10521071Y-14580929D01*
X10506786Y-14638071D01*
X10492500Y-14666643D01*
X10478214Y-14680929D01*
X10449643Y-14695214D01*
X10421071Y-14695214D01*
X10392500Y-14680929D01*
X10378214Y-14666643D01*
X10363928Y-14638071D01*
X10349643Y-14580929D01*
X10349643Y-14509500D01*
X10363928Y-14452357D01*
X10378214Y-14423786D01*
X10392500Y-14409500D01*
X10421071Y-14395214D01*
X10621071Y-14395214D02*
X10806786Y-14395214D01*
X10706786Y-14509500D01*
X10749643Y-14509500D01*
X10778214Y-14523786D01*
X10792500Y-14538071D01*
X10806786Y-14566643D01*
X10806786Y-14638071D01*
X10792500Y-14666643D01*
X10778214Y-14680929D01*
X10749643Y-14695214D01*
X10663928Y-14695214D01*
X10635357Y-14680929D01*
X10621071Y-14666643D01*
X10949643Y-14695214D02*
X11006786Y-14695214D01*
X11035357Y-14680929D01*
X11049643Y-14666643D01*
X11078214Y-14623786D01*
X11092500Y-14566643D01*
X11092500Y-14452357D01*
X11078214Y-14423786D01*
X11063928Y-14409500D01*
X11035357Y-14395214D01*
X10978214Y-14395214D01*
X10949643Y-14409500D01*
X10935357Y-14423786D01*
X10921071Y-14452357D01*
X10921071Y-14523786D01*
X10935357Y-14552357D01*
X10949643Y-14566643D01*
X10978214Y-14580929D01*
X11035357Y-14580929D01*
X11063928Y-14566643D01*
X11078214Y-14552357D01*
X11092500Y-14523786D01*
X11206786Y-14395214D02*
X11206786Y-14452357D01*
X11321071Y-14395214D02*
X11321071Y-14452357D01*
X11763928Y-14809500D02*
X11749643Y-14795214D01*
X11721071Y-14752357D01*
X11706785Y-14723786D01*
X11692500Y-14680929D01*
X11678214Y-14609500D01*
X11678214Y-14552357D01*
X11692500Y-14480929D01*
X11706785Y-14438071D01*
X11721071Y-14409500D01*
X11749643Y-14366643D01*
X11763928Y-14352357D01*
X12006785Y-14495214D02*
X12006785Y-14695214D01*
X11935357Y-14380929D02*
X11863928Y-14595214D01*
X12049643Y-14595214D01*
X12392500Y-14695214D02*
X12392500Y-14395214D01*
X12521071Y-14695214D02*
X12521071Y-14538071D01*
X12506785Y-14509500D01*
X12478214Y-14495214D01*
X12435357Y-14495214D01*
X12406785Y-14509500D01*
X12392500Y-14523786D01*
X12706785Y-14695214D02*
X12678214Y-14680929D01*
X12663928Y-14666643D01*
X12649643Y-14638071D01*
X12649643Y-14552357D01*
X12663928Y-14523786D01*
X12678214Y-14509500D01*
X12706785Y-14495214D01*
X12749643Y-14495214D01*
X12778214Y-14509500D01*
X12792500Y-14523786D01*
X12806785Y-14552357D01*
X12806785Y-14638071D01*
X12792500Y-14666643D01*
X12778214Y-14680929D01*
X12749643Y-14695214D01*
X12706785Y-14695214D01*
X12978214Y-14695214D02*
X12949643Y-14680929D01*
X12935357Y-14652357D01*
X12935357Y-14395214D01*
X13206786Y-14680929D02*
X13178214Y-14695214D01*
X13121071Y-14695214D01*
X13092500Y-14680929D01*
X13078214Y-14652357D01*
X13078214Y-14538071D01*
X13092500Y-14509500D01*
X13121071Y-14495214D01*
X13178214Y-14495214D01*
X13206786Y-14509500D01*
X13221071Y-14538071D01*
X13221071Y-14566643D01*
X13078214Y-14595214D01*
X13335357Y-14680929D02*
X13363928Y-14695214D01*
X13421071Y-14695214D01*
X13449643Y-14680929D01*
X13463928Y-14652357D01*
X13463928Y-14638071D01*
X13449643Y-14609500D01*
X13421071Y-14595214D01*
X13378214Y-14595214D01*
X13349643Y-14580929D01*
X13335357Y-14552357D01*
X13335357Y-14538071D01*
X13349643Y-14509500D01*
X13378214Y-14495214D01*
X13421071Y-14495214D01*
X13449643Y-14509500D01*
X13563928Y-14809500D02*
X13578214Y-14795214D01*
X13606786Y-14752357D01*
X13621071Y-14723786D01*
X13635357Y-14680929D01*
X13649643Y-14609500D01*
X13649643Y-14552357D01*
X13635357Y-14480929D01*
X13621071Y-14438071D01*
X13606786Y-14409500D01*
X13578214Y-14366643D01*
X13563928Y-14352357D01*
X7046004Y-15067754D02*
X7046004Y-14843246D01*
X6821496Y-14843246D01*
X6821496Y-15067754D01*
X7046004Y-15067754D01*
X7335357Y-14791214D02*
X7521071Y-14791214D01*
X7421071Y-14905500D01*
X7463928Y-14905500D01*
X7492500Y-14919786D01*
X7506786Y-14934071D01*
X7521071Y-14962643D01*
X7521071Y-15034071D01*
X7506786Y-15062643D01*
X7492500Y-15076929D01*
X7463928Y-15091214D01*
X7378214Y-15091214D01*
X7349643Y-15076929D01*
X7335357Y-15062643D01*
X7649643Y-15062643D02*
X7663928Y-15076929D01*
X7649643Y-15091214D01*
X7635357Y-15076929D01*
X7649643Y-15062643D01*
X7649643Y-15091214D01*
X7949643Y-15091214D02*
X7778214Y-15091214D01*
X7863928Y-15091214D02*
X7863928Y-14791214D01*
X7835357Y-14834071D01*
X7806786Y-14862643D01*
X7778214Y-14876929D01*
X8049643Y-14791214D02*
X8249643Y-14791214D01*
X8121071Y-15091214D01*
X8363928Y-15091214D02*
X8363928Y-14891214D01*
X8363928Y-14919786D02*
X8378214Y-14905500D01*
X8406786Y-14891214D01*
X8449643Y-14891214D01*
X8478214Y-14905500D01*
X8492500Y-14934071D01*
X8492500Y-15091214D01*
X8492500Y-14934071D02*
X8506786Y-14905500D01*
X8535357Y-14891214D01*
X8578214Y-14891214D01*
X8606786Y-14905500D01*
X8621071Y-14934071D01*
X8621071Y-15091214D01*
X8763929Y-15091214D02*
X8763929Y-14891214D01*
X8763929Y-14919786D02*
X8778214Y-14905500D01*
X8806786Y-14891214D01*
X8849643Y-14891214D01*
X8878214Y-14905500D01*
X8892500Y-14934071D01*
X8892500Y-15091214D01*
X8892500Y-14934071D02*
X8906786Y-14905500D01*
X8935357Y-14891214D01*
X8978214Y-14891214D01*
X9006786Y-14905500D01*
X9021071Y-14934071D01*
X9021071Y-15091214D01*
X9606786Y-14776929D02*
X9349643Y-15162643D01*
X9992500Y-14791214D02*
X10021071Y-14791214D01*
X10049643Y-14805500D01*
X10063928Y-14819786D01*
X10078214Y-14848357D01*
X10092500Y-14905500D01*
X10092500Y-14976929D01*
X10078214Y-15034071D01*
X10063928Y-15062643D01*
X10049643Y-15076929D01*
X10021071Y-15091214D01*
X9992500Y-15091214D01*
X9963928Y-15076929D01*
X9949643Y-15062643D01*
X9935357Y-15034071D01*
X9921071Y-14976929D01*
X9921071Y-14905500D01*
X9935357Y-14848357D01*
X9949643Y-14819786D01*
X9963928Y-14805500D01*
X9992500Y-14791214D01*
X10221071Y-15062643D02*
X10235357Y-15076929D01*
X10221071Y-15091214D01*
X10206786Y-15076929D01*
X10221071Y-15062643D01*
X10221071Y-15091214D01*
X10521071Y-15091214D02*
X10349643Y-15091214D01*
X10435357Y-15091214D02*
X10435357Y-14791214D01*
X10406786Y-14834071D01*
X10378214Y-14862643D01*
X10349643Y-14876929D01*
X10635357Y-14819786D02*
X10649643Y-14805500D01*
X10678214Y-14791214D01*
X10749643Y-14791214D01*
X10778214Y-14805500D01*
X10792500Y-14819786D01*
X10806786Y-14848357D01*
X10806786Y-14876929D01*
X10792500Y-14919786D01*
X10621071Y-15091214D01*
X10806786Y-15091214D01*
X11078214Y-14791214D02*
X10935357Y-14791214D01*
X10921071Y-14934071D01*
X10935357Y-14919786D01*
X10963928Y-14905500D01*
X11035357Y-14905500D01*
X11063928Y-14919786D01*
X11078214Y-14934071D01*
X11092500Y-14962643D01*
X11092500Y-15034071D01*
X11078214Y-15062643D01*
X11063928Y-15076929D01*
X11035357Y-15091214D01*
X10963928Y-15091214D01*
X10935357Y-15076929D01*
X10921071Y-15062643D01*
X11206786Y-14791214D02*
X11206786Y-14848357D01*
X11321071Y-14791214D02*
X11321071Y-14848357D01*
X11763928Y-15205500D02*
X11749643Y-15191214D01*
X11721071Y-15148357D01*
X11706785Y-15119786D01*
X11692500Y-15076929D01*
X11678214Y-15005500D01*
X11678214Y-14948357D01*
X11692500Y-14876929D01*
X11706785Y-14834071D01*
X11721071Y-14805500D01*
X11749643Y-14762643D01*
X11763928Y-14748357D01*
X12006785Y-14891214D02*
X12006785Y-15091214D01*
X11935357Y-14776929D02*
X11863928Y-14991214D01*
X12049643Y-14991214D01*
X12392500Y-15091214D02*
X12392500Y-14791214D01*
X12521071Y-15091214D02*
X12521071Y-14934071D01*
X12506785Y-14905500D01*
X12478214Y-14891214D01*
X12435357Y-14891214D01*
X12406785Y-14905500D01*
X12392500Y-14919786D01*
X12706785Y-15091214D02*
X12678214Y-15076929D01*
X12663928Y-15062643D01*
X12649643Y-15034071D01*
X12649643Y-14948357D01*
X12663928Y-14919786D01*
X12678214Y-14905500D01*
X12706785Y-14891214D01*
X12749643Y-14891214D01*
X12778214Y-14905500D01*
X12792500Y-14919786D01*
X12806785Y-14948357D01*
X12806785Y-15034071D01*
X12792500Y-15062643D01*
X12778214Y-15076929D01*
X12749643Y-15091214D01*
X12706785Y-15091214D01*
X12978214Y-15091214D02*
X12949643Y-15076929D01*
X12935357Y-15048357D01*
X12935357Y-14791214D01*
X13206786Y-15076929D02*
X13178214Y-15091214D01*
X13121071Y-15091214D01*
X13092500Y-15076929D01*
X13078214Y-15048357D01*
X13078214Y-14934071D01*
X13092500Y-14905500D01*
X13121071Y-14891214D01*
X13178214Y-14891214D01*
X13206786Y-14905500D01*
X13221071Y-14934071D01*
X13221071Y-14962643D01*
X13078214Y-14991214D01*
X13335357Y-15076929D02*
X13363928Y-15091214D01*
X13421071Y-15091214D01*
X13449643Y-15076929D01*
X13463928Y-15048357D01*
X13463928Y-15034071D01*
X13449643Y-15005500D01*
X13421071Y-14991214D01*
X13378214Y-14991214D01*
X13349643Y-14976929D01*
X13335357Y-14948357D01*
X13335357Y-14934071D01*
X13349643Y-14905500D01*
X13378214Y-14891214D01*
X13421071Y-14891214D01*
X13449643Y-14905500D01*
X13563928Y-15205500D02*
X13578214Y-15191214D01*
X13606786Y-15148357D01*
X13621071Y-15119786D01*
X13635357Y-15076929D01*
X13649643Y-15005500D01*
X13649643Y-14948357D01*
X13635357Y-14876929D01*
X13621071Y-14834071D01*
X13606786Y-14805500D01*
X13578214Y-14762643D01*
X13563928Y-14748357D01*
M02*
