%FSLAX45Y45*%
G04 Gerber Fmt 4.5, Leading zero omitted, Abs format (unit mm)*
G04 Created by KiCad (PCBNEW 4.0.7) date Wed May 23 19:27:31 2018*
%MOMM*%
%LPD*%
G01*
G04 APERTURE LIST*
%ADD10C,0.127000*%
%ADD11C,0.150000*%
%ADD12C,0.200000*%
%ADD13C,0.300000*%
G04 APERTURE END LIST*
D10*
D11*
X6700000Y-12900000D02*
X6700000Y-5200000D01*
X12800000Y-12900000D02*
X6700000Y-12900000D01*
X12800000Y-5200000D02*
X12800000Y-12900000D01*
X6700000Y-5200000D02*
X12800000Y-5200000D01*
D12*
X7238492Y-7563866D02*
X7271512Y-7596886D01*
X7271512Y-7563866D02*
X7238492Y-7596886D01*
X7675880Y-6265418D02*
X7708900Y-6298438D01*
X7708900Y-6265418D02*
X7675880Y-6298438D01*
X7761732Y-7520432D02*
X7794752Y-7553452D01*
X7794752Y-7520432D02*
X7761732Y-7553452D01*
X7958582Y-6793230D02*
X7991602Y-6826250D01*
X7991602Y-6793230D02*
X7958582Y-6826250D01*
X8061452Y-9193490D02*
X8094472Y-9226510D01*
X8094472Y-9193490D02*
X8061452Y-9226510D01*
X8061452Y-9818490D02*
X8094472Y-9851510D01*
X8094472Y-9818490D02*
X8061452Y-9851510D01*
X8061452Y-10443490D02*
X8094472Y-10476510D01*
X8094472Y-10443490D02*
X8061452Y-10476510D01*
X8061452Y-11068490D02*
X8094472Y-11101510D01*
X8094472Y-11068490D02*
X8061452Y-11101510D01*
X8061452Y-11695990D02*
X8094472Y-11729010D01*
X8094472Y-11695990D02*
X8061452Y-11729010D01*
X8061452Y-12318490D02*
X8094472Y-12351510D01*
X8094472Y-12318490D02*
X8061452Y-12351510D01*
X8158226Y-7097014D02*
X8191246Y-7130034D01*
X8191246Y-7097014D02*
X8158226Y-7130034D01*
X8310880Y-9038490D02*
X8343900Y-9071510D01*
X8343900Y-9038490D02*
X8310880Y-9071510D01*
X8310880Y-9663490D02*
X8343900Y-9696510D01*
X8343900Y-9663490D02*
X8310880Y-9696510D01*
X8310880Y-10288490D02*
X8343900Y-10321510D01*
X8343900Y-10288490D02*
X8310880Y-10321510D01*
X8310880Y-10913490D02*
X8343900Y-10946510D01*
X8343900Y-10913490D02*
X8310880Y-10946510D01*
X8310880Y-11538490D02*
X8343900Y-11571510D01*
X8343900Y-11538490D02*
X8310880Y-11571510D01*
X8310880Y-12163490D02*
X8343900Y-12196510D01*
X8343900Y-12163490D02*
X8310880Y-12196510D01*
X8318500Y-7167118D02*
X8351520Y-7200138D01*
X8351520Y-7167118D02*
X8318500Y-7200138D01*
X8411968Y-8392156D02*
X8444988Y-8425176D01*
X8444988Y-8392156D02*
X8411968Y-8425176D01*
X8461882Y-7610137D02*
X8494902Y-7643157D01*
X8494902Y-7610137D02*
X8461882Y-7643157D01*
X8487282Y-7750583D02*
X8520302Y-7783603D01*
X8520302Y-7750583D02*
X8487282Y-7783603D01*
X8552142Y-6837426D02*
X8585162Y-6870446D01*
X8585162Y-6837426D02*
X8552142Y-6870446D01*
X8560562Y-8880348D02*
X8593582Y-8913368D01*
X8593582Y-8880348D02*
X8560562Y-8913368D01*
X8560562Y-9507220D02*
X8593582Y-9540240D01*
X8593582Y-9507220D02*
X8560562Y-9540240D01*
X8560562Y-10130990D02*
X8593582Y-10164010D01*
X8593582Y-10130990D02*
X8560562Y-10164010D01*
X8560562Y-10755990D02*
X8593582Y-10789010D01*
X8593582Y-10755990D02*
X8560562Y-10789010D01*
X8560562Y-11380990D02*
X8593582Y-11414010D01*
X8593582Y-11380990D02*
X8560562Y-11414010D01*
X8560562Y-12005990D02*
X8593582Y-12039010D01*
X8593582Y-12005990D02*
X8560562Y-12039010D01*
X8678672Y-6073140D02*
X8711692Y-6106160D01*
X8711692Y-6073140D02*
X8678672Y-6106160D01*
X8758936Y-6462268D02*
X8791956Y-6495288D01*
X8791956Y-6462268D02*
X8758936Y-6495288D01*
X8760898Y-7469699D02*
X8793918Y-7502719D01*
X8793918Y-7469699D02*
X8760898Y-7502719D01*
X8761222Y-7663195D02*
X8794242Y-7696215D01*
X8794242Y-7663195D02*
X8761222Y-7696215D01*
X8783574Y-6702044D02*
X8816594Y-6735064D01*
X8816594Y-6702044D02*
X8783574Y-6735064D01*
X8810244Y-8725916D02*
X8843264Y-8758936D01*
X8843264Y-8725916D02*
X8810244Y-8758936D01*
X8810244Y-9350248D02*
X8843264Y-9383268D01*
X8843264Y-9350248D02*
X8810244Y-9383268D01*
X8810244Y-9975850D02*
X8843264Y-10008870D01*
X8843264Y-9975850D02*
X8810244Y-10008870D01*
X8810244Y-10600436D02*
X8843264Y-10633456D01*
X8843264Y-10600436D02*
X8810244Y-10633456D01*
X8810244Y-11224514D02*
X8843264Y-11257534D01*
X8843264Y-11224514D02*
X8810244Y-11257534D01*
X8810244Y-11849354D02*
X8843264Y-11882374D01*
X8843264Y-11849354D02*
X8810244Y-11882374D01*
X8821498Y-7534230D02*
X8854518Y-7567250D01*
X8854518Y-7534230D02*
X8821498Y-7567250D01*
X9022080Y-6579870D02*
X9055100Y-6612890D01*
X9055100Y-6579870D02*
X9022080Y-6612890D01*
X9068054Y-7099046D02*
X9101074Y-7132066D01*
X9101074Y-7099046D02*
X9068054Y-7132066D01*
X9108490Y-9116060D02*
X9141510Y-9149080D01*
X9141510Y-9116060D02*
X9108490Y-9149080D01*
X9108490Y-9740900D02*
X9141510Y-9773920D01*
X9141510Y-9740900D02*
X9108490Y-9773920D01*
X9108490Y-10365740D02*
X9141510Y-10398760D01*
X9141510Y-10365740D02*
X9108490Y-10398760D01*
X9108490Y-10990580D02*
X9141510Y-11023600D01*
X9141510Y-10990580D02*
X9108490Y-11023600D01*
X9108490Y-11616690D02*
X9141510Y-11649710D01*
X9141510Y-11616690D02*
X9108490Y-11649710D01*
X9108490Y-12240260D02*
X9141510Y-12273280D01*
X9141510Y-12240260D02*
X9108490Y-12273280D01*
X9130284Y-8002778D02*
X9163304Y-8035798D01*
X9163304Y-8002778D02*
X9130284Y-8035798D01*
X9180322Y-7278580D02*
X9213342Y-7311600D01*
X9213342Y-7278580D02*
X9180322Y-7311600D01*
X9331960Y-7698486D02*
X9364980Y-7731506D01*
X9364980Y-7698486D02*
X9331960Y-7731506D01*
X9358490Y-8959850D02*
X9391510Y-8992870D01*
X9391510Y-8959850D02*
X9358490Y-8992870D01*
X9358490Y-9584690D02*
X9391510Y-9617710D01*
X9391510Y-9584690D02*
X9358490Y-9617710D01*
X9358490Y-10209530D02*
X9391510Y-10242550D01*
X9391510Y-10209530D02*
X9358490Y-10242550D01*
X9358490Y-10834370D02*
X9391510Y-10867390D01*
X9391510Y-10834370D02*
X9358490Y-10867390D01*
X9358490Y-11459210D02*
X9391510Y-11492230D01*
X9391510Y-11459210D02*
X9358490Y-11492230D01*
X9358490Y-12085320D02*
X9391510Y-12118340D01*
X9391510Y-12085320D02*
X9358490Y-12118340D01*
X9362186Y-7601458D02*
X9395206Y-7634478D01*
X9395206Y-7601458D02*
X9362186Y-7634478D01*
X9403588Y-6073140D02*
X9436608Y-6106160D01*
X9436608Y-6073140D02*
X9403588Y-6106160D01*
X9451594Y-8067548D02*
X9484614Y-8100568D01*
X9484614Y-8067548D02*
X9451594Y-8100568D01*
X9467596Y-7187184D02*
X9500616Y-7220204D01*
X9500616Y-7187184D02*
X9467596Y-7220204D01*
X9608490Y-8803640D02*
X9641510Y-8836660D01*
X9641510Y-8803640D02*
X9608490Y-8836660D01*
X9608490Y-9428480D02*
X9641510Y-9461500D01*
X9641510Y-9428480D02*
X9608490Y-9461500D01*
X9608490Y-10053320D02*
X9641510Y-10086340D01*
X9641510Y-10053320D02*
X9608490Y-10086340D01*
X9608490Y-10679430D02*
X9641510Y-10712450D01*
X9641510Y-10679430D02*
X9608490Y-10712450D01*
X9608490Y-11301730D02*
X9641510Y-11334750D01*
X9641510Y-11301730D02*
X9608490Y-11334750D01*
X9608490Y-11929110D02*
X9641510Y-11962130D01*
X9641510Y-11929110D02*
X9608490Y-11962130D01*
X9762490Y-6959346D02*
X9795510Y-6992366D01*
X9795510Y-6959346D02*
X9762490Y-6992366D01*
X9836912Y-7239000D02*
X9869932Y-7272020D01*
X9869932Y-7239000D02*
X9836912Y-7272020D01*
X9858490Y-8647430D02*
X9891510Y-8680450D01*
X9891510Y-8647430D02*
X9858490Y-8680450D01*
X9858490Y-9272270D02*
X9891510Y-9305290D01*
X9891510Y-9272270D02*
X9858490Y-9305290D01*
X9858490Y-9897110D02*
X9891510Y-9930130D01*
X9891510Y-9897110D02*
X9858490Y-9930130D01*
X9858490Y-10523220D02*
X9891510Y-10556240D01*
X9891510Y-10523220D02*
X9858490Y-10556240D01*
X9858490Y-11148060D02*
X9891510Y-11181080D01*
X9891510Y-11148060D02*
X9858490Y-11181080D01*
X9858490Y-11772900D02*
X9891510Y-11805920D01*
X9891510Y-11772900D02*
X9858490Y-11805920D01*
X9910081Y-7562865D02*
X9943101Y-7595885D01*
X9943101Y-7562865D02*
X9910081Y-7595885D01*
X10143744Y-7698486D02*
X10176764Y-7731506D01*
X10176764Y-7698486D02*
X10143744Y-7731506D01*
X10254488Y-6260846D02*
X10287508Y-6293866D01*
X10287508Y-6260846D02*
X10254488Y-6293866D01*
X10483490Y-8633490D02*
X10516510Y-8666510D01*
X10516510Y-8633490D02*
X10483490Y-8666510D01*
X10483490Y-9883490D02*
X10516510Y-9916510D01*
X10516510Y-9883490D02*
X10483490Y-9916510D01*
X10483490Y-11133490D02*
X10516510Y-11166510D01*
X10516510Y-11133490D02*
X10483490Y-11166510D01*
X10483490Y-12333490D02*
X10516510Y-12366510D01*
X10516510Y-12333490D02*
X10483490Y-12366510D01*
X10491978Y-6107430D02*
X10524998Y-6140450D01*
X10524998Y-6107430D02*
X10491978Y-6140450D01*
X10705084Y-7061454D02*
X10738104Y-7094474D01*
X10738104Y-7061454D02*
X10705084Y-7094474D01*
X10945876Y-5528564D02*
X10978896Y-5561584D01*
X10978896Y-5528564D02*
X10945876Y-5561584D01*
X11052302Y-6089396D02*
X11085322Y-6122416D01*
X11085322Y-6089396D02*
X11052302Y-6122416D01*
X11226038Y-6224524D02*
X11259058Y-6257544D01*
X11259058Y-6224524D02*
X11226038Y-6257544D01*
X11292078Y-9099448D02*
X11325098Y-9132468D01*
X11325098Y-9099448D02*
X11292078Y-9132468D01*
X11318748Y-11072876D02*
X11351768Y-11105896D01*
X11351768Y-11072876D02*
X11318748Y-11105896D01*
X11596624Y-7282942D02*
X11629644Y-7315962D01*
X11629644Y-7282942D02*
X11596624Y-7315962D01*
X11602466Y-8807450D02*
X11635486Y-8840470D01*
X11635486Y-8807450D02*
X11602466Y-8840470D01*
X11625580Y-5573522D02*
X11658600Y-5606542D01*
X11658600Y-5573522D02*
X11625580Y-5606542D01*
X11656060Y-10628122D02*
X11689080Y-10661142D01*
X11689080Y-10628122D02*
X11656060Y-10661142D01*
X11688849Y-7333945D02*
X11721869Y-7366965D01*
X11721869Y-7333945D02*
X11688849Y-7366965D01*
X11742928Y-9841738D02*
X11775948Y-9874758D01*
X11775948Y-9841738D02*
X11742928Y-9874758D01*
X11765534Y-6251956D02*
X11798554Y-6284976D01*
X11798554Y-6251956D02*
X11765534Y-6284976D01*
X12035790Y-7099300D02*
X12068810Y-7132320D01*
X12068810Y-7099300D02*
X12035790Y-7132320D01*
X12047220Y-7647686D02*
X12080240Y-7680706D01*
X12080240Y-7647686D02*
X12047220Y-7680706D01*
X12058904Y-10144506D02*
X12091924Y-10177526D01*
X12091924Y-10144506D02*
X12058904Y-10177526D01*
X12507799Y-10174298D02*
X12540819Y-10207318D01*
X12540819Y-10174298D02*
X12507799Y-10207318D01*
X12526772Y-8684006D02*
X12559792Y-8717026D01*
X12559792Y-8684006D02*
X12526772Y-8717026D01*
X12311742Y-8971026D02*
G75*
G03X12311742Y-8971026I-25000J0D01*
G01*
X12311742Y-9479026D02*
G75*
G03X12311742Y-9479026I-25000J0D01*
G01*
X12565742Y-9225026D02*
G75*
G03X12565742Y-9225026I-25000J0D01*
G01*
X9425432Y-6369342D02*
X9425432Y-6469342D01*
X9375432Y-6419342D02*
X9475432Y-6419342D01*
X9425432Y-6623342D02*
X9425432Y-6723342D01*
X9375432Y-6673342D02*
X9475432Y-6673342D01*
X9679432Y-6369342D02*
X9679432Y-6469342D01*
X9629432Y-6419342D02*
X9729432Y-6419342D01*
X9679432Y-6623342D02*
X9679432Y-6723342D01*
X9629432Y-6673342D02*
X9729432Y-6673342D01*
X9933432Y-6369342D02*
X9933432Y-6469342D01*
X9883432Y-6419342D02*
X9983432Y-6419342D01*
X9933432Y-6623342D02*
X9933432Y-6723342D01*
X9883432Y-6673342D02*
X9983432Y-6673342D01*
X12329922Y-5675160D02*
X12329922Y-5775160D01*
X12279922Y-5725160D02*
X12379922Y-5725160D01*
X12329922Y-5929160D02*
X12329922Y-6029160D01*
X12279922Y-5979160D02*
X12379922Y-5979160D01*
X12371324Y-7054380D02*
X12371324Y-7154380D01*
X12321324Y-7104380D02*
X12421324Y-7104380D01*
X12371324Y-7308380D02*
X12371324Y-7408380D01*
X12321324Y-7358380D02*
X12421324Y-7358380D01*
X12371324Y-7562380D02*
X12371324Y-7662380D01*
X12321324Y-7612380D02*
X12421324Y-7612380D01*
X12371324Y-7816380D02*
X12371324Y-7916380D01*
X12321324Y-7866380D02*
X12421324Y-7866380D01*
X7118714Y-9612254D02*
X7118714Y-9387746D01*
X6894206Y-9387746D01*
X6894206Y-9612254D01*
X7118714Y-9612254D01*
X7118714Y-11512254D02*
X7118714Y-11287746D01*
X6894206Y-11287746D01*
X6894206Y-11512254D01*
X7118714Y-11512254D01*
X12044554Y-8612254D02*
X12044554Y-8387746D01*
X11820046Y-8387746D01*
X11820046Y-8612254D01*
X12044554Y-8612254D01*
X12044554Y-11612254D02*
X12044554Y-11387746D01*
X11820046Y-11387746D01*
X11820046Y-11612254D01*
X12044554Y-11612254D01*
D13*
X6963928Y-13373214D02*
X6963928Y-13073214D01*
X7035357Y-13073214D01*
X7078214Y-13087500D01*
X7106786Y-13116071D01*
X7121071Y-13144643D01*
X7135357Y-13201786D01*
X7135357Y-13244643D01*
X7121071Y-13301786D01*
X7106786Y-13330357D01*
X7078214Y-13358929D01*
X7035357Y-13373214D01*
X6963928Y-13373214D01*
X7263928Y-13373214D02*
X7263928Y-13173214D01*
X7263928Y-13230357D02*
X7278214Y-13201786D01*
X7292500Y-13187500D01*
X7321071Y-13173214D01*
X7349643Y-13173214D01*
X7449643Y-13373214D02*
X7449643Y-13173214D01*
X7449643Y-13073214D02*
X7435357Y-13087500D01*
X7449643Y-13101786D01*
X7463928Y-13087500D01*
X7449643Y-13073214D01*
X7449643Y-13101786D01*
X7635357Y-13373214D02*
X7606786Y-13358929D01*
X7592500Y-13330357D01*
X7592500Y-13073214D01*
X7792500Y-13373214D02*
X7763928Y-13358929D01*
X7749643Y-13330357D01*
X7749643Y-13073214D01*
X8135357Y-13373214D02*
X8135357Y-13073214D01*
X8235357Y-13287500D01*
X8335357Y-13073214D01*
X8335357Y-13373214D01*
X8606786Y-13373214D02*
X8606786Y-13216071D01*
X8592500Y-13187500D01*
X8563929Y-13173214D01*
X8506786Y-13173214D01*
X8478214Y-13187500D01*
X8606786Y-13358929D02*
X8578214Y-13373214D01*
X8506786Y-13373214D01*
X8478214Y-13358929D01*
X8463929Y-13330357D01*
X8463929Y-13301786D01*
X8478214Y-13273214D01*
X8506786Y-13258929D01*
X8578214Y-13258929D01*
X8606786Y-13244643D01*
X8749643Y-13173214D02*
X8749643Y-13473214D01*
X8749643Y-13187500D02*
X8778214Y-13173214D01*
X8835357Y-13173214D01*
X8863929Y-13187500D01*
X8878214Y-13201786D01*
X8892500Y-13230357D01*
X8892500Y-13316071D01*
X8878214Y-13344643D01*
X8863929Y-13358929D01*
X8835357Y-13373214D01*
X8778214Y-13373214D01*
X8749643Y-13358929D01*
X9021071Y-13344643D02*
X9035357Y-13358929D01*
X9021071Y-13373214D01*
X9006786Y-13358929D01*
X9021071Y-13344643D01*
X9021071Y-13373214D01*
X9021071Y-13187500D02*
X9035357Y-13201786D01*
X9021071Y-13216071D01*
X9006786Y-13201786D01*
X9021071Y-13187500D01*
X9021071Y-13216071D01*
X6659480Y-13850990D02*
X6692500Y-13884010D01*
X6692500Y-13850990D02*
X6659480Y-13884010D01*
X7021071Y-13703214D02*
X7049643Y-13703214D01*
X7078214Y-13717500D01*
X7092500Y-13731786D01*
X7106786Y-13760357D01*
X7121071Y-13817500D01*
X7121071Y-13888929D01*
X7106786Y-13946071D01*
X7092500Y-13974643D01*
X7078214Y-13988929D01*
X7049643Y-14003214D01*
X7021071Y-14003214D01*
X6992500Y-13988929D01*
X6978214Y-13974643D01*
X6963928Y-13946071D01*
X6949643Y-13888929D01*
X6949643Y-13817500D01*
X6963928Y-13760357D01*
X6978214Y-13731786D01*
X6992500Y-13717500D01*
X7021071Y-13703214D01*
X7249643Y-13974643D02*
X7263928Y-13988929D01*
X7249643Y-14003214D01*
X7235357Y-13988929D01*
X7249643Y-13974643D01*
X7249643Y-14003214D01*
X7363928Y-13703214D02*
X7549643Y-13703214D01*
X7449643Y-13817500D01*
X7492500Y-13817500D01*
X7521071Y-13831786D01*
X7535357Y-13846071D01*
X7549643Y-13874643D01*
X7549643Y-13946071D01*
X7535357Y-13974643D01*
X7521071Y-13988929D01*
X7492500Y-14003214D01*
X7406786Y-14003214D01*
X7378214Y-13988929D01*
X7363928Y-13974643D01*
X7649643Y-13703214D02*
X7835357Y-13703214D01*
X7735357Y-13817500D01*
X7778214Y-13817500D01*
X7806786Y-13831786D01*
X7821071Y-13846071D01*
X7835357Y-13874643D01*
X7835357Y-13946071D01*
X7821071Y-13974643D01*
X7806786Y-13988929D01*
X7778214Y-14003214D01*
X7692500Y-14003214D01*
X7663928Y-13988929D01*
X7649643Y-13974643D01*
X7963928Y-14003214D02*
X7963928Y-13803214D01*
X7963928Y-13831786D02*
X7978214Y-13817500D01*
X8006786Y-13803214D01*
X8049643Y-13803214D01*
X8078214Y-13817500D01*
X8092500Y-13846071D01*
X8092500Y-14003214D01*
X8092500Y-13846071D02*
X8106786Y-13817500D01*
X8135357Y-13803214D01*
X8178214Y-13803214D01*
X8206786Y-13817500D01*
X8221071Y-13846071D01*
X8221071Y-14003214D01*
X8363928Y-14003214D02*
X8363928Y-13803214D01*
X8363928Y-13831786D02*
X8378214Y-13817500D01*
X8406786Y-13803214D01*
X8449643Y-13803214D01*
X8478214Y-13817500D01*
X8492500Y-13846071D01*
X8492500Y-14003214D01*
X8492500Y-13846071D02*
X8506786Y-13817500D01*
X8535357Y-13803214D01*
X8578214Y-13803214D01*
X8606786Y-13817500D01*
X8621071Y-13846071D01*
X8621071Y-14003214D01*
X9206786Y-13688929D02*
X8949643Y-14074643D01*
X9592500Y-13703214D02*
X9621071Y-13703214D01*
X9649643Y-13717500D01*
X9663928Y-13731786D01*
X9678214Y-13760357D01*
X9692500Y-13817500D01*
X9692500Y-13888929D01*
X9678214Y-13946071D01*
X9663928Y-13974643D01*
X9649643Y-13988929D01*
X9621071Y-14003214D01*
X9592500Y-14003214D01*
X9563928Y-13988929D01*
X9549643Y-13974643D01*
X9535357Y-13946071D01*
X9521071Y-13888929D01*
X9521071Y-13817500D01*
X9535357Y-13760357D01*
X9549643Y-13731786D01*
X9563928Y-13717500D01*
X9592500Y-13703214D01*
X9821071Y-13974643D02*
X9835357Y-13988929D01*
X9821071Y-14003214D01*
X9806786Y-13988929D01*
X9821071Y-13974643D01*
X9821071Y-14003214D01*
X10021071Y-13703214D02*
X10049643Y-13703214D01*
X10078214Y-13717500D01*
X10092500Y-13731786D01*
X10106786Y-13760357D01*
X10121071Y-13817500D01*
X10121071Y-13888929D01*
X10106786Y-13946071D01*
X10092500Y-13974643D01*
X10078214Y-13988929D01*
X10049643Y-14003214D01*
X10021071Y-14003214D01*
X9992500Y-13988929D01*
X9978214Y-13974643D01*
X9963928Y-13946071D01*
X9949643Y-13888929D01*
X9949643Y-13817500D01*
X9963928Y-13760357D01*
X9978214Y-13731786D01*
X9992500Y-13717500D01*
X10021071Y-13703214D01*
X10406786Y-14003214D02*
X10235357Y-14003214D01*
X10321071Y-14003214D02*
X10321071Y-13703214D01*
X10292500Y-13746071D01*
X10263928Y-13774643D01*
X10235357Y-13788929D01*
X10506786Y-13703214D02*
X10692500Y-13703214D01*
X10592500Y-13817500D01*
X10635357Y-13817500D01*
X10663928Y-13831786D01*
X10678214Y-13846071D01*
X10692500Y-13874643D01*
X10692500Y-13946071D01*
X10678214Y-13974643D01*
X10663928Y-13988929D01*
X10635357Y-14003214D01*
X10549643Y-14003214D01*
X10521071Y-13988929D01*
X10506786Y-13974643D01*
X10806786Y-13703214D02*
X10806786Y-13760357D01*
X10921071Y-13703214D02*
X10921071Y-13760357D01*
X11363928Y-14117500D02*
X11349643Y-14103214D01*
X11321071Y-14060357D01*
X11306785Y-14031786D01*
X11292500Y-13988929D01*
X11278214Y-13917500D01*
X11278214Y-13860357D01*
X11292500Y-13788929D01*
X11306785Y-13746071D01*
X11321071Y-13717500D01*
X11349643Y-13674643D01*
X11363928Y-13660357D01*
X11635357Y-14003214D02*
X11463928Y-14003214D01*
X11549643Y-14003214D02*
X11549643Y-13703214D01*
X11521071Y-13746071D01*
X11492500Y-13774643D01*
X11463928Y-13788929D01*
X11821071Y-13703214D02*
X11849643Y-13703214D01*
X11878214Y-13717500D01*
X11892500Y-13731786D01*
X11906785Y-13760357D01*
X11921071Y-13817500D01*
X11921071Y-13888929D01*
X11906785Y-13946071D01*
X11892500Y-13974643D01*
X11878214Y-13988929D01*
X11849643Y-14003214D01*
X11821071Y-14003214D01*
X11792500Y-13988929D01*
X11778214Y-13974643D01*
X11763928Y-13946071D01*
X11749643Y-13888929D01*
X11749643Y-13817500D01*
X11763928Y-13760357D01*
X11778214Y-13731786D01*
X11792500Y-13717500D01*
X11821071Y-13703214D01*
X12206785Y-14003214D02*
X12035357Y-14003214D01*
X12121071Y-14003214D02*
X12121071Y-13703214D01*
X12092500Y-13746071D01*
X12063928Y-13774643D01*
X12035357Y-13788929D01*
X12563928Y-14003214D02*
X12563928Y-13703214D01*
X12692500Y-14003214D02*
X12692500Y-13846071D01*
X12678214Y-13817500D01*
X12649643Y-13803214D01*
X12606785Y-13803214D01*
X12578214Y-13817500D01*
X12563928Y-13831786D01*
X12878214Y-14003214D02*
X12849643Y-13988929D01*
X12835357Y-13974643D01*
X12821071Y-13946071D01*
X12821071Y-13860357D01*
X12835357Y-13831786D01*
X12849643Y-13817500D01*
X12878214Y-13803214D01*
X12921071Y-13803214D01*
X12949643Y-13817500D01*
X12963928Y-13831786D01*
X12978214Y-13860357D01*
X12978214Y-13946071D01*
X12963928Y-13974643D01*
X12949643Y-13988929D01*
X12921071Y-14003214D01*
X12878214Y-14003214D01*
X13149643Y-14003214D02*
X13121071Y-13988929D01*
X13106786Y-13960357D01*
X13106786Y-13703214D01*
X13378214Y-13988929D02*
X13349643Y-14003214D01*
X13292500Y-14003214D01*
X13263928Y-13988929D01*
X13249643Y-13960357D01*
X13249643Y-13846071D01*
X13263928Y-13817500D01*
X13292500Y-13803214D01*
X13349643Y-13803214D01*
X13378214Y-13817500D01*
X13392500Y-13846071D01*
X13392500Y-13874643D01*
X13249643Y-13903214D01*
X13506786Y-13988929D02*
X13535357Y-14003214D01*
X13592500Y-14003214D01*
X13621071Y-13988929D01*
X13635357Y-13960357D01*
X13635357Y-13946071D01*
X13621071Y-13917500D01*
X13592500Y-13903214D01*
X13549643Y-13903214D01*
X13521071Y-13888929D01*
X13506786Y-13860357D01*
X13506786Y-13846071D01*
X13521071Y-13817500D01*
X13549643Y-13803214D01*
X13592500Y-13803214D01*
X13621071Y-13817500D01*
X13735357Y-14117500D02*
X13749643Y-14103214D01*
X13778214Y-14060357D01*
X13792500Y-14031786D01*
X13806786Y-13988929D01*
X13821071Y-13917500D01*
X13821071Y-13860357D01*
X13806786Y-13788929D01*
X13792500Y-13746071D01*
X13778214Y-13717500D01*
X13749643Y-13674643D01*
X13735357Y-13660357D01*
X6692500Y-14263500D02*
G75*
G03X6692500Y-14263500I-25000J0D01*
G01*
X7021071Y-14099214D02*
X7049643Y-14099214D01*
X7078214Y-14113500D01*
X7092500Y-14127786D01*
X7106786Y-14156357D01*
X7121071Y-14213500D01*
X7121071Y-14284929D01*
X7106786Y-14342071D01*
X7092500Y-14370643D01*
X7078214Y-14384929D01*
X7049643Y-14399214D01*
X7021071Y-14399214D01*
X6992500Y-14384929D01*
X6978214Y-14370643D01*
X6963928Y-14342071D01*
X6949643Y-14284929D01*
X6949643Y-14213500D01*
X6963928Y-14156357D01*
X6978214Y-14127786D01*
X6992500Y-14113500D01*
X7021071Y-14099214D01*
X7249643Y-14370643D02*
X7263928Y-14384929D01*
X7249643Y-14399214D01*
X7235357Y-14384929D01*
X7249643Y-14370643D01*
X7249643Y-14399214D01*
X7535357Y-14099214D02*
X7392500Y-14099214D01*
X7378214Y-14242071D01*
X7392500Y-14227786D01*
X7421071Y-14213500D01*
X7492500Y-14213500D01*
X7521071Y-14227786D01*
X7535357Y-14242071D01*
X7549643Y-14270643D01*
X7549643Y-14342071D01*
X7535357Y-14370643D01*
X7521071Y-14384929D01*
X7492500Y-14399214D01*
X7421071Y-14399214D01*
X7392500Y-14384929D01*
X7378214Y-14370643D01*
X7735357Y-14099214D02*
X7763928Y-14099214D01*
X7792500Y-14113500D01*
X7806786Y-14127786D01*
X7821071Y-14156357D01*
X7835357Y-14213500D01*
X7835357Y-14284929D01*
X7821071Y-14342071D01*
X7806786Y-14370643D01*
X7792500Y-14384929D01*
X7763928Y-14399214D01*
X7735357Y-14399214D01*
X7706786Y-14384929D01*
X7692500Y-14370643D01*
X7678214Y-14342071D01*
X7663928Y-14284929D01*
X7663928Y-14213500D01*
X7678214Y-14156357D01*
X7692500Y-14127786D01*
X7706786Y-14113500D01*
X7735357Y-14099214D01*
X7963928Y-14399214D02*
X7963928Y-14199214D01*
X7963928Y-14227786D02*
X7978214Y-14213500D01*
X8006786Y-14199214D01*
X8049643Y-14199214D01*
X8078214Y-14213500D01*
X8092500Y-14242071D01*
X8092500Y-14399214D01*
X8092500Y-14242071D02*
X8106786Y-14213500D01*
X8135357Y-14199214D01*
X8178214Y-14199214D01*
X8206786Y-14213500D01*
X8221071Y-14242071D01*
X8221071Y-14399214D01*
X8363928Y-14399214D02*
X8363928Y-14199214D01*
X8363928Y-14227786D02*
X8378214Y-14213500D01*
X8406786Y-14199214D01*
X8449643Y-14199214D01*
X8478214Y-14213500D01*
X8492500Y-14242071D01*
X8492500Y-14399214D01*
X8492500Y-14242071D02*
X8506786Y-14213500D01*
X8535357Y-14199214D01*
X8578214Y-14199214D01*
X8606786Y-14213500D01*
X8621071Y-14242071D01*
X8621071Y-14399214D01*
X9206786Y-14084929D02*
X8949643Y-14470643D01*
X9592500Y-14099214D02*
X9621071Y-14099214D01*
X9649643Y-14113500D01*
X9663928Y-14127786D01*
X9678214Y-14156357D01*
X9692500Y-14213500D01*
X9692500Y-14284929D01*
X9678214Y-14342071D01*
X9663928Y-14370643D01*
X9649643Y-14384929D01*
X9621071Y-14399214D01*
X9592500Y-14399214D01*
X9563928Y-14384929D01*
X9549643Y-14370643D01*
X9535357Y-14342071D01*
X9521071Y-14284929D01*
X9521071Y-14213500D01*
X9535357Y-14156357D01*
X9549643Y-14127786D01*
X9563928Y-14113500D01*
X9592500Y-14099214D01*
X9821071Y-14370643D02*
X9835357Y-14384929D01*
X9821071Y-14399214D01*
X9806786Y-14384929D01*
X9821071Y-14370643D01*
X9821071Y-14399214D01*
X10021071Y-14099214D02*
X10049643Y-14099214D01*
X10078214Y-14113500D01*
X10092500Y-14127786D01*
X10106786Y-14156357D01*
X10121071Y-14213500D01*
X10121071Y-14284929D01*
X10106786Y-14342071D01*
X10092500Y-14370643D01*
X10078214Y-14384929D01*
X10049643Y-14399214D01*
X10021071Y-14399214D01*
X9992500Y-14384929D01*
X9978214Y-14370643D01*
X9963928Y-14342071D01*
X9949643Y-14284929D01*
X9949643Y-14213500D01*
X9963928Y-14156357D01*
X9978214Y-14127786D01*
X9992500Y-14113500D01*
X10021071Y-14099214D01*
X10235357Y-14127786D02*
X10249643Y-14113500D01*
X10278214Y-14099214D01*
X10349643Y-14099214D01*
X10378214Y-14113500D01*
X10392500Y-14127786D01*
X10406786Y-14156357D01*
X10406786Y-14184929D01*
X10392500Y-14227786D01*
X10221071Y-14399214D01*
X10406786Y-14399214D01*
X10592500Y-14099214D02*
X10621071Y-14099214D01*
X10649643Y-14113500D01*
X10663928Y-14127786D01*
X10678214Y-14156357D01*
X10692500Y-14213500D01*
X10692500Y-14284929D01*
X10678214Y-14342071D01*
X10663928Y-14370643D01*
X10649643Y-14384929D01*
X10621071Y-14399214D01*
X10592500Y-14399214D01*
X10563928Y-14384929D01*
X10549643Y-14370643D01*
X10535357Y-14342071D01*
X10521071Y-14284929D01*
X10521071Y-14213500D01*
X10535357Y-14156357D01*
X10549643Y-14127786D01*
X10563928Y-14113500D01*
X10592500Y-14099214D01*
X10806786Y-14099214D02*
X10806786Y-14156357D01*
X10921071Y-14099214D02*
X10921071Y-14156357D01*
X11363928Y-14513500D02*
X11349643Y-14499214D01*
X11321071Y-14456357D01*
X11306785Y-14427786D01*
X11292500Y-14384929D01*
X11278214Y-14313500D01*
X11278214Y-14256357D01*
X11292500Y-14184929D01*
X11306785Y-14142071D01*
X11321071Y-14113500D01*
X11349643Y-14070643D01*
X11363928Y-14056357D01*
X11449643Y-14099214D02*
X11635357Y-14099214D01*
X11535357Y-14213500D01*
X11578214Y-14213500D01*
X11606785Y-14227786D01*
X11621071Y-14242071D01*
X11635357Y-14270643D01*
X11635357Y-14342071D01*
X11621071Y-14370643D01*
X11606785Y-14384929D01*
X11578214Y-14399214D01*
X11492500Y-14399214D01*
X11463928Y-14384929D01*
X11449643Y-14370643D01*
X11992500Y-14399214D02*
X11992500Y-14099214D01*
X12121071Y-14399214D02*
X12121071Y-14242071D01*
X12106785Y-14213500D01*
X12078214Y-14199214D01*
X12035357Y-14199214D01*
X12006785Y-14213500D01*
X11992500Y-14227786D01*
X12306785Y-14399214D02*
X12278214Y-14384929D01*
X12263928Y-14370643D01*
X12249643Y-14342071D01*
X12249643Y-14256357D01*
X12263928Y-14227786D01*
X12278214Y-14213500D01*
X12306785Y-14199214D01*
X12349643Y-14199214D01*
X12378214Y-14213500D01*
X12392500Y-14227786D01*
X12406785Y-14256357D01*
X12406785Y-14342071D01*
X12392500Y-14370643D01*
X12378214Y-14384929D01*
X12349643Y-14399214D01*
X12306785Y-14399214D01*
X12578214Y-14399214D02*
X12549643Y-14384929D01*
X12535357Y-14356357D01*
X12535357Y-14099214D01*
X12806786Y-14384929D02*
X12778214Y-14399214D01*
X12721071Y-14399214D01*
X12692500Y-14384929D01*
X12678214Y-14356357D01*
X12678214Y-14242071D01*
X12692500Y-14213500D01*
X12721071Y-14199214D01*
X12778214Y-14199214D01*
X12806786Y-14213500D01*
X12821071Y-14242071D01*
X12821071Y-14270643D01*
X12678214Y-14299214D01*
X12935357Y-14384929D02*
X12963928Y-14399214D01*
X13021071Y-14399214D01*
X13049643Y-14384929D01*
X13063928Y-14356357D01*
X13063928Y-14342071D01*
X13049643Y-14313500D01*
X13021071Y-14299214D01*
X12978214Y-14299214D01*
X12949643Y-14284929D01*
X12935357Y-14256357D01*
X12935357Y-14242071D01*
X12949643Y-14213500D01*
X12978214Y-14199214D01*
X13021071Y-14199214D01*
X13049643Y-14213500D01*
X13163928Y-14513500D02*
X13178214Y-14499214D01*
X13206786Y-14456357D01*
X13221071Y-14427786D01*
X13235357Y-14384929D01*
X13249643Y-14313500D01*
X13249643Y-14256357D01*
X13235357Y-14184929D01*
X13221071Y-14142071D01*
X13206786Y-14113500D01*
X13178214Y-14070643D01*
X13163928Y-14056357D01*
X6642500Y-14609500D02*
X6642500Y-14709500D01*
X6592500Y-14659500D02*
X6692500Y-14659500D01*
X7121071Y-14795214D02*
X6949643Y-14795214D01*
X7035357Y-14795214D02*
X7035357Y-14495214D01*
X7006786Y-14538071D01*
X6978214Y-14566643D01*
X6949643Y-14580929D01*
X7249643Y-14766643D02*
X7263928Y-14780929D01*
X7249643Y-14795214D01*
X7235357Y-14780929D01*
X7249643Y-14766643D01*
X7249643Y-14795214D01*
X7449643Y-14495214D02*
X7478214Y-14495214D01*
X7506786Y-14509500D01*
X7521071Y-14523786D01*
X7535357Y-14552357D01*
X7549643Y-14609500D01*
X7549643Y-14680929D01*
X7535357Y-14738071D01*
X7521071Y-14766643D01*
X7506786Y-14780929D01*
X7478214Y-14795214D01*
X7449643Y-14795214D01*
X7421071Y-14780929D01*
X7406786Y-14766643D01*
X7392500Y-14738071D01*
X7378214Y-14680929D01*
X7378214Y-14609500D01*
X7392500Y-14552357D01*
X7406786Y-14523786D01*
X7421071Y-14509500D01*
X7449643Y-14495214D01*
X7735357Y-14495214D02*
X7763928Y-14495214D01*
X7792500Y-14509500D01*
X7806786Y-14523786D01*
X7821071Y-14552357D01*
X7835357Y-14609500D01*
X7835357Y-14680929D01*
X7821071Y-14738071D01*
X7806786Y-14766643D01*
X7792500Y-14780929D01*
X7763928Y-14795214D01*
X7735357Y-14795214D01*
X7706786Y-14780929D01*
X7692500Y-14766643D01*
X7678214Y-14738071D01*
X7663928Y-14680929D01*
X7663928Y-14609500D01*
X7678214Y-14552357D01*
X7692500Y-14523786D01*
X7706786Y-14509500D01*
X7735357Y-14495214D01*
X7963928Y-14795214D02*
X7963928Y-14595214D01*
X7963928Y-14623786D02*
X7978214Y-14609500D01*
X8006786Y-14595214D01*
X8049643Y-14595214D01*
X8078214Y-14609500D01*
X8092500Y-14638071D01*
X8092500Y-14795214D01*
X8092500Y-14638071D02*
X8106786Y-14609500D01*
X8135357Y-14595214D01*
X8178214Y-14595214D01*
X8206786Y-14609500D01*
X8221071Y-14638071D01*
X8221071Y-14795214D01*
X8363928Y-14795214D02*
X8363928Y-14595214D01*
X8363928Y-14623786D02*
X8378214Y-14609500D01*
X8406786Y-14595214D01*
X8449643Y-14595214D01*
X8478214Y-14609500D01*
X8492500Y-14638071D01*
X8492500Y-14795214D01*
X8492500Y-14638071D02*
X8506786Y-14609500D01*
X8535357Y-14595214D01*
X8578214Y-14595214D01*
X8606786Y-14609500D01*
X8621071Y-14638071D01*
X8621071Y-14795214D01*
X9206786Y-14480929D02*
X8949643Y-14866643D01*
X9592500Y-14495214D02*
X9621071Y-14495214D01*
X9649643Y-14509500D01*
X9663928Y-14523786D01*
X9678214Y-14552357D01*
X9692500Y-14609500D01*
X9692500Y-14680929D01*
X9678214Y-14738071D01*
X9663928Y-14766643D01*
X9649643Y-14780929D01*
X9621071Y-14795214D01*
X9592500Y-14795214D01*
X9563928Y-14780929D01*
X9549643Y-14766643D01*
X9535357Y-14738071D01*
X9521071Y-14680929D01*
X9521071Y-14609500D01*
X9535357Y-14552357D01*
X9549643Y-14523786D01*
X9563928Y-14509500D01*
X9592500Y-14495214D01*
X9821071Y-14766643D02*
X9835357Y-14780929D01*
X9821071Y-14795214D01*
X9806786Y-14780929D01*
X9821071Y-14766643D01*
X9821071Y-14795214D01*
X10021071Y-14495214D02*
X10049643Y-14495214D01*
X10078214Y-14509500D01*
X10092500Y-14523786D01*
X10106786Y-14552357D01*
X10121071Y-14609500D01*
X10121071Y-14680929D01*
X10106786Y-14738071D01*
X10092500Y-14766643D01*
X10078214Y-14780929D01*
X10049643Y-14795214D01*
X10021071Y-14795214D01*
X9992500Y-14780929D01*
X9978214Y-14766643D01*
X9963928Y-14738071D01*
X9949643Y-14680929D01*
X9949643Y-14609500D01*
X9963928Y-14552357D01*
X9978214Y-14523786D01*
X9992500Y-14509500D01*
X10021071Y-14495214D01*
X10221071Y-14495214D02*
X10406786Y-14495214D01*
X10306786Y-14609500D01*
X10349643Y-14609500D01*
X10378214Y-14623786D01*
X10392500Y-14638071D01*
X10406786Y-14666643D01*
X10406786Y-14738071D01*
X10392500Y-14766643D01*
X10378214Y-14780929D01*
X10349643Y-14795214D01*
X10263928Y-14795214D01*
X10235357Y-14780929D01*
X10221071Y-14766643D01*
X10549643Y-14795214D02*
X10606786Y-14795214D01*
X10635357Y-14780929D01*
X10649643Y-14766643D01*
X10678214Y-14723786D01*
X10692500Y-14666643D01*
X10692500Y-14552357D01*
X10678214Y-14523786D01*
X10663928Y-14509500D01*
X10635357Y-14495214D01*
X10578214Y-14495214D01*
X10549643Y-14509500D01*
X10535357Y-14523786D01*
X10521071Y-14552357D01*
X10521071Y-14623786D01*
X10535357Y-14652357D01*
X10549643Y-14666643D01*
X10578214Y-14680929D01*
X10635357Y-14680929D01*
X10663928Y-14666643D01*
X10678214Y-14652357D01*
X10692500Y-14623786D01*
X10806786Y-14495214D02*
X10806786Y-14552357D01*
X10921071Y-14495214D02*
X10921071Y-14552357D01*
X11363928Y-14909500D02*
X11349643Y-14895214D01*
X11321071Y-14852357D01*
X11306785Y-14823786D01*
X11292500Y-14780929D01*
X11278214Y-14709500D01*
X11278214Y-14652357D01*
X11292500Y-14580929D01*
X11306785Y-14538071D01*
X11321071Y-14509500D01*
X11349643Y-14466643D01*
X11363928Y-14452357D01*
X11635357Y-14795214D02*
X11463928Y-14795214D01*
X11549643Y-14795214D02*
X11549643Y-14495214D01*
X11521071Y-14538071D01*
X11492500Y-14566643D01*
X11463928Y-14580929D01*
X11749643Y-14523786D02*
X11763928Y-14509500D01*
X11792500Y-14495214D01*
X11863928Y-14495214D01*
X11892500Y-14509500D01*
X11906785Y-14523786D01*
X11921071Y-14552357D01*
X11921071Y-14580929D01*
X11906785Y-14623786D01*
X11735357Y-14795214D01*
X11921071Y-14795214D01*
X12278214Y-14795214D02*
X12278214Y-14495214D01*
X12406785Y-14795214D02*
X12406785Y-14638071D01*
X12392500Y-14609500D01*
X12363928Y-14595214D01*
X12321071Y-14595214D01*
X12292500Y-14609500D01*
X12278214Y-14623786D01*
X12592500Y-14795214D02*
X12563928Y-14780929D01*
X12549643Y-14766643D01*
X12535357Y-14738071D01*
X12535357Y-14652357D01*
X12549643Y-14623786D01*
X12563928Y-14609500D01*
X12592500Y-14595214D01*
X12635357Y-14595214D01*
X12663928Y-14609500D01*
X12678214Y-14623786D01*
X12692500Y-14652357D01*
X12692500Y-14738071D01*
X12678214Y-14766643D01*
X12663928Y-14780929D01*
X12635357Y-14795214D01*
X12592500Y-14795214D01*
X12863928Y-14795214D02*
X12835357Y-14780929D01*
X12821071Y-14752357D01*
X12821071Y-14495214D01*
X13092500Y-14780929D02*
X13063928Y-14795214D01*
X13006786Y-14795214D01*
X12978214Y-14780929D01*
X12963928Y-14752357D01*
X12963928Y-14638071D01*
X12978214Y-14609500D01*
X13006786Y-14595214D01*
X13063928Y-14595214D01*
X13092500Y-14609500D01*
X13106786Y-14638071D01*
X13106786Y-14666643D01*
X12963928Y-14695214D01*
X13221071Y-14780929D02*
X13249643Y-14795214D01*
X13306786Y-14795214D01*
X13335357Y-14780929D01*
X13349643Y-14752357D01*
X13349643Y-14738071D01*
X13335357Y-14709500D01*
X13306786Y-14695214D01*
X13263928Y-14695214D01*
X13235357Y-14680929D01*
X13221071Y-14652357D01*
X13221071Y-14638071D01*
X13235357Y-14609500D01*
X13263928Y-14595214D01*
X13306786Y-14595214D01*
X13335357Y-14609500D01*
X13449643Y-14909500D02*
X13463928Y-14895214D01*
X13492500Y-14852357D01*
X13506786Y-14823786D01*
X13521071Y-14780929D01*
X13535357Y-14709500D01*
X13535357Y-14652357D01*
X13521071Y-14580929D01*
X13506786Y-14538071D01*
X13492500Y-14509500D01*
X13463928Y-14466643D01*
X13449643Y-14452357D01*
X6646004Y-15167754D02*
X6646004Y-14943246D01*
X6421496Y-14943246D01*
X6421496Y-15167754D01*
X6646004Y-15167754D01*
X6935357Y-14891214D02*
X7121071Y-14891214D01*
X7021071Y-15005500D01*
X7063928Y-15005500D01*
X7092500Y-15019786D01*
X7106786Y-15034071D01*
X7121071Y-15062643D01*
X7121071Y-15134071D01*
X7106786Y-15162643D01*
X7092500Y-15176929D01*
X7063928Y-15191214D01*
X6978214Y-15191214D01*
X6949643Y-15176929D01*
X6935357Y-15162643D01*
X7249643Y-15162643D02*
X7263928Y-15176929D01*
X7249643Y-15191214D01*
X7235357Y-15176929D01*
X7249643Y-15162643D01*
X7249643Y-15191214D01*
X7549643Y-15191214D02*
X7378214Y-15191214D01*
X7463928Y-15191214D02*
X7463928Y-14891214D01*
X7435357Y-14934071D01*
X7406786Y-14962643D01*
X7378214Y-14976929D01*
X7649643Y-14891214D02*
X7849643Y-14891214D01*
X7721071Y-15191214D01*
X7963928Y-15191214D02*
X7963928Y-14991214D01*
X7963928Y-15019786D02*
X7978214Y-15005500D01*
X8006786Y-14991214D01*
X8049643Y-14991214D01*
X8078214Y-15005500D01*
X8092500Y-15034071D01*
X8092500Y-15191214D01*
X8092500Y-15034071D02*
X8106786Y-15005500D01*
X8135357Y-14991214D01*
X8178214Y-14991214D01*
X8206786Y-15005500D01*
X8221071Y-15034071D01*
X8221071Y-15191214D01*
X8363928Y-15191214D02*
X8363928Y-14991214D01*
X8363928Y-15019786D02*
X8378214Y-15005500D01*
X8406786Y-14991214D01*
X8449643Y-14991214D01*
X8478214Y-15005500D01*
X8492500Y-15034071D01*
X8492500Y-15191214D01*
X8492500Y-15034071D02*
X8506786Y-15005500D01*
X8535357Y-14991214D01*
X8578214Y-14991214D01*
X8606786Y-15005500D01*
X8621071Y-15034071D01*
X8621071Y-15191214D01*
X9206786Y-14876929D02*
X8949643Y-15262643D01*
X9592500Y-14891214D02*
X9621071Y-14891214D01*
X9649643Y-14905500D01*
X9663928Y-14919786D01*
X9678214Y-14948357D01*
X9692500Y-15005500D01*
X9692500Y-15076929D01*
X9678214Y-15134071D01*
X9663928Y-15162643D01*
X9649643Y-15176929D01*
X9621071Y-15191214D01*
X9592500Y-15191214D01*
X9563928Y-15176929D01*
X9549643Y-15162643D01*
X9535357Y-15134071D01*
X9521071Y-15076929D01*
X9521071Y-15005500D01*
X9535357Y-14948357D01*
X9549643Y-14919786D01*
X9563928Y-14905500D01*
X9592500Y-14891214D01*
X9821071Y-15162643D02*
X9835357Y-15176929D01*
X9821071Y-15191214D01*
X9806786Y-15176929D01*
X9821071Y-15162643D01*
X9821071Y-15191214D01*
X10121071Y-15191214D02*
X9949643Y-15191214D01*
X10035357Y-15191214D02*
X10035357Y-14891214D01*
X10006786Y-14934071D01*
X9978214Y-14962643D01*
X9949643Y-14976929D01*
X10235357Y-14919786D02*
X10249643Y-14905500D01*
X10278214Y-14891214D01*
X10349643Y-14891214D01*
X10378214Y-14905500D01*
X10392500Y-14919786D01*
X10406786Y-14948357D01*
X10406786Y-14976929D01*
X10392500Y-15019786D01*
X10221071Y-15191214D01*
X10406786Y-15191214D01*
X10678214Y-14891214D02*
X10535357Y-14891214D01*
X10521071Y-15034071D01*
X10535357Y-15019786D01*
X10563928Y-15005500D01*
X10635357Y-15005500D01*
X10663928Y-15019786D01*
X10678214Y-15034071D01*
X10692500Y-15062643D01*
X10692500Y-15134071D01*
X10678214Y-15162643D01*
X10663928Y-15176929D01*
X10635357Y-15191214D01*
X10563928Y-15191214D01*
X10535357Y-15176929D01*
X10521071Y-15162643D01*
X10806786Y-14891214D02*
X10806786Y-14948357D01*
X10921071Y-14891214D02*
X10921071Y-14948357D01*
X11363928Y-15305500D02*
X11349643Y-15291214D01*
X11321071Y-15248357D01*
X11306785Y-15219786D01*
X11292500Y-15176929D01*
X11278214Y-15105500D01*
X11278214Y-15048357D01*
X11292500Y-14976929D01*
X11306785Y-14934071D01*
X11321071Y-14905500D01*
X11349643Y-14862643D01*
X11363928Y-14848357D01*
X11606785Y-14991214D02*
X11606785Y-15191214D01*
X11535357Y-14876929D02*
X11463928Y-15091214D01*
X11649643Y-15091214D01*
X11992500Y-15191214D02*
X11992500Y-14891214D01*
X12121071Y-15191214D02*
X12121071Y-15034071D01*
X12106785Y-15005500D01*
X12078214Y-14991214D01*
X12035357Y-14991214D01*
X12006785Y-15005500D01*
X11992500Y-15019786D01*
X12306785Y-15191214D02*
X12278214Y-15176929D01*
X12263928Y-15162643D01*
X12249643Y-15134071D01*
X12249643Y-15048357D01*
X12263928Y-15019786D01*
X12278214Y-15005500D01*
X12306785Y-14991214D01*
X12349643Y-14991214D01*
X12378214Y-15005500D01*
X12392500Y-15019786D01*
X12406785Y-15048357D01*
X12406785Y-15134071D01*
X12392500Y-15162643D01*
X12378214Y-15176929D01*
X12349643Y-15191214D01*
X12306785Y-15191214D01*
X12578214Y-15191214D02*
X12549643Y-15176929D01*
X12535357Y-15148357D01*
X12535357Y-14891214D01*
X12806786Y-15176929D02*
X12778214Y-15191214D01*
X12721071Y-15191214D01*
X12692500Y-15176929D01*
X12678214Y-15148357D01*
X12678214Y-15034071D01*
X12692500Y-15005500D01*
X12721071Y-14991214D01*
X12778214Y-14991214D01*
X12806786Y-15005500D01*
X12821071Y-15034071D01*
X12821071Y-15062643D01*
X12678214Y-15091214D01*
X12935357Y-15176929D02*
X12963928Y-15191214D01*
X13021071Y-15191214D01*
X13049643Y-15176929D01*
X13063928Y-15148357D01*
X13063928Y-15134071D01*
X13049643Y-15105500D01*
X13021071Y-15091214D01*
X12978214Y-15091214D01*
X12949643Y-15076929D01*
X12935357Y-15048357D01*
X12935357Y-15034071D01*
X12949643Y-15005500D01*
X12978214Y-14991214D01*
X13021071Y-14991214D01*
X13049643Y-15005500D01*
X13163928Y-15305500D02*
X13178214Y-15291214D01*
X13206786Y-15248357D01*
X13221071Y-15219786D01*
X13235357Y-15176929D01*
X13249643Y-15105500D01*
X13249643Y-15048357D01*
X13235357Y-14976929D01*
X13221071Y-14934071D01*
X13206786Y-14905500D01*
X13178214Y-14862643D01*
X13163928Y-14848357D01*
M02*
