G04 #@! TF.FileFunction,Legend,Bot*
%FSLAX46Y46*%
G04 Gerber Fmt 4.6, Leading zero omitted, Abs format (unit mm)*
G04 Created by KiCad (PCBNEW 4.0.7) date Sat Jul 21 07:42:13 2018*
%MOMM*%
%LPD*%
G01*
G04 APERTURE LIST*
%ADD10C,0.100000*%
%ADD11C,0.150000*%
G04 APERTURE END LIST*
D10*
D11*
X120050000Y-62550000D02*
X120850000Y-62550000D01*
X120850000Y-61950000D02*
X120050000Y-61950000D01*
X120450000Y-62250000D02*
X120600000Y-62250000D01*
X120450000Y-62150000D02*
X120450000Y-62350000D01*
X122600000Y-62600000D02*
X123400000Y-62600000D01*
X123400000Y-62000000D02*
X122600000Y-62000000D01*
X123000000Y-62300000D02*
X123150000Y-62300000D01*
X123000000Y-62200000D02*
X123000000Y-62400000D01*
X120802381Y-63134524D02*
X119802381Y-63134524D01*
X119802381Y-63372619D01*
X119850000Y-63515477D01*
X119945238Y-63610715D01*
X120040476Y-63658334D01*
X120230952Y-63705953D01*
X120373810Y-63705953D01*
X120564286Y-63658334D01*
X120659524Y-63610715D01*
X120754762Y-63515477D01*
X120802381Y-63372619D01*
X120802381Y-63134524D01*
X120802381Y-64658334D02*
X120802381Y-64086905D01*
X120802381Y-64372619D02*
X119802381Y-64372619D01*
X119945238Y-64277381D01*
X120040476Y-64182143D01*
X120088095Y-64086905D01*
X119802381Y-65277381D02*
X119802381Y-65372620D01*
X119850000Y-65467858D01*
X119897619Y-65515477D01*
X119992857Y-65563096D01*
X120183333Y-65610715D01*
X120421429Y-65610715D01*
X120611905Y-65563096D01*
X120707143Y-65515477D01*
X120754762Y-65467858D01*
X120802381Y-65372620D01*
X120802381Y-65277381D01*
X120754762Y-65182143D01*
X120707143Y-65134524D01*
X120611905Y-65086905D01*
X120421429Y-65039286D01*
X120183333Y-65039286D01*
X119992857Y-65086905D01*
X119897619Y-65134524D01*
X119850000Y-65182143D01*
X119802381Y-65277381D01*
X120802381Y-66563096D02*
X120802381Y-65991667D01*
X120802381Y-66277381D02*
X119802381Y-66277381D01*
X119945238Y-66182143D01*
X120040476Y-66086905D01*
X120088095Y-65991667D01*
X123452381Y-63134524D02*
X122452381Y-63134524D01*
X122452381Y-63372619D01*
X122500000Y-63515477D01*
X122595238Y-63610715D01*
X122690476Y-63658334D01*
X122880952Y-63705953D01*
X123023810Y-63705953D01*
X123214286Y-63658334D01*
X123309524Y-63610715D01*
X123404762Y-63515477D01*
X123452381Y-63372619D01*
X123452381Y-63134524D01*
X123452381Y-64658334D02*
X123452381Y-64086905D01*
X123452381Y-64372619D02*
X122452381Y-64372619D01*
X122595238Y-64277381D01*
X122690476Y-64182143D01*
X122738095Y-64086905D01*
X122452381Y-65277381D02*
X122452381Y-65372620D01*
X122500000Y-65467858D01*
X122547619Y-65515477D01*
X122642857Y-65563096D01*
X122833333Y-65610715D01*
X123071429Y-65610715D01*
X123261905Y-65563096D01*
X123357143Y-65515477D01*
X123404762Y-65467858D01*
X123452381Y-65372620D01*
X123452381Y-65277381D01*
X123404762Y-65182143D01*
X123357143Y-65134524D01*
X123261905Y-65086905D01*
X123071429Y-65039286D01*
X122833333Y-65039286D01*
X122642857Y-65086905D01*
X122547619Y-65134524D01*
X122500000Y-65182143D01*
X122452381Y-65277381D01*
X122452381Y-65944048D02*
X122452381Y-66563096D01*
X122833333Y-66229762D01*
X122833333Y-66372620D01*
X122880952Y-66467858D01*
X122928571Y-66515477D01*
X123023810Y-66563096D01*
X123261905Y-66563096D01*
X123357143Y-66515477D01*
X123404762Y-66467858D01*
X123452381Y-66372620D01*
X123452381Y-66086905D01*
X123404762Y-65991667D01*
X123357143Y-65944048D01*
M02*
