G04 #@! TF.FileFunction,Copper,L2,Bot,Signal*
%FSLAX46Y46*%
G04 Gerber Fmt 4.6, Leading zero omitted, Abs format (unit mm)*
G04 Created by KiCad (PCBNEW 4.0.7) date Wed May 23 19:27:25 2018*
%MOMM*%
%LPD*%
G01*
G04 APERTURE LIST*
%ADD10C,0.100000*%
%ADD11R,10.000000X0.781250*%
%ADD12R,1.700000X1.700000*%
%ADD13O,1.700000X1.700000*%
%ADD14C,1.000000*%
%ADD15C,4.175000*%
%ADD16R,10.000000X43.750000*%
%ADD17C,0.685800*%
%ADD18C,1.200000*%
%ADD19C,0.300000*%
%ADD20C,0.600000*%
%ADD21C,0.254000*%
G04 APERTURE END LIST*
D10*
D11*
X84520000Y-123359375D03*
X94680000Y-122578125D03*
X84520000Y-121796875D03*
X94680000Y-121015625D03*
X84520000Y-120234375D03*
X94680000Y-119453125D03*
X84520000Y-118671875D03*
X94680000Y-117890625D03*
X84520000Y-117109375D03*
X94680000Y-116328125D03*
X84520000Y-115546875D03*
X94680000Y-114765625D03*
X84520000Y-113984375D03*
X94680000Y-113203125D03*
X84520000Y-112421875D03*
X94680000Y-111640625D03*
X84520000Y-110859375D03*
X94680000Y-110078125D03*
X84520000Y-109296875D03*
X94680000Y-108515625D03*
X84520000Y-107734375D03*
X94680000Y-106953125D03*
X84520000Y-106171875D03*
X94680000Y-105390625D03*
X84520000Y-104609375D03*
X94680000Y-103828125D03*
X84520000Y-103046875D03*
X94680000Y-102265625D03*
X84520000Y-101484375D03*
X94680000Y-100703125D03*
X84520000Y-99921875D03*
X94680000Y-99140625D03*
X84520000Y-98359375D03*
X94680000Y-97578125D03*
X84520000Y-96796875D03*
X94680000Y-96015625D03*
X84520000Y-95234375D03*
X94680000Y-94453125D03*
X84520000Y-93671875D03*
X94680000Y-92890625D03*
X84520000Y-92109375D03*
X94680000Y-91328125D03*
X84520000Y-90546875D03*
X94680000Y-89765625D03*
X84520000Y-88984375D03*
X94680000Y-88203125D03*
X84520000Y-87421875D03*
X94680000Y-86640625D03*
D12*
X123713240Y-71043800D03*
D13*
X123713240Y-73583800D03*
X123713240Y-76123800D03*
X123713240Y-78663800D03*
D12*
X94254320Y-64193420D03*
D13*
X94254320Y-66733420D03*
X96794320Y-64193420D03*
X96794320Y-66733420D03*
X99334320Y-64193420D03*
X99334320Y-66733420D03*
D12*
X123299220Y-57251600D03*
D13*
X123299220Y-59791600D03*
D14*
X125407420Y-92250260D03*
X122867420Y-89710260D03*
X122867420Y-94790260D03*
D15*
X70064600Y-95000000D03*
X119323000Y-85000000D03*
X70064600Y-114000000D03*
X119323000Y-115000000D03*
D16*
X105320000Y-105000000D03*
D17*
X94681040Y-80840580D03*
X84284783Y-84086663D03*
X84783921Y-76266472D03*
X85037919Y-77670934D03*
X91467940Y-80192880D03*
X94200980Y-60896501D03*
X88000840Y-67185540D03*
X87754460Y-64787780D03*
X76923900Y-62819280D03*
X97790000Y-69758560D03*
X90845640Y-71155560D03*
X86951819Y-60896501D03*
X116725700Y-106446320D03*
X120637300Y-76641960D03*
X120523000Y-71158100D03*
X99265905Y-75793750D03*
X93786960Y-76179680D03*
X79750920Y-68097400D03*
X72550020Y-75803760D03*
X120754140Y-101610160D03*
X113352580Y-110893860D03*
X117594380Y-98582480D03*
X116189760Y-88239600D03*
X110688120Y-61059060D03*
X116420900Y-55900320D03*
X105084880Y-61239400D03*
X109623860Y-55450740D03*
X81747360Y-71135240D03*
X83350100Y-71836280D03*
X107215940Y-70779640D03*
X77782420Y-75369420D03*
X125243092Y-101908078D03*
X113085880Y-91159580D03*
X125432820Y-87005160D03*
X93484700Y-77149960D03*
X101602540Y-77149960D03*
X87777320Y-76797050D03*
X85686518Y-68539360D03*
X90385900Y-65963800D03*
X117820440Y-62684660D03*
X112425480Y-62410340D03*
X102709980Y-62773560D03*
X117053595Y-73504547D03*
X88380076Y-75507396D03*
X116131340Y-72994520D03*
X87774075Y-74862086D03*
X94841060Y-72036940D03*
X80779620Y-123350000D03*
X80779620Y-117125000D03*
X80779620Y-110850000D03*
X80779620Y-104600000D03*
X80779620Y-98350000D03*
X80779620Y-92100000D03*
X91250000Y-91325700D03*
X91250000Y-97574100D03*
X91250000Y-103822500D03*
X91250000Y-110070900D03*
X91250000Y-116332000D03*
X91250000Y-122567700D03*
X83273900Y-121800000D03*
X83273900Y-115550000D03*
X83273900Y-109300000D03*
X83273900Y-103050000D03*
X83273900Y-96800000D03*
X83273900Y-90550000D03*
X93750000Y-89763600D03*
X93750000Y-96012000D03*
X93750000Y-102260400D03*
X93750000Y-108508800D03*
X93750000Y-114757200D03*
X93750000Y-121018300D03*
X85770720Y-120225000D03*
X85770720Y-113975000D03*
X85770720Y-107725000D03*
X85770720Y-101475000D03*
X85770720Y-95237300D03*
X85770720Y-88968580D03*
X96250000Y-88201500D03*
X96250000Y-94449900D03*
X96250000Y-100698300D03*
X96250000Y-106959400D03*
X96250000Y-113182400D03*
X96250000Y-119456200D03*
X88267540Y-118658640D03*
X88267540Y-112410240D03*
X88267540Y-106169460D03*
X88267540Y-99923600D03*
X88267540Y-93667580D03*
X88267540Y-87424260D03*
X98750000Y-86639400D03*
X98750000Y-92887800D03*
X98750000Y-99136200D03*
X98750000Y-105397300D03*
X98750000Y-111645700D03*
X98750000Y-117894100D03*
X105000000Y-123500000D03*
X105000000Y-111500000D03*
X105000000Y-99000000D03*
X105000000Y-86500000D03*
X91968320Y-72950899D03*
X98534220Y-72555100D03*
D18*
X94254320Y-64193420D02*
X86133229Y-72314511D01*
X86133229Y-82084469D02*
X86591140Y-82542380D01*
X86133229Y-72314511D02*
X86133229Y-82084469D01*
X91810840Y-82542380D02*
X92979240Y-82542380D01*
X92979240Y-82542380D02*
X94681040Y-80840580D01*
X86591140Y-82542380D02*
X91810840Y-82542380D01*
X86591140Y-82542380D02*
X85046857Y-84086663D01*
X85046857Y-84086663D02*
X84284783Y-84086663D01*
D19*
X87035640Y-77297280D02*
X89931240Y-80192880D01*
X89931240Y-80192880D02*
X91467940Y-80192880D01*
D20*
X84783921Y-77416936D02*
X85037919Y-77670934D01*
X84783921Y-76266472D02*
X84783921Y-77416936D01*
D19*
X87035640Y-74480627D02*
X87035640Y-77297280D01*
X90360707Y-71155560D02*
X87035640Y-74480627D01*
X90845640Y-71155560D02*
X90360707Y-71155560D01*
D18*
X86951819Y-60896501D02*
X94200980Y-60896501D01*
X94200980Y-60896501D02*
X104741981Y-60896501D01*
D19*
X87754460Y-64787780D02*
X87754460Y-66939160D01*
X87754460Y-66939160D02*
X88000840Y-67185540D01*
X86951819Y-60896501D02*
X78846679Y-60896501D01*
X78846679Y-60896501D02*
X76923900Y-62819280D01*
X90845640Y-71155560D02*
X92242640Y-69758560D01*
X92242640Y-69758560D02*
X97790000Y-69758560D01*
D18*
X79750920Y-68097400D02*
X86951819Y-60896501D01*
X104741981Y-60896501D02*
X105084880Y-61239400D01*
D20*
X115542060Y-100634800D02*
X113352580Y-102824280D01*
X117594380Y-98582480D02*
X115542060Y-100634800D01*
X115542060Y-100634800D02*
X115542060Y-105262680D01*
X115542060Y-105262680D02*
X116725700Y-106446320D01*
D18*
X118369080Y-73420497D02*
X121122440Y-76121895D01*
X121122440Y-76121895D02*
X123713240Y-78663800D01*
D19*
X120637300Y-76641960D02*
X121122440Y-76156820D01*
X121122440Y-76156820D02*
X121122440Y-76121895D01*
D18*
X118369080Y-66441344D02*
X118369080Y-70172580D01*
D19*
X120523000Y-71158100D02*
X120180101Y-70815201D01*
D18*
X118369080Y-70172580D02*
X118369080Y-73420497D01*
D19*
X120180101Y-70815201D02*
X119011701Y-70815201D01*
X119011701Y-70815201D02*
X118369080Y-70172580D01*
D18*
X113777889Y-61850153D02*
X118369080Y-66441344D01*
D19*
X98923006Y-76136649D02*
X99265905Y-75793750D01*
X93786960Y-76179680D02*
X98879975Y-76179680D01*
X98879975Y-76179680D02*
X98923006Y-76136649D01*
D20*
X113352580Y-110893860D02*
X115216860Y-110893860D01*
X115216860Y-110893860D02*
X119323000Y-115000000D01*
X78679040Y-77066140D02*
X78679040Y-76507340D01*
X78679040Y-76507340D02*
X83350100Y-71836280D01*
X73812400Y-77066140D02*
X78679040Y-77066140D01*
X72550020Y-75803760D02*
X73812400Y-77066140D01*
D19*
X116189760Y-88239600D02*
X119323000Y-85106360D01*
X119323000Y-85106360D02*
X119323000Y-85000000D01*
X118369080Y-73098453D02*
X118369080Y-73420497D01*
D20*
X117594380Y-98582480D02*
X117726460Y-98582480D01*
X117726460Y-98582480D02*
X120754140Y-101610160D01*
X113352580Y-102824280D02*
X113352580Y-110893860D01*
D18*
X123713240Y-78663800D02*
X123713240Y-80716120D01*
X123713240Y-80716120D02*
X116189760Y-88239600D01*
X110688120Y-61059060D02*
X111864164Y-61059060D01*
X112985667Y-61057931D02*
X113777889Y-61850153D01*
X113777889Y-61850153D02*
X113777889Y-62193029D01*
X111864164Y-61059060D02*
X111865293Y-61057931D01*
X111865293Y-61057931D02*
X112985667Y-61057931D01*
X105084880Y-61239400D02*
X107629960Y-58694320D01*
X107629960Y-58694320D02*
X109623860Y-56700420D01*
X110345221Y-60716161D02*
X109651801Y-60716161D01*
X110688120Y-61059060D02*
X110345221Y-60716161D01*
X109651801Y-60716161D02*
X107629960Y-58694320D01*
X123299220Y-59791600D02*
X120312180Y-59791600D01*
X120312180Y-59791600D02*
X116420900Y-55900320D01*
X109623860Y-56700420D02*
X109623860Y-56575960D01*
X109623860Y-55450740D02*
X109623860Y-56575960D01*
D19*
X83350100Y-71836280D02*
X82448400Y-71836280D01*
X82448400Y-71836280D02*
X81747360Y-71135240D01*
D18*
X104858820Y-67346366D02*
X104858820Y-68422520D01*
X104858820Y-68422520D02*
X107215940Y-70779640D01*
X77782420Y-72600820D02*
X87792221Y-62591019D01*
X87792221Y-62591019D02*
X100103473Y-62591019D01*
X100103473Y-62591019D02*
X104858820Y-67346366D01*
X77782420Y-75369420D02*
X77782420Y-72600820D01*
X119564546Y-91159580D02*
X119564546Y-96229532D01*
X119564546Y-96229532D02*
X125243092Y-101908078D01*
X125432820Y-87005160D02*
X123718966Y-87005160D01*
X123718966Y-87005160D02*
X119564546Y-91159580D01*
X119564546Y-91159580D02*
X113085880Y-91159580D01*
D19*
X101602540Y-77149960D02*
X93484700Y-77149960D01*
X93484700Y-77149960D02*
X88130230Y-77149960D01*
X88120219Y-77139949D02*
X87777320Y-76797050D01*
X88130230Y-77149960D02*
X88120219Y-77139949D01*
X90385900Y-65963800D02*
X87810340Y-68539360D01*
X87810340Y-68539360D02*
X85686518Y-68539360D01*
D18*
X124901621Y-63306960D02*
X124901621Y-62684660D01*
X124901621Y-62684660D02*
X124901621Y-58854001D01*
X117820440Y-62684660D02*
X124901621Y-62684660D01*
X102709980Y-62773560D02*
X112062260Y-62773560D01*
X112062260Y-62773560D02*
X112425480Y-62410340D01*
X124901621Y-67805419D02*
X124901621Y-63306960D01*
X124368221Y-62773560D02*
X124901621Y-63306960D01*
X123713240Y-71043800D02*
X123713240Y-68993800D01*
X123713240Y-68993800D02*
X124901621Y-67805419D01*
X124901621Y-58854001D02*
X123299220Y-57251600D01*
D19*
X116509522Y-74048620D02*
X116710696Y-73847446D01*
X116710696Y-73847446D02*
X117053595Y-73504547D01*
X88380076Y-75507396D02*
X89838852Y-74048620D01*
X89838852Y-74048620D02*
X116509522Y-74048620D01*
X115788441Y-73337419D02*
X116131340Y-72994520D01*
X115529651Y-73596209D02*
X115788441Y-73337419D01*
X87774075Y-74862086D02*
X89039952Y-73596209D01*
X89039952Y-73596209D02*
X115529651Y-73596209D01*
X95325993Y-72036940D02*
X94841060Y-72036940D01*
X98435302Y-70068306D02*
X96466668Y-72036940D01*
X98435302Y-68374402D02*
X98435302Y-70068306D01*
X96794320Y-66733420D02*
X98435302Y-68374402D01*
X96466668Y-72036940D02*
X95325993Y-72036940D01*
X98138421Y-72950899D02*
X92453253Y-72950899D01*
X98534220Y-72555100D02*
X98138421Y-72950899D01*
X92453253Y-72950899D02*
X91968320Y-72950899D01*
D21*
G36*
X127290000Y-128290000D02*
X112127000Y-128290000D01*
X112127000Y-116938183D01*
X117564423Y-116938183D01*
X117795858Y-117317996D01*
X118799163Y-117725961D01*
X119882218Y-117718923D01*
X120850142Y-117317996D01*
X121081577Y-116938183D01*
X119323000Y-115179605D01*
X117564423Y-116938183D01*
X112127000Y-116938183D01*
X112127000Y-114476163D01*
X116597039Y-114476163D01*
X116604077Y-115559218D01*
X117005004Y-116527142D01*
X117384817Y-116758577D01*
X119143395Y-115000000D01*
X119502605Y-115000000D01*
X121261183Y-116758577D01*
X121640996Y-116527142D01*
X122048961Y-115523837D01*
X122041923Y-114440782D01*
X121640996Y-113472858D01*
X121261183Y-113241423D01*
X119502605Y-115000000D01*
X119143395Y-115000000D01*
X117384817Y-113241423D01*
X117005004Y-113472858D01*
X116597039Y-114476163D01*
X112127000Y-114476163D01*
X112127000Y-113061817D01*
X117564423Y-113061817D01*
X119323000Y-114820395D01*
X121081577Y-113061817D01*
X120850142Y-112682004D01*
X119846837Y-112274039D01*
X118763782Y-112281077D01*
X117795858Y-112682004D01*
X117564423Y-113061817D01*
X112127000Y-113061817D01*
X112127000Y-91904743D01*
X112212603Y-92032857D01*
X112613266Y-92300571D01*
X113085880Y-92394580D01*
X118329546Y-92394580D01*
X118329546Y-96229532D01*
X118423555Y-96702146D01*
X118691269Y-97102809D01*
X124369815Y-102781355D01*
X124770478Y-103049069D01*
X125243092Y-103143078D01*
X125715706Y-103049069D01*
X126116369Y-102781355D01*
X126384083Y-102380692D01*
X126478092Y-101908078D01*
X126384083Y-101435464D01*
X126116369Y-101034801D01*
X120799546Y-95717978D01*
X120799546Y-95015035D01*
X121732223Y-95015035D01*
X121904653Y-95432346D01*
X122223655Y-95751905D01*
X122640664Y-95925063D01*
X123092195Y-95925457D01*
X123509506Y-95753027D01*
X123829065Y-95434025D01*
X124002223Y-95017016D01*
X124002617Y-94565485D01*
X123830187Y-94148174D01*
X123511185Y-93828615D01*
X123094176Y-93655457D01*
X122642645Y-93655063D01*
X122225334Y-93827493D01*
X121905775Y-94146495D01*
X121732617Y-94563504D01*
X121732223Y-95015035D01*
X120799546Y-95015035D01*
X120799546Y-92475035D01*
X124272223Y-92475035D01*
X124444653Y-92892346D01*
X124763655Y-93211905D01*
X125180664Y-93385063D01*
X125632195Y-93385457D01*
X126049506Y-93213027D01*
X126369065Y-92894025D01*
X126542223Y-92477016D01*
X126542617Y-92025485D01*
X126370187Y-91608174D01*
X126051185Y-91288615D01*
X125634176Y-91115457D01*
X125182645Y-91115063D01*
X124765334Y-91287493D01*
X124445775Y-91606495D01*
X124272617Y-92023504D01*
X124272223Y-92475035D01*
X120799546Y-92475035D01*
X120799546Y-91671134D01*
X122011400Y-90459280D01*
X122223655Y-90671905D01*
X122640664Y-90845063D01*
X123092195Y-90845457D01*
X123509506Y-90673027D01*
X123829065Y-90354025D01*
X124002223Y-89937016D01*
X124002617Y-89485485D01*
X123830187Y-89068174D01*
X123616533Y-88854147D01*
X124230520Y-88240160D01*
X125432820Y-88240160D01*
X125905434Y-88146151D01*
X126306097Y-87878437D01*
X126573811Y-87477774D01*
X126667820Y-87005160D01*
X126573811Y-86532546D01*
X126306097Y-86131883D01*
X125905434Y-85864169D01*
X125432820Y-85770160D01*
X123718966Y-85770160D01*
X123246352Y-85864169D01*
X122845689Y-86131883D01*
X119052992Y-89924580D01*
X113085880Y-89924580D01*
X112613266Y-90018589D01*
X112212603Y-90286303D01*
X112127000Y-90414417D01*
X112127000Y-86938183D01*
X117564423Y-86938183D01*
X117795858Y-87317996D01*
X118799163Y-87725961D01*
X119882218Y-87718923D01*
X120850142Y-87317996D01*
X121081577Y-86938183D01*
X119323000Y-85179605D01*
X117564423Y-86938183D01*
X112127000Y-86938183D01*
X112127000Y-84476163D01*
X116597039Y-84476163D01*
X116604077Y-85559218D01*
X117005004Y-86527142D01*
X117384817Y-86758577D01*
X119143395Y-85000000D01*
X119502605Y-85000000D01*
X121261183Y-86758577D01*
X121640996Y-86527142D01*
X122048961Y-85523837D01*
X122041923Y-84440782D01*
X121640996Y-83472858D01*
X121261183Y-83241423D01*
X119502605Y-85000000D01*
X119143395Y-85000000D01*
X117384817Y-83241423D01*
X117005004Y-83472858D01*
X116597039Y-84476163D01*
X112127000Y-84476163D01*
X112127000Y-83061817D01*
X117564423Y-83061817D01*
X119323000Y-84820395D01*
X121081577Y-83061817D01*
X120850142Y-82682004D01*
X119846837Y-82274039D01*
X118763782Y-82281077D01*
X117795858Y-82682004D01*
X117564423Y-83061817D01*
X112127000Y-83061817D01*
X112127000Y-82000000D01*
X112116994Y-81950590D01*
X112088553Y-81908965D01*
X112046159Y-81881685D01*
X112000000Y-81873000D01*
X100000000Y-81873000D01*
X99950590Y-81883006D01*
X99908965Y-81911447D01*
X99881685Y-81953841D01*
X99873000Y-82000000D01*
X99873000Y-82658052D01*
X99868559Y-82660910D01*
X99723569Y-82873110D01*
X99672560Y-83125000D01*
X99672560Y-85602560D01*
X89680000Y-85602560D01*
X89444683Y-85646838D01*
X89228559Y-85785910D01*
X89083569Y-85998110D01*
X89032560Y-86250000D01*
X89032560Y-86383810D01*
X79520000Y-86383810D01*
X79284683Y-86428088D01*
X79068559Y-86567160D01*
X78923569Y-86779360D01*
X78872560Y-87031250D01*
X78872560Y-87812500D01*
X78916838Y-88047817D01*
X79017545Y-88204321D01*
X78923569Y-88341860D01*
X78872560Y-88593750D01*
X78872560Y-89375000D01*
X78916838Y-89610317D01*
X79017545Y-89766821D01*
X78923569Y-89904360D01*
X78872560Y-90156250D01*
X78872560Y-90937500D01*
X78916838Y-91172817D01*
X79017545Y-91329321D01*
X78923569Y-91466860D01*
X78872560Y-91718750D01*
X78872560Y-92500000D01*
X78916838Y-92735317D01*
X79017545Y-92891821D01*
X78923569Y-93029360D01*
X78872560Y-93281250D01*
X78872560Y-94062500D01*
X78916838Y-94297817D01*
X79017545Y-94454321D01*
X78923569Y-94591860D01*
X78872560Y-94843750D01*
X78872560Y-95625000D01*
X78916838Y-95860317D01*
X79017545Y-96016821D01*
X78923569Y-96154360D01*
X78872560Y-96406250D01*
X78872560Y-97187500D01*
X78916838Y-97422817D01*
X79017545Y-97579321D01*
X78923569Y-97716860D01*
X78872560Y-97968750D01*
X78872560Y-98750000D01*
X78916838Y-98985317D01*
X79017545Y-99141821D01*
X78923569Y-99279360D01*
X78872560Y-99531250D01*
X78872560Y-100312500D01*
X78916838Y-100547817D01*
X79017545Y-100704321D01*
X78923569Y-100841860D01*
X78872560Y-101093750D01*
X78872560Y-101875000D01*
X78916838Y-102110317D01*
X79017545Y-102266821D01*
X78923569Y-102404360D01*
X78872560Y-102656250D01*
X78872560Y-103437500D01*
X78916838Y-103672817D01*
X79017545Y-103829321D01*
X78923569Y-103966860D01*
X78872560Y-104218750D01*
X78872560Y-105000000D01*
X78916838Y-105235317D01*
X79017545Y-105391821D01*
X78923569Y-105529360D01*
X78872560Y-105781250D01*
X78872560Y-106562500D01*
X78916838Y-106797817D01*
X79017545Y-106954321D01*
X78923569Y-107091860D01*
X78872560Y-107343750D01*
X78872560Y-108125000D01*
X78916838Y-108360317D01*
X79017545Y-108516821D01*
X78923569Y-108654360D01*
X78872560Y-108906250D01*
X78872560Y-109687500D01*
X78916838Y-109922817D01*
X79017545Y-110079321D01*
X78923569Y-110216860D01*
X78872560Y-110468750D01*
X78872560Y-111250000D01*
X78916838Y-111485317D01*
X79017545Y-111641821D01*
X78923569Y-111779360D01*
X78872560Y-112031250D01*
X78872560Y-112812500D01*
X78916838Y-113047817D01*
X79017545Y-113204321D01*
X78923569Y-113341860D01*
X78872560Y-113593750D01*
X78872560Y-114375000D01*
X78916838Y-114610317D01*
X79017545Y-114766821D01*
X78923569Y-114904360D01*
X78872560Y-115156250D01*
X78872560Y-115937500D01*
X78916838Y-116172817D01*
X79017545Y-116329321D01*
X78923569Y-116466860D01*
X78872560Y-116718750D01*
X78872560Y-117500000D01*
X78916838Y-117735317D01*
X79017545Y-117891821D01*
X78923569Y-118029360D01*
X78872560Y-118281250D01*
X78872560Y-119062500D01*
X78916838Y-119297817D01*
X79017545Y-119454321D01*
X78923569Y-119591860D01*
X78872560Y-119843750D01*
X78872560Y-120625000D01*
X78916838Y-120860317D01*
X79017545Y-121016821D01*
X78923569Y-121154360D01*
X78872560Y-121406250D01*
X78872560Y-122187500D01*
X78916838Y-122422817D01*
X79017545Y-122579321D01*
X78923569Y-122716860D01*
X78872560Y-122968750D01*
X78872560Y-123750000D01*
X78916838Y-123985317D01*
X79055910Y-124201441D01*
X79268110Y-124346431D01*
X79520000Y-124397440D01*
X89520000Y-124397440D01*
X89755317Y-124353162D01*
X89971441Y-124214090D01*
X90116431Y-124001890D01*
X90167440Y-123750000D01*
X90167440Y-123616190D01*
X99672560Y-123616190D01*
X99672560Y-126875000D01*
X99716838Y-127110317D01*
X99855910Y-127326441D01*
X99873000Y-127338118D01*
X99873000Y-128290000D01*
X67710000Y-128290000D01*
X67710000Y-115938183D01*
X68306023Y-115938183D01*
X68537458Y-116317996D01*
X69540763Y-116725961D01*
X70623818Y-116718923D01*
X71591742Y-116317996D01*
X71823177Y-115938183D01*
X70064600Y-114179605D01*
X68306023Y-115938183D01*
X67710000Y-115938183D01*
X67710000Y-115438772D01*
X67746604Y-115527142D01*
X68126417Y-115758577D01*
X69884995Y-114000000D01*
X70244205Y-114000000D01*
X72002783Y-115758577D01*
X72382596Y-115527142D01*
X72790561Y-114523837D01*
X72783523Y-113440782D01*
X72382596Y-112472858D01*
X72002783Y-112241423D01*
X70244205Y-114000000D01*
X69884995Y-114000000D01*
X68126417Y-112241423D01*
X67746604Y-112472858D01*
X67710000Y-112562878D01*
X67710000Y-112061817D01*
X68306023Y-112061817D01*
X70064600Y-113820395D01*
X71823177Y-112061817D01*
X71591742Y-111682004D01*
X70588437Y-111274039D01*
X69505382Y-111281077D01*
X68537458Y-111682004D01*
X68306023Y-112061817D01*
X67710000Y-112061817D01*
X67710000Y-96938183D01*
X68306023Y-96938183D01*
X68537458Y-97317996D01*
X69540763Y-97725961D01*
X70623818Y-97718923D01*
X71591742Y-97317996D01*
X71823177Y-96938183D01*
X70064600Y-95179605D01*
X68306023Y-96938183D01*
X67710000Y-96938183D01*
X67710000Y-96438772D01*
X67746604Y-96527142D01*
X68126417Y-96758577D01*
X69884995Y-95000000D01*
X70244205Y-95000000D01*
X72002783Y-96758577D01*
X72382596Y-96527142D01*
X72790561Y-95523837D01*
X72783523Y-94440782D01*
X72382596Y-93472858D01*
X72002783Y-93241423D01*
X70244205Y-95000000D01*
X69884995Y-95000000D01*
X68126417Y-93241423D01*
X67746604Y-93472858D01*
X67710000Y-93562878D01*
X67710000Y-93061817D01*
X68306023Y-93061817D01*
X70064600Y-94820395D01*
X71823177Y-93061817D01*
X71591742Y-92682004D01*
X70588437Y-92274039D01*
X69505382Y-92281077D01*
X68537458Y-92682004D01*
X68306023Y-93061817D01*
X67710000Y-93061817D01*
X67710000Y-72600820D01*
X76547420Y-72600820D01*
X76547420Y-75369420D01*
X76641429Y-75842034D01*
X76909143Y-76242697D01*
X77309806Y-76510411D01*
X77782420Y-76604420D01*
X78255034Y-76510411D01*
X78655697Y-76242697D01*
X78923411Y-75842034D01*
X79017420Y-75369420D01*
X79017420Y-73112374D01*
X88303775Y-63826019D01*
X92756880Y-63826019D01*
X92756880Y-63944306D01*
X91237391Y-65463795D01*
X91215407Y-65410588D01*
X90940559Y-65135260D01*
X90581270Y-64986070D01*
X90192237Y-64985731D01*
X89832688Y-65134293D01*
X89557360Y-65409141D01*
X89408170Y-65768430D01*
X89408115Y-65831427D01*
X87485182Y-67754360D01*
X86284641Y-67754360D01*
X86241177Y-67710820D01*
X85881888Y-67561630D01*
X85492855Y-67561291D01*
X85133306Y-67709853D01*
X84857978Y-67984701D01*
X84708788Y-68343990D01*
X84708449Y-68733023D01*
X84857011Y-69092572D01*
X85131859Y-69367900D01*
X85491148Y-69517090D01*
X85880181Y-69517429D01*
X86239730Y-69368867D01*
X86284315Y-69324360D01*
X87376826Y-69324360D01*
X85259952Y-71441234D01*
X84992238Y-71841897D01*
X84898229Y-72314511D01*
X84898229Y-82084469D01*
X84965302Y-82421664D01*
X84535303Y-82851663D01*
X84284783Y-82851663D01*
X83812169Y-82945672D01*
X83411506Y-83213386D01*
X83143792Y-83614049D01*
X83049783Y-84086663D01*
X83143792Y-84559277D01*
X83411506Y-84959940D01*
X83812169Y-85227654D01*
X84284783Y-85321663D01*
X85046857Y-85321663D01*
X85519471Y-85227654D01*
X85920134Y-84959940D01*
X87102694Y-83777380D01*
X92979240Y-83777380D01*
X93451854Y-83683371D01*
X93852517Y-83415657D01*
X95554317Y-81713857D01*
X95822031Y-81313194D01*
X95916040Y-80840580D01*
X95822031Y-80367966D01*
X95554317Y-79967303D01*
X95153654Y-79699589D01*
X94681040Y-79605580D01*
X94208426Y-79699589D01*
X93807763Y-79967303D01*
X92467686Y-81307380D01*
X87368229Y-81307380D01*
X87368229Y-79020690D01*
X122271764Y-79020690D01*
X122441595Y-79430724D01*
X122831882Y-79858983D01*
X123356348Y-80105286D01*
X123586240Y-79984619D01*
X123586240Y-78790800D01*
X123840240Y-78790800D01*
X123840240Y-79984619D01*
X124070132Y-80105286D01*
X124594598Y-79858983D01*
X124984885Y-79430724D01*
X125154716Y-79020690D01*
X125033395Y-78790800D01*
X123840240Y-78790800D01*
X123586240Y-78790800D01*
X122393085Y-78790800D01*
X122271764Y-79020690D01*
X87368229Y-79020690D01*
X87368229Y-77686035D01*
X87581950Y-77774780D01*
X87679654Y-77774865D01*
X87829824Y-77875205D01*
X88130230Y-77934960D01*
X92886577Y-77934960D01*
X92930041Y-77978500D01*
X93289330Y-78127690D01*
X93678363Y-78128029D01*
X94037912Y-77979467D01*
X94082497Y-77934960D01*
X101004417Y-77934960D01*
X101047881Y-77978500D01*
X101407170Y-78127690D01*
X101796203Y-78128029D01*
X102155752Y-77979467D01*
X102431080Y-77704619D01*
X102580270Y-77345330D01*
X102580609Y-76956297D01*
X102432047Y-76596748D01*
X102157199Y-76321420D01*
X101797910Y-76172230D01*
X101408877Y-76171891D01*
X101049328Y-76320453D01*
X101004743Y-76364960D01*
X94082823Y-76364960D01*
X94039359Y-76321420D01*
X93680070Y-76172230D01*
X93291037Y-76171891D01*
X92931488Y-76320453D01*
X92886903Y-76364960D01*
X88865385Y-76364960D01*
X88933288Y-76336903D01*
X89208616Y-76062055D01*
X89357806Y-75702766D01*
X89357861Y-75639769D01*
X90164010Y-74833620D01*
X116509522Y-74833620D01*
X116809929Y-74773865D01*
X117064601Y-74603699D01*
X117185738Y-74482562D01*
X117247258Y-74482616D01*
X117606807Y-74334054D01*
X117882135Y-74059206D01*
X118031325Y-73699917D01*
X118031664Y-73310884D01*
X117883102Y-72951335D01*
X117608254Y-72676007D01*
X117248965Y-72526817D01*
X116996087Y-72526597D01*
X116960847Y-72441308D01*
X116685999Y-72165980D01*
X116326710Y-72016790D01*
X115937677Y-72016451D01*
X115578128Y-72165013D01*
X115302800Y-72439861D01*
X115153610Y-72799150D01*
X115153599Y-72811209D01*
X99486729Y-72811209D01*
X99511950Y-72750470D01*
X99512289Y-72361437D01*
X99363727Y-72001888D01*
X99088879Y-71726560D01*
X98729590Y-71577370D01*
X98340557Y-71577031D01*
X97981008Y-71725593D01*
X97705680Y-72000441D01*
X97636976Y-72165899D01*
X97447867Y-72165899D01*
X98990381Y-70623385D01*
X99160547Y-70368712D01*
X99220302Y-70068306D01*
X99220302Y-68374402D01*
X99195062Y-68247513D01*
X99161315Y-68077854D01*
X99207320Y-68053575D01*
X99207320Y-66860420D01*
X99461320Y-66860420D01*
X99461320Y-68053575D01*
X99691210Y-68174896D01*
X100101244Y-68005065D01*
X100529503Y-67614778D01*
X100775806Y-67090312D01*
X100655139Y-66860420D01*
X99461320Y-66860420D01*
X99207320Y-66860420D01*
X99187320Y-66860420D01*
X99187320Y-66606420D01*
X99207320Y-66606420D01*
X99207320Y-66586420D01*
X99461320Y-66586420D01*
X99461320Y-66606420D01*
X100655139Y-66606420D01*
X100775806Y-66376528D01*
X100529503Y-65852062D01*
X100101244Y-65461775D01*
X100101219Y-65461765D01*
X100384374Y-65272567D01*
X100646367Y-64880467D01*
X103623820Y-67857920D01*
X103623820Y-68422520D01*
X103717829Y-68895134D01*
X103985543Y-69295797D01*
X106342663Y-71652917D01*
X106743326Y-71920631D01*
X107215940Y-72014640D01*
X107688554Y-71920631D01*
X108089217Y-71652917D01*
X108356931Y-71252254D01*
X108450940Y-70779640D01*
X108356931Y-70307026D01*
X108089217Y-69906363D01*
X106093820Y-67910966D01*
X106093820Y-67346366D01*
X105999811Y-66873752D01*
X105732097Y-66473089D01*
X103267568Y-64008560D01*
X112062260Y-64008560D01*
X112534874Y-63914551D01*
X112935537Y-63646837D01*
X113298757Y-63283617D01*
X113566471Y-62882954D01*
X113605914Y-62684660D01*
X116585440Y-62684660D01*
X116679449Y-63157274D01*
X116947163Y-63557937D01*
X117347826Y-63825651D01*
X117820440Y-63919660D01*
X123666621Y-63919660D01*
X123666621Y-67293865D01*
X122839963Y-68120523D01*
X122572249Y-68521186D01*
X122478240Y-68993800D01*
X122478240Y-69686956D01*
X122411799Y-69729710D01*
X122266809Y-69941910D01*
X122215800Y-70193800D01*
X122215800Y-71893800D01*
X122260078Y-72129117D01*
X122399150Y-72345241D01*
X122611350Y-72490231D01*
X122678781Y-72503886D01*
X122634093Y-72533746D01*
X122312186Y-73015515D01*
X122199147Y-73583800D01*
X122312186Y-74152085D01*
X122634093Y-74633854D01*
X122963266Y-74853800D01*
X122634093Y-75073746D01*
X122312186Y-75555515D01*
X122199147Y-76123800D01*
X122312186Y-76692085D01*
X122634093Y-77173854D01*
X122974793Y-77401502D01*
X122831882Y-77468617D01*
X122441595Y-77896876D01*
X122271764Y-78306910D01*
X122393085Y-78536800D01*
X123586240Y-78536800D01*
X123586240Y-78516800D01*
X123840240Y-78516800D01*
X123840240Y-78536800D01*
X125033395Y-78536800D01*
X125154716Y-78306910D01*
X124984885Y-77896876D01*
X124594598Y-77468617D01*
X124451687Y-77401502D01*
X124792387Y-77173854D01*
X125114294Y-76692085D01*
X125227333Y-76123800D01*
X125114294Y-75555515D01*
X124792387Y-75073746D01*
X124463214Y-74853800D01*
X124792387Y-74633854D01*
X125114294Y-74152085D01*
X125227333Y-73583800D01*
X125114294Y-73015515D01*
X124792387Y-72533746D01*
X124750788Y-72505950D01*
X124798557Y-72496962D01*
X125014681Y-72357890D01*
X125159671Y-72145690D01*
X125210680Y-71893800D01*
X125210680Y-70193800D01*
X125166402Y-69958483D01*
X125027330Y-69742359D01*
X124948240Y-69688319D01*
X124948240Y-69505354D01*
X125774898Y-68678696D01*
X126042612Y-68278033D01*
X126136622Y-67805419D01*
X126136621Y-67805414D01*
X126136621Y-63306965D01*
X126136622Y-63306960D01*
X126136621Y-63306955D01*
X126136621Y-58854001D01*
X126042612Y-58381387D01*
X125774898Y-57980724D01*
X124796660Y-57002486D01*
X124796660Y-56401600D01*
X124752382Y-56166283D01*
X124613310Y-55950159D01*
X124401110Y-55805169D01*
X124149220Y-55754160D01*
X122449220Y-55754160D01*
X122213903Y-55798438D01*
X121997779Y-55937510D01*
X121852789Y-56149710D01*
X121801780Y-56401600D01*
X121801780Y-58101600D01*
X121846058Y-58336917D01*
X121985130Y-58553041D01*
X122197330Y-58698031D01*
X122305327Y-58719901D01*
X122027575Y-59024676D01*
X121857744Y-59434710D01*
X121979065Y-59664600D01*
X123172220Y-59664600D01*
X123172220Y-59644600D01*
X123426220Y-59644600D01*
X123426220Y-59664600D01*
X123446220Y-59664600D01*
X123446220Y-59918600D01*
X123426220Y-59918600D01*
X123426220Y-61112419D01*
X123656112Y-61233086D01*
X123666621Y-61228151D01*
X123666621Y-61449660D01*
X117820440Y-61449660D01*
X117347826Y-61543669D01*
X116947163Y-61811383D01*
X116679449Y-62212046D01*
X116585440Y-62684660D01*
X113605914Y-62684660D01*
X113660480Y-62410340D01*
X113566471Y-61937726D01*
X113298757Y-61537063D01*
X112898094Y-61269349D01*
X112425480Y-61175340D01*
X111952866Y-61269349D01*
X111552203Y-61537063D01*
X111550706Y-61538560D01*
X102709980Y-61538560D01*
X102237366Y-61632569D01*
X101836703Y-61900283D01*
X101568989Y-62300946D01*
X101567490Y-62308482D01*
X100976750Y-61717742D01*
X100576087Y-61450028D01*
X100103473Y-61356019D01*
X87792221Y-61356019D01*
X87319607Y-61450028D01*
X86918944Y-61717742D01*
X76909143Y-71727543D01*
X76641429Y-72128206D01*
X76547420Y-72600820D01*
X67710000Y-72600820D01*
X67710000Y-60148490D01*
X121857744Y-60148490D01*
X122027575Y-60558524D01*
X122417862Y-60986783D01*
X122942328Y-61233086D01*
X123172220Y-61112419D01*
X123172220Y-59918600D01*
X121979065Y-59918600D01*
X121857744Y-60148490D01*
X67710000Y-60148490D01*
X67710000Y-52710000D01*
X127290000Y-52710000D01*
X127290000Y-128290000D01*
X127290000Y-128290000D01*
G37*
X127290000Y-128290000D02*
X112127000Y-128290000D01*
X112127000Y-116938183D01*
X117564423Y-116938183D01*
X117795858Y-117317996D01*
X118799163Y-117725961D01*
X119882218Y-117718923D01*
X120850142Y-117317996D01*
X121081577Y-116938183D01*
X119323000Y-115179605D01*
X117564423Y-116938183D01*
X112127000Y-116938183D01*
X112127000Y-114476163D01*
X116597039Y-114476163D01*
X116604077Y-115559218D01*
X117005004Y-116527142D01*
X117384817Y-116758577D01*
X119143395Y-115000000D01*
X119502605Y-115000000D01*
X121261183Y-116758577D01*
X121640996Y-116527142D01*
X122048961Y-115523837D01*
X122041923Y-114440782D01*
X121640996Y-113472858D01*
X121261183Y-113241423D01*
X119502605Y-115000000D01*
X119143395Y-115000000D01*
X117384817Y-113241423D01*
X117005004Y-113472858D01*
X116597039Y-114476163D01*
X112127000Y-114476163D01*
X112127000Y-113061817D01*
X117564423Y-113061817D01*
X119323000Y-114820395D01*
X121081577Y-113061817D01*
X120850142Y-112682004D01*
X119846837Y-112274039D01*
X118763782Y-112281077D01*
X117795858Y-112682004D01*
X117564423Y-113061817D01*
X112127000Y-113061817D01*
X112127000Y-91904743D01*
X112212603Y-92032857D01*
X112613266Y-92300571D01*
X113085880Y-92394580D01*
X118329546Y-92394580D01*
X118329546Y-96229532D01*
X118423555Y-96702146D01*
X118691269Y-97102809D01*
X124369815Y-102781355D01*
X124770478Y-103049069D01*
X125243092Y-103143078D01*
X125715706Y-103049069D01*
X126116369Y-102781355D01*
X126384083Y-102380692D01*
X126478092Y-101908078D01*
X126384083Y-101435464D01*
X126116369Y-101034801D01*
X120799546Y-95717978D01*
X120799546Y-95015035D01*
X121732223Y-95015035D01*
X121904653Y-95432346D01*
X122223655Y-95751905D01*
X122640664Y-95925063D01*
X123092195Y-95925457D01*
X123509506Y-95753027D01*
X123829065Y-95434025D01*
X124002223Y-95017016D01*
X124002617Y-94565485D01*
X123830187Y-94148174D01*
X123511185Y-93828615D01*
X123094176Y-93655457D01*
X122642645Y-93655063D01*
X122225334Y-93827493D01*
X121905775Y-94146495D01*
X121732617Y-94563504D01*
X121732223Y-95015035D01*
X120799546Y-95015035D01*
X120799546Y-92475035D01*
X124272223Y-92475035D01*
X124444653Y-92892346D01*
X124763655Y-93211905D01*
X125180664Y-93385063D01*
X125632195Y-93385457D01*
X126049506Y-93213027D01*
X126369065Y-92894025D01*
X126542223Y-92477016D01*
X126542617Y-92025485D01*
X126370187Y-91608174D01*
X126051185Y-91288615D01*
X125634176Y-91115457D01*
X125182645Y-91115063D01*
X124765334Y-91287493D01*
X124445775Y-91606495D01*
X124272617Y-92023504D01*
X124272223Y-92475035D01*
X120799546Y-92475035D01*
X120799546Y-91671134D01*
X122011400Y-90459280D01*
X122223655Y-90671905D01*
X122640664Y-90845063D01*
X123092195Y-90845457D01*
X123509506Y-90673027D01*
X123829065Y-90354025D01*
X124002223Y-89937016D01*
X124002617Y-89485485D01*
X123830187Y-89068174D01*
X123616533Y-88854147D01*
X124230520Y-88240160D01*
X125432820Y-88240160D01*
X125905434Y-88146151D01*
X126306097Y-87878437D01*
X126573811Y-87477774D01*
X126667820Y-87005160D01*
X126573811Y-86532546D01*
X126306097Y-86131883D01*
X125905434Y-85864169D01*
X125432820Y-85770160D01*
X123718966Y-85770160D01*
X123246352Y-85864169D01*
X122845689Y-86131883D01*
X119052992Y-89924580D01*
X113085880Y-89924580D01*
X112613266Y-90018589D01*
X112212603Y-90286303D01*
X112127000Y-90414417D01*
X112127000Y-86938183D01*
X117564423Y-86938183D01*
X117795858Y-87317996D01*
X118799163Y-87725961D01*
X119882218Y-87718923D01*
X120850142Y-87317996D01*
X121081577Y-86938183D01*
X119323000Y-85179605D01*
X117564423Y-86938183D01*
X112127000Y-86938183D01*
X112127000Y-84476163D01*
X116597039Y-84476163D01*
X116604077Y-85559218D01*
X117005004Y-86527142D01*
X117384817Y-86758577D01*
X119143395Y-85000000D01*
X119502605Y-85000000D01*
X121261183Y-86758577D01*
X121640996Y-86527142D01*
X122048961Y-85523837D01*
X122041923Y-84440782D01*
X121640996Y-83472858D01*
X121261183Y-83241423D01*
X119502605Y-85000000D01*
X119143395Y-85000000D01*
X117384817Y-83241423D01*
X117005004Y-83472858D01*
X116597039Y-84476163D01*
X112127000Y-84476163D01*
X112127000Y-83061817D01*
X117564423Y-83061817D01*
X119323000Y-84820395D01*
X121081577Y-83061817D01*
X120850142Y-82682004D01*
X119846837Y-82274039D01*
X118763782Y-82281077D01*
X117795858Y-82682004D01*
X117564423Y-83061817D01*
X112127000Y-83061817D01*
X112127000Y-82000000D01*
X112116994Y-81950590D01*
X112088553Y-81908965D01*
X112046159Y-81881685D01*
X112000000Y-81873000D01*
X100000000Y-81873000D01*
X99950590Y-81883006D01*
X99908965Y-81911447D01*
X99881685Y-81953841D01*
X99873000Y-82000000D01*
X99873000Y-82658052D01*
X99868559Y-82660910D01*
X99723569Y-82873110D01*
X99672560Y-83125000D01*
X99672560Y-85602560D01*
X89680000Y-85602560D01*
X89444683Y-85646838D01*
X89228559Y-85785910D01*
X89083569Y-85998110D01*
X89032560Y-86250000D01*
X89032560Y-86383810D01*
X79520000Y-86383810D01*
X79284683Y-86428088D01*
X79068559Y-86567160D01*
X78923569Y-86779360D01*
X78872560Y-87031250D01*
X78872560Y-87812500D01*
X78916838Y-88047817D01*
X79017545Y-88204321D01*
X78923569Y-88341860D01*
X78872560Y-88593750D01*
X78872560Y-89375000D01*
X78916838Y-89610317D01*
X79017545Y-89766821D01*
X78923569Y-89904360D01*
X78872560Y-90156250D01*
X78872560Y-90937500D01*
X78916838Y-91172817D01*
X79017545Y-91329321D01*
X78923569Y-91466860D01*
X78872560Y-91718750D01*
X78872560Y-92500000D01*
X78916838Y-92735317D01*
X79017545Y-92891821D01*
X78923569Y-93029360D01*
X78872560Y-93281250D01*
X78872560Y-94062500D01*
X78916838Y-94297817D01*
X79017545Y-94454321D01*
X78923569Y-94591860D01*
X78872560Y-94843750D01*
X78872560Y-95625000D01*
X78916838Y-95860317D01*
X79017545Y-96016821D01*
X78923569Y-96154360D01*
X78872560Y-96406250D01*
X78872560Y-97187500D01*
X78916838Y-97422817D01*
X79017545Y-97579321D01*
X78923569Y-97716860D01*
X78872560Y-97968750D01*
X78872560Y-98750000D01*
X78916838Y-98985317D01*
X79017545Y-99141821D01*
X78923569Y-99279360D01*
X78872560Y-99531250D01*
X78872560Y-100312500D01*
X78916838Y-100547817D01*
X79017545Y-100704321D01*
X78923569Y-100841860D01*
X78872560Y-101093750D01*
X78872560Y-101875000D01*
X78916838Y-102110317D01*
X79017545Y-102266821D01*
X78923569Y-102404360D01*
X78872560Y-102656250D01*
X78872560Y-103437500D01*
X78916838Y-103672817D01*
X79017545Y-103829321D01*
X78923569Y-103966860D01*
X78872560Y-104218750D01*
X78872560Y-105000000D01*
X78916838Y-105235317D01*
X79017545Y-105391821D01*
X78923569Y-105529360D01*
X78872560Y-105781250D01*
X78872560Y-106562500D01*
X78916838Y-106797817D01*
X79017545Y-106954321D01*
X78923569Y-107091860D01*
X78872560Y-107343750D01*
X78872560Y-108125000D01*
X78916838Y-108360317D01*
X79017545Y-108516821D01*
X78923569Y-108654360D01*
X78872560Y-108906250D01*
X78872560Y-109687500D01*
X78916838Y-109922817D01*
X79017545Y-110079321D01*
X78923569Y-110216860D01*
X78872560Y-110468750D01*
X78872560Y-111250000D01*
X78916838Y-111485317D01*
X79017545Y-111641821D01*
X78923569Y-111779360D01*
X78872560Y-112031250D01*
X78872560Y-112812500D01*
X78916838Y-113047817D01*
X79017545Y-113204321D01*
X78923569Y-113341860D01*
X78872560Y-113593750D01*
X78872560Y-114375000D01*
X78916838Y-114610317D01*
X79017545Y-114766821D01*
X78923569Y-114904360D01*
X78872560Y-115156250D01*
X78872560Y-115937500D01*
X78916838Y-116172817D01*
X79017545Y-116329321D01*
X78923569Y-116466860D01*
X78872560Y-116718750D01*
X78872560Y-117500000D01*
X78916838Y-117735317D01*
X79017545Y-117891821D01*
X78923569Y-118029360D01*
X78872560Y-118281250D01*
X78872560Y-119062500D01*
X78916838Y-119297817D01*
X79017545Y-119454321D01*
X78923569Y-119591860D01*
X78872560Y-119843750D01*
X78872560Y-120625000D01*
X78916838Y-120860317D01*
X79017545Y-121016821D01*
X78923569Y-121154360D01*
X78872560Y-121406250D01*
X78872560Y-122187500D01*
X78916838Y-122422817D01*
X79017545Y-122579321D01*
X78923569Y-122716860D01*
X78872560Y-122968750D01*
X78872560Y-123750000D01*
X78916838Y-123985317D01*
X79055910Y-124201441D01*
X79268110Y-124346431D01*
X79520000Y-124397440D01*
X89520000Y-124397440D01*
X89755317Y-124353162D01*
X89971441Y-124214090D01*
X90116431Y-124001890D01*
X90167440Y-123750000D01*
X90167440Y-123616190D01*
X99672560Y-123616190D01*
X99672560Y-126875000D01*
X99716838Y-127110317D01*
X99855910Y-127326441D01*
X99873000Y-127338118D01*
X99873000Y-128290000D01*
X67710000Y-128290000D01*
X67710000Y-115938183D01*
X68306023Y-115938183D01*
X68537458Y-116317996D01*
X69540763Y-116725961D01*
X70623818Y-116718923D01*
X71591742Y-116317996D01*
X71823177Y-115938183D01*
X70064600Y-114179605D01*
X68306023Y-115938183D01*
X67710000Y-115938183D01*
X67710000Y-115438772D01*
X67746604Y-115527142D01*
X68126417Y-115758577D01*
X69884995Y-114000000D01*
X70244205Y-114000000D01*
X72002783Y-115758577D01*
X72382596Y-115527142D01*
X72790561Y-114523837D01*
X72783523Y-113440782D01*
X72382596Y-112472858D01*
X72002783Y-112241423D01*
X70244205Y-114000000D01*
X69884995Y-114000000D01*
X68126417Y-112241423D01*
X67746604Y-112472858D01*
X67710000Y-112562878D01*
X67710000Y-112061817D01*
X68306023Y-112061817D01*
X70064600Y-113820395D01*
X71823177Y-112061817D01*
X71591742Y-111682004D01*
X70588437Y-111274039D01*
X69505382Y-111281077D01*
X68537458Y-111682004D01*
X68306023Y-112061817D01*
X67710000Y-112061817D01*
X67710000Y-96938183D01*
X68306023Y-96938183D01*
X68537458Y-97317996D01*
X69540763Y-97725961D01*
X70623818Y-97718923D01*
X71591742Y-97317996D01*
X71823177Y-96938183D01*
X70064600Y-95179605D01*
X68306023Y-96938183D01*
X67710000Y-96938183D01*
X67710000Y-96438772D01*
X67746604Y-96527142D01*
X68126417Y-96758577D01*
X69884995Y-95000000D01*
X70244205Y-95000000D01*
X72002783Y-96758577D01*
X72382596Y-96527142D01*
X72790561Y-95523837D01*
X72783523Y-94440782D01*
X72382596Y-93472858D01*
X72002783Y-93241423D01*
X70244205Y-95000000D01*
X69884995Y-95000000D01*
X68126417Y-93241423D01*
X67746604Y-93472858D01*
X67710000Y-93562878D01*
X67710000Y-93061817D01*
X68306023Y-93061817D01*
X70064600Y-94820395D01*
X71823177Y-93061817D01*
X71591742Y-92682004D01*
X70588437Y-92274039D01*
X69505382Y-92281077D01*
X68537458Y-92682004D01*
X68306023Y-93061817D01*
X67710000Y-93061817D01*
X67710000Y-72600820D01*
X76547420Y-72600820D01*
X76547420Y-75369420D01*
X76641429Y-75842034D01*
X76909143Y-76242697D01*
X77309806Y-76510411D01*
X77782420Y-76604420D01*
X78255034Y-76510411D01*
X78655697Y-76242697D01*
X78923411Y-75842034D01*
X79017420Y-75369420D01*
X79017420Y-73112374D01*
X88303775Y-63826019D01*
X92756880Y-63826019D01*
X92756880Y-63944306D01*
X91237391Y-65463795D01*
X91215407Y-65410588D01*
X90940559Y-65135260D01*
X90581270Y-64986070D01*
X90192237Y-64985731D01*
X89832688Y-65134293D01*
X89557360Y-65409141D01*
X89408170Y-65768430D01*
X89408115Y-65831427D01*
X87485182Y-67754360D01*
X86284641Y-67754360D01*
X86241177Y-67710820D01*
X85881888Y-67561630D01*
X85492855Y-67561291D01*
X85133306Y-67709853D01*
X84857978Y-67984701D01*
X84708788Y-68343990D01*
X84708449Y-68733023D01*
X84857011Y-69092572D01*
X85131859Y-69367900D01*
X85491148Y-69517090D01*
X85880181Y-69517429D01*
X86239730Y-69368867D01*
X86284315Y-69324360D01*
X87376826Y-69324360D01*
X85259952Y-71441234D01*
X84992238Y-71841897D01*
X84898229Y-72314511D01*
X84898229Y-82084469D01*
X84965302Y-82421664D01*
X84535303Y-82851663D01*
X84284783Y-82851663D01*
X83812169Y-82945672D01*
X83411506Y-83213386D01*
X83143792Y-83614049D01*
X83049783Y-84086663D01*
X83143792Y-84559277D01*
X83411506Y-84959940D01*
X83812169Y-85227654D01*
X84284783Y-85321663D01*
X85046857Y-85321663D01*
X85519471Y-85227654D01*
X85920134Y-84959940D01*
X87102694Y-83777380D01*
X92979240Y-83777380D01*
X93451854Y-83683371D01*
X93852517Y-83415657D01*
X95554317Y-81713857D01*
X95822031Y-81313194D01*
X95916040Y-80840580D01*
X95822031Y-80367966D01*
X95554317Y-79967303D01*
X95153654Y-79699589D01*
X94681040Y-79605580D01*
X94208426Y-79699589D01*
X93807763Y-79967303D01*
X92467686Y-81307380D01*
X87368229Y-81307380D01*
X87368229Y-79020690D01*
X122271764Y-79020690D01*
X122441595Y-79430724D01*
X122831882Y-79858983D01*
X123356348Y-80105286D01*
X123586240Y-79984619D01*
X123586240Y-78790800D01*
X123840240Y-78790800D01*
X123840240Y-79984619D01*
X124070132Y-80105286D01*
X124594598Y-79858983D01*
X124984885Y-79430724D01*
X125154716Y-79020690D01*
X125033395Y-78790800D01*
X123840240Y-78790800D01*
X123586240Y-78790800D01*
X122393085Y-78790800D01*
X122271764Y-79020690D01*
X87368229Y-79020690D01*
X87368229Y-77686035D01*
X87581950Y-77774780D01*
X87679654Y-77774865D01*
X87829824Y-77875205D01*
X88130230Y-77934960D01*
X92886577Y-77934960D01*
X92930041Y-77978500D01*
X93289330Y-78127690D01*
X93678363Y-78128029D01*
X94037912Y-77979467D01*
X94082497Y-77934960D01*
X101004417Y-77934960D01*
X101047881Y-77978500D01*
X101407170Y-78127690D01*
X101796203Y-78128029D01*
X102155752Y-77979467D01*
X102431080Y-77704619D01*
X102580270Y-77345330D01*
X102580609Y-76956297D01*
X102432047Y-76596748D01*
X102157199Y-76321420D01*
X101797910Y-76172230D01*
X101408877Y-76171891D01*
X101049328Y-76320453D01*
X101004743Y-76364960D01*
X94082823Y-76364960D01*
X94039359Y-76321420D01*
X93680070Y-76172230D01*
X93291037Y-76171891D01*
X92931488Y-76320453D01*
X92886903Y-76364960D01*
X88865385Y-76364960D01*
X88933288Y-76336903D01*
X89208616Y-76062055D01*
X89357806Y-75702766D01*
X89357861Y-75639769D01*
X90164010Y-74833620D01*
X116509522Y-74833620D01*
X116809929Y-74773865D01*
X117064601Y-74603699D01*
X117185738Y-74482562D01*
X117247258Y-74482616D01*
X117606807Y-74334054D01*
X117882135Y-74059206D01*
X118031325Y-73699917D01*
X118031664Y-73310884D01*
X117883102Y-72951335D01*
X117608254Y-72676007D01*
X117248965Y-72526817D01*
X116996087Y-72526597D01*
X116960847Y-72441308D01*
X116685999Y-72165980D01*
X116326710Y-72016790D01*
X115937677Y-72016451D01*
X115578128Y-72165013D01*
X115302800Y-72439861D01*
X115153610Y-72799150D01*
X115153599Y-72811209D01*
X99486729Y-72811209D01*
X99511950Y-72750470D01*
X99512289Y-72361437D01*
X99363727Y-72001888D01*
X99088879Y-71726560D01*
X98729590Y-71577370D01*
X98340557Y-71577031D01*
X97981008Y-71725593D01*
X97705680Y-72000441D01*
X97636976Y-72165899D01*
X97447867Y-72165899D01*
X98990381Y-70623385D01*
X99160547Y-70368712D01*
X99220302Y-70068306D01*
X99220302Y-68374402D01*
X99195062Y-68247513D01*
X99161315Y-68077854D01*
X99207320Y-68053575D01*
X99207320Y-66860420D01*
X99461320Y-66860420D01*
X99461320Y-68053575D01*
X99691210Y-68174896D01*
X100101244Y-68005065D01*
X100529503Y-67614778D01*
X100775806Y-67090312D01*
X100655139Y-66860420D01*
X99461320Y-66860420D01*
X99207320Y-66860420D01*
X99187320Y-66860420D01*
X99187320Y-66606420D01*
X99207320Y-66606420D01*
X99207320Y-66586420D01*
X99461320Y-66586420D01*
X99461320Y-66606420D01*
X100655139Y-66606420D01*
X100775806Y-66376528D01*
X100529503Y-65852062D01*
X100101244Y-65461775D01*
X100101219Y-65461765D01*
X100384374Y-65272567D01*
X100646367Y-64880467D01*
X103623820Y-67857920D01*
X103623820Y-68422520D01*
X103717829Y-68895134D01*
X103985543Y-69295797D01*
X106342663Y-71652917D01*
X106743326Y-71920631D01*
X107215940Y-72014640D01*
X107688554Y-71920631D01*
X108089217Y-71652917D01*
X108356931Y-71252254D01*
X108450940Y-70779640D01*
X108356931Y-70307026D01*
X108089217Y-69906363D01*
X106093820Y-67910966D01*
X106093820Y-67346366D01*
X105999811Y-66873752D01*
X105732097Y-66473089D01*
X103267568Y-64008560D01*
X112062260Y-64008560D01*
X112534874Y-63914551D01*
X112935537Y-63646837D01*
X113298757Y-63283617D01*
X113566471Y-62882954D01*
X113605914Y-62684660D01*
X116585440Y-62684660D01*
X116679449Y-63157274D01*
X116947163Y-63557937D01*
X117347826Y-63825651D01*
X117820440Y-63919660D01*
X123666621Y-63919660D01*
X123666621Y-67293865D01*
X122839963Y-68120523D01*
X122572249Y-68521186D01*
X122478240Y-68993800D01*
X122478240Y-69686956D01*
X122411799Y-69729710D01*
X122266809Y-69941910D01*
X122215800Y-70193800D01*
X122215800Y-71893800D01*
X122260078Y-72129117D01*
X122399150Y-72345241D01*
X122611350Y-72490231D01*
X122678781Y-72503886D01*
X122634093Y-72533746D01*
X122312186Y-73015515D01*
X122199147Y-73583800D01*
X122312186Y-74152085D01*
X122634093Y-74633854D01*
X122963266Y-74853800D01*
X122634093Y-75073746D01*
X122312186Y-75555515D01*
X122199147Y-76123800D01*
X122312186Y-76692085D01*
X122634093Y-77173854D01*
X122974793Y-77401502D01*
X122831882Y-77468617D01*
X122441595Y-77896876D01*
X122271764Y-78306910D01*
X122393085Y-78536800D01*
X123586240Y-78536800D01*
X123586240Y-78516800D01*
X123840240Y-78516800D01*
X123840240Y-78536800D01*
X125033395Y-78536800D01*
X125154716Y-78306910D01*
X124984885Y-77896876D01*
X124594598Y-77468617D01*
X124451687Y-77401502D01*
X124792387Y-77173854D01*
X125114294Y-76692085D01*
X125227333Y-76123800D01*
X125114294Y-75555515D01*
X124792387Y-75073746D01*
X124463214Y-74853800D01*
X124792387Y-74633854D01*
X125114294Y-74152085D01*
X125227333Y-73583800D01*
X125114294Y-73015515D01*
X124792387Y-72533746D01*
X124750788Y-72505950D01*
X124798557Y-72496962D01*
X125014681Y-72357890D01*
X125159671Y-72145690D01*
X125210680Y-71893800D01*
X125210680Y-70193800D01*
X125166402Y-69958483D01*
X125027330Y-69742359D01*
X124948240Y-69688319D01*
X124948240Y-69505354D01*
X125774898Y-68678696D01*
X126042612Y-68278033D01*
X126136622Y-67805419D01*
X126136621Y-67805414D01*
X126136621Y-63306965D01*
X126136622Y-63306960D01*
X126136621Y-63306955D01*
X126136621Y-58854001D01*
X126042612Y-58381387D01*
X125774898Y-57980724D01*
X124796660Y-57002486D01*
X124796660Y-56401600D01*
X124752382Y-56166283D01*
X124613310Y-55950159D01*
X124401110Y-55805169D01*
X124149220Y-55754160D01*
X122449220Y-55754160D01*
X122213903Y-55798438D01*
X121997779Y-55937510D01*
X121852789Y-56149710D01*
X121801780Y-56401600D01*
X121801780Y-58101600D01*
X121846058Y-58336917D01*
X121985130Y-58553041D01*
X122197330Y-58698031D01*
X122305327Y-58719901D01*
X122027575Y-59024676D01*
X121857744Y-59434710D01*
X121979065Y-59664600D01*
X123172220Y-59664600D01*
X123172220Y-59644600D01*
X123426220Y-59644600D01*
X123426220Y-59664600D01*
X123446220Y-59664600D01*
X123446220Y-59918600D01*
X123426220Y-59918600D01*
X123426220Y-61112419D01*
X123656112Y-61233086D01*
X123666621Y-61228151D01*
X123666621Y-61449660D01*
X117820440Y-61449660D01*
X117347826Y-61543669D01*
X116947163Y-61811383D01*
X116679449Y-62212046D01*
X116585440Y-62684660D01*
X113605914Y-62684660D01*
X113660480Y-62410340D01*
X113566471Y-61937726D01*
X113298757Y-61537063D01*
X112898094Y-61269349D01*
X112425480Y-61175340D01*
X111952866Y-61269349D01*
X111552203Y-61537063D01*
X111550706Y-61538560D01*
X102709980Y-61538560D01*
X102237366Y-61632569D01*
X101836703Y-61900283D01*
X101568989Y-62300946D01*
X101567490Y-62308482D01*
X100976750Y-61717742D01*
X100576087Y-61450028D01*
X100103473Y-61356019D01*
X87792221Y-61356019D01*
X87319607Y-61450028D01*
X86918944Y-61717742D01*
X76909143Y-71727543D01*
X76641429Y-72128206D01*
X76547420Y-72600820D01*
X67710000Y-72600820D01*
X67710000Y-60148490D01*
X121857744Y-60148490D01*
X122027575Y-60558524D01*
X122417862Y-60986783D01*
X122942328Y-61233086D01*
X123172220Y-61112419D01*
X123172220Y-59918600D01*
X121979065Y-59918600D01*
X121857744Y-60148490D01*
X67710000Y-60148490D01*
X67710000Y-52710000D01*
X127290000Y-52710000D01*
X127290000Y-128290000D01*
G36*
X92882359Y-67330798D02*
X93204266Y-67812567D01*
X93686035Y-68134474D01*
X94254320Y-68247513D01*
X94822605Y-68134474D01*
X95304374Y-67812567D01*
X95524320Y-67483394D01*
X95744266Y-67812567D01*
X96226035Y-68134474D01*
X96794320Y-68247513D01*
X97131238Y-68180496D01*
X97650302Y-68699560D01*
X97650302Y-69743148D01*
X96141510Y-71251940D01*
X95439183Y-71251940D01*
X95395719Y-71208400D01*
X95036430Y-71059210D01*
X94647397Y-71058871D01*
X94287848Y-71207433D01*
X94012520Y-71482281D01*
X93863330Y-71841570D01*
X93863047Y-72165899D01*
X92566443Y-72165899D01*
X92522979Y-72122359D01*
X92163690Y-71973169D01*
X91774657Y-71972830D01*
X91415108Y-72121392D01*
X91139780Y-72396240D01*
X90990590Y-72755529D01*
X90990541Y-72811209D01*
X89039952Y-72811209D01*
X88739546Y-72870964D01*
X88523966Y-73015009D01*
X88484873Y-73041130D01*
X87641932Y-73884071D01*
X87580412Y-73884017D01*
X87368229Y-73971689D01*
X87368229Y-72826065D01*
X92879229Y-67315065D01*
X92882359Y-67330798D01*
X92882359Y-67330798D01*
G37*
X92882359Y-67330798D02*
X93204266Y-67812567D01*
X93686035Y-68134474D01*
X94254320Y-68247513D01*
X94822605Y-68134474D01*
X95304374Y-67812567D01*
X95524320Y-67483394D01*
X95744266Y-67812567D01*
X96226035Y-68134474D01*
X96794320Y-68247513D01*
X97131238Y-68180496D01*
X97650302Y-68699560D01*
X97650302Y-69743148D01*
X96141510Y-71251940D01*
X95439183Y-71251940D01*
X95395719Y-71208400D01*
X95036430Y-71059210D01*
X94647397Y-71058871D01*
X94287848Y-71207433D01*
X94012520Y-71482281D01*
X93863330Y-71841570D01*
X93863047Y-72165899D01*
X92566443Y-72165899D01*
X92522979Y-72122359D01*
X92163690Y-71973169D01*
X91774657Y-71972830D01*
X91415108Y-72121392D01*
X91139780Y-72396240D01*
X90990590Y-72755529D01*
X90990541Y-72811209D01*
X89039952Y-72811209D01*
X88739546Y-72870964D01*
X88523966Y-73015009D01*
X88484873Y-73041130D01*
X87641932Y-73884071D01*
X87580412Y-73884017D01*
X87368229Y-73971689D01*
X87368229Y-72826065D01*
X92879229Y-67315065D01*
X92882359Y-67330798D01*
M02*
