M48
;DRILL file {KiCad 4.0.7} date Sat Jul 21 08:48:52 2018
;FORMAT={-:-/ absolute / inch / decimal}
FMAT,2
INCH,TZ
T1C0.013
T2C0.020
T3C0.039
T4C0.125
%
G90
G05
M72
T1
X2.9409Y-2.689
X3.1043Y-3.5492
X3.5433Y-3.626
X3.5433Y-3.874
X3.5433Y-4.1181
X3.5433Y-4.3622
X3.5433Y-4.6102
X3.5433Y-4.8583
X3.5827Y-3.563
X3.5827Y-3.811
X3.5827Y-4.0551
X3.5827Y-4.3031
X3.5827Y-4.5472
X3.5827Y-4.7953
X3.622Y-3.5039
X3.622Y-3.748
X3.622Y-3.9961
X3.622Y-4.2402
X3.622Y-4.4882
X3.622Y-4.7362
X3.6254Y-3.2396
X3.6398Y-2.5984
X3.6477Y-2.9219
X3.6524Y-3.0028
X3.6614Y-3.4409
X3.6614Y-3.689
X3.6614Y-3.9331
X3.6614Y-4.1811
X3.6614Y-4.4252
X3.6614Y-4.6732
X3.6894Y-2.737
X3.7505Y-2.883
X3.7795Y-3.5945
X3.7795Y-3.8406
X3.7795Y-4.0866
X3.7795Y-4.3327
X3.7795Y-4.5787
X3.7795Y-4.8268
X3.7821Y-2.8925
X3.7972Y-3.0276
X3.8189Y-3.5335
X3.8189Y-3.7795
X3.8189Y-4.0256
X3.8189Y-4.2717
X3.8189Y-4.5197
X3.8189Y-4.7638
X3.8265Y-3.0077
X3.8378Y-2.7437
X3.8601Y-3.4744
X3.8601Y-3.7185
X3.8601Y-3.9646
X3.8601Y-4.2106
X3.8601Y-4.4567
X3.8601Y-4.7047
X3.8976Y-3.4094
X3.8976Y-3.6575
X3.8976Y-3.9016
X3.8976Y-4.1476
X3.8976Y-4.3957
X3.8976Y-4.6417
X3.9028Y-3.0768
X3.937Y-2.9102
X4.0035Y-3.1041
X4.0043Y-2.4984
X4.0571Y-3.5295
X4.0571Y-3.9764
X4.0571Y-3.9764
X4.0571Y-4.4488
X4.0571Y-4.8799
X4.0614Y-3.0008
X4.0707Y-2.6853
X4.0732Y-2.9193
X4.1437Y-2.8583
X4.3041Y-2.9026
X4.3177Y-2.4965
X4.4094Y-2.561
X4.4835Y-2.3231
X4.5276Y-4.3681
X4.6303Y-4.1181
X4.698Y-4.152
X4.8583Y-3.7311
X4.8851Y-4.075
X4.963Y-3.4039
X4.9846Y-3.8724
X5.0525Y-3.3217
X5.1211Y-2.564
X5.1303Y-3.9961
X5.1331Y-3.2752
X5.1366Y-3.8752
X5.1469Y-3.4728
X5.1508Y-3.5323
X5.1594Y-4.1878
X5.2002Y-3.7281
X5.2157Y-3.639
X5.2346Y-3.7543
X5.2402Y-2.4547
X5.2646Y-3.6665
X5.2752Y-3.0626
X5.2835Y-2.9823
X5.3406Y-3.615
X5.4035Y-2.4685
X5.4406Y-3.6146
X5.4803Y-3.1394
X5.5228Y-2.6488
X5.6339Y-2.3819
T2
X4.8031Y-3.3677
X4.9031Y-3.4677
X5.0031Y-3.3677
T3
X4.6587Y-2.3744
X4.7587Y-2.3744
X4.8587Y-2.3744
X4.9587Y-2.3744
T4
X3.1293Y-3.1496
X3.1293Y-4.7244
X4.5237Y-3.1496
X4.5237Y-4.7244
T0
M30
