G04 #@! TF.FileFunction,Legend,Top*
%FSLAX46Y46*%
G04 Gerber Fmt 4.6, Leading zero omitted, Abs format (unit mm)*
G04 Created by KiCad (PCBNEW 4.0.7) date Mon Jul 23 22:45:18 2018*
%MOMM*%
%LPD*%
G01*
G04 APERTURE LIST*
%ADD10C,0.100000*%
%ADD11C,0.300000*%
%ADD12C,0.150000*%
G04 APERTURE END LIST*
D10*
D11*
X85178571Y-177499998D02*
X85178571Y-176571427D01*
X85750000Y-177071427D01*
X85750000Y-176857141D01*
X85821429Y-176714284D01*
X85892857Y-176642855D01*
X86035714Y-176571427D01*
X86392857Y-176571427D01*
X86535714Y-176642855D01*
X86607143Y-176714284D01*
X86678571Y-176857141D01*
X86678571Y-177285713D01*
X86607143Y-177428570D01*
X86535714Y-177499998D01*
X85321429Y-175999999D02*
X85250000Y-175928570D01*
X85178571Y-175785713D01*
X85178571Y-175428570D01*
X85250000Y-175285713D01*
X85321429Y-175214284D01*
X85464286Y-175142856D01*
X85607143Y-175142856D01*
X85821429Y-175214284D01*
X86678571Y-176071427D01*
X86678571Y-175142856D01*
X85178571Y-174214285D02*
X85178571Y-174071428D01*
X85250000Y-173928571D01*
X85321429Y-173857142D01*
X85464286Y-173785713D01*
X85750000Y-173714285D01*
X86107143Y-173714285D01*
X86392857Y-173785713D01*
X86535714Y-173857142D01*
X86607143Y-173928571D01*
X86678571Y-174071428D01*
X86678571Y-174214285D01*
X86607143Y-174357142D01*
X86535714Y-174428571D01*
X86392857Y-174499999D01*
X86107143Y-174571428D01*
X85750000Y-174571428D01*
X85464286Y-174499999D01*
X85321429Y-174428571D01*
X85250000Y-174357142D01*
X85178571Y-174214285D01*
X86678571Y-173071428D02*
X85678571Y-173071428D01*
X85821429Y-173071428D02*
X85750000Y-173000000D01*
X85678571Y-172857142D01*
X85678571Y-172642857D01*
X85750000Y-172500000D01*
X85892857Y-172428571D01*
X86678571Y-172428571D01*
X85892857Y-172428571D02*
X85750000Y-172357142D01*
X85678571Y-172214285D01*
X85678571Y-172000000D01*
X85750000Y-171857142D01*
X85892857Y-171785714D01*
X86678571Y-171785714D01*
X86678571Y-171071428D02*
X85678571Y-171071428D01*
X85821429Y-171071428D02*
X85750000Y-171000000D01*
X85678571Y-170857142D01*
X85678571Y-170642857D01*
X85750000Y-170500000D01*
X85892857Y-170428571D01*
X86678571Y-170428571D01*
X85892857Y-170428571D02*
X85750000Y-170357142D01*
X85678571Y-170214285D01*
X85678571Y-170000000D01*
X85750000Y-169857142D01*
X85892857Y-169785714D01*
X86678571Y-169785714D01*
X86607143Y-169000000D02*
X86678571Y-169000000D01*
X86821429Y-169071428D01*
X86892857Y-169142857D01*
X85178571Y-166571428D02*
X85178571Y-166857142D01*
X85250000Y-166999999D01*
X85321429Y-167071428D01*
X85535714Y-167214285D01*
X85821429Y-167285714D01*
X86392857Y-167285714D01*
X86535714Y-167214285D01*
X86607143Y-167142857D01*
X86678571Y-166999999D01*
X86678571Y-166714285D01*
X86607143Y-166571428D01*
X86535714Y-166499999D01*
X86392857Y-166428571D01*
X86035714Y-166428571D01*
X85892857Y-166499999D01*
X85821429Y-166571428D01*
X85750000Y-166714285D01*
X85750000Y-166999999D01*
X85821429Y-167142857D01*
X85892857Y-167214285D01*
X86035714Y-167285714D01*
X86535714Y-165785714D02*
X86607143Y-165714286D01*
X86678571Y-165785714D01*
X86607143Y-165857143D01*
X86535714Y-165785714D01*
X86678571Y-165785714D01*
X85321429Y-165142857D02*
X85250000Y-165071428D01*
X85178571Y-164928571D01*
X85178571Y-164571428D01*
X85250000Y-164428571D01*
X85321429Y-164357142D01*
X85464286Y-164285714D01*
X85607143Y-164285714D01*
X85821429Y-164357142D01*
X86678571Y-165214285D01*
X86678571Y-164285714D01*
X85178571Y-162928571D02*
X85178571Y-163642857D01*
X85892857Y-163714286D01*
X85821429Y-163642857D01*
X85750000Y-163500000D01*
X85750000Y-163142857D01*
X85821429Y-163000000D01*
X85892857Y-162928571D01*
X86035714Y-162857143D01*
X86392857Y-162857143D01*
X86535714Y-162928571D01*
X86607143Y-163000000D01*
X86678571Y-163142857D01*
X86678571Y-163500000D01*
X86607143Y-163642857D01*
X86535714Y-163714286D01*
X86678571Y-162214286D02*
X85678571Y-162214286D01*
X85821429Y-162214286D02*
X85750000Y-162142858D01*
X85678571Y-162000000D01*
X85678571Y-161785715D01*
X85750000Y-161642858D01*
X85892857Y-161571429D01*
X86678571Y-161571429D01*
X85892857Y-161571429D02*
X85750000Y-161500000D01*
X85678571Y-161357143D01*
X85678571Y-161142858D01*
X85750000Y-161000000D01*
X85892857Y-160928572D01*
X86678571Y-160928572D01*
X86678571Y-160214286D02*
X85678571Y-160214286D01*
X85821429Y-160214286D02*
X85750000Y-160142858D01*
X85678571Y-160000000D01*
X85678571Y-159785715D01*
X85750000Y-159642858D01*
X85892857Y-159571429D01*
X86678571Y-159571429D01*
X85892857Y-159571429D02*
X85750000Y-159500000D01*
X85678571Y-159357143D01*
X85678571Y-159142858D01*
X85750000Y-159000000D01*
X85892857Y-158928572D01*
X86678571Y-158928572D01*
X86607143Y-157142858D02*
X86678571Y-157000001D01*
X86678571Y-156714286D01*
X86607143Y-156571429D01*
X86464286Y-156500001D01*
X86392857Y-156500001D01*
X86250000Y-156571429D01*
X86178571Y-156714286D01*
X86178571Y-156928572D01*
X86107143Y-157071429D01*
X85964286Y-157142858D01*
X85892857Y-157142858D01*
X85750000Y-157071429D01*
X85678571Y-156928572D01*
X85678571Y-156714286D01*
X85750000Y-156571429D01*
X85678571Y-155857143D02*
X87178571Y-155857143D01*
X85750000Y-155857143D02*
X85678571Y-155714286D01*
X85678571Y-155428572D01*
X85750000Y-155285715D01*
X85821429Y-155214286D01*
X85964286Y-155142857D01*
X86392857Y-155142857D01*
X86535714Y-155214286D01*
X86607143Y-155285715D01*
X86678571Y-155428572D01*
X86678571Y-155714286D01*
X86607143Y-155857143D01*
X86678571Y-153857143D02*
X85892857Y-153857143D01*
X85750000Y-153928572D01*
X85678571Y-154071429D01*
X85678571Y-154357143D01*
X85750000Y-154500000D01*
X86607143Y-153857143D02*
X86678571Y-154000000D01*
X86678571Y-154357143D01*
X86607143Y-154500000D01*
X86464286Y-154571429D01*
X86321429Y-154571429D01*
X86178571Y-154500000D01*
X86107143Y-154357143D01*
X86107143Y-154000000D01*
X86035714Y-153857143D01*
X86607143Y-152500000D02*
X86678571Y-152642857D01*
X86678571Y-152928571D01*
X86607143Y-153071429D01*
X86535714Y-153142857D01*
X86392857Y-153214286D01*
X85964286Y-153214286D01*
X85821429Y-153142857D01*
X85750000Y-153071429D01*
X85678571Y-152928571D01*
X85678571Y-152642857D01*
X85750000Y-152500000D01*
X86678571Y-151857143D02*
X85678571Y-151857143D01*
X85178571Y-151857143D02*
X85250000Y-151928572D01*
X85321429Y-151857143D01*
X85250000Y-151785715D01*
X85178571Y-151857143D01*
X85321429Y-151857143D01*
X85678571Y-151142857D02*
X86678571Y-151142857D01*
X85821429Y-151142857D02*
X85750000Y-151071429D01*
X85678571Y-150928571D01*
X85678571Y-150714286D01*
X85750000Y-150571429D01*
X85892857Y-150500000D01*
X86678571Y-150500000D01*
X85678571Y-149142857D02*
X86892857Y-149142857D01*
X87035714Y-149214286D01*
X87107143Y-149285714D01*
X87178571Y-149428571D01*
X87178571Y-149642857D01*
X87107143Y-149785714D01*
X86607143Y-149142857D02*
X86678571Y-149285714D01*
X86678571Y-149571428D01*
X86607143Y-149714286D01*
X86535714Y-149785714D01*
X86392857Y-149857143D01*
X85964286Y-149857143D01*
X85821429Y-149785714D01*
X85750000Y-149714286D01*
X85678571Y-149571428D01*
X85678571Y-149285714D01*
X85750000Y-149142857D01*
X86678571Y-146428571D02*
X85964286Y-146928571D01*
X86678571Y-147285714D02*
X85178571Y-147285714D01*
X85178571Y-146714286D01*
X85250000Y-146571428D01*
X85321429Y-146500000D01*
X85464286Y-146428571D01*
X85678571Y-146428571D01*
X85821429Y-146500000D01*
X85892857Y-146571428D01*
X85964286Y-146714286D01*
X85964286Y-147285714D01*
X86607143Y-145214286D02*
X86678571Y-145357143D01*
X86678571Y-145642857D01*
X86607143Y-145785714D01*
X86464286Y-145857143D01*
X85892857Y-145857143D01*
X85750000Y-145785714D01*
X85678571Y-145642857D01*
X85678571Y-145357143D01*
X85750000Y-145214286D01*
X85892857Y-145142857D01*
X86035714Y-145142857D01*
X86178571Y-145857143D01*
X85678571Y-144642857D02*
X86678571Y-144285714D01*
X85678571Y-143928572D01*
X85321429Y-143428572D02*
X85250000Y-143357143D01*
X85178571Y-143214286D01*
X85178571Y-142857143D01*
X85250000Y-142714286D01*
X85321429Y-142642857D01*
X85464286Y-142571429D01*
X85607143Y-142571429D01*
X85821429Y-142642857D01*
X86678571Y-143500000D01*
X86678571Y-142571429D01*
D12*
X98285714Y47619D02*
X98285714Y-761905D01*
X98333333Y-857143D01*
X98380952Y-904762D01*
X98476190Y-952381D01*
X98666667Y-952381D01*
X98761905Y-904762D01*
X98809524Y-857143D01*
X98857143Y-761905D01*
X98857143Y47619D01*
X99857143Y-952381D02*
X99285714Y-952381D01*
X99571428Y-952381D02*
X99571428Y47619D01*
X99476190Y-95238D01*
X99380952Y-190476D01*
X99285714Y-238095D01*
X100476190Y47619D02*
X100571429Y47619D01*
X100666667Y0D01*
X100714286Y-47619D01*
X100761905Y-142857D01*
X100809524Y-333333D01*
X100809524Y-571429D01*
X100761905Y-761905D01*
X100714286Y-857143D01*
X100666667Y-904762D01*
X100571429Y-952381D01*
X100476190Y-952381D01*
X100380952Y-904762D01*
X100333333Y-857143D01*
X100285714Y-761905D01*
X100238095Y-571429D01*
X100238095Y-333333D01*
X100285714Y-142857D01*
X100333333Y-47619D01*
X100380952Y0D01*
X100476190Y47619D01*
X101190476Y-47619D02*
X101238095Y0D01*
X101333333Y47619D01*
X101571429Y47619D01*
X101666667Y0D01*
X101714286Y-47619D01*
X101761905Y-142857D01*
X101761905Y-238095D01*
X101714286Y-380952D01*
X101142857Y-952381D01*
X101761905Y-952381D01*
M02*
