%FSLAX45Y45*%
G04 Gerber Fmt 4.5, Leading zero omitted, Abs format (unit mm)*
G04 Created by KiCad (PCBNEW 4.0.7) date Thu May 24 18:36:57 2018*
%MOMM*%
%LPD*%
G01*
G04 APERTURE LIST*
%ADD10C,0.127000*%
%ADD11C,0.150000*%
%ADD12C,0.200000*%
%ADD13C,0.300000*%
G04 APERTURE END LIST*
D10*
D11*
X7102428Y-30300000D02*
X11836574Y-30300000D01*
X7102428Y-9700000D02*
X11836574Y-9700000D01*
X11836574Y-9700000D02*
X11836574Y-30300000D01*
X7102428Y-9700000D02*
X7102428Y-30300000D01*
D12*
X7316010Y-10841250D02*
X7633510Y-11158750D01*
X7633510Y-10841250D02*
X7316010Y-11158750D01*
X7316010Y-28841250D02*
X7633510Y-29158750D01*
X7633510Y-28841250D02*
X7316010Y-29158750D01*
X11305250Y-10841250D02*
X11622750Y-11158750D01*
X11622750Y-10841250D02*
X11305250Y-11158750D01*
X11305250Y-28841250D02*
X11622750Y-29158750D01*
X11622750Y-28841250D02*
X11305250Y-29158750D01*
D13*
X7366356Y-30773214D02*
X7366356Y-30473214D01*
X7437785Y-30473214D01*
X7480642Y-30487500D01*
X7509214Y-30516071D01*
X7523499Y-30544643D01*
X7537785Y-30601786D01*
X7537785Y-30644643D01*
X7523499Y-30701786D01*
X7509214Y-30730357D01*
X7480642Y-30758929D01*
X7437785Y-30773214D01*
X7366356Y-30773214D01*
X7666356Y-30773214D02*
X7666356Y-30573214D01*
X7666356Y-30630357D02*
X7680642Y-30601786D01*
X7694928Y-30587500D01*
X7723499Y-30573214D01*
X7752071Y-30573214D01*
X7852071Y-30773214D02*
X7852071Y-30573214D01*
X7852071Y-30473214D02*
X7837785Y-30487500D01*
X7852071Y-30501786D01*
X7866356Y-30487500D01*
X7852071Y-30473214D01*
X7852071Y-30501786D01*
X8037785Y-30773214D02*
X8009214Y-30758929D01*
X7994928Y-30730357D01*
X7994928Y-30473214D01*
X8194928Y-30773214D02*
X8166356Y-30758929D01*
X8152071Y-30730357D01*
X8152071Y-30473214D01*
X8537785Y-30773214D02*
X8537785Y-30473214D01*
X8637785Y-30687500D01*
X8737785Y-30473214D01*
X8737785Y-30773214D01*
X9009214Y-30773214D02*
X9009214Y-30616071D01*
X8994928Y-30587500D01*
X8966357Y-30573214D01*
X8909214Y-30573214D01*
X8880642Y-30587500D01*
X9009214Y-30758929D02*
X8980642Y-30773214D01*
X8909214Y-30773214D01*
X8880642Y-30758929D01*
X8866357Y-30730357D01*
X8866357Y-30701786D01*
X8880642Y-30673214D01*
X8909214Y-30658929D01*
X8980642Y-30658929D01*
X9009214Y-30644643D01*
X9152071Y-30573214D02*
X9152071Y-30873214D01*
X9152071Y-30587500D02*
X9180642Y-30573214D01*
X9237785Y-30573214D01*
X9266357Y-30587500D01*
X9280642Y-30601786D01*
X9294928Y-30630357D01*
X9294928Y-30716071D01*
X9280642Y-30744643D01*
X9266357Y-30758929D01*
X9237785Y-30773214D01*
X9180642Y-30773214D01*
X9152071Y-30758929D01*
X9423499Y-30744643D02*
X9437785Y-30758929D01*
X9423499Y-30773214D01*
X9409214Y-30758929D01*
X9423499Y-30744643D01*
X9423499Y-30773214D01*
X9423499Y-30587500D02*
X9437785Y-30601786D01*
X9423499Y-30616071D01*
X9409214Y-30601786D01*
X9423499Y-30587500D01*
X9423499Y-30616071D01*
X6777428Y-31108750D02*
X7094928Y-31426250D01*
X7094928Y-31108750D02*
X6777428Y-31426250D01*
X7337785Y-31103214D02*
X7523499Y-31103214D01*
X7423499Y-31217500D01*
X7466356Y-31217500D01*
X7494928Y-31231786D01*
X7509214Y-31246071D01*
X7523499Y-31274643D01*
X7523499Y-31346071D01*
X7509214Y-31374643D01*
X7494928Y-31388929D01*
X7466356Y-31403214D01*
X7380642Y-31403214D01*
X7352071Y-31388929D01*
X7337785Y-31374643D01*
X7652071Y-31374643D02*
X7666356Y-31388929D01*
X7652071Y-31403214D01*
X7637785Y-31388929D01*
X7652071Y-31374643D01*
X7652071Y-31403214D01*
X7952071Y-31403214D02*
X7780642Y-31403214D01*
X7866356Y-31403214D02*
X7866356Y-31103214D01*
X7837785Y-31146071D01*
X7809214Y-31174643D01*
X7780642Y-31188929D01*
X8052071Y-31103214D02*
X8252071Y-31103214D01*
X8123499Y-31403214D01*
X8366356Y-31403214D02*
X8366356Y-31203214D01*
X8366356Y-31231786D02*
X8380642Y-31217500D01*
X8409214Y-31203214D01*
X8452071Y-31203214D01*
X8480642Y-31217500D01*
X8494928Y-31246071D01*
X8494928Y-31403214D01*
X8494928Y-31246071D02*
X8509214Y-31217500D01*
X8537785Y-31203214D01*
X8580642Y-31203214D01*
X8609214Y-31217500D01*
X8623499Y-31246071D01*
X8623499Y-31403214D01*
X8766357Y-31403214D02*
X8766357Y-31203214D01*
X8766357Y-31231786D02*
X8780642Y-31217500D01*
X8809214Y-31203214D01*
X8852071Y-31203214D01*
X8880642Y-31217500D01*
X8894928Y-31246071D01*
X8894928Y-31403214D01*
X8894928Y-31246071D02*
X8909214Y-31217500D01*
X8937785Y-31203214D01*
X8980642Y-31203214D01*
X9009214Y-31217500D01*
X9023499Y-31246071D01*
X9023499Y-31403214D01*
X9609214Y-31088929D02*
X9352071Y-31474643D01*
X9994928Y-31103214D02*
X10023499Y-31103214D01*
X10052071Y-31117500D01*
X10066356Y-31131786D01*
X10080642Y-31160357D01*
X10094928Y-31217500D01*
X10094928Y-31288929D01*
X10080642Y-31346071D01*
X10066356Y-31374643D01*
X10052071Y-31388929D01*
X10023499Y-31403214D01*
X9994928Y-31403214D01*
X9966356Y-31388929D01*
X9952071Y-31374643D01*
X9937785Y-31346071D01*
X9923499Y-31288929D01*
X9923499Y-31217500D01*
X9937785Y-31160357D01*
X9952071Y-31131786D01*
X9966356Y-31117500D01*
X9994928Y-31103214D01*
X10223499Y-31374643D02*
X10237785Y-31388929D01*
X10223499Y-31403214D01*
X10209214Y-31388929D01*
X10223499Y-31374643D01*
X10223499Y-31403214D01*
X10523499Y-31403214D02*
X10352071Y-31403214D01*
X10437785Y-31403214D02*
X10437785Y-31103214D01*
X10409214Y-31146071D01*
X10380642Y-31174643D01*
X10352071Y-31188929D01*
X10637785Y-31131786D02*
X10652071Y-31117500D01*
X10680642Y-31103214D01*
X10752071Y-31103214D01*
X10780642Y-31117500D01*
X10794928Y-31131786D01*
X10809214Y-31160357D01*
X10809214Y-31188929D01*
X10794928Y-31231786D01*
X10623499Y-31403214D01*
X10809214Y-31403214D01*
X11080642Y-31103214D02*
X10937785Y-31103214D01*
X10923499Y-31246071D01*
X10937785Y-31231786D01*
X10966356Y-31217500D01*
X11037785Y-31217500D01*
X11066356Y-31231786D01*
X11080642Y-31246071D01*
X11094928Y-31274643D01*
X11094928Y-31346071D01*
X11080642Y-31374643D01*
X11066356Y-31388929D01*
X11037785Y-31403214D01*
X10966356Y-31403214D01*
X10937785Y-31388929D01*
X10923499Y-31374643D01*
X11209214Y-31103214D02*
X11209214Y-31160357D01*
X11323499Y-31103214D02*
X11323499Y-31160357D01*
X11766356Y-31517500D02*
X11752071Y-31503214D01*
X11723499Y-31460357D01*
X11709213Y-31431786D01*
X11694928Y-31388929D01*
X11680642Y-31317500D01*
X11680642Y-31260357D01*
X11694928Y-31188929D01*
X11709213Y-31146071D01*
X11723499Y-31117500D01*
X11752071Y-31074643D01*
X11766356Y-31060357D01*
X12009213Y-31203214D02*
X12009213Y-31403214D01*
X11937785Y-31088929D02*
X11866356Y-31303214D01*
X12052071Y-31303214D01*
X12394928Y-31403214D02*
X12394928Y-31103214D01*
X12523499Y-31403214D02*
X12523499Y-31246071D01*
X12509213Y-31217500D01*
X12480642Y-31203214D01*
X12437785Y-31203214D01*
X12409213Y-31217500D01*
X12394928Y-31231786D01*
X12709213Y-31403214D02*
X12680642Y-31388929D01*
X12666356Y-31374643D01*
X12652071Y-31346071D01*
X12652071Y-31260357D01*
X12666356Y-31231786D01*
X12680642Y-31217500D01*
X12709213Y-31203214D01*
X12752071Y-31203214D01*
X12780642Y-31217500D01*
X12794928Y-31231786D01*
X12809213Y-31260357D01*
X12809213Y-31346071D01*
X12794928Y-31374643D01*
X12780642Y-31388929D01*
X12752071Y-31403214D01*
X12709213Y-31403214D01*
X12980642Y-31403214D02*
X12952071Y-31388929D01*
X12937785Y-31360357D01*
X12937785Y-31103214D01*
X13209214Y-31388929D02*
X13180642Y-31403214D01*
X13123499Y-31403214D01*
X13094928Y-31388929D01*
X13080642Y-31360357D01*
X13080642Y-31246071D01*
X13094928Y-31217500D01*
X13123499Y-31203214D01*
X13180642Y-31203214D01*
X13209214Y-31217500D01*
X13223499Y-31246071D01*
X13223499Y-31274643D01*
X13080642Y-31303214D01*
X13337785Y-31388929D02*
X13366356Y-31403214D01*
X13423499Y-31403214D01*
X13452071Y-31388929D01*
X13466356Y-31360357D01*
X13466356Y-31346071D01*
X13452071Y-31317500D01*
X13423499Y-31303214D01*
X13380642Y-31303214D01*
X13352071Y-31288929D01*
X13337785Y-31260357D01*
X13337785Y-31246071D01*
X13352071Y-31217500D01*
X13380642Y-31203214D01*
X13423499Y-31203214D01*
X13452071Y-31217500D01*
X13566356Y-31517500D02*
X13580642Y-31503214D01*
X13609214Y-31460357D01*
X13623499Y-31431786D01*
X13637785Y-31388929D01*
X13652071Y-31317500D01*
X13652071Y-31260357D01*
X13637785Y-31188929D01*
X13623499Y-31146071D01*
X13609214Y-31117500D01*
X13580642Y-31074643D01*
X13566356Y-31060357D01*
M02*
