G04 #@! TF.FileFunction,Legend,Top*
%FSLAX46Y46*%
G04 Gerber Fmt 4.6, Leading zero omitted, Abs format (unit mm)*
G04 Created by KiCad (PCBNEW 4.0.7) date Thu May 24 18:36:53 2018*
%MOMM*%
%LPD*%
G01*
G04 APERTURE LIST*
%ADD10C,0.100000*%
%ADD11C,0.300000*%
G04 APERTURE END LIST*
D10*
D11*
X74321429Y-215785713D02*
X74250000Y-215714284D01*
X74178571Y-215571427D01*
X74178571Y-215214284D01*
X74250000Y-215071427D01*
X74321429Y-214999998D01*
X74464286Y-214928570D01*
X74607143Y-214928570D01*
X74821429Y-214999998D01*
X75678571Y-215857141D01*
X75678571Y-214928570D01*
X74178571Y-213999999D02*
X74178571Y-213857142D01*
X74250000Y-213714285D01*
X74321429Y-213642856D01*
X74464286Y-213571427D01*
X74750000Y-213499999D01*
X75107143Y-213499999D01*
X75392857Y-213571427D01*
X75535714Y-213642856D01*
X75607143Y-213714285D01*
X75678571Y-213857142D01*
X75678571Y-213999999D01*
X75607143Y-214142856D01*
X75535714Y-214214285D01*
X75392857Y-214285713D01*
X75107143Y-214357142D01*
X74750000Y-214357142D01*
X74464286Y-214285713D01*
X74321429Y-214214285D01*
X74250000Y-214142856D01*
X74178571Y-213999999D01*
X74178571Y-212571428D02*
X74178571Y-212428571D01*
X74250000Y-212285714D01*
X74321429Y-212214285D01*
X74464286Y-212142856D01*
X74750000Y-212071428D01*
X75107143Y-212071428D01*
X75392857Y-212142856D01*
X75535714Y-212214285D01*
X75607143Y-212285714D01*
X75678571Y-212428571D01*
X75678571Y-212571428D01*
X75607143Y-212714285D01*
X75535714Y-212785714D01*
X75392857Y-212857142D01*
X75107143Y-212928571D01*
X74750000Y-212928571D01*
X74464286Y-212857142D01*
X74321429Y-212785714D01*
X74250000Y-212714285D01*
X74178571Y-212571428D01*
X75678571Y-211428571D02*
X74678571Y-211428571D01*
X74821429Y-211428571D02*
X74750000Y-211357143D01*
X74678571Y-211214285D01*
X74678571Y-211000000D01*
X74750000Y-210857143D01*
X74892857Y-210785714D01*
X75678571Y-210785714D01*
X74892857Y-210785714D02*
X74750000Y-210714285D01*
X74678571Y-210571428D01*
X74678571Y-210357143D01*
X74750000Y-210214285D01*
X74892857Y-210142857D01*
X75678571Y-210142857D01*
X75678571Y-209428571D02*
X74678571Y-209428571D01*
X74821429Y-209428571D02*
X74750000Y-209357143D01*
X74678571Y-209214285D01*
X74678571Y-209000000D01*
X74750000Y-208857143D01*
X74892857Y-208785714D01*
X75678571Y-208785714D01*
X74892857Y-208785714D02*
X74750000Y-208714285D01*
X74678571Y-208571428D01*
X74678571Y-208357143D01*
X74750000Y-208214285D01*
X74892857Y-208142857D01*
X75678571Y-208142857D01*
X75607143Y-207357143D02*
X75678571Y-207357143D01*
X75821429Y-207428571D01*
X75892857Y-207500000D01*
X74178571Y-204928571D02*
X74178571Y-205214285D01*
X74250000Y-205357142D01*
X74321429Y-205428571D01*
X74535714Y-205571428D01*
X74821429Y-205642857D01*
X75392857Y-205642857D01*
X75535714Y-205571428D01*
X75607143Y-205500000D01*
X75678571Y-205357142D01*
X75678571Y-205071428D01*
X75607143Y-204928571D01*
X75535714Y-204857142D01*
X75392857Y-204785714D01*
X75035714Y-204785714D01*
X74892857Y-204857142D01*
X74821429Y-204928571D01*
X74750000Y-205071428D01*
X74750000Y-205357142D01*
X74821429Y-205500000D01*
X74892857Y-205571428D01*
X75035714Y-205642857D01*
X75535714Y-204142857D02*
X75607143Y-204071429D01*
X75678571Y-204142857D01*
X75607143Y-204214286D01*
X75535714Y-204142857D01*
X75678571Y-204142857D01*
X74321429Y-203500000D02*
X74250000Y-203428571D01*
X74178571Y-203285714D01*
X74178571Y-202928571D01*
X74250000Y-202785714D01*
X74321429Y-202714285D01*
X74464286Y-202642857D01*
X74607143Y-202642857D01*
X74821429Y-202714285D01*
X75678571Y-203571428D01*
X75678571Y-202642857D01*
X74178571Y-201285714D02*
X74178571Y-202000000D01*
X74892857Y-202071429D01*
X74821429Y-202000000D01*
X74750000Y-201857143D01*
X74750000Y-201500000D01*
X74821429Y-201357143D01*
X74892857Y-201285714D01*
X75035714Y-201214286D01*
X75392857Y-201214286D01*
X75535714Y-201285714D01*
X75607143Y-201357143D01*
X75678571Y-201500000D01*
X75678571Y-201857143D01*
X75607143Y-202000000D01*
X75535714Y-202071429D01*
X75678571Y-200571429D02*
X74678571Y-200571429D01*
X74821429Y-200571429D02*
X74750000Y-200500001D01*
X74678571Y-200357143D01*
X74678571Y-200142858D01*
X74750000Y-200000001D01*
X74892857Y-199928572D01*
X75678571Y-199928572D01*
X74892857Y-199928572D02*
X74750000Y-199857143D01*
X74678571Y-199714286D01*
X74678571Y-199500001D01*
X74750000Y-199357143D01*
X74892857Y-199285715D01*
X75678571Y-199285715D01*
X75678571Y-198571429D02*
X74678571Y-198571429D01*
X74821429Y-198571429D02*
X74750000Y-198500001D01*
X74678571Y-198357143D01*
X74678571Y-198142858D01*
X74750000Y-198000001D01*
X74892857Y-197928572D01*
X75678571Y-197928572D01*
X74892857Y-197928572D02*
X74750000Y-197857143D01*
X74678571Y-197714286D01*
X74678571Y-197500001D01*
X74750000Y-197357143D01*
X74892857Y-197285715D01*
X75678571Y-197285715D01*
X75607143Y-195500001D02*
X75678571Y-195357144D01*
X75678571Y-195071429D01*
X75607143Y-194928572D01*
X75464286Y-194857144D01*
X75392857Y-194857144D01*
X75250000Y-194928572D01*
X75178571Y-195071429D01*
X75178571Y-195285715D01*
X75107143Y-195428572D01*
X74964286Y-195500001D01*
X74892857Y-195500001D01*
X74750000Y-195428572D01*
X74678571Y-195285715D01*
X74678571Y-195071429D01*
X74750000Y-194928572D01*
X74678571Y-194214286D02*
X76178571Y-194214286D01*
X74750000Y-194214286D02*
X74678571Y-194071429D01*
X74678571Y-193785715D01*
X74750000Y-193642858D01*
X74821429Y-193571429D01*
X74964286Y-193500000D01*
X75392857Y-193500000D01*
X75535714Y-193571429D01*
X75607143Y-193642858D01*
X75678571Y-193785715D01*
X75678571Y-194071429D01*
X75607143Y-194214286D01*
X75678571Y-192214286D02*
X74892857Y-192214286D01*
X74750000Y-192285715D01*
X74678571Y-192428572D01*
X74678571Y-192714286D01*
X74750000Y-192857143D01*
X75607143Y-192214286D02*
X75678571Y-192357143D01*
X75678571Y-192714286D01*
X75607143Y-192857143D01*
X75464286Y-192928572D01*
X75321429Y-192928572D01*
X75178571Y-192857143D01*
X75107143Y-192714286D01*
X75107143Y-192357143D01*
X75035714Y-192214286D01*
X75607143Y-190857143D02*
X75678571Y-191000000D01*
X75678571Y-191285714D01*
X75607143Y-191428572D01*
X75535714Y-191500000D01*
X75392857Y-191571429D01*
X74964286Y-191571429D01*
X74821429Y-191500000D01*
X74750000Y-191428572D01*
X74678571Y-191285714D01*
X74678571Y-191000000D01*
X74750000Y-190857143D01*
X75678571Y-190214286D02*
X74678571Y-190214286D01*
X74178571Y-190214286D02*
X74250000Y-190285715D01*
X74321429Y-190214286D01*
X74250000Y-190142858D01*
X74178571Y-190214286D01*
X74321429Y-190214286D01*
X74678571Y-189500000D02*
X75678571Y-189500000D01*
X74821429Y-189500000D02*
X74750000Y-189428572D01*
X74678571Y-189285714D01*
X74678571Y-189071429D01*
X74750000Y-188928572D01*
X74892857Y-188857143D01*
X75678571Y-188857143D01*
X74678571Y-187500000D02*
X75892857Y-187500000D01*
X76035714Y-187571429D01*
X76107143Y-187642857D01*
X76178571Y-187785714D01*
X76178571Y-188000000D01*
X76107143Y-188142857D01*
X75607143Y-187500000D02*
X75678571Y-187642857D01*
X75678571Y-187928571D01*
X75607143Y-188071429D01*
X75535714Y-188142857D01*
X75392857Y-188214286D01*
X74964286Y-188214286D01*
X74821429Y-188142857D01*
X74750000Y-188071429D01*
X74678571Y-187928571D01*
X74678571Y-187642857D01*
X74750000Y-187500000D01*
X75607143Y-186714286D02*
X75678571Y-186714286D01*
X75821429Y-186785714D01*
X75892857Y-186857143D01*
X75678571Y-184071428D02*
X74964286Y-184571428D01*
X75678571Y-184928571D02*
X74178571Y-184928571D01*
X74178571Y-184357143D01*
X74250000Y-184214285D01*
X74321429Y-184142857D01*
X74464286Y-184071428D01*
X74678571Y-184071428D01*
X74821429Y-184142857D01*
X74892857Y-184214285D01*
X74964286Y-184357143D01*
X74964286Y-184928571D01*
X75607143Y-182857143D02*
X75678571Y-183000000D01*
X75678571Y-183285714D01*
X75607143Y-183428571D01*
X75464286Y-183500000D01*
X74892857Y-183500000D01*
X74750000Y-183428571D01*
X74678571Y-183285714D01*
X74678571Y-183000000D01*
X74750000Y-182857143D01*
X74892857Y-182785714D01*
X75035714Y-182785714D01*
X75178571Y-183500000D01*
X74678571Y-182285714D02*
X75678571Y-181928571D01*
X74678571Y-181571429D01*
X75678571Y-180214286D02*
X75678571Y-181071429D01*
X75678571Y-180642857D02*
X74178571Y-180642857D01*
X74392857Y-180785714D01*
X74535714Y-180928572D01*
X74607143Y-181071429D01*
M02*
