%FSLAX45Y45*%
G04 Gerber Fmt 4.5, Leading zero omitted, Abs format (unit mm)*
G04 Created by KiCad (PCBNEW 4.0.7) date Mon Jul 23 22:45:21 2018*
%MOMM*%
%LPD*%
G01*
G04 APERTURE LIST*
%ADD10C,0.127000*%
%ADD11C,0.150000*%
%ADD12C,0.200000*%
%ADD13C,0.300000*%
G04 APERTURE END LIST*
D10*
D11*
X8100000Y-32050000D02*
X11340000Y-32050000D01*
X8100000Y50000D02*
X11340000Y50000D01*
X11340000Y50000D02*
X11340000Y-32050000D01*
X8100000Y50000D02*
X8100000Y-32050000D01*
D12*
X8316010Y-841250D02*
X8633510Y-1158750D01*
X8633510Y-841250D02*
X8316010Y-1158750D01*
X8316010Y-30841250D02*
X8633510Y-31158750D01*
X8633510Y-30841250D02*
X8316010Y-31158750D01*
X10805250Y-841250D02*
X11122750Y-1158750D01*
X11122750Y-841250D02*
X10805250Y-1158750D01*
X10805250Y-30841250D02*
X11122750Y-31158750D01*
X11122750Y-30841250D02*
X10805250Y-31158750D01*
D13*
X8363928Y-32523214D02*
X8363928Y-32223214D01*
X8435357Y-32223214D01*
X8478214Y-32237500D01*
X8506786Y-32266071D01*
X8521071Y-32294643D01*
X8535357Y-32351786D01*
X8535357Y-32394643D01*
X8521071Y-32451786D01*
X8506786Y-32480357D01*
X8478214Y-32508929D01*
X8435357Y-32523214D01*
X8363928Y-32523214D01*
X8663929Y-32523214D02*
X8663929Y-32323214D01*
X8663929Y-32380357D02*
X8678214Y-32351786D01*
X8692500Y-32337500D01*
X8721071Y-32323214D01*
X8749643Y-32323214D01*
X8849643Y-32523214D02*
X8849643Y-32323214D01*
X8849643Y-32223214D02*
X8835357Y-32237500D01*
X8849643Y-32251786D01*
X8863929Y-32237500D01*
X8849643Y-32223214D01*
X8849643Y-32251786D01*
X9035357Y-32523214D02*
X9006786Y-32508929D01*
X8992500Y-32480357D01*
X8992500Y-32223214D01*
X9192500Y-32523214D02*
X9163929Y-32508929D01*
X9149643Y-32480357D01*
X9149643Y-32223214D01*
X9535357Y-32523214D02*
X9535357Y-32223214D01*
X9635357Y-32437500D01*
X9735357Y-32223214D01*
X9735357Y-32523214D01*
X10006786Y-32523214D02*
X10006786Y-32366071D01*
X9992500Y-32337500D01*
X9963929Y-32323214D01*
X9906786Y-32323214D01*
X9878214Y-32337500D01*
X10006786Y-32508929D02*
X9978214Y-32523214D01*
X9906786Y-32523214D01*
X9878214Y-32508929D01*
X9863929Y-32480357D01*
X9863929Y-32451786D01*
X9878214Y-32423214D01*
X9906786Y-32408929D01*
X9978214Y-32408929D01*
X10006786Y-32394643D01*
X10149643Y-32323214D02*
X10149643Y-32623214D01*
X10149643Y-32337500D02*
X10178214Y-32323214D01*
X10235357Y-32323214D01*
X10263929Y-32337500D01*
X10278214Y-32351786D01*
X10292500Y-32380357D01*
X10292500Y-32466071D01*
X10278214Y-32494643D01*
X10263929Y-32508929D01*
X10235357Y-32523214D01*
X10178214Y-32523214D01*
X10149643Y-32508929D01*
X10421071Y-32494643D02*
X10435357Y-32508929D01*
X10421071Y-32523214D01*
X10406786Y-32508929D01*
X10421071Y-32494643D01*
X10421071Y-32523214D01*
X10421071Y-32337500D02*
X10435357Y-32351786D01*
X10421071Y-32366071D01*
X10406786Y-32351786D01*
X10421071Y-32337500D01*
X10421071Y-32366071D01*
X7775000Y-32858750D02*
X8092500Y-33176250D01*
X8092500Y-32858750D02*
X7775000Y-33176250D01*
X8335357Y-32853214D02*
X8521071Y-32853214D01*
X8421071Y-32967500D01*
X8463929Y-32967500D01*
X8492500Y-32981786D01*
X8506786Y-32996071D01*
X8521071Y-33024643D01*
X8521071Y-33096071D01*
X8506786Y-33124643D01*
X8492500Y-33138929D01*
X8463929Y-33153214D01*
X8378214Y-33153214D01*
X8349643Y-33138929D01*
X8335357Y-33124643D01*
X8649643Y-33124643D02*
X8663929Y-33138929D01*
X8649643Y-33153214D01*
X8635357Y-33138929D01*
X8649643Y-33124643D01*
X8649643Y-33153214D01*
X8949643Y-33153214D02*
X8778214Y-33153214D01*
X8863928Y-33153214D02*
X8863928Y-32853214D01*
X8835357Y-32896071D01*
X8806786Y-32924643D01*
X8778214Y-32938929D01*
X9049643Y-32853214D02*
X9249643Y-32853214D01*
X9121071Y-33153214D01*
X9363929Y-33153214D02*
X9363929Y-32953214D01*
X9363929Y-32981786D02*
X9378214Y-32967500D01*
X9406786Y-32953214D01*
X9449643Y-32953214D01*
X9478214Y-32967500D01*
X9492500Y-32996071D01*
X9492500Y-33153214D01*
X9492500Y-32996071D02*
X9506786Y-32967500D01*
X9535357Y-32953214D01*
X9578214Y-32953214D01*
X9606786Y-32967500D01*
X9621071Y-32996071D01*
X9621071Y-33153214D01*
X9763929Y-33153214D02*
X9763929Y-32953214D01*
X9763929Y-32981786D02*
X9778214Y-32967500D01*
X9806786Y-32953214D01*
X9849643Y-32953214D01*
X9878214Y-32967500D01*
X9892500Y-32996071D01*
X9892500Y-33153214D01*
X9892500Y-32996071D02*
X9906786Y-32967500D01*
X9935357Y-32953214D01*
X9978214Y-32953214D01*
X10006786Y-32967500D01*
X10021071Y-32996071D01*
X10021071Y-33153214D01*
X10606786Y-32838929D02*
X10349643Y-33224643D01*
X10992500Y-32853214D02*
X11021071Y-32853214D01*
X11049643Y-32867500D01*
X11063928Y-32881786D01*
X11078214Y-32910357D01*
X11092500Y-32967500D01*
X11092500Y-33038929D01*
X11078214Y-33096071D01*
X11063928Y-33124643D01*
X11049643Y-33138929D01*
X11021071Y-33153214D01*
X10992500Y-33153214D01*
X10963928Y-33138929D01*
X10949643Y-33124643D01*
X10935357Y-33096071D01*
X10921071Y-33038929D01*
X10921071Y-32967500D01*
X10935357Y-32910357D01*
X10949643Y-32881786D01*
X10963928Y-32867500D01*
X10992500Y-32853214D01*
X11221071Y-33124643D02*
X11235357Y-33138929D01*
X11221071Y-33153214D01*
X11206786Y-33138929D01*
X11221071Y-33124643D01*
X11221071Y-33153214D01*
X11521071Y-33153214D02*
X11349643Y-33153214D01*
X11435357Y-33153214D02*
X11435357Y-32853214D01*
X11406785Y-32896071D01*
X11378214Y-32924643D01*
X11349643Y-32938929D01*
X11635357Y-32881786D02*
X11649643Y-32867500D01*
X11678214Y-32853214D01*
X11749643Y-32853214D01*
X11778214Y-32867500D01*
X11792500Y-32881786D01*
X11806785Y-32910357D01*
X11806785Y-32938929D01*
X11792500Y-32981786D01*
X11621071Y-33153214D01*
X11806785Y-33153214D01*
X12078214Y-32853214D02*
X11935357Y-32853214D01*
X11921071Y-32996071D01*
X11935357Y-32981786D01*
X11963928Y-32967500D01*
X12035357Y-32967500D01*
X12063928Y-32981786D01*
X12078214Y-32996071D01*
X12092500Y-33024643D01*
X12092500Y-33096071D01*
X12078214Y-33124643D01*
X12063928Y-33138929D01*
X12035357Y-33153214D01*
X11963928Y-33153214D01*
X11935357Y-33138929D01*
X11921071Y-33124643D01*
X12206786Y-32853214D02*
X12206786Y-32910357D01*
X12321071Y-32853214D02*
X12321071Y-32910357D01*
X12763928Y-33267500D02*
X12749643Y-33253214D01*
X12721071Y-33210357D01*
X12706785Y-33181786D01*
X12692500Y-33138929D01*
X12678214Y-33067500D01*
X12678214Y-33010357D01*
X12692500Y-32938929D01*
X12706785Y-32896071D01*
X12721071Y-32867500D01*
X12749643Y-32824643D01*
X12763928Y-32810357D01*
X13006785Y-32953214D02*
X13006785Y-33153214D01*
X12935357Y-32838929D02*
X12863928Y-33053214D01*
X13049643Y-33053214D01*
X13392500Y-33153214D02*
X13392500Y-32853214D01*
X13521071Y-33153214D02*
X13521071Y-32996071D01*
X13506785Y-32967500D01*
X13478214Y-32953214D01*
X13435357Y-32953214D01*
X13406785Y-32967500D01*
X13392500Y-32981786D01*
X13706785Y-33153214D02*
X13678214Y-33138929D01*
X13663928Y-33124643D01*
X13649643Y-33096071D01*
X13649643Y-33010357D01*
X13663928Y-32981786D01*
X13678214Y-32967500D01*
X13706785Y-32953214D01*
X13749643Y-32953214D01*
X13778214Y-32967500D01*
X13792500Y-32981786D01*
X13806785Y-33010357D01*
X13806785Y-33096071D01*
X13792500Y-33124643D01*
X13778214Y-33138929D01*
X13749643Y-33153214D01*
X13706785Y-33153214D01*
X13978214Y-33153214D02*
X13949643Y-33138929D01*
X13935357Y-33110357D01*
X13935357Y-32853214D01*
X14206786Y-33138929D02*
X14178214Y-33153214D01*
X14121071Y-33153214D01*
X14092500Y-33138929D01*
X14078214Y-33110357D01*
X14078214Y-32996071D01*
X14092500Y-32967500D01*
X14121071Y-32953214D01*
X14178214Y-32953214D01*
X14206786Y-32967500D01*
X14221071Y-32996071D01*
X14221071Y-33024643D01*
X14078214Y-33053214D01*
X14335357Y-33138929D02*
X14363928Y-33153214D01*
X14421071Y-33153214D01*
X14449643Y-33138929D01*
X14463928Y-33110357D01*
X14463928Y-33096071D01*
X14449643Y-33067500D01*
X14421071Y-33053214D01*
X14378214Y-33053214D01*
X14349643Y-33038929D01*
X14335357Y-33010357D01*
X14335357Y-32996071D01*
X14349643Y-32967500D01*
X14378214Y-32953214D01*
X14421071Y-32953214D01*
X14449643Y-32967500D01*
X14563928Y-33267500D02*
X14578214Y-33253214D01*
X14606786Y-33210357D01*
X14621071Y-33181786D01*
X14635357Y-33138929D01*
X14649643Y-33067500D01*
X14649643Y-33010357D01*
X14635357Y-32938929D01*
X14621071Y-32896071D01*
X14606786Y-32867500D01*
X14578214Y-32824643D01*
X14563928Y-32810357D01*
M02*
