G04 #@! TF.FileFunction,Copper,L1,Top,Signal*
%FSLAX46Y46*%
G04 Gerber Fmt 4.6, Leading zero omitted, Abs format (unit mm)*
G04 Created by KiCad (PCBNEW 4.0.7) date Thu May 24 18:36:53 2018*
%MOMM*%
%LPD*%
G01*
G04 APERTURE LIST*
%ADD10C,0.100000*%
%ADD11C,0.001000*%
%ADD12C,4.175000*%
%ADD13C,0.254000*%
G04 APERTURE END LIST*
D10*
D11*
G36*
X100000000Y-100000000D02*
X100000000Y-101482500D01*
X79200000Y-101482500D01*
X79200000Y-104607500D01*
X100000000Y-104607500D01*
X100000000Y-106090000D01*
X110640000Y-106090000D01*
X110640000Y-100000000D01*
X100000000Y-100000000D01*
G37*
X100000000Y-100000000D02*
X100000000Y-101482500D01*
X79200000Y-101482500D01*
X79200000Y-104607500D01*
X100000000Y-104607500D01*
X100000000Y-106090000D01*
X110640000Y-106090000D01*
X110640000Y-100000000D01*
X100000000Y-100000000D01*
G36*
X100000000Y-106250000D02*
X100000000Y-107732500D01*
X79200000Y-107732500D01*
X79200000Y-110857500D01*
X100000000Y-110857500D01*
X100000000Y-112340000D01*
X110640000Y-112340000D01*
X110640000Y-106250000D01*
X100000000Y-106250000D01*
G37*
X100000000Y-106250000D02*
X100000000Y-107732500D01*
X79200000Y-107732500D01*
X79200000Y-110857500D01*
X100000000Y-110857500D01*
X100000000Y-112340000D01*
X110640000Y-112340000D01*
X110640000Y-106250000D01*
X100000000Y-106250000D01*
G36*
X100000000Y-112500000D02*
X100000000Y-113982500D01*
X79200000Y-113982500D01*
X79200000Y-117107500D01*
X100000000Y-117107500D01*
X100000000Y-118590000D01*
X110640000Y-118590000D01*
X110640000Y-112500000D01*
X100000000Y-112500000D01*
G37*
X100000000Y-112500000D02*
X100000000Y-113982500D01*
X79200000Y-113982500D01*
X79200000Y-117107500D01*
X100000000Y-117107500D01*
X100000000Y-118590000D01*
X110640000Y-118590000D01*
X110640000Y-112500000D01*
X100000000Y-112500000D01*
G36*
X100000000Y-118750000D02*
X100000000Y-120232500D01*
X79200000Y-120232500D01*
X79200000Y-123357500D01*
X100000000Y-123357500D01*
X100000000Y-124840000D01*
X110640000Y-124840000D01*
X110640000Y-118750000D01*
X100000000Y-118750000D01*
G37*
X100000000Y-118750000D02*
X100000000Y-120232500D01*
X79200000Y-120232500D01*
X79200000Y-123357500D01*
X100000000Y-123357500D01*
X100000000Y-124840000D01*
X110640000Y-124840000D01*
X110640000Y-118750000D01*
X100000000Y-118750000D01*
G36*
X100000000Y-125000000D02*
X100000000Y-126482500D01*
X79200000Y-126482500D01*
X79200000Y-129607500D01*
X100000000Y-129607500D01*
X100000000Y-131090000D01*
X110640000Y-131090000D01*
X110640000Y-125000000D01*
X100000000Y-125000000D01*
G37*
X100000000Y-125000000D02*
X100000000Y-126482500D01*
X79200000Y-126482500D01*
X79200000Y-129607500D01*
X100000000Y-129607500D01*
X100000000Y-131090000D01*
X110640000Y-131090000D01*
X110640000Y-125000000D01*
X100000000Y-125000000D01*
G36*
X100000000Y-131250000D02*
X100000000Y-132732500D01*
X79200000Y-132732500D01*
X79200000Y-135857500D01*
X100000000Y-135857500D01*
X100000000Y-137340000D01*
X110640000Y-137340000D01*
X110640000Y-131250000D01*
X100000000Y-131250000D01*
G37*
X100000000Y-131250000D02*
X100000000Y-132732500D01*
X79200000Y-132732500D01*
X79200000Y-135857500D01*
X100000000Y-135857500D01*
X100000000Y-137340000D01*
X110640000Y-137340000D01*
X110640000Y-131250000D01*
X100000000Y-131250000D01*
G36*
X100000000Y-137500000D02*
X100000000Y-138982500D01*
X79200000Y-138982500D01*
X79200000Y-142107500D01*
X100000000Y-142107500D01*
X100000000Y-143590000D01*
X110640000Y-143590000D01*
X110640000Y-137500000D01*
X100000000Y-137500000D01*
G37*
X100000000Y-137500000D02*
X100000000Y-138982500D01*
X79200000Y-138982500D01*
X79200000Y-142107500D01*
X100000000Y-142107500D01*
X100000000Y-143590000D01*
X110640000Y-143590000D01*
X110640000Y-137500000D01*
X100000000Y-137500000D01*
G36*
X100000000Y-143750000D02*
X100000000Y-145232500D01*
X79200000Y-145232500D01*
X79200000Y-148357500D01*
X100000000Y-148357500D01*
X100000000Y-149840000D01*
X110640000Y-149840000D01*
X110640000Y-143750000D01*
X100000000Y-143750000D01*
G37*
X100000000Y-143750000D02*
X100000000Y-145232500D01*
X79200000Y-145232500D01*
X79200000Y-148357500D01*
X100000000Y-148357500D01*
X100000000Y-149840000D01*
X110640000Y-149840000D01*
X110640000Y-143750000D01*
X100000000Y-143750000D01*
G36*
X100000000Y-150000000D02*
X100000000Y-151482500D01*
X79200000Y-151482500D01*
X79200000Y-154607500D01*
X100000000Y-154607500D01*
X100000000Y-156090000D01*
X110640000Y-156090000D01*
X110640000Y-150000000D01*
X100000000Y-150000000D01*
G37*
X100000000Y-150000000D02*
X100000000Y-151482500D01*
X79200000Y-151482500D01*
X79200000Y-154607500D01*
X100000000Y-154607500D01*
X100000000Y-156090000D01*
X110640000Y-156090000D01*
X110640000Y-150000000D01*
X100000000Y-150000000D01*
G36*
X100000000Y-156250000D02*
X100000000Y-157732500D01*
X79200000Y-157732500D01*
X79200000Y-160857500D01*
X100000000Y-160857500D01*
X100000000Y-162340000D01*
X110640000Y-162340000D01*
X110640000Y-156250000D01*
X100000000Y-156250000D01*
G37*
X100000000Y-156250000D02*
X100000000Y-157732500D01*
X79200000Y-157732500D01*
X79200000Y-160857500D01*
X100000000Y-160857500D01*
X100000000Y-162340000D01*
X110640000Y-162340000D01*
X110640000Y-156250000D01*
X100000000Y-156250000D01*
G36*
X100000000Y-162500000D02*
X100000000Y-163982500D01*
X79200000Y-163982500D01*
X79200000Y-167107500D01*
X100000000Y-167107500D01*
X100000000Y-168590000D01*
X110640000Y-168590000D01*
X110640000Y-162500000D01*
X100000000Y-162500000D01*
G37*
X100000000Y-162500000D02*
X100000000Y-163982500D01*
X79200000Y-163982500D01*
X79200000Y-167107500D01*
X100000000Y-167107500D01*
X100000000Y-168590000D01*
X110640000Y-168590000D01*
X110640000Y-162500000D01*
X100000000Y-162500000D01*
G36*
X100000000Y-168750000D02*
X100000000Y-170232500D01*
X79200000Y-170232500D01*
X79200000Y-173357500D01*
X100000000Y-173357500D01*
X100000000Y-174840000D01*
X110640000Y-174840000D01*
X110640000Y-168750000D01*
X100000000Y-168750000D01*
G37*
X100000000Y-168750000D02*
X100000000Y-170232500D01*
X79200000Y-170232500D01*
X79200000Y-173357500D01*
X100000000Y-173357500D01*
X100000000Y-174840000D01*
X110640000Y-174840000D01*
X110640000Y-168750000D01*
X100000000Y-168750000D01*
G36*
X100000000Y-175000000D02*
X100000000Y-176482500D01*
X79200000Y-176482500D01*
X79200000Y-179607500D01*
X100000000Y-179607500D01*
X100000000Y-181090000D01*
X110640000Y-181090000D01*
X110640000Y-175000000D01*
X100000000Y-175000000D01*
G37*
X100000000Y-175000000D02*
X100000000Y-176482500D01*
X79200000Y-176482500D01*
X79200000Y-179607500D01*
X100000000Y-179607500D01*
X100000000Y-181090000D01*
X110640000Y-181090000D01*
X110640000Y-175000000D01*
X100000000Y-175000000D01*
G36*
X100000000Y-181250000D02*
X100000000Y-182732500D01*
X79200000Y-182732500D01*
X79200000Y-185857500D01*
X100000000Y-185857500D01*
X100000000Y-187340000D01*
X110640000Y-187340000D01*
X110640000Y-181250000D01*
X100000000Y-181250000D01*
G37*
X100000000Y-181250000D02*
X100000000Y-182732500D01*
X79200000Y-182732500D01*
X79200000Y-185857500D01*
X100000000Y-185857500D01*
X100000000Y-187340000D01*
X110640000Y-187340000D01*
X110640000Y-181250000D01*
X100000000Y-181250000D01*
G36*
X100000000Y-187500000D02*
X100000000Y-188982500D01*
X79200000Y-188982500D01*
X79200000Y-192107500D01*
X100000000Y-192107500D01*
X100000000Y-193590000D01*
X110640000Y-193590000D01*
X110640000Y-187500000D01*
X100000000Y-187500000D01*
G37*
X100000000Y-187500000D02*
X100000000Y-188982500D01*
X79200000Y-188982500D01*
X79200000Y-192107500D01*
X100000000Y-192107500D01*
X100000000Y-193590000D01*
X110640000Y-193590000D01*
X110640000Y-187500000D01*
X100000000Y-187500000D01*
G36*
X100000000Y-193750000D02*
X100000000Y-195232500D01*
X79200000Y-195232500D01*
X79200000Y-198357500D01*
X100000000Y-198357500D01*
X100000000Y-199840000D01*
X110640000Y-199840000D01*
X110640000Y-193750000D01*
X100000000Y-193750000D01*
G37*
X100000000Y-193750000D02*
X100000000Y-195232500D01*
X79200000Y-195232500D01*
X79200000Y-198357500D01*
X100000000Y-198357500D01*
X100000000Y-199840000D01*
X110640000Y-199840000D01*
X110640000Y-193750000D01*
X100000000Y-193750000D01*
G36*
X100000000Y-200000000D02*
X100000000Y-201482500D01*
X79200000Y-201482500D01*
X79200000Y-204607500D01*
X100000000Y-204607500D01*
X100000000Y-206090000D01*
X110640000Y-206090000D01*
X110640000Y-200000000D01*
X100000000Y-200000000D01*
G37*
X100000000Y-200000000D02*
X100000000Y-201482500D01*
X79200000Y-201482500D01*
X79200000Y-204607500D01*
X100000000Y-204607500D01*
X100000000Y-206090000D01*
X110640000Y-206090000D01*
X110640000Y-200000000D01*
X100000000Y-200000000D01*
G36*
X100000000Y-206250000D02*
X100000000Y-207732500D01*
X79200000Y-207732500D01*
X79200000Y-210857500D01*
X100000000Y-210857500D01*
X100000000Y-212340000D01*
X110640000Y-212340000D01*
X110640000Y-206250000D01*
X100000000Y-206250000D01*
G37*
X100000000Y-206250000D02*
X100000000Y-207732500D01*
X79200000Y-207732500D01*
X79200000Y-210857500D01*
X100000000Y-210857500D01*
X100000000Y-212340000D01*
X110640000Y-212340000D01*
X110640000Y-206250000D01*
X100000000Y-206250000D01*
G36*
X100000000Y-212500000D02*
X100000000Y-213982500D01*
X79200000Y-213982500D01*
X79200000Y-217107500D01*
X100000000Y-217107500D01*
X100000000Y-218590000D01*
X110640000Y-218590000D01*
X110640000Y-212500000D01*
X100000000Y-212500000D01*
G37*
X100000000Y-212500000D02*
X100000000Y-213982500D01*
X79200000Y-213982500D01*
X79200000Y-217107500D01*
X100000000Y-217107500D01*
X100000000Y-218590000D01*
X110640000Y-218590000D01*
X110640000Y-212500000D01*
X100000000Y-212500000D01*
G36*
X100000000Y-218750000D02*
X100000000Y-220232500D01*
X79200000Y-220232500D01*
X79200000Y-223357500D01*
X100000000Y-223357500D01*
X100000000Y-224840000D01*
X110640000Y-224840000D01*
X110640000Y-218750000D01*
X100000000Y-218750000D01*
G37*
X100000000Y-218750000D02*
X100000000Y-220232500D01*
X79200000Y-220232500D01*
X79200000Y-223357500D01*
X100000000Y-223357500D01*
X100000000Y-224840000D01*
X110640000Y-224840000D01*
X110640000Y-218750000D01*
X100000000Y-218750000D01*
G36*
X100000000Y-225000000D02*
X100000000Y-226482500D01*
X79200000Y-226482500D01*
X79200000Y-229607500D01*
X100000000Y-229607500D01*
X100000000Y-231090000D01*
X110640000Y-231090000D01*
X110640000Y-225000000D01*
X100000000Y-225000000D01*
G37*
X100000000Y-225000000D02*
X100000000Y-226482500D01*
X79200000Y-226482500D01*
X79200000Y-229607500D01*
X100000000Y-229607500D01*
X100000000Y-231090000D01*
X110640000Y-231090000D01*
X110640000Y-225000000D01*
X100000000Y-225000000D01*
G36*
X100000000Y-231250000D02*
X100000000Y-232732500D01*
X79200000Y-232732500D01*
X79200000Y-235857500D01*
X100000000Y-235857500D01*
X100000000Y-237340000D01*
X110640000Y-237340000D01*
X110640000Y-231250000D01*
X100000000Y-231250000D01*
G37*
X100000000Y-231250000D02*
X100000000Y-232732500D01*
X79200000Y-232732500D01*
X79200000Y-235857500D01*
X100000000Y-235857500D01*
X100000000Y-237340000D01*
X110640000Y-237340000D01*
X110640000Y-231250000D01*
X100000000Y-231250000D01*
G36*
X100000000Y-237500000D02*
X100000000Y-238982500D01*
X79200000Y-238982500D01*
X79200000Y-242107500D01*
X100000000Y-242107500D01*
X100000000Y-243590000D01*
X110640000Y-243590000D01*
X110640000Y-237500000D01*
X100000000Y-237500000D01*
G37*
X100000000Y-237500000D02*
X100000000Y-238982500D01*
X79200000Y-238982500D01*
X79200000Y-242107500D01*
X100000000Y-242107500D01*
X100000000Y-243590000D01*
X110640000Y-243590000D01*
X110640000Y-237500000D01*
X100000000Y-237500000D01*
G36*
X100000000Y-243750000D02*
X100000000Y-245232500D01*
X79200000Y-245232500D01*
X79200000Y-248357500D01*
X100000000Y-248357500D01*
X100000000Y-249840000D01*
X110640000Y-249840000D01*
X110640000Y-243750000D01*
X100000000Y-243750000D01*
G37*
X100000000Y-243750000D02*
X100000000Y-245232500D01*
X79200000Y-245232500D01*
X79200000Y-248357500D01*
X100000000Y-248357500D01*
X100000000Y-249840000D01*
X110640000Y-249840000D01*
X110640000Y-243750000D01*
X100000000Y-243750000D01*
G36*
X100000000Y-250000000D02*
X100000000Y-251482500D01*
X79200000Y-251482500D01*
X79200000Y-254607500D01*
X100000000Y-254607500D01*
X100000000Y-256090000D01*
X110640000Y-256090000D01*
X110640000Y-250000000D01*
X100000000Y-250000000D01*
G37*
X100000000Y-250000000D02*
X100000000Y-251482500D01*
X79200000Y-251482500D01*
X79200000Y-254607500D01*
X100000000Y-254607500D01*
X100000000Y-256090000D01*
X110640000Y-256090000D01*
X110640000Y-250000000D01*
X100000000Y-250000000D01*
G36*
X100000000Y-256250000D02*
X100000000Y-257732500D01*
X79200000Y-257732500D01*
X79200000Y-260857500D01*
X100000000Y-260857500D01*
X100000000Y-262340000D01*
X110640000Y-262340000D01*
X110640000Y-256250000D01*
X100000000Y-256250000D01*
G37*
X100000000Y-256250000D02*
X100000000Y-257732500D01*
X79200000Y-257732500D01*
X79200000Y-260857500D01*
X100000000Y-260857500D01*
X100000000Y-262340000D01*
X110640000Y-262340000D01*
X110640000Y-256250000D01*
X100000000Y-256250000D01*
G36*
X100000000Y-262500000D02*
X100000000Y-263982500D01*
X79200000Y-263982500D01*
X79200000Y-267107500D01*
X100000000Y-267107500D01*
X100000000Y-268590000D01*
X110640000Y-268590000D01*
X110640000Y-262500000D01*
X100000000Y-262500000D01*
G37*
X100000000Y-262500000D02*
X100000000Y-263982500D01*
X79200000Y-263982500D01*
X79200000Y-267107500D01*
X100000000Y-267107500D01*
X100000000Y-268590000D01*
X110640000Y-268590000D01*
X110640000Y-262500000D01*
X100000000Y-262500000D01*
G36*
X100000000Y-268750000D02*
X100000000Y-270232500D01*
X79200000Y-270232500D01*
X79200000Y-273357500D01*
X100000000Y-273357500D01*
X100000000Y-274840000D01*
X110640000Y-274840000D01*
X110640000Y-268750000D01*
X100000000Y-268750000D01*
G37*
X100000000Y-268750000D02*
X100000000Y-270232500D01*
X79200000Y-270232500D01*
X79200000Y-273357500D01*
X100000000Y-273357500D01*
X100000000Y-274840000D01*
X110640000Y-274840000D01*
X110640000Y-268750000D01*
X100000000Y-268750000D01*
G36*
X100000000Y-275000000D02*
X100000000Y-276482500D01*
X79200000Y-276482500D01*
X79200000Y-279607500D01*
X100000000Y-279607500D01*
X100000000Y-281090000D01*
X110640000Y-281090000D01*
X110640000Y-275000000D01*
X100000000Y-275000000D01*
G37*
X100000000Y-275000000D02*
X100000000Y-276482500D01*
X79200000Y-276482500D01*
X79200000Y-279607500D01*
X100000000Y-279607500D01*
X100000000Y-281090000D01*
X110640000Y-281090000D01*
X110640000Y-275000000D01*
X100000000Y-275000000D01*
G36*
X100000000Y-281250000D02*
X100000000Y-282732500D01*
X79200000Y-282732500D01*
X79200000Y-285857500D01*
X100000000Y-285857500D01*
X100000000Y-287340000D01*
X110640000Y-287340000D01*
X110640000Y-281250000D01*
X100000000Y-281250000D01*
G37*
X100000000Y-281250000D02*
X100000000Y-282732500D01*
X79200000Y-282732500D01*
X79200000Y-285857500D01*
X100000000Y-285857500D01*
X100000000Y-287340000D01*
X110640000Y-287340000D01*
X110640000Y-281250000D01*
X100000000Y-281250000D01*
G36*
X100000000Y-287500000D02*
X100000000Y-288982500D01*
X79200000Y-288982500D01*
X79200000Y-292107500D01*
X100000000Y-292107500D01*
X100000000Y-293590000D01*
X110640000Y-293590000D01*
X110640000Y-287500000D01*
X100000000Y-287500000D01*
G37*
X100000000Y-287500000D02*
X100000000Y-288982500D01*
X79200000Y-288982500D01*
X79200000Y-292107500D01*
X100000000Y-292107500D01*
X100000000Y-293590000D01*
X110640000Y-293590000D01*
X110640000Y-287500000D01*
X100000000Y-287500000D01*
G36*
X100000000Y-293750000D02*
X100000000Y-295232500D01*
X79200000Y-295232500D01*
X79200000Y-298357500D01*
X100000000Y-298357500D01*
X100000000Y-299840000D01*
X110640000Y-299840000D01*
X110640000Y-293750000D01*
X100000000Y-293750000D01*
G37*
X100000000Y-293750000D02*
X100000000Y-295232500D01*
X79200000Y-295232500D01*
X79200000Y-298357500D01*
X100000000Y-298357500D01*
X100000000Y-299840000D01*
X110640000Y-299840000D01*
X110640000Y-293750000D01*
X100000000Y-293750000D01*
G36*
X99847600Y-100000000D02*
X99847600Y-101330100D01*
X79047600Y-101330100D01*
X79047600Y-104759900D01*
X99847600Y-104759900D01*
X99847600Y-106090000D01*
X99847600Y-106250000D01*
X99847600Y-107580100D01*
X79047600Y-107580100D01*
X79047600Y-111009900D01*
X99847600Y-111009900D01*
X99847600Y-112340000D01*
X99847600Y-112500000D01*
X99847600Y-113830100D01*
X79047600Y-113830100D01*
X79047600Y-117259900D01*
X99847600Y-117259900D01*
X99847600Y-118590000D01*
X99847600Y-118750000D01*
X99847600Y-120080100D01*
X79047600Y-120080100D01*
X79047600Y-123509900D01*
X99847600Y-123509900D01*
X99847600Y-124840000D01*
X99847600Y-125000000D01*
X99847600Y-126330100D01*
X79047600Y-126330100D01*
X79047600Y-129759900D01*
X99847600Y-129759900D01*
X99847600Y-131090000D01*
X99847600Y-131250000D01*
X99847600Y-132580100D01*
X79047600Y-132580100D01*
X79047600Y-136009900D01*
X99847600Y-136009900D01*
X99847600Y-137340000D01*
X99847600Y-137500000D01*
X99847600Y-138830100D01*
X79047600Y-138830100D01*
X79047600Y-142259900D01*
X99847600Y-142259900D01*
X99847600Y-143590000D01*
X99847600Y-143750000D01*
X99847600Y-145080100D01*
X79047600Y-145080100D01*
X79047600Y-148509900D01*
X99847600Y-148509900D01*
X99847600Y-149840000D01*
X99847600Y-150000000D01*
X99847600Y-151330100D01*
X79047600Y-151330100D01*
X79047600Y-154759900D01*
X99847600Y-154759900D01*
X99847600Y-156090000D01*
X99847600Y-156250000D01*
X99847600Y-157580100D01*
X79047600Y-157580100D01*
X79047600Y-161009900D01*
X99847600Y-161009900D01*
X99847600Y-162340000D01*
X99847600Y-162500000D01*
X99847600Y-163830100D01*
X79047600Y-163830100D01*
X79047600Y-167259900D01*
X99847600Y-167259900D01*
X99847600Y-168590000D01*
X99847600Y-168750000D01*
X99847600Y-170080100D01*
X79047600Y-170080100D01*
X79047600Y-173509900D01*
X99847600Y-173509900D01*
X99847600Y-174840000D01*
X99847600Y-175000000D01*
X99847600Y-176330100D01*
X79047600Y-176330100D01*
X79047600Y-179759900D01*
X99847600Y-179759900D01*
X99847600Y-181090000D01*
X99847600Y-181250000D01*
X99847600Y-182580100D01*
X79047600Y-182580100D01*
X79047600Y-186009900D01*
X99847600Y-186009900D01*
X99847600Y-187340000D01*
X99847600Y-187500000D01*
X99847600Y-188830100D01*
X79047600Y-188830100D01*
X79047600Y-192259900D01*
X99847600Y-192259900D01*
X99847600Y-193590000D01*
X99847600Y-193750000D01*
X99847600Y-195080100D01*
X79047600Y-195080100D01*
X79047600Y-198509900D01*
X99847600Y-198509900D01*
X99847600Y-199840000D01*
X99847600Y-200000000D01*
X99847600Y-201330100D01*
X79047600Y-201330100D01*
X79047600Y-204759900D01*
X99847600Y-204759900D01*
X99847600Y-206090000D01*
X99847600Y-206250000D01*
X99847600Y-207580100D01*
X79047600Y-207580100D01*
X79047600Y-211009900D01*
X99847600Y-211009900D01*
X99847600Y-212340000D01*
X99847600Y-212500000D01*
X99847600Y-213830100D01*
X79047600Y-213830100D01*
X79047600Y-217259900D01*
X99847600Y-217259900D01*
X99847600Y-218590000D01*
X99847600Y-218750000D01*
X99847600Y-220080100D01*
X79047600Y-220080100D01*
X79047600Y-223509900D01*
X99847600Y-223509900D01*
X99847600Y-224840000D01*
X99847600Y-225000000D01*
X99847600Y-226330100D01*
X79047600Y-226330100D01*
X79047600Y-229759900D01*
X99847600Y-229759900D01*
X99847600Y-231090000D01*
X99847600Y-231250000D01*
X99847600Y-232580100D01*
X79047600Y-232580100D01*
X79047600Y-236009900D01*
X99847600Y-236009900D01*
X99847600Y-237340000D01*
X99847600Y-237500000D01*
X99847600Y-238830100D01*
X79047600Y-238830100D01*
X79047600Y-242259900D01*
X99847600Y-242259900D01*
X99847600Y-243590000D01*
X99847600Y-243750000D01*
X99847600Y-245080100D01*
X79047600Y-245080100D01*
X79047600Y-248509900D01*
X99847600Y-248509900D01*
X99847600Y-249840000D01*
X99847600Y-250000000D01*
X99847600Y-251330100D01*
X79047600Y-251330100D01*
X79047600Y-254759900D01*
X99847600Y-254759900D01*
X99847600Y-256090000D01*
X99847600Y-256250000D01*
X99847600Y-257580100D01*
X79047600Y-257580100D01*
X79047600Y-261009900D01*
X99847600Y-261009900D01*
X99847600Y-262340000D01*
X99847600Y-262500000D01*
X99847600Y-263830100D01*
X79047600Y-263830100D01*
X79047600Y-267259900D01*
X99847600Y-267259900D01*
X99847600Y-268590000D01*
X99847600Y-268750000D01*
X99847600Y-270080100D01*
X79047600Y-270080100D01*
X79047600Y-273509900D01*
X99847600Y-273509900D01*
X99847600Y-274840000D01*
X99847600Y-275000000D01*
X99847600Y-276330100D01*
X79047600Y-276330100D01*
X79047600Y-279759900D01*
X99847600Y-279759900D01*
X99847600Y-281090000D01*
X99847600Y-281250000D01*
X99847600Y-282580100D01*
X79047600Y-282580100D01*
X79047600Y-286009900D01*
X99847600Y-286009900D01*
X99847600Y-287340000D01*
X99847600Y-287500000D01*
X99847600Y-288830100D01*
X79047600Y-288830100D01*
X79047600Y-292259900D01*
X99847600Y-292259900D01*
X99847600Y-293590000D01*
X99847600Y-293750000D01*
X99847600Y-295080100D01*
X79047600Y-295080100D01*
X79047600Y-298509900D01*
X99847600Y-298509900D01*
X99847600Y-299840000D01*
X99847600Y-300000000D01*
X78747600Y-300000000D01*
X78747600Y-100000000D01*
X99847600Y-100000000D01*
G37*
X99847600Y-100000000D02*
X99847600Y-101330100D01*
X79047600Y-101330100D01*
X79047600Y-104759900D01*
X99847600Y-104759900D01*
X99847600Y-106090000D01*
X99847600Y-106250000D01*
X99847600Y-107580100D01*
X79047600Y-107580100D01*
X79047600Y-111009900D01*
X99847600Y-111009900D01*
X99847600Y-112340000D01*
X99847600Y-112500000D01*
X99847600Y-113830100D01*
X79047600Y-113830100D01*
X79047600Y-117259900D01*
X99847600Y-117259900D01*
X99847600Y-118590000D01*
X99847600Y-118750000D01*
X99847600Y-120080100D01*
X79047600Y-120080100D01*
X79047600Y-123509900D01*
X99847600Y-123509900D01*
X99847600Y-124840000D01*
X99847600Y-125000000D01*
X99847600Y-126330100D01*
X79047600Y-126330100D01*
X79047600Y-129759900D01*
X99847600Y-129759900D01*
X99847600Y-131090000D01*
X99847600Y-131250000D01*
X99847600Y-132580100D01*
X79047600Y-132580100D01*
X79047600Y-136009900D01*
X99847600Y-136009900D01*
X99847600Y-137340000D01*
X99847600Y-137500000D01*
X99847600Y-138830100D01*
X79047600Y-138830100D01*
X79047600Y-142259900D01*
X99847600Y-142259900D01*
X99847600Y-143590000D01*
X99847600Y-143750000D01*
X99847600Y-145080100D01*
X79047600Y-145080100D01*
X79047600Y-148509900D01*
X99847600Y-148509900D01*
X99847600Y-149840000D01*
X99847600Y-150000000D01*
X99847600Y-151330100D01*
X79047600Y-151330100D01*
X79047600Y-154759900D01*
X99847600Y-154759900D01*
X99847600Y-156090000D01*
X99847600Y-156250000D01*
X99847600Y-157580100D01*
X79047600Y-157580100D01*
X79047600Y-161009900D01*
X99847600Y-161009900D01*
X99847600Y-162340000D01*
X99847600Y-162500000D01*
X99847600Y-163830100D01*
X79047600Y-163830100D01*
X79047600Y-167259900D01*
X99847600Y-167259900D01*
X99847600Y-168590000D01*
X99847600Y-168750000D01*
X99847600Y-170080100D01*
X79047600Y-170080100D01*
X79047600Y-173509900D01*
X99847600Y-173509900D01*
X99847600Y-174840000D01*
X99847600Y-175000000D01*
X99847600Y-176330100D01*
X79047600Y-176330100D01*
X79047600Y-179759900D01*
X99847600Y-179759900D01*
X99847600Y-181090000D01*
X99847600Y-181250000D01*
X99847600Y-182580100D01*
X79047600Y-182580100D01*
X79047600Y-186009900D01*
X99847600Y-186009900D01*
X99847600Y-187340000D01*
X99847600Y-187500000D01*
X99847600Y-188830100D01*
X79047600Y-188830100D01*
X79047600Y-192259900D01*
X99847600Y-192259900D01*
X99847600Y-193590000D01*
X99847600Y-193750000D01*
X99847600Y-195080100D01*
X79047600Y-195080100D01*
X79047600Y-198509900D01*
X99847600Y-198509900D01*
X99847600Y-199840000D01*
X99847600Y-200000000D01*
X99847600Y-201330100D01*
X79047600Y-201330100D01*
X79047600Y-204759900D01*
X99847600Y-204759900D01*
X99847600Y-206090000D01*
X99847600Y-206250000D01*
X99847600Y-207580100D01*
X79047600Y-207580100D01*
X79047600Y-211009900D01*
X99847600Y-211009900D01*
X99847600Y-212340000D01*
X99847600Y-212500000D01*
X99847600Y-213830100D01*
X79047600Y-213830100D01*
X79047600Y-217259900D01*
X99847600Y-217259900D01*
X99847600Y-218590000D01*
X99847600Y-218750000D01*
X99847600Y-220080100D01*
X79047600Y-220080100D01*
X79047600Y-223509900D01*
X99847600Y-223509900D01*
X99847600Y-224840000D01*
X99847600Y-225000000D01*
X99847600Y-226330100D01*
X79047600Y-226330100D01*
X79047600Y-229759900D01*
X99847600Y-229759900D01*
X99847600Y-231090000D01*
X99847600Y-231250000D01*
X99847600Y-232580100D01*
X79047600Y-232580100D01*
X79047600Y-236009900D01*
X99847600Y-236009900D01*
X99847600Y-237340000D01*
X99847600Y-237500000D01*
X99847600Y-238830100D01*
X79047600Y-238830100D01*
X79047600Y-242259900D01*
X99847600Y-242259900D01*
X99847600Y-243590000D01*
X99847600Y-243750000D01*
X99847600Y-245080100D01*
X79047600Y-245080100D01*
X79047600Y-248509900D01*
X99847600Y-248509900D01*
X99847600Y-249840000D01*
X99847600Y-250000000D01*
X99847600Y-251330100D01*
X79047600Y-251330100D01*
X79047600Y-254759900D01*
X99847600Y-254759900D01*
X99847600Y-256090000D01*
X99847600Y-256250000D01*
X99847600Y-257580100D01*
X79047600Y-257580100D01*
X79047600Y-261009900D01*
X99847600Y-261009900D01*
X99847600Y-262340000D01*
X99847600Y-262500000D01*
X99847600Y-263830100D01*
X79047600Y-263830100D01*
X79047600Y-267259900D01*
X99847600Y-267259900D01*
X99847600Y-268590000D01*
X99847600Y-268750000D01*
X99847600Y-270080100D01*
X79047600Y-270080100D01*
X79047600Y-273509900D01*
X99847600Y-273509900D01*
X99847600Y-274840000D01*
X99847600Y-275000000D01*
X99847600Y-276330100D01*
X79047600Y-276330100D01*
X79047600Y-279759900D01*
X99847600Y-279759900D01*
X99847600Y-281090000D01*
X99847600Y-281250000D01*
X99847600Y-282580100D01*
X79047600Y-282580100D01*
X79047600Y-286009900D01*
X99847600Y-286009900D01*
X99847600Y-287340000D01*
X99847600Y-287500000D01*
X99847600Y-288830100D01*
X79047600Y-288830100D01*
X79047600Y-292259900D01*
X99847600Y-292259900D01*
X99847600Y-293590000D01*
X99847600Y-293750000D01*
X99847600Y-295080100D01*
X79047600Y-295080100D01*
X79047600Y-298509900D01*
X99847600Y-298509900D01*
X99847600Y-299840000D01*
X99847600Y-300000000D01*
X78747600Y-300000000D01*
X78747600Y-100000000D01*
X99847600Y-100000000D01*
D12*
X74747600Y-110000000D03*
X114640000Y-110000000D03*
X74747600Y-290000000D03*
X114640000Y-290000000D03*
D13*
G36*
X117655740Y-302290000D02*
X71734280Y-302290000D01*
X71734280Y-291938183D01*
X72989023Y-291938183D01*
X73220458Y-292317996D01*
X74223763Y-292725961D01*
X75306818Y-292718923D01*
X76274742Y-292317996D01*
X76506177Y-291938183D01*
X74747600Y-290179605D01*
X72989023Y-291938183D01*
X71734280Y-291938183D01*
X71734280Y-289476163D01*
X72021639Y-289476163D01*
X72028677Y-290559218D01*
X72429604Y-291527142D01*
X72809417Y-291758577D01*
X74567995Y-290000000D01*
X74927205Y-290000000D01*
X76685783Y-291758577D01*
X77065596Y-291527142D01*
X77473561Y-290523837D01*
X77466523Y-289440782D01*
X77065596Y-288472858D01*
X76685783Y-288241423D01*
X74927205Y-290000000D01*
X74567995Y-290000000D01*
X72809417Y-288241423D01*
X72429604Y-288472858D01*
X72021639Y-289476163D01*
X71734280Y-289476163D01*
X71734280Y-288061817D01*
X72989023Y-288061817D01*
X74747600Y-289820395D01*
X76506177Y-288061817D01*
X76274742Y-287682004D01*
X75271437Y-287274039D01*
X74188382Y-287281077D01*
X73220458Y-287682004D01*
X72989023Y-288061817D01*
X71734280Y-288061817D01*
X71734280Y-111938183D01*
X72989023Y-111938183D01*
X73220458Y-112317996D01*
X74223763Y-112725961D01*
X75306818Y-112718923D01*
X76274742Y-112317996D01*
X76506177Y-111938183D01*
X74747600Y-110179605D01*
X72989023Y-111938183D01*
X71734280Y-111938183D01*
X71734280Y-109476163D01*
X72021639Y-109476163D01*
X72028677Y-110559218D01*
X72429604Y-111527142D01*
X72809417Y-111758577D01*
X74567995Y-110000000D01*
X74927205Y-110000000D01*
X76685783Y-111758577D01*
X77065596Y-111527142D01*
X77473561Y-110523837D01*
X77466523Y-109440782D01*
X77065596Y-108472858D01*
X76685783Y-108241423D01*
X74927205Y-110000000D01*
X74567995Y-110000000D01*
X72809417Y-108241423D01*
X72429604Y-108472858D01*
X72021639Y-109476163D01*
X71734280Y-109476163D01*
X71734280Y-108061817D01*
X72989023Y-108061817D01*
X74747600Y-109820395D01*
X76506177Y-108061817D01*
X76274742Y-107682004D01*
X75271437Y-107274039D01*
X74188382Y-107281077D01*
X73220458Y-107682004D01*
X72989023Y-108061817D01*
X71734280Y-108061817D01*
X71734280Y-100000000D01*
X78112100Y-100000000D01*
X78112100Y-300000000D01*
X78160475Y-300243195D01*
X78298234Y-300449366D01*
X78504405Y-300587125D01*
X78747600Y-300635500D01*
X99847600Y-300635500D01*
X100090795Y-300587125D01*
X100257854Y-300475500D01*
X110640000Y-300475500D01*
X110883195Y-300427125D01*
X111089366Y-300289366D01*
X111227125Y-300083195D01*
X111275500Y-299840000D01*
X111275500Y-293750000D01*
X111259587Y-293670000D01*
X111275500Y-293590000D01*
X111275500Y-291938183D01*
X112881423Y-291938183D01*
X113112858Y-292317996D01*
X114116163Y-292725961D01*
X115199218Y-292718923D01*
X116167142Y-292317996D01*
X116398577Y-291938183D01*
X114640000Y-290179605D01*
X112881423Y-291938183D01*
X111275500Y-291938183D01*
X111275500Y-289476163D01*
X111914039Y-289476163D01*
X111921077Y-290559218D01*
X112322004Y-291527142D01*
X112701817Y-291758577D01*
X114460395Y-290000000D01*
X114819605Y-290000000D01*
X116578183Y-291758577D01*
X116957996Y-291527142D01*
X117365961Y-290523837D01*
X117358923Y-289440782D01*
X116957996Y-288472858D01*
X116578183Y-288241423D01*
X114819605Y-290000000D01*
X114460395Y-290000000D01*
X112701817Y-288241423D01*
X112322004Y-288472858D01*
X111914039Y-289476163D01*
X111275500Y-289476163D01*
X111275500Y-288061817D01*
X112881423Y-288061817D01*
X114640000Y-289820395D01*
X116398577Y-288061817D01*
X116167142Y-287682004D01*
X115163837Y-287274039D01*
X114080782Y-287281077D01*
X113112858Y-287682004D01*
X112881423Y-288061817D01*
X111275500Y-288061817D01*
X111275500Y-287500000D01*
X111259587Y-287420000D01*
X111275500Y-287340000D01*
X111275500Y-281250000D01*
X111259587Y-281170000D01*
X111275500Y-281090000D01*
X111275500Y-275000000D01*
X111259587Y-274920000D01*
X111275500Y-274840000D01*
X111275500Y-268750000D01*
X111259587Y-268670000D01*
X111275500Y-268590000D01*
X111275500Y-262500000D01*
X111259587Y-262420000D01*
X111275500Y-262340000D01*
X111275500Y-256250000D01*
X111259587Y-256170000D01*
X111275500Y-256090000D01*
X111275500Y-250000000D01*
X111259587Y-249920000D01*
X111275500Y-249840000D01*
X111275500Y-243750000D01*
X111259587Y-243670000D01*
X111275500Y-243590000D01*
X111275500Y-237500000D01*
X111259587Y-237420000D01*
X111275500Y-237340000D01*
X111275500Y-231250000D01*
X111259587Y-231170000D01*
X111275500Y-231090000D01*
X111275500Y-225000000D01*
X111259587Y-224920000D01*
X111275500Y-224840000D01*
X111275500Y-218750000D01*
X111259587Y-218670000D01*
X111275500Y-218590000D01*
X111275500Y-212500000D01*
X111259587Y-212420000D01*
X111275500Y-212340000D01*
X111275500Y-206250000D01*
X111259587Y-206170000D01*
X111275500Y-206090000D01*
X111275500Y-200000000D01*
X111259587Y-199920000D01*
X111275500Y-199840000D01*
X111275500Y-193750000D01*
X111259587Y-193670000D01*
X111275500Y-193590000D01*
X111275500Y-187500000D01*
X111259587Y-187420000D01*
X111275500Y-187340000D01*
X111275500Y-181250000D01*
X111259587Y-181170000D01*
X111275500Y-181090000D01*
X111275500Y-175000000D01*
X111259587Y-174920000D01*
X111275500Y-174840000D01*
X111275500Y-168750000D01*
X111259587Y-168670000D01*
X111275500Y-168590000D01*
X111275500Y-162500000D01*
X111259587Y-162420000D01*
X111275500Y-162340000D01*
X111275500Y-156250000D01*
X111259587Y-156170000D01*
X111275500Y-156090000D01*
X111275500Y-150000000D01*
X111259587Y-149920000D01*
X111275500Y-149840000D01*
X111275500Y-143750000D01*
X111259587Y-143670000D01*
X111275500Y-143590000D01*
X111275500Y-137500000D01*
X111259587Y-137420000D01*
X111275500Y-137340000D01*
X111275500Y-131250000D01*
X111259587Y-131170000D01*
X111275500Y-131090000D01*
X111275500Y-125000000D01*
X111259587Y-124920000D01*
X111275500Y-124840000D01*
X111275500Y-118750000D01*
X111259587Y-118670000D01*
X111275500Y-118590000D01*
X111275500Y-112500000D01*
X111259587Y-112420000D01*
X111275500Y-112340000D01*
X111275500Y-111938183D01*
X112881423Y-111938183D01*
X113112858Y-112317996D01*
X114116163Y-112725961D01*
X115199218Y-112718923D01*
X116167142Y-112317996D01*
X116398577Y-111938183D01*
X114640000Y-110179605D01*
X112881423Y-111938183D01*
X111275500Y-111938183D01*
X111275500Y-109476163D01*
X111914039Y-109476163D01*
X111921077Y-110559218D01*
X112322004Y-111527142D01*
X112701817Y-111758577D01*
X114460395Y-110000000D01*
X114819605Y-110000000D01*
X116578183Y-111758577D01*
X116957996Y-111527142D01*
X117365961Y-110523837D01*
X117358923Y-109440782D01*
X116957996Y-108472858D01*
X116578183Y-108241423D01*
X114819605Y-110000000D01*
X114460395Y-110000000D01*
X112701817Y-108241423D01*
X112322004Y-108472858D01*
X111914039Y-109476163D01*
X111275500Y-109476163D01*
X111275500Y-108061817D01*
X112881423Y-108061817D01*
X114640000Y-109820395D01*
X116398577Y-108061817D01*
X116167142Y-107682004D01*
X115163837Y-107274039D01*
X114080782Y-107281077D01*
X113112858Y-107682004D01*
X112881423Y-108061817D01*
X111275500Y-108061817D01*
X111275500Y-106250000D01*
X111259587Y-106170000D01*
X111275500Y-106090000D01*
X111275500Y-100000000D01*
X111227125Y-99756805D01*
X111089366Y-99550634D01*
X110883195Y-99412875D01*
X110640000Y-99364500D01*
X100000000Y-99364500D01*
X99923800Y-99379657D01*
X99847600Y-99364500D01*
X78747600Y-99364500D01*
X78504405Y-99412875D01*
X78298234Y-99550634D01*
X78160475Y-99756805D01*
X78112100Y-100000000D01*
X71734280Y-100000000D01*
X71734280Y-97710000D01*
X117655740Y-97710000D01*
X117655740Y-302290000D01*
X117655740Y-302290000D01*
G37*
X117655740Y-302290000D02*
X71734280Y-302290000D01*
X71734280Y-291938183D01*
X72989023Y-291938183D01*
X73220458Y-292317996D01*
X74223763Y-292725961D01*
X75306818Y-292718923D01*
X76274742Y-292317996D01*
X76506177Y-291938183D01*
X74747600Y-290179605D01*
X72989023Y-291938183D01*
X71734280Y-291938183D01*
X71734280Y-289476163D01*
X72021639Y-289476163D01*
X72028677Y-290559218D01*
X72429604Y-291527142D01*
X72809417Y-291758577D01*
X74567995Y-290000000D01*
X74927205Y-290000000D01*
X76685783Y-291758577D01*
X77065596Y-291527142D01*
X77473561Y-290523837D01*
X77466523Y-289440782D01*
X77065596Y-288472858D01*
X76685783Y-288241423D01*
X74927205Y-290000000D01*
X74567995Y-290000000D01*
X72809417Y-288241423D01*
X72429604Y-288472858D01*
X72021639Y-289476163D01*
X71734280Y-289476163D01*
X71734280Y-288061817D01*
X72989023Y-288061817D01*
X74747600Y-289820395D01*
X76506177Y-288061817D01*
X76274742Y-287682004D01*
X75271437Y-287274039D01*
X74188382Y-287281077D01*
X73220458Y-287682004D01*
X72989023Y-288061817D01*
X71734280Y-288061817D01*
X71734280Y-111938183D01*
X72989023Y-111938183D01*
X73220458Y-112317996D01*
X74223763Y-112725961D01*
X75306818Y-112718923D01*
X76274742Y-112317996D01*
X76506177Y-111938183D01*
X74747600Y-110179605D01*
X72989023Y-111938183D01*
X71734280Y-111938183D01*
X71734280Y-109476163D01*
X72021639Y-109476163D01*
X72028677Y-110559218D01*
X72429604Y-111527142D01*
X72809417Y-111758577D01*
X74567995Y-110000000D01*
X74927205Y-110000000D01*
X76685783Y-111758577D01*
X77065596Y-111527142D01*
X77473561Y-110523837D01*
X77466523Y-109440782D01*
X77065596Y-108472858D01*
X76685783Y-108241423D01*
X74927205Y-110000000D01*
X74567995Y-110000000D01*
X72809417Y-108241423D01*
X72429604Y-108472858D01*
X72021639Y-109476163D01*
X71734280Y-109476163D01*
X71734280Y-108061817D01*
X72989023Y-108061817D01*
X74747600Y-109820395D01*
X76506177Y-108061817D01*
X76274742Y-107682004D01*
X75271437Y-107274039D01*
X74188382Y-107281077D01*
X73220458Y-107682004D01*
X72989023Y-108061817D01*
X71734280Y-108061817D01*
X71734280Y-100000000D01*
X78112100Y-100000000D01*
X78112100Y-300000000D01*
X78160475Y-300243195D01*
X78298234Y-300449366D01*
X78504405Y-300587125D01*
X78747600Y-300635500D01*
X99847600Y-300635500D01*
X100090795Y-300587125D01*
X100257854Y-300475500D01*
X110640000Y-300475500D01*
X110883195Y-300427125D01*
X111089366Y-300289366D01*
X111227125Y-300083195D01*
X111275500Y-299840000D01*
X111275500Y-293750000D01*
X111259587Y-293670000D01*
X111275500Y-293590000D01*
X111275500Y-291938183D01*
X112881423Y-291938183D01*
X113112858Y-292317996D01*
X114116163Y-292725961D01*
X115199218Y-292718923D01*
X116167142Y-292317996D01*
X116398577Y-291938183D01*
X114640000Y-290179605D01*
X112881423Y-291938183D01*
X111275500Y-291938183D01*
X111275500Y-289476163D01*
X111914039Y-289476163D01*
X111921077Y-290559218D01*
X112322004Y-291527142D01*
X112701817Y-291758577D01*
X114460395Y-290000000D01*
X114819605Y-290000000D01*
X116578183Y-291758577D01*
X116957996Y-291527142D01*
X117365961Y-290523837D01*
X117358923Y-289440782D01*
X116957996Y-288472858D01*
X116578183Y-288241423D01*
X114819605Y-290000000D01*
X114460395Y-290000000D01*
X112701817Y-288241423D01*
X112322004Y-288472858D01*
X111914039Y-289476163D01*
X111275500Y-289476163D01*
X111275500Y-288061817D01*
X112881423Y-288061817D01*
X114640000Y-289820395D01*
X116398577Y-288061817D01*
X116167142Y-287682004D01*
X115163837Y-287274039D01*
X114080782Y-287281077D01*
X113112858Y-287682004D01*
X112881423Y-288061817D01*
X111275500Y-288061817D01*
X111275500Y-287500000D01*
X111259587Y-287420000D01*
X111275500Y-287340000D01*
X111275500Y-281250000D01*
X111259587Y-281170000D01*
X111275500Y-281090000D01*
X111275500Y-275000000D01*
X111259587Y-274920000D01*
X111275500Y-274840000D01*
X111275500Y-268750000D01*
X111259587Y-268670000D01*
X111275500Y-268590000D01*
X111275500Y-262500000D01*
X111259587Y-262420000D01*
X111275500Y-262340000D01*
X111275500Y-256250000D01*
X111259587Y-256170000D01*
X111275500Y-256090000D01*
X111275500Y-250000000D01*
X111259587Y-249920000D01*
X111275500Y-249840000D01*
X111275500Y-243750000D01*
X111259587Y-243670000D01*
X111275500Y-243590000D01*
X111275500Y-237500000D01*
X111259587Y-237420000D01*
X111275500Y-237340000D01*
X111275500Y-231250000D01*
X111259587Y-231170000D01*
X111275500Y-231090000D01*
X111275500Y-225000000D01*
X111259587Y-224920000D01*
X111275500Y-224840000D01*
X111275500Y-218750000D01*
X111259587Y-218670000D01*
X111275500Y-218590000D01*
X111275500Y-212500000D01*
X111259587Y-212420000D01*
X111275500Y-212340000D01*
X111275500Y-206250000D01*
X111259587Y-206170000D01*
X111275500Y-206090000D01*
X111275500Y-200000000D01*
X111259587Y-199920000D01*
X111275500Y-199840000D01*
X111275500Y-193750000D01*
X111259587Y-193670000D01*
X111275500Y-193590000D01*
X111275500Y-187500000D01*
X111259587Y-187420000D01*
X111275500Y-187340000D01*
X111275500Y-181250000D01*
X111259587Y-181170000D01*
X111275500Y-181090000D01*
X111275500Y-175000000D01*
X111259587Y-174920000D01*
X111275500Y-174840000D01*
X111275500Y-168750000D01*
X111259587Y-168670000D01*
X111275500Y-168590000D01*
X111275500Y-162500000D01*
X111259587Y-162420000D01*
X111275500Y-162340000D01*
X111275500Y-156250000D01*
X111259587Y-156170000D01*
X111275500Y-156090000D01*
X111275500Y-150000000D01*
X111259587Y-149920000D01*
X111275500Y-149840000D01*
X111275500Y-143750000D01*
X111259587Y-143670000D01*
X111275500Y-143590000D01*
X111275500Y-137500000D01*
X111259587Y-137420000D01*
X111275500Y-137340000D01*
X111275500Y-131250000D01*
X111259587Y-131170000D01*
X111275500Y-131090000D01*
X111275500Y-125000000D01*
X111259587Y-124920000D01*
X111275500Y-124840000D01*
X111275500Y-118750000D01*
X111259587Y-118670000D01*
X111275500Y-118590000D01*
X111275500Y-112500000D01*
X111259587Y-112420000D01*
X111275500Y-112340000D01*
X111275500Y-111938183D01*
X112881423Y-111938183D01*
X113112858Y-112317996D01*
X114116163Y-112725961D01*
X115199218Y-112718923D01*
X116167142Y-112317996D01*
X116398577Y-111938183D01*
X114640000Y-110179605D01*
X112881423Y-111938183D01*
X111275500Y-111938183D01*
X111275500Y-109476163D01*
X111914039Y-109476163D01*
X111921077Y-110559218D01*
X112322004Y-111527142D01*
X112701817Y-111758577D01*
X114460395Y-110000000D01*
X114819605Y-110000000D01*
X116578183Y-111758577D01*
X116957996Y-111527142D01*
X117365961Y-110523837D01*
X117358923Y-109440782D01*
X116957996Y-108472858D01*
X116578183Y-108241423D01*
X114819605Y-110000000D01*
X114460395Y-110000000D01*
X112701817Y-108241423D01*
X112322004Y-108472858D01*
X111914039Y-109476163D01*
X111275500Y-109476163D01*
X111275500Y-108061817D01*
X112881423Y-108061817D01*
X114640000Y-109820395D01*
X116398577Y-108061817D01*
X116167142Y-107682004D01*
X115163837Y-107274039D01*
X114080782Y-107281077D01*
X113112858Y-107682004D01*
X112881423Y-108061817D01*
X111275500Y-108061817D01*
X111275500Y-106250000D01*
X111259587Y-106170000D01*
X111275500Y-106090000D01*
X111275500Y-100000000D01*
X111227125Y-99756805D01*
X111089366Y-99550634D01*
X110883195Y-99412875D01*
X110640000Y-99364500D01*
X100000000Y-99364500D01*
X99923800Y-99379657D01*
X99847600Y-99364500D01*
X78747600Y-99364500D01*
X78504405Y-99412875D01*
X78298234Y-99550634D01*
X78160475Y-99756805D01*
X78112100Y-100000000D01*
X71734280Y-100000000D01*
X71734280Y-97710000D01*
X117655740Y-97710000D01*
X117655740Y-302290000D01*
M02*
