M48
;DRILL file {KiCad 4.0.7} date Thu May 24 18:22:38 2018
;FORMAT={-:-/ absolute / inch / decimal}
FMAT,2
INCH,TZ
T1C0.013
T2C0.020
T3C0.039
T4C0.125
%
G90
G05
M72
T1
X2.8563Y-2.9844
X3.0285Y-2.4732
X3.0623Y-2.9673
X3.1398Y-2.681
X3.1803Y-3.626
X3.1803Y-3.872
X3.1803Y-4.1181
X3.1803Y-4.3642
X3.1803Y-4.6112
X3.1803Y-4.8563
X3.2184Y-2.8006
X3.2785Y-3.565
X3.2785Y-3.811
X3.2785Y-4.0571
X3.2785Y-4.3031
X3.2785Y-4.5492
X3.2785Y-4.7953
X3.2815Y-2.8282
X3.3082Y-3.0081
X3.3103Y-3.0631
X3.3183Y-3.3105
X3.3735Y-2.6984
X3.3768Y-3.5027
X3.3768Y-3.7495
X3.3768Y-3.9951
X3.3768Y-4.2411
X3.3768Y-4.4872
X3.3768Y-4.7333
X3.3944Y-2.9869
X3.4233Y-2.3975
X3.4302Y-3.1168
X3.4445Y-2.9361
X3.4549Y-2.5507
X3.4646Y-2.6451
X3.4671Y-2.9602
X3.4697Y-3.0374
X3.4751Y-3.4419
X3.4751Y-3.6877
X3.4751Y-3.934
X3.4751Y-4.1799
X3.4751Y-4.4256
X3.4751Y-4.6716
X3.5585Y-2.597
X3.5766Y-2.8014
X3.5925Y-3.5955
X3.5925Y-3.8415
X3.5925Y-4.0875
X3.5925Y-4.3335
X3.5925Y-4.58
X3.5925Y-4.8255
X3.6011Y-3.1572
X3.6208Y-2.8721
X3.6805Y-3.0374
X3.6909Y-3.534
X3.6909Y-3.78
X3.6909Y-4.026
X3.6909Y-4.272
X3.6909Y-4.518
X3.6909Y-4.7645
X3.6924Y-2.9992
X3.7087Y-2.3975
X3.7276Y-3.1827
X3.7339Y-2.8361
X3.7894Y-3.4725
X3.7894Y-3.7185
X3.7894Y-3.9645
X3.7894Y-4.211
X3.7894Y-4.456
X3.7894Y-4.703
X3.85Y-2.7464
X3.8793Y-2.8565
X3.8878Y-3.411
X3.8878Y-3.657
X3.8878Y-3.903
X3.8878Y-4.1495
X3.8878Y-4.3955
X3.8878Y-4.6415
X3.9081Y-2.984
X4.0001Y-3.0374
X4.0437Y-2.4714
X4.1339Y-3.4055
X4.1339Y-3.8976
X4.1339Y-4.3898
X4.1339Y-4.8622
X4.1372Y-2.411
X4.2211Y-2.7866
X4.3159Y-2.1831
X4.3578Y-2.4039
X4.4262Y-2.4571
X4.4522Y-3.589
X4.4627Y-4.3659
X4.5721Y-2.8738
X4.5744Y-3.474
X4.5835Y-2.2008
X4.5955Y-4.1908
X4.6084Y-2.8939
X4.6297Y-3.8812
X4.6386Y-2.4679
X4.745Y-2.8015
X4.7495Y-3.0174
X4.7541Y-4.0004
X4.9308Y-4.0121
X4.9383Y-3.4254
T2
X4.8373Y-3.5319
X4.8373Y-3.7319
X4.9373Y-3.6319
T3
X3.7108Y-2.5273
X3.7108Y-2.6273
X3.8108Y-2.5273
X3.8108Y-2.6273
X3.9108Y-2.5273
X3.9108Y-2.6273
X4.8543Y-2.254
X4.8543Y-2.354
X4.8706Y-2.797
X4.8706Y-2.897
X4.8706Y-2.997
X4.8706Y-3.097
T4
X2.7356Y-3.7402
X2.7356Y-4.5276
X4.7206Y-3.3465
X4.7206Y-4.5276
T0
M30
