G04 #@! TF.GenerationSoftware,KiCad,Pcbnew,5.0.0*
G04 #@! TF.CreationDate,2018-08-03T19:09:34-04:00*
G04 #@! TF.ProjectId,capacitive,636170616369746976652E6B69636164,rev?*
G04 #@! TF.SameCoordinates,Original*
G04 #@! TF.FileFunction,Legend,Top*
G04 #@! TF.FilePolarity,Positive*
%FSLAX46Y46*%
G04 Gerber Fmt 4.6, Leading zero omitted, Abs format (unit mm)*
G04 Created by KiCad (PCBNEW 5.0.0) date Fri Aug  3 19:09:34 2018*
%MOMM*%
%LPD*%
G01*
G04 APERTURE LIST*
%ADD10C,0.300000*%
%ADD11C,0.150000*%
%ADD12C,0.120000*%
G04 APERTURE END LIST*
D10*
X132832142Y-121278571D02*
X132332142Y-120564285D01*
X131975000Y-121278571D02*
X131975000Y-119778571D01*
X132546428Y-119778571D01*
X132689285Y-119850000D01*
X132760714Y-119921428D01*
X132832142Y-120064285D01*
X132832142Y-120278571D01*
X132760714Y-120421428D01*
X132689285Y-120492857D01*
X132546428Y-120564285D01*
X131975000Y-120564285D01*
X134046428Y-121207142D02*
X133903571Y-121278571D01*
X133617857Y-121278571D01*
X133475000Y-121207142D01*
X133403571Y-121064285D01*
X133403571Y-120492857D01*
X133475000Y-120350000D01*
X133617857Y-120278571D01*
X133903571Y-120278571D01*
X134046428Y-120350000D01*
X134117857Y-120492857D01*
X134117857Y-120635714D01*
X133403571Y-120778571D01*
X134617857Y-120278571D02*
X134975000Y-121278571D01*
X135332142Y-120278571D01*
X135903571Y-121135714D02*
X135975000Y-121207142D01*
X135903571Y-121278571D01*
X135832142Y-121207142D01*
X135903571Y-121135714D01*
X135903571Y-121278571D01*
X136546428Y-119921428D02*
X136617857Y-119850000D01*
X136760714Y-119778571D01*
X137117857Y-119778571D01*
X137260714Y-119850000D01*
X137332142Y-119921428D01*
X137403571Y-120064285D01*
X137403571Y-120207142D01*
X137332142Y-120421428D01*
X136475000Y-121278571D01*
X137403571Y-121278571D01*
X138046428Y-121135714D02*
X138117857Y-121207142D01*
X138046428Y-121278571D01*
X137975000Y-121207142D01*
X138046428Y-121135714D01*
X138046428Y-121278571D01*
X139546428Y-121278571D02*
X138689285Y-121278571D01*
X139117857Y-121278571D02*
X139117857Y-119778571D01*
X138975000Y-119992857D01*
X138832142Y-120135714D01*
X138689285Y-120207142D01*
D11*
G04 #@! TO.C,RV101*
X127840000Y-89010000D02*
X127840000Y-82010000D01*
X121240000Y-89010000D02*
X127840000Y-89010000D01*
X121240000Y-82010000D02*
X121240000Y-89010000D01*
X127840000Y-82010000D02*
X121240000Y-82010000D01*
D12*
G04 #@! TO.C,J102*
X124680000Y-58980000D02*
X117000000Y-58980000D01*
X117000000Y-58980000D02*
X117000000Y-61640000D01*
X117000000Y-61640000D02*
X124680000Y-61640000D01*
X124680000Y-61640000D02*
X124680000Y-58980000D01*
X125950000Y-58980000D02*
X127280000Y-58980000D01*
X127280000Y-58980000D02*
X127280000Y-60310000D01*
G04 #@! TO.C,C109*
X128170000Y-107510000D02*
X127170000Y-107510000D01*
X127170000Y-109210000D02*
X128170000Y-109210000D01*
G04 #@! TO.C,C101*
X101052127Y-79144274D02*
X101759234Y-78437167D01*
X100557153Y-77235086D02*
X99850046Y-77942193D01*
G04 #@! TO.C,C102*
X98297214Y-69486533D02*
X97590107Y-68779426D01*
X96388026Y-69981507D02*
X97095133Y-70688614D01*
G04 #@! TO.C,C103*
X128360000Y-97510000D02*
X127360000Y-97510000D01*
X127360000Y-99210000D02*
X128360000Y-99210000D01*
G04 #@! TO.C,C104*
X94200000Y-65150000D02*
X93200000Y-65150000D01*
X93200000Y-66850000D02*
X94200000Y-66850000D01*
G04 #@! TO.C,C105*
X90246306Y-81650267D02*
X90953413Y-82357374D01*
X92155494Y-81155293D02*
X91448387Y-80448186D01*
G04 #@! TO.C,C106*
X89401306Y-71916159D02*
X88694199Y-72623266D01*
X87732534Y-71661601D02*
X88439641Y-70954494D01*
G04 #@! TO.C,C108*
X128600000Y-102090000D02*
X126600000Y-102090000D01*
X126600000Y-105050000D02*
X128600000Y-105050000D01*
G04 #@! TO.C,C110*
X115160000Y-99430000D02*
X115160000Y-98430000D01*
X113460000Y-98430000D02*
X113460000Y-99430000D01*
G04 #@! TO.C,C111*
X96340000Y-62200000D02*
X96340000Y-63200000D01*
X98040000Y-63200000D02*
X98040000Y-62200000D01*
G04 #@! TO.C,C112*
X93694594Y-59442513D02*
X92987487Y-58735406D01*
X91785406Y-59937487D02*
X92492513Y-60644594D01*
G04 #@! TO.C,C113*
X86980000Y-89770000D02*
X86980000Y-88770000D01*
X85280000Y-88770000D02*
X85280000Y-89770000D01*
G04 #@! TO.C,C114*
X82246375Y-73139411D02*
X83660589Y-74553625D01*
X85753625Y-72460589D02*
X84339411Y-71046375D01*
G04 #@! TO.C,C115*
X140610000Y-63580000D02*
X140610000Y-61580000D01*
X137650000Y-61580000D02*
X137650000Y-63580000D01*
G04 #@! TO.C,C116*
X122350000Y-65070000D02*
X122350000Y-67070000D01*
X125310000Y-67070000D02*
X125310000Y-65070000D01*
G04 #@! TO.C,C117*
X117780000Y-64980000D02*
X117780000Y-66980000D01*
X120740000Y-66980000D02*
X120740000Y-64980000D01*
G04 #@! TO.C,C118*
X129550000Y-61750000D02*
X129550000Y-62750000D01*
X131250000Y-62750000D02*
X131250000Y-61750000D01*
G04 #@! TO.C,C119*
X139290000Y-72210000D02*
X137290000Y-72210000D01*
X137290000Y-75170000D02*
X139290000Y-75170000D01*
G04 #@! TO.C,C120*
X139280000Y-68670000D02*
X137280000Y-68670000D01*
X137280000Y-71630000D02*
X139280000Y-71630000D01*
G04 #@! TO.C,C121*
X138930000Y-76690000D02*
X137930000Y-76690000D01*
X137930000Y-78390000D02*
X138930000Y-78390000D01*
D11*
G04 #@! TO.C,D102*
X145400000Y-62100000D02*
X145400000Y-62900000D01*
X144800000Y-62900000D02*
X144800000Y-62100000D01*
X145100000Y-62500000D02*
X145100000Y-62650000D01*
X145000000Y-62500000D02*
X145200000Y-62500000D01*
G04 #@! TO.C,Q101*
X141570000Y-63450000D02*
X141570000Y-62950000D01*
X142070000Y-63450000D02*
X141570000Y-63450000D01*
X144170000Y-63450000D02*
X144170000Y-62950000D01*
X144170000Y-63450000D02*
X143670000Y-63450000D01*
D12*
G04 #@! TO.C,R101*
X130380000Y-86110000D02*
X130380000Y-87110000D01*
X129020000Y-87110000D02*
X129020000Y-86110000D01*
G04 #@! TO.C,R103*
X128270000Y-101750000D02*
X127270000Y-101750000D01*
X127270000Y-100390000D02*
X128270000Y-100390000D01*
G04 #@! TO.C,R108*
X99165484Y-69414669D02*
X98458377Y-68707562D01*
X99420042Y-67745897D02*
X100127149Y-68453004D01*
G04 #@! TO.C,R109*
X107686289Y-70020503D02*
X109100503Y-68606289D01*
X110613711Y-70119497D02*
X109199497Y-71533711D01*
G04 #@! TO.C,R110*
X73530000Y-73300000D02*
X73530000Y-71300000D01*
X75670000Y-71300000D02*
X75670000Y-73300000D01*
G04 #@! TO.C,R111*
X135380000Y-66170000D02*
X134380000Y-66170000D01*
X134380000Y-64810000D02*
X135380000Y-64810000D01*
D11*
G04 #@! TO.C,SW101*
X76150000Y-92250000D02*
X76150000Y-86250000D01*
X82150000Y-92250000D02*
X76150000Y-92250000D01*
X82150000Y-86250000D02*
X82150000Y-92250000D01*
X76150000Y-86250000D02*
X82150000Y-86250000D01*
G04 #@! TO.C,U101*
X94549402Y-70036294D02*
X93064478Y-70036294D01*
X88538994Y-74561778D02*
X87796532Y-75304240D01*
X87796532Y-75304240D02*
X88538994Y-76046702D01*
X93064478Y-80572186D02*
X93806940Y-81314648D01*
X93806940Y-81314648D02*
X94549402Y-80572186D01*
X99074886Y-76046702D02*
X99817348Y-75304240D01*
X99817348Y-75304240D02*
X99074886Y-74561778D01*
D12*
G04 #@! TO.C,U103*
X92998842Y-62413502D02*
X93210974Y-62625634D01*
X93210974Y-62625634D02*
X87978384Y-67858224D01*
X87978384Y-67858224D02*
X87766252Y-67646092D01*
X89958283Y-58665836D02*
X89604730Y-59019390D01*
X89604730Y-59019390D02*
X89392598Y-58807258D01*
X89392598Y-58807258D02*
X84160008Y-64039848D01*
X84160008Y-64039848D02*
X84372140Y-64251980D01*
X91443207Y-60150760D02*
X91089654Y-60504314D01*
X91089654Y-60504314D02*
X91513918Y-60928578D01*
X86281328Y-66161168D02*
X85857064Y-65736904D01*
G04 #@! TO.C,U104*
X135500000Y-60860000D02*
X133700000Y-60860000D01*
X133700000Y-64080000D02*
X136150000Y-64080000D01*
G04 #@! TO.C,R107*
X120030000Y-110500000D02*
X120030000Y-108500000D01*
X122170000Y-108500000D02*
X122170000Y-110500000D01*
G04 #@! TO.C,R112*
X118870000Y-108500000D02*
X118870000Y-110500000D01*
X116730000Y-110500000D02*
X116730000Y-108500000D01*
D11*
G04 #@! TO.C,RV102*
X113100000Y-106900000D02*
X111700000Y-106900000D01*
X113100000Y-111900000D02*
X113100000Y-106900000D01*
X113000000Y-111900000D02*
X113100000Y-111900000D01*
X109700000Y-111900000D02*
X111500000Y-111900000D01*
X108100000Y-111900000D02*
X108200000Y-111900000D01*
X108100000Y-106900000D02*
X108100000Y-111900000D01*
X109500000Y-106900000D02*
X108100000Y-106900000D01*
D12*
G04 #@! TO.C,C107*
X115850000Y-110200000D02*
X115850000Y-109200000D01*
X114150000Y-109200000D02*
X114150000Y-110200000D01*
G04 #@! TO.C,C124*
X139810000Y-94480000D02*
X139810000Y-93780000D01*
X141010000Y-93780000D02*
X141010000Y-94480000D01*
G04 #@! TO.C,C125*
X140050000Y-82390000D02*
X140050000Y-84390000D01*
X143010000Y-84390000D02*
X143010000Y-82390000D01*
G04 #@! TO.C,C126*
X132840000Y-98430000D02*
X133540000Y-98430000D01*
X133540000Y-99630000D02*
X132840000Y-99630000D01*
G04 #@! TO.C,C127*
X133570000Y-101020000D02*
X132870000Y-101020000D01*
X132870000Y-99820000D02*
X133570000Y-99820000D01*
D11*
G04 #@! TO.C,J106*
X146710000Y-65690000D02*
X146710000Y-67890000D01*
X142310000Y-65690000D02*
X146710000Y-65690000D01*
X142310000Y-67890000D02*
X142310000Y-65690000D01*
D12*
G04 #@! TO.C,R102*
X131780000Y-85730000D02*
X131780000Y-85230000D01*
X130720000Y-85230000D02*
X130720000Y-85730000D01*
G04 #@! TO.C,R104*
X127100000Y-105380000D02*
X128300000Y-105380000D01*
X128300000Y-107140000D02*
X127100000Y-107140000D01*
G04 #@! TO.C,R105*
X131780000Y-87520000D02*
X131780000Y-87020000D01*
X130720000Y-87020000D02*
X130720000Y-87520000D01*
G04 #@! TO.C,R106*
X117580000Y-92800000D02*
X117580000Y-90800000D01*
X119720000Y-90800000D02*
X119720000Y-92800000D01*
G04 #@! TO.C,R113*
X109750000Y-90580000D02*
X108550000Y-90580000D01*
X108550000Y-88820000D02*
X109750000Y-88820000D01*
G04 #@! TO.C,R114*
X114700000Y-90580000D02*
X113500000Y-90580000D01*
X113500000Y-88820000D02*
X114700000Y-88820000D01*
G04 #@! TO.C,R115*
X109520000Y-93700000D02*
X109520000Y-92700000D01*
X110880000Y-92700000D02*
X110880000Y-93700000D01*
G04 #@! TO.C,R117*
X139260000Y-92810000D02*
X139260000Y-94810000D01*
X137120000Y-94810000D02*
X137120000Y-92810000D01*
G04 #@! TO.C,R118*
X132370000Y-94000000D02*
X132370000Y-94500000D01*
X133430000Y-94500000D02*
X133430000Y-94000000D01*
G04 #@! TO.C,R119*
X137450000Y-90220000D02*
X136450000Y-90220000D01*
X136450000Y-88860000D02*
X137450000Y-88860000D01*
G04 #@! TO.C,R122*
X119930000Y-98730000D02*
X117930000Y-98730000D01*
X117930000Y-96590000D02*
X119930000Y-96590000D01*
G04 #@! TO.C,R123*
X119880000Y-101080000D02*
X117880000Y-101080000D01*
X117880000Y-98940000D02*
X119880000Y-98940000D01*
G04 #@! TO.C,R124*
X124010000Y-77620000D02*
X125010000Y-77620000D01*
X125010000Y-78980000D02*
X124010000Y-78980000D01*
G04 #@! TO.C,R125*
X120690000Y-102980000D02*
X121890000Y-102980000D01*
X121890000Y-104740000D02*
X120690000Y-104740000D01*
G04 #@! TO.C,R126*
X133030000Y-98190000D02*
X133530000Y-98190000D01*
X133530000Y-97130000D02*
X133030000Y-97130000D01*
G04 #@! TO.C,R127*
X136720000Y-92820000D02*
X136720000Y-94820000D01*
X134580000Y-94820000D02*
X134580000Y-92820000D01*
D11*
G04 #@! TO.C,U102*
X124950000Y-92015000D02*
X125325000Y-91940000D01*
X125325000Y-91940000D02*
X130450000Y-91940000D01*
X130450000Y-91940000D02*
X130450000Y-92015000D01*
X130450000Y-96765000D02*
X130450000Y-96840000D01*
X130450000Y-96840000D02*
X124950000Y-96840000D01*
X124950000Y-96840000D02*
X124950000Y-96765000D01*
X125075000Y-91565000D02*
G75*
G03X125075000Y-91565000I-150000J0D01*
G01*
D12*
G04 #@! TO.C,J103*
X99899786Y-64876741D02*
X99525019Y-64501974D01*
X99525019Y-64501974D02*
X103201974Y-60825019D01*
X103201974Y-60825019D02*
X103576741Y-61199786D01*
X104623259Y-69600214D02*
X104998026Y-69974981D01*
X104998026Y-69974981D02*
X108674981Y-66298026D01*
X108674981Y-66298026D02*
X108300214Y-65923259D01*
X104580833Y-60195694D02*
X103576741Y-61199786D01*
G04 #@! TO.C,C123*
X132330000Y-81520000D02*
X132330000Y-83520000D01*
X135290000Y-83520000D02*
X135290000Y-81520000D01*
G04 #@! TO.C,R120*
X123510000Y-75160000D02*
X125510000Y-75160000D01*
X125510000Y-77300000D02*
X123510000Y-77300000D01*
G04 #@! TO.C,R121*
X144580000Y-93240000D02*
X144580000Y-95240000D01*
X142440000Y-95240000D02*
X142440000Y-93240000D01*
G04 #@! TO.C,RV101*
D11*
X122992380Y-81512380D02*
X122659047Y-81036190D01*
X122420952Y-81512380D02*
X122420952Y-80512380D01*
X122801904Y-80512380D01*
X122897142Y-80560000D01*
X122944761Y-80607619D01*
X122992380Y-80702857D01*
X122992380Y-80845714D01*
X122944761Y-80940952D01*
X122897142Y-80988571D01*
X122801904Y-81036190D01*
X122420952Y-81036190D01*
X123278095Y-80512380D02*
X123611428Y-81512380D01*
X123944761Y-80512380D01*
X124801904Y-81512380D02*
X124230476Y-81512380D01*
X124516190Y-81512380D02*
X124516190Y-80512380D01*
X124420952Y-80655238D01*
X124325714Y-80750476D01*
X124230476Y-80798095D01*
X125420952Y-80512380D02*
X125516190Y-80512380D01*
X125611428Y-80560000D01*
X125659047Y-80607619D01*
X125706666Y-80702857D01*
X125754285Y-80893333D01*
X125754285Y-81131428D01*
X125706666Y-81321904D01*
X125659047Y-81417142D01*
X125611428Y-81464761D01*
X125516190Y-81512380D01*
X125420952Y-81512380D01*
X125325714Y-81464761D01*
X125278095Y-81417142D01*
X125230476Y-81321904D01*
X125182857Y-81131428D01*
X125182857Y-80893333D01*
X125230476Y-80702857D01*
X125278095Y-80607619D01*
X125325714Y-80560000D01*
X125420952Y-80512380D01*
X126706666Y-81512380D02*
X126135238Y-81512380D01*
X126420952Y-81512380D02*
X126420952Y-80512380D01*
X126325714Y-80655238D01*
X126230476Y-80750476D01*
X126135238Y-80798095D01*
G04 #@! TO.C,J102*
X127732380Y-61595714D02*
X128446666Y-61595714D01*
X128589523Y-61643333D01*
X128684761Y-61738571D01*
X128732380Y-61881428D01*
X128732380Y-61976666D01*
X128732380Y-60595714D02*
X128732380Y-61167142D01*
X128732380Y-60881428D02*
X127732380Y-60881428D01*
X127875238Y-60976666D01*
X127970476Y-61071904D01*
X128018095Y-61167142D01*
X127732380Y-59976666D02*
X127732380Y-59881428D01*
X127780000Y-59786190D01*
X127827619Y-59738571D01*
X127922857Y-59690952D01*
X128113333Y-59643333D01*
X128351428Y-59643333D01*
X128541904Y-59690952D01*
X128637142Y-59738571D01*
X128684761Y-59786190D01*
X128732380Y-59881428D01*
X128732380Y-59976666D01*
X128684761Y-60071904D01*
X128637142Y-60119523D01*
X128541904Y-60167142D01*
X128351428Y-60214761D01*
X128113333Y-60214761D01*
X127922857Y-60167142D01*
X127827619Y-60119523D01*
X127780000Y-60071904D01*
X127732380Y-59976666D01*
X127827619Y-59262380D02*
X127780000Y-59214761D01*
X127732380Y-59119523D01*
X127732380Y-58881428D01*
X127780000Y-58786190D01*
X127827619Y-58738571D01*
X127922857Y-58690952D01*
X128018095Y-58690952D01*
X128160952Y-58738571D01*
X128732380Y-59310000D01*
X128732380Y-58690952D01*
G04 #@! TO.C,C109*
X130830952Y-108757142D02*
X130783333Y-108804761D01*
X130640476Y-108852380D01*
X130545238Y-108852380D01*
X130402380Y-108804761D01*
X130307142Y-108709523D01*
X130259523Y-108614285D01*
X130211904Y-108423809D01*
X130211904Y-108280952D01*
X130259523Y-108090476D01*
X130307142Y-107995238D01*
X130402380Y-107900000D01*
X130545238Y-107852380D01*
X130640476Y-107852380D01*
X130783333Y-107900000D01*
X130830952Y-107947619D01*
X131783333Y-108852380D02*
X131211904Y-108852380D01*
X131497619Y-108852380D02*
X131497619Y-107852380D01*
X131402380Y-107995238D01*
X131307142Y-108090476D01*
X131211904Y-108138095D01*
X132402380Y-107852380D02*
X132497619Y-107852380D01*
X132592857Y-107900000D01*
X132640476Y-107947619D01*
X132688095Y-108042857D01*
X132735714Y-108233333D01*
X132735714Y-108471428D01*
X132688095Y-108661904D01*
X132640476Y-108757142D01*
X132592857Y-108804761D01*
X132497619Y-108852380D01*
X132402380Y-108852380D01*
X132307142Y-108804761D01*
X132259523Y-108757142D01*
X132211904Y-108661904D01*
X132164285Y-108471428D01*
X132164285Y-108233333D01*
X132211904Y-108042857D01*
X132259523Y-107947619D01*
X132307142Y-107900000D01*
X132402380Y-107852380D01*
X133211904Y-108852380D02*
X133402380Y-108852380D01*
X133497619Y-108804761D01*
X133545238Y-108757142D01*
X133640476Y-108614285D01*
X133688095Y-108423809D01*
X133688095Y-108042857D01*
X133640476Y-107947619D01*
X133592857Y-107900000D01*
X133497619Y-107852380D01*
X133307142Y-107852380D01*
X133211904Y-107900000D01*
X133164285Y-107947619D01*
X133116666Y-108042857D01*
X133116666Y-108280952D01*
X133164285Y-108376190D01*
X133211904Y-108423809D01*
X133307142Y-108471428D01*
X133497619Y-108471428D01*
X133592857Y-108423809D01*
X133640476Y-108376190D01*
X133688095Y-108280952D01*
G04 #@! TO.C,C101*
X101503328Y-80470941D02*
X101503328Y-80538284D01*
X101435985Y-80672971D01*
X101368641Y-80740315D01*
X101233954Y-80807658D01*
X101099267Y-80807658D01*
X100998252Y-80773987D01*
X100829893Y-80672971D01*
X100728878Y-80571956D01*
X100627863Y-80403597D01*
X100594191Y-80302582D01*
X100594191Y-80167895D01*
X100661535Y-80033208D01*
X100728878Y-79965865D01*
X100863565Y-79898521D01*
X100930909Y-79898521D01*
X102244107Y-79864849D02*
X101840046Y-80268910D01*
X102042077Y-80066880D02*
X101334970Y-79359773D01*
X101368641Y-79528132D01*
X101368641Y-79662819D01*
X101334970Y-79763834D01*
X101974733Y-78720010D02*
X102042077Y-78652666D01*
X102143092Y-78618994D01*
X102210435Y-78618994D01*
X102311451Y-78652666D01*
X102479809Y-78753681D01*
X102648168Y-78922040D01*
X102749183Y-79090399D01*
X102782855Y-79191414D01*
X102782855Y-79258758D01*
X102749183Y-79359773D01*
X102681840Y-79427117D01*
X102580825Y-79460788D01*
X102513481Y-79460788D01*
X102412466Y-79427117D01*
X102244107Y-79326101D01*
X102075748Y-79157742D01*
X101974733Y-78989384D01*
X101941061Y-78888368D01*
X101941061Y-78821025D01*
X101974733Y-78720010D01*
X103590977Y-78517979D02*
X103186916Y-78922040D01*
X103388947Y-78720010D02*
X102681840Y-78012903D01*
X102715512Y-78181262D01*
X102715512Y-78315949D01*
X102681840Y-78416964D01*
G04 #@! TO.C,C102*
X100556175Y-72261251D02*
X100488832Y-72261251D01*
X100354145Y-72193908D01*
X100286801Y-72126564D01*
X100219458Y-71991877D01*
X100219458Y-71857190D01*
X100253129Y-71756175D01*
X100354145Y-71587816D01*
X100455160Y-71486801D01*
X100623519Y-71385786D01*
X100724534Y-71352114D01*
X100859221Y-71352114D01*
X100993908Y-71419458D01*
X101061251Y-71486801D01*
X101128595Y-71621488D01*
X101128595Y-71688832D01*
X101162267Y-73002030D02*
X100758206Y-72597969D01*
X100960236Y-72800000D02*
X101667343Y-72092893D01*
X101498984Y-72126564D01*
X101364297Y-72126564D01*
X101263282Y-72092893D01*
X102307106Y-72732656D02*
X102374450Y-72800000D01*
X102408122Y-72901015D01*
X102408122Y-72968358D01*
X102374450Y-73069374D01*
X102273435Y-73237732D01*
X102105076Y-73406091D01*
X101936717Y-73507106D01*
X101835702Y-73540778D01*
X101768358Y-73540778D01*
X101667343Y-73507106D01*
X101600000Y-73439763D01*
X101566328Y-73338748D01*
X101566328Y-73271404D01*
X101600000Y-73170389D01*
X101701015Y-73002030D01*
X101869374Y-72833671D01*
X102037732Y-72732656D01*
X102138748Y-72698984D01*
X102206091Y-72698984D01*
X102307106Y-72732656D01*
X102744839Y-73305076D02*
X102812183Y-73305076D01*
X102913198Y-73338748D01*
X103081557Y-73507106D01*
X103115228Y-73608122D01*
X103115228Y-73675465D01*
X103081557Y-73776480D01*
X103014213Y-73843824D01*
X102879526Y-73911167D01*
X102071404Y-73911167D01*
X102509137Y-74348900D01*
G04 #@! TO.C,C103*
X124682142Y-99869047D02*
X124729761Y-99916666D01*
X124777380Y-100059523D01*
X124777380Y-100154761D01*
X124729761Y-100297619D01*
X124634523Y-100392857D01*
X124539285Y-100440476D01*
X124348809Y-100488095D01*
X124205952Y-100488095D01*
X124015476Y-100440476D01*
X123920238Y-100392857D01*
X123825000Y-100297619D01*
X123777380Y-100154761D01*
X123777380Y-100059523D01*
X123825000Y-99916666D01*
X123872619Y-99869047D01*
X124777380Y-98916666D02*
X124777380Y-99488095D01*
X124777380Y-99202380D02*
X123777380Y-99202380D01*
X123920238Y-99297619D01*
X124015476Y-99392857D01*
X124063095Y-99488095D01*
X123777380Y-98297619D02*
X123777380Y-98202380D01*
X123825000Y-98107142D01*
X123872619Y-98059523D01*
X123967857Y-98011904D01*
X124158333Y-97964285D01*
X124396428Y-97964285D01*
X124586904Y-98011904D01*
X124682142Y-98059523D01*
X124729761Y-98107142D01*
X124777380Y-98202380D01*
X124777380Y-98297619D01*
X124729761Y-98392857D01*
X124682142Y-98440476D01*
X124586904Y-98488095D01*
X124396428Y-98535714D01*
X124158333Y-98535714D01*
X123967857Y-98488095D01*
X123872619Y-98440476D01*
X123825000Y-98392857D01*
X123777380Y-98297619D01*
X123777380Y-97630952D02*
X123777380Y-97011904D01*
X124158333Y-97345238D01*
X124158333Y-97202380D01*
X124205952Y-97107142D01*
X124253571Y-97059523D01*
X124348809Y-97011904D01*
X124586904Y-97011904D01*
X124682142Y-97059523D01*
X124729761Y-97107142D01*
X124777380Y-97202380D01*
X124777380Y-97488095D01*
X124729761Y-97583333D01*
X124682142Y-97630952D01*
G04 #@! TO.C,C104*
X92499132Y-67776482D02*
X92451513Y-67824101D01*
X92308656Y-67871720D01*
X92213418Y-67871720D01*
X92070560Y-67824101D01*
X91975322Y-67728863D01*
X91927703Y-67633625D01*
X91880084Y-67443149D01*
X91880084Y-67300292D01*
X91927703Y-67109816D01*
X91975322Y-67014578D01*
X92070560Y-66919340D01*
X92213418Y-66871720D01*
X92308656Y-66871720D01*
X92451513Y-66919340D01*
X92499132Y-66966959D01*
X93451513Y-67871720D02*
X92880084Y-67871720D01*
X93165799Y-67871720D02*
X93165799Y-66871720D01*
X93070560Y-67014578D01*
X92975322Y-67109816D01*
X92880084Y-67157435D01*
X94070560Y-66871720D02*
X94165799Y-66871720D01*
X94261037Y-66919340D01*
X94308656Y-66966959D01*
X94356275Y-67062197D01*
X94403894Y-67252673D01*
X94403894Y-67490768D01*
X94356275Y-67681244D01*
X94308656Y-67776482D01*
X94261037Y-67824101D01*
X94165799Y-67871720D01*
X94070560Y-67871720D01*
X93975322Y-67824101D01*
X93927703Y-67776482D01*
X93880084Y-67681244D01*
X93832465Y-67490768D01*
X93832465Y-67252673D01*
X93880084Y-67062197D01*
X93927703Y-66966959D01*
X93975322Y-66919340D01*
X94070560Y-66871720D01*
X95261037Y-67205054D02*
X95261037Y-67871720D01*
X95022941Y-66824101D02*
X94784846Y-67538387D01*
X95403894Y-67538387D01*
G04 #@! TO.C,C105*
X88919638Y-82101468D02*
X88852295Y-82101468D01*
X88717608Y-82034125D01*
X88650264Y-81966781D01*
X88582921Y-81832094D01*
X88582921Y-81697407D01*
X88616592Y-81596392D01*
X88717608Y-81428033D01*
X88818623Y-81327018D01*
X88986982Y-81226003D01*
X89087997Y-81192331D01*
X89222684Y-81192331D01*
X89357371Y-81259675D01*
X89424714Y-81327018D01*
X89492058Y-81461705D01*
X89492058Y-81529049D01*
X89525730Y-82842247D02*
X89121669Y-82438186D01*
X89323699Y-82640217D02*
X90030806Y-81933110D01*
X89862447Y-81966781D01*
X89727760Y-81966781D01*
X89626745Y-81933110D01*
X90670569Y-82572873D02*
X90737913Y-82640217D01*
X90771585Y-82741232D01*
X90771585Y-82808575D01*
X90737913Y-82909591D01*
X90636898Y-83077949D01*
X90468539Y-83246308D01*
X90300180Y-83347323D01*
X90199165Y-83380995D01*
X90131821Y-83380995D01*
X90030806Y-83347323D01*
X89963463Y-83279980D01*
X89929791Y-83178965D01*
X89929791Y-83111621D01*
X89963463Y-83010606D01*
X90064478Y-82842247D01*
X90232837Y-82673888D01*
X90401195Y-82572873D01*
X90502211Y-82539201D01*
X90569554Y-82539201D01*
X90670569Y-82572873D01*
X91546035Y-83448339D02*
X91209317Y-83111621D01*
X90838928Y-83414667D01*
X90906272Y-83414667D01*
X91007287Y-83448339D01*
X91175646Y-83616697D01*
X91209317Y-83717713D01*
X91209317Y-83785056D01*
X91175646Y-83886071D01*
X91007287Y-84054430D01*
X90906272Y-84088102D01*
X90838928Y-84088102D01*
X90737913Y-84054430D01*
X90569554Y-83886071D01*
X90535882Y-83785056D01*
X90535882Y-83717713D01*
G04 #@! TO.C,C106*
X87002866Y-71807399D02*
X87002866Y-71874742D01*
X86935523Y-72009429D01*
X86868179Y-72076773D01*
X86733492Y-72144116D01*
X86598805Y-72144116D01*
X86497790Y-72110445D01*
X86329431Y-72009429D01*
X86228416Y-71908414D01*
X86127401Y-71740055D01*
X86093729Y-71639040D01*
X86093729Y-71504353D01*
X86161073Y-71369666D01*
X86228416Y-71302323D01*
X86363103Y-71234979D01*
X86430447Y-71234979D01*
X87743645Y-71201307D02*
X87339584Y-71605368D01*
X87541615Y-71403338D02*
X86834508Y-70696231D01*
X86868179Y-70864590D01*
X86868179Y-70999277D01*
X86834508Y-71100292D01*
X87474271Y-70056468D02*
X87541615Y-69989124D01*
X87642630Y-69955452D01*
X87709973Y-69955452D01*
X87810989Y-69989124D01*
X87979347Y-70090139D01*
X88147706Y-70258498D01*
X88248721Y-70426857D01*
X88282393Y-70527872D01*
X88282393Y-70595216D01*
X88248721Y-70696231D01*
X88181378Y-70763575D01*
X88080363Y-70797246D01*
X88013019Y-70797246D01*
X87912004Y-70763575D01*
X87743645Y-70662559D01*
X87575286Y-70494200D01*
X87474271Y-70325842D01*
X87440599Y-70224826D01*
X87440599Y-70157483D01*
X87474271Y-70056468D01*
X88316065Y-69214674D02*
X88181378Y-69349361D01*
X88147706Y-69450376D01*
X88147706Y-69517720D01*
X88181378Y-69686078D01*
X88282393Y-69854437D01*
X88551767Y-70123811D01*
X88652782Y-70157483D01*
X88720126Y-70157483D01*
X88821141Y-70123811D01*
X88955828Y-69989124D01*
X88989500Y-69888109D01*
X88989500Y-69820765D01*
X88955828Y-69719750D01*
X88787469Y-69551391D01*
X88686454Y-69517720D01*
X88619111Y-69517720D01*
X88518095Y-69551391D01*
X88383408Y-69686078D01*
X88349737Y-69787094D01*
X88349737Y-69854437D01*
X88383408Y-69955452D01*
G04 #@! TO.C,C108*
X131830952Y-104157142D02*
X131783333Y-104204761D01*
X131640476Y-104252380D01*
X131545238Y-104252380D01*
X131402380Y-104204761D01*
X131307142Y-104109523D01*
X131259523Y-104014285D01*
X131211904Y-103823809D01*
X131211904Y-103680952D01*
X131259523Y-103490476D01*
X131307142Y-103395238D01*
X131402380Y-103300000D01*
X131545238Y-103252380D01*
X131640476Y-103252380D01*
X131783333Y-103300000D01*
X131830952Y-103347619D01*
X132783333Y-104252380D02*
X132211904Y-104252380D01*
X132497619Y-104252380D02*
X132497619Y-103252380D01*
X132402380Y-103395238D01*
X132307142Y-103490476D01*
X132211904Y-103538095D01*
X133402380Y-103252380D02*
X133497619Y-103252380D01*
X133592857Y-103300000D01*
X133640476Y-103347619D01*
X133688095Y-103442857D01*
X133735714Y-103633333D01*
X133735714Y-103871428D01*
X133688095Y-104061904D01*
X133640476Y-104157142D01*
X133592857Y-104204761D01*
X133497619Y-104252380D01*
X133402380Y-104252380D01*
X133307142Y-104204761D01*
X133259523Y-104157142D01*
X133211904Y-104061904D01*
X133164285Y-103871428D01*
X133164285Y-103633333D01*
X133211904Y-103442857D01*
X133259523Y-103347619D01*
X133307142Y-103300000D01*
X133402380Y-103252380D01*
X134307142Y-103680952D02*
X134211904Y-103633333D01*
X134164285Y-103585714D01*
X134116666Y-103490476D01*
X134116666Y-103442857D01*
X134164285Y-103347619D01*
X134211904Y-103300000D01*
X134307142Y-103252380D01*
X134497619Y-103252380D01*
X134592857Y-103300000D01*
X134640476Y-103347619D01*
X134688095Y-103442857D01*
X134688095Y-103490476D01*
X134640476Y-103585714D01*
X134592857Y-103633333D01*
X134497619Y-103680952D01*
X134307142Y-103680952D01*
X134211904Y-103728571D01*
X134164285Y-103776190D01*
X134116666Y-103871428D01*
X134116666Y-104061904D01*
X134164285Y-104157142D01*
X134211904Y-104204761D01*
X134307142Y-104252380D01*
X134497619Y-104252380D01*
X134592857Y-104204761D01*
X134640476Y-104157142D01*
X134688095Y-104061904D01*
X134688095Y-103871428D01*
X134640476Y-103776190D01*
X134592857Y-103728571D01*
X134497619Y-103680952D01*
G04 #@! TO.C,C110*
X112957142Y-100119047D02*
X113004761Y-100166666D01*
X113052380Y-100309523D01*
X113052380Y-100404761D01*
X113004761Y-100547619D01*
X112909523Y-100642857D01*
X112814285Y-100690476D01*
X112623809Y-100738095D01*
X112480952Y-100738095D01*
X112290476Y-100690476D01*
X112195238Y-100642857D01*
X112100000Y-100547619D01*
X112052380Y-100404761D01*
X112052380Y-100309523D01*
X112100000Y-100166666D01*
X112147619Y-100119047D01*
X113052380Y-99166666D02*
X113052380Y-99738095D01*
X113052380Y-99452380D02*
X112052380Y-99452380D01*
X112195238Y-99547619D01*
X112290476Y-99642857D01*
X112338095Y-99738095D01*
X113052380Y-98214285D02*
X113052380Y-98785714D01*
X113052380Y-98500000D02*
X112052380Y-98500000D01*
X112195238Y-98595238D01*
X112290476Y-98690476D01*
X112338095Y-98785714D01*
X112052380Y-97595238D02*
X112052380Y-97500000D01*
X112100000Y-97404761D01*
X112147619Y-97357142D01*
X112242857Y-97309523D01*
X112433333Y-97261904D01*
X112671428Y-97261904D01*
X112861904Y-97309523D01*
X112957142Y-97357142D01*
X113004761Y-97404761D01*
X113052380Y-97500000D01*
X113052380Y-97595238D01*
X113004761Y-97690476D01*
X112957142Y-97738095D01*
X112861904Y-97785714D01*
X112671428Y-97833333D01*
X112433333Y-97833333D01*
X112242857Y-97785714D01*
X112147619Y-97738095D01*
X112100000Y-97690476D01*
X112052380Y-97595238D01*
G04 #@! TO.C,C111*
X97780962Y-59206207D02*
X97828581Y-59253826D01*
X97876200Y-59396683D01*
X97876200Y-59491921D01*
X97828581Y-59634779D01*
X97733343Y-59730017D01*
X97638105Y-59777636D01*
X97447629Y-59825255D01*
X97304772Y-59825255D01*
X97114296Y-59777636D01*
X97019058Y-59730017D01*
X96923820Y-59634779D01*
X96876200Y-59491921D01*
X96876200Y-59396683D01*
X96923820Y-59253826D01*
X96971439Y-59206207D01*
X97876200Y-58253826D02*
X97876200Y-58825255D01*
X97876200Y-58539540D02*
X96876200Y-58539540D01*
X97019058Y-58634779D01*
X97114296Y-58730017D01*
X97161915Y-58825255D01*
X97876200Y-57301445D02*
X97876200Y-57872874D01*
X97876200Y-57587160D02*
X96876200Y-57587160D01*
X97019058Y-57682398D01*
X97114296Y-57777636D01*
X97161915Y-57872874D01*
X97876200Y-56349064D02*
X97876200Y-56920493D01*
X97876200Y-56634779D02*
X96876200Y-56634779D01*
X97019058Y-56730017D01*
X97114296Y-56825255D01*
X97161915Y-56920493D01*
G04 #@! TO.C,C112*
X92933612Y-57913814D02*
X92866269Y-57913814D01*
X92731582Y-57846471D01*
X92664238Y-57779127D01*
X92596895Y-57644440D01*
X92596895Y-57509753D01*
X92630566Y-57408738D01*
X92731582Y-57240379D01*
X92832597Y-57139364D01*
X93000956Y-57038349D01*
X93101971Y-57004677D01*
X93236658Y-57004677D01*
X93371345Y-57072021D01*
X93438688Y-57139364D01*
X93506032Y-57274051D01*
X93506032Y-57341395D01*
X93539704Y-58654593D02*
X93135643Y-58250532D01*
X93337673Y-58452563D02*
X94044780Y-57745456D01*
X93876421Y-57779127D01*
X93741734Y-57779127D01*
X93640719Y-57745456D01*
X94213139Y-59328028D02*
X93809078Y-58923967D01*
X94011108Y-59125998D02*
X94718215Y-58418891D01*
X94549856Y-58452562D01*
X94415169Y-58452563D01*
X94314154Y-58418891D01*
X95122276Y-58957639D02*
X95189620Y-58957639D01*
X95290635Y-58991311D01*
X95458994Y-59159669D01*
X95492665Y-59260685D01*
X95492665Y-59328028D01*
X95458994Y-59429043D01*
X95391650Y-59496387D01*
X95256963Y-59563730D01*
X94448841Y-59563730D01*
X94886574Y-60001463D01*
G04 #@! TO.C,C113*
X88237142Y-90389047D02*
X88284761Y-90436666D01*
X88332380Y-90579523D01*
X88332380Y-90674761D01*
X88284761Y-90817619D01*
X88189523Y-90912857D01*
X88094285Y-90960476D01*
X87903809Y-91008095D01*
X87760952Y-91008095D01*
X87570476Y-90960476D01*
X87475238Y-90912857D01*
X87380000Y-90817619D01*
X87332380Y-90674761D01*
X87332380Y-90579523D01*
X87380000Y-90436666D01*
X87427619Y-90389047D01*
X88332380Y-89436666D02*
X88332380Y-90008095D01*
X88332380Y-89722380D02*
X87332380Y-89722380D01*
X87475238Y-89817619D01*
X87570476Y-89912857D01*
X87618095Y-90008095D01*
X88332380Y-88484285D02*
X88332380Y-89055714D01*
X88332380Y-88770000D02*
X87332380Y-88770000D01*
X87475238Y-88865238D01*
X87570476Y-88960476D01*
X87618095Y-89055714D01*
X87332380Y-88150952D02*
X87332380Y-87531904D01*
X87713333Y-87865238D01*
X87713333Y-87722380D01*
X87760952Y-87627142D01*
X87808571Y-87579523D01*
X87903809Y-87531904D01*
X88141904Y-87531904D01*
X88237142Y-87579523D01*
X88284761Y-87627142D01*
X88332380Y-87722380D01*
X88332380Y-88008095D01*
X88284761Y-88103333D01*
X88237142Y-88150952D01*
G04 #@! TO.C,C114*
X81365185Y-73852241D02*
X81297842Y-73852241D01*
X81163155Y-73784898D01*
X81095811Y-73717554D01*
X81028468Y-73582867D01*
X81028468Y-73448180D01*
X81062139Y-73347165D01*
X81163155Y-73178806D01*
X81264170Y-73077791D01*
X81432529Y-72976776D01*
X81533544Y-72943104D01*
X81668231Y-72943104D01*
X81802918Y-73010448D01*
X81870261Y-73077791D01*
X81937605Y-73212478D01*
X81937605Y-73279822D01*
X81971277Y-74593020D02*
X81567216Y-74188959D01*
X81769246Y-74390990D02*
X82476353Y-73683883D01*
X82307994Y-73717554D01*
X82173307Y-73717554D01*
X82072292Y-73683883D01*
X82644712Y-75266455D02*
X82240651Y-74862394D01*
X82442681Y-75064425D02*
X83149788Y-74357318D01*
X82981429Y-74390989D01*
X82846742Y-74390990D01*
X82745727Y-74357318D01*
X83722208Y-75401142D02*
X83250803Y-75872547D01*
X83823223Y-74963409D02*
X83149788Y-75300127D01*
X83587521Y-75737860D01*
G04 #@! TO.C,C115*
X137380952Y-66932142D02*
X137333333Y-66979761D01*
X137190476Y-67027380D01*
X137095238Y-67027380D01*
X136952380Y-66979761D01*
X136857142Y-66884523D01*
X136809523Y-66789285D01*
X136761904Y-66598809D01*
X136761904Y-66455952D01*
X136809523Y-66265476D01*
X136857142Y-66170238D01*
X136952380Y-66075000D01*
X137095238Y-66027380D01*
X137190476Y-66027380D01*
X137333333Y-66075000D01*
X137380952Y-66122619D01*
X138333333Y-67027380D02*
X137761904Y-67027380D01*
X138047619Y-67027380D02*
X138047619Y-66027380D01*
X137952380Y-66170238D01*
X137857142Y-66265476D01*
X137761904Y-66313095D01*
X139285714Y-67027380D02*
X138714285Y-67027380D01*
X139000000Y-67027380D02*
X139000000Y-66027380D01*
X138904761Y-66170238D01*
X138809523Y-66265476D01*
X138714285Y-66313095D01*
X140190476Y-66027380D02*
X139714285Y-66027380D01*
X139666666Y-66503571D01*
X139714285Y-66455952D01*
X139809523Y-66408333D01*
X140047619Y-66408333D01*
X140142857Y-66455952D01*
X140190476Y-66503571D01*
X140238095Y-66598809D01*
X140238095Y-66836904D01*
X140190476Y-66932142D01*
X140142857Y-66979761D01*
X140047619Y-67027380D01*
X139809523Y-67027380D01*
X139714285Y-66979761D01*
X139666666Y-66932142D01*
G04 #@! TO.C,C116*
X121937142Y-67189047D02*
X121984761Y-67236666D01*
X122032380Y-67379523D01*
X122032380Y-67474761D01*
X121984761Y-67617619D01*
X121889523Y-67712857D01*
X121794285Y-67760476D01*
X121603809Y-67808095D01*
X121460952Y-67808095D01*
X121270476Y-67760476D01*
X121175238Y-67712857D01*
X121080000Y-67617619D01*
X121032380Y-67474761D01*
X121032380Y-67379523D01*
X121080000Y-67236666D01*
X121127619Y-67189047D01*
X122032380Y-66236666D02*
X122032380Y-66808095D01*
X122032380Y-66522380D02*
X121032380Y-66522380D01*
X121175238Y-66617619D01*
X121270476Y-66712857D01*
X121318095Y-66808095D01*
X122032380Y-65284285D02*
X122032380Y-65855714D01*
X122032380Y-65570000D02*
X121032380Y-65570000D01*
X121175238Y-65665238D01*
X121270476Y-65760476D01*
X121318095Y-65855714D01*
X121032380Y-64427142D02*
X121032380Y-64617619D01*
X121080000Y-64712857D01*
X121127619Y-64760476D01*
X121270476Y-64855714D01*
X121460952Y-64903333D01*
X121841904Y-64903333D01*
X121937142Y-64855714D01*
X121984761Y-64808095D01*
X122032380Y-64712857D01*
X122032380Y-64522380D01*
X121984761Y-64427142D01*
X121937142Y-64379523D01*
X121841904Y-64331904D01*
X121603809Y-64331904D01*
X121508571Y-64379523D01*
X121460952Y-64427142D01*
X121413333Y-64522380D01*
X121413333Y-64712857D01*
X121460952Y-64808095D01*
X121508571Y-64855714D01*
X121603809Y-64903333D01*
G04 #@! TO.C,C117*
X117367142Y-67099047D02*
X117414761Y-67146666D01*
X117462380Y-67289523D01*
X117462380Y-67384761D01*
X117414761Y-67527619D01*
X117319523Y-67622857D01*
X117224285Y-67670476D01*
X117033809Y-67718095D01*
X116890952Y-67718095D01*
X116700476Y-67670476D01*
X116605238Y-67622857D01*
X116510000Y-67527619D01*
X116462380Y-67384761D01*
X116462380Y-67289523D01*
X116510000Y-67146666D01*
X116557619Y-67099047D01*
X117462380Y-66146666D02*
X117462380Y-66718095D01*
X117462380Y-66432380D02*
X116462380Y-66432380D01*
X116605238Y-66527619D01*
X116700476Y-66622857D01*
X116748095Y-66718095D01*
X117462380Y-65194285D02*
X117462380Y-65765714D01*
X117462380Y-65480000D02*
X116462380Y-65480000D01*
X116605238Y-65575238D01*
X116700476Y-65670476D01*
X116748095Y-65765714D01*
X116462380Y-64860952D02*
X116462380Y-64194285D01*
X117462380Y-64622857D01*
G04 #@! TO.C,C118*
X128857142Y-65144047D02*
X128904761Y-65191666D01*
X128952380Y-65334523D01*
X128952380Y-65429761D01*
X128904761Y-65572619D01*
X128809523Y-65667857D01*
X128714285Y-65715476D01*
X128523809Y-65763095D01*
X128380952Y-65763095D01*
X128190476Y-65715476D01*
X128095238Y-65667857D01*
X128000000Y-65572619D01*
X127952380Y-65429761D01*
X127952380Y-65334523D01*
X128000000Y-65191666D01*
X128047619Y-65144047D01*
X128952380Y-64191666D02*
X128952380Y-64763095D01*
X128952380Y-64477380D02*
X127952380Y-64477380D01*
X128095238Y-64572619D01*
X128190476Y-64667857D01*
X128238095Y-64763095D01*
X128952380Y-63239285D02*
X128952380Y-63810714D01*
X128952380Y-63525000D02*
X127952380Y-63525000D01*
X128095238Y-63620238D01*
X128190476Y-63715476D01*
X128238095Y-63810714D01*
X128380952Y-62667857D02*
X128333333Y-62763095D01*
X128285714Y-62810714D01*
X128190476Y-62858333D01*
X128142857Y-62858333D01*
X128047619Y-62810714D01*
X128000000Y-62763095D01*
X127952380Y-62667857D01*
X127952380Y-62477380D01*
X128000000Y-62382142D01*
X128047619Y-62334523D01*
X128142857Y-62286904D01*
X128190476Y-62286904D01*
X128285714Y-62334523D01*
X128333333Y-62382142D01*
X128380952Y-62477380D01*
X128380952Y-62667857D01*
X128428571Y-62763095D01*
X128476190Y-62810714D01*
X128571428Y-62858333D01*
X128761904Y-62858333D01*
X128857142Y-62810714D01*
X128904761Y-62763095D01*
X128952380Y-62667857D01*
X128952380Y-62477380D01*
X128904761Y-62382142D01*
X128857142Y-62334523D01*
X128761904Y-62286904D01*
X128571428Y-62286904D01*
X128476190Y-62334523D01*
X128428571Y-62382142D01*
X128380952Y-62477380D01*
G04 #@! TO.C,C119*
X131705952Y-73657142D02*
X131658333Y-73704761D01*
X131515476Y-73752380D01*
X131420238Y-73752380D01*
X131277380Y-73704761D01*
X131182142Y-73609523D01*
X131134523Y-73514285D01*
X131086904Y-73323809D01*
X131086904Y-73180952D01*
X131134523Y-72990476D01*
X131182142Y-72895238D01*
X131277380Y-72800000D01*
X131420238Y-72752380D01*
X131515476Y-72752380D01*
X131658333Y-72800000D01*
X131705952Y-72847619D01*
X132658333Y-73752380D02*
X132086904Y-73752380D01*
X132372619Y-73752380D02*
X132372619Y-72752380D01*
X132277380Y-72895238D01*
X132182142Y-72990476D01*
X132086904Y-73038095D01*
X133610714Y-73752380D02*
X133039285Y-73752380D01*
X133325000Y-73752380D02*
X133325000Y-72752380D01*
X133229761Y-72895238D01*
X133134523Y-72990476D01*
X133039285Y-73038095D01*
X134086904Y-73752380D02*
X134277380Y-73752380D01*
X134372619Y-73704761D01*
X134420238Y-73657142D01*
X134515476Y-73514285D01*
X134563095Y-73323809D01*
X134563095Y-72942857D01*
X134515476Y-72847619D01*
X134467857Y-72800000D01*
X134372619Y-72752380D01*
X134182142Y-72752380D01*
X134086904Y-72800000D01*
X134039285Y-72847619D01*
X133991666Y-72942857D01*
X133991666Y-73180952D01*
X134039285Y-73276190D01*
X134086904Y-73323809D01*
X134182142Y-73371428D01*
X134372619Y-73371428D01*
X134467857Y-73323809D01*
X134515476Y-73276190D01*
X134563095Y-73180952D01*
G04 #@! TO.C,C120*
X131555952Y-71982142D02*
X131508333Y-72029761D01*
X131365476Y-72077380D01*
X131270238Y-72077380D01*
X131127380Y-72029761D01*
X131032142Y-71934523D01*
X130984523Y-71839285D01*
X130936904Y-71648809D01*
X130936904Y-71505952D01*
X130984523Y-71315476D01*
X131032142Y-71220238D01*
X131127380Y-71125000D01*
X131270238Y-71077380D01*
X131365476Y-71077380D01*
X131508333Y-71125000D01*
X131555952Y-71172619D01*
X132508333Y-72077380D02*
X131936904Y-72077380D01*
X132222619Y-72077380D02*
X132222619Y-71077380D01*
X132127380Y-71220238D01*
X132032142Y-71315476D01*
X131936904Y-71363095D01*
X132889285Y-71172619D02*
X132936904Y-71125000D01*
X133032142Y-71077380D01*
X133270238Y-71077380D01*
X133365476Y-71125000D01*
X133413095Y-71172619D01*
X133460714Y-71267857D01*
X133460714Y-71363095D01*
X133413095Y-71505952D01*
X132841666Y-72077380D01*
X133460714Y-72077380D01*
X134079761Y-71077380D02*
X134175000Y-71077380D01*
X134270238Y-71125000D01*
X134317857Y-71172619D01*
X134365476Y-71267857D01*
X134413095Y-71458333D01*
X134413095Y-71696428D01*
X134365476Y-71886904D01*
X134317857Y-71982142D01*
X134270238Y-72029761D01*
X134175000Y-72077380D01*
X134079761Y-72077380D01*
X133984523Y-72029761D01*
X133936904Y-71982142D01*
X133889285Y-71886904D01*
X133841666Y-71696428D01*
X133841666Y-71458333D01*
X133889285Y-71267857D01*
X133936904Y-71172619D01*
X133984523Y-71125000D01*
X134079761Y-71077380D01*
G04 #@! TO.C,C121*
X141480952Y-77932142D02*
X141433333Y-77979761D01*
X141290476Y-78027380D01*
X141195238Y-78027380D01*
X141052380Y-77979761D01*
X140957142Y-77884523D01*
X140909523Y-77789285D01*
X140861904Y-77598809D01*
X140861904Y-77455952D01*
X140909523Y-77265476D01*
X140957142Y-77170238D01*
X141052380Y-77075000D01*
X141195238Y-77027380D01*
X141290476Y-77027380D01*
X141433333Y-77075000D01*
X141480952Y-77122619D01*
X142433333Y-78027380D02*
X141861904Y-78027380D01*
X142147619Y-78027380D02*
X142147619Y-77027380D01*
X142052380Y-77170238D01*
X141957142Y-77265476D01*
X141861904Y-77313095D01*
X142814285Y-77122619D02*
X142861904Y-77075000D01*
X142957142Y-77027380D01*
X143195238Y-77027380D01*
X143290476Y-77075000D01*
X143338095Y-77122619D01*
X143385714Y-77217857D01*
X143385714Y-77313095D01*
X143338095Y-77455952D01*
X142766666Y-78027380D01*
X143385714Y-78027380D01*
X144338095Y-78027380D02*
X143766666Y-78027380D01*
X144052380Y-78027380D02*
X144052380Y-77027380D01*
X143957142Y-77170238D01*
X143861904Y-77265476D01*
X143766666Y-77313095D01*
G04 #@! TO.C,D102*
X144372380Y-64170476D02*
X143372380Y-64170476D01*
X143372380Y-63932380D01*
X143420000Y-63789523D01*
X143515238Y-63694285D01*
X143610476Y-63646666D01*
X143800952Y-63599047D01*
X143943809Y-63599047D01*
X144134285Y-63646666D01*
X144229523Y-63694285D01*
X144324761Y-63789523D01*
X144372380Y-63932380D01*
X144372380Y-64170476D01*
X144372380Y-62646666D02*
X144372380Y-63218095D01*
X144372380Y-62932380D02*
X143372380Y-62932380D01*
X143515238Y-63027619D01*
X143610476Y-63122857D01*
X143658095Y-63218095D01*
X143372380Y-62027619D02*
X143372380Y-61932380D01*
X143420000Y-61837142D01*
X143467619Y-61789523D01*
X143562857Y-61741904D01*
X143753333Y-61694285D01*
X143991428Y-61694285D01*
X144181904Y-61741904D01*
X144277142Y-61789523D01*
X144324761Y-61837142D01*
X144372380Y-61932380D01*
X144372380Y-62027619D01*
X144324761Y-62122857D01*
X144277142Y-62170476D01*
X144181904Y-62218095D01*
X143991428Y-62265714D01*
X143753333Y-62265714D01*
X143562857Y-62218095D01*
X143467619Y-62170476D01*
X143420000Y-62122857D01*
X143372380Y-62027619D01*
X143467619Y-61313333D02*
X143420000Y-61265714D01*
X143372380Y-61170476D01*
X143372380Y-60932380D01*
X143420000Y-60837142D01*
X143467619Y-60789523D01*
X143562857Y-60741904D01*
X143658095Y-60741904D01*
X143800952Y-60789523D01*
X144372380Y-61360952D01*
X144372380Y-60741904D01*
G04 #@! TO.C,Q101*
X141278019Y-63625639D02*
X141230400Y-63720877D01*
X141135161Y-63816115D01*
X140992304Y-63958972D01*
X140944685Y-64054210D01*
X140944685Y-64149448D01*
X141182780Y-64101829D02*
X141135161Y-64197067D01*
X141039923Y-64292305D01*
X140849447Y-64339924D01*
X140516114Y-64339924D01*
X140325638Y-64292305D01*
X140230400Y-64197067D01*
X140182780Y-64101829D01*
X140182780Y-63911353D01*
X140230400Y-63816115D01*
X140325638Y-63720877D01*
X140516114Y-63673258D01*
X140849447Y-63673258D01*
X141039923Y-63720877D01*
X141135161Y-63816115D01*
X141182780Y-63911353D01*
X141182780Y-64101829D01*
X141182780Y-62720877D02*
X141182780Y-63292305D01*
X141182780Y-63006591D02*
X140182780Y-63006591D01*
X140325638Y-63101829D01*
X140420876Y-63197067D01*
X140468495Y-63292305D01*
X140182780Y-62101829D02*
X140182780Y-62006591D01*
X140230400Y-61911353D01*
X140278019Y-61863734D01*
X140373257Y-61816115D01*
X140563733Y-61768496D01*
X140801828Y-61768496D01*
X140992304Y-61816115D01*
X141087542Y-61863734D01*
X141135161Y-61911353D01*
X141182780Y-62006591D01*
X141182780Y-62101829D01*
X141135161Y-62197067D01*
X141087542Y-62244686D01*
X140992304Y-62292305D01*
X140801828Y-62339924D01*
X140563733Y-62339924D01*
X140373257Y-62292305D01*
X140278019Y-62244686D01*
X140230400Y-62197067D01*
X140182780Y-62101829D01*
X141182780Y-60816115D02*
X141182780Y-61387543D01*
X141182780Y-61101829D02*
X140182780Y-61101829D01*
X140325638Y-61197067D01*
X140420876Y-61292305D01*
X140468495Y-61387543D01*
G04 #@! TO.C,R101*
X130502380Y-81519047D02*
X130026190Y-81852380D01*
X130502380Y-82090476D02*
X129502380Y-82090476D01*
X129502380Y-81709523D01*
X129550000Y-81614285D01*
X129597619Y-81566666D01*
X129692857Y-81519047D01*
X129835714Y-81519047D01*
X129930952Y-81566666D01*
X129978571Y-81614285D01*
X130026190Y-81709523D01*
X130026190Y-82090476D01*
X130502380Y-80566666D02*
X130502380Y-81138095D01*
X130502380Y-80852380D02*
X129502380Y-80852380D01*
X129645238Y-80947619D01*
X129740476Y-81042857D01*
X129788095Y-81138095D01*
X129502380Y-79947619D02*
X129502380Y-79852380D01*
X129550000Y-79757142D01*
X129597619Y-79709523D01*
X129692857Y-79661904D01*
X129883333Y-79614285D01*
X130121428Y-79614285D01*
X130311904Y-79661904D01*
X130407142Y-79709523D01*
X130454761Y-79757142D01*
X130502380Y-79852380D01*
X130502380Y-79947619D01*
X130454761Y-80042857D01*
X130407142Y-80090476D01*
X130311904Y-80138095D01*
X130121428Y-80185714D01*
X129883333Y-80185714D01*
X129692857Y-80138095D01*
X129597619Y-80090476D01*
X129550000Y-80042857D01*
X129502380Y-79947619D01*
X130502380Y-78661904D02*
X130502380Y-79233333D01*
X130502380Y-78947619D02*
X129502380Y-78947619D01*
X129645238Y-79042857D01*
X129740476Y-79138095D01*
X129788095Y-79233333D01*
G04 #@! TO.C,R103*
X122805952Y-101752380D02*
X122472619Y-101276190D01*
X122234523Y-101752380D02*
X122234523Y-100752380D01*
X122615476Y-100752380D01*
X122710714Y-100800000D01*
X122758333Y-100847619D01*
X122805952Y-100942857D01*
X122805952Y-101085714D01*
X122758333Y-101180952D01*
X122710714Y-101228571D01*
X122615476Y-101276190D01*
X122234523Y-101276190D01*
X123758333Y-101752380D02*
X123186904Y-101752380D01*
X123472619Y-101752380D02*
X123472619Y-100752380D01*
X123377380Y-100895238D01*
X123282142Y-100990476D01*
X123186904Y-101038095D01*
X124377380Y-100752380D02*
X124472619Y-100752380D01*
X124567857Y-100800000D01*
X124615476Y-100847619D01*
X124663095Y-100942857D01*
X124710714Y-101133333D01*
X124710714Y-101371428D01*
X124663095Y-101561904D01*
X124615476Y-101657142D01*
X124567857Y-101704761D01*
X124472619Y-101752380D01*
X124377380Y-101752380D01*
X124282142Y-101704761D01*
X124234523Y-101657142D01*
X124186904Y-101561904D01*
X124139285Y-101371428D01*
X124139285Y-101133333D01*
X124186904Y-100942857D01*
X124234523Y-100847619D01*
X124282142Y-100800000D01*
X124377380Y-100752380D01*
X125044047Y-100752380D02*
X125663095Y-100752380D01*
X125329761Y-101133333D01*
X125472619Y-101133333D01*
X125567857Y-101180952D01*
X125615476Y-101228571D01*
X125663095Y-101323809D01*
X125663095Y-101561904D01*
X125615476Y-101657142D01*
X125567857Y-101704761D01*
X125472619Y-101752380D01*
X125186904Y-101752380D01*
X125091666Y-101704761D01*
X125044047Y-101657142D01*
G04 #@! TO.C,R108*
X101088832Y-70928595D02*
X101189847Y-70356175D01*
X100684771Y-70524534D02*
X101391877Y-69817427D01*
X101661251Y-70086801D01*
X101694923Y-70187816D01*
X101694923Y-70255160D01*
X101661251Y-70356175D01*
X101560236Y-70457190D01*
X101459221Y-70490862D01*
X101391877Y-70490862D01*
X101290862Y-70457190D01*
X101021488Y-70187816D01*
X101762267Y-71602030D02*
X101358206Y-71197969D01*
X101560236Y-71400000D02*
X102267343Y-70692893D01*
X102098984Y-70726564D01*
X101964297Y-70726564D01*
X101863282Y-70692893D01*
X102907106Y-71332656D02*
X102974450Y-71400000D01*
X103008122Y-71501015D01*
X103008122Y-71568358D01*
X102974450Y-71669374D01*
X102873435Y-71837732D01*
X102705076Y-72006091D01*
X102536717Y-72107106D01*
X102435702Y-72140778D01*
X102368358Y-72140778D01*
X102267343Y-72107106D01*
X102200000Y-72039763D01*
X102166328Y-71938748D01*
X102166328Y-71871404D01*
X102200000Y-71770389D01*
X102301015Y-71602030D01*
X102469374Y-71433671D01*
X102637732Y-71332656D01*
X102738748Y-71298984D01*
X102806091Y-71298984D01*
X102907106Y-71332656D01*
X103243824Y-72275465D02*
X103210152Y-72174450D01*
X103210152Y-72107106D01*
X103243824Y-72006091D01*
X103277496Y-71972419D01*
X103378511Y-71938748D01*
X103445854Y-71938748D01*
X103546870Y-71972419D01*
X103681557Y-72107106D01*
X103715228Y-72208122D01*
X103715228Y-72275465D01*
X103681557Y-72376480D01*
X103647885Y-72410152D01*
X103546870Y-72443824D01*
X103479526Y-72443824D01*
X103378511Y-72410152D01*
X103243824Y-72275465D01*
X103142809Y-72241793D01*
X103075465Y-72241793D01*
X102974450Y-72275465D01*
X102839763Y-72410152D01*
X102806091Y-72511167D01*
X102806091Y-72578511D01*
X102839763Y-72679526D01*
X102974450Y-72814213D01*
X103075465Y-72847885D01*
X103142809Y-72847885D01*
X103243824Y-72814213D01*
X103378511Y-72679526D01*
X103412183Y-72578511D01*
X103412183Y-72511167D01*
X103378511Y-72410152D01*
G04 #@! TO.C,R109*
X104980483Y-74991794D02*
X104408063Y-74890779D01*
X104576422Y-75395855D02*
X103869315Y-74688749D01*
X104138689Y-74419375D01*
X104239704Y-74385703D01*
X104307048Y-74385703D01*
X104408063Y-74419375D01*
X104509078Y-74520390D01*
X104542750Y-74621405D01*
X104542750Y-74688749D01*
X104509078Y-74789764D01*
X104239704Y-75059138D01*
X105653918Y-74318359D02*
X105249857Y-74722420D01*
X105451888Y-74520390D02*
X104744781Y-73813283D01*
X104778452Y-73981642D01*
X104778452Y-74116329D01*
X104744781Y-74217344D01*
X105384544Y-73173520D02*
X105451888Y-73106176D01*
X105552903Y-73072504D01*
X105620246Y-73072504D01*
X105721262Y-73106176D01*
X105889620Y-73207191D01*
X106057979Y-73375550D01*
X106158994Y-73543909D01*
X106192666Y-73644924D01*
X106192666Y-73712268D01*
X106158994Y-73813283D01*
X106091651Y-73880627D01*
X105990636Y-73914298D01*
X105923292Y-73914298D01*
X105822277Y-73880627D01*
X105653918Y-73779611D01*
X105485559Y-73611252D01*
X105384544Y-73442894D01*
X105350872Y-73341878D01*
X105350872Y-73274535D01*
X105384544Y-73173520D01*
X106664071Y-73308207D02*
X106798758Y-73173520D01*
X106832429Y-73072504D01*
X106832429Y-73005161D01*
X106798758Y-72836802D01*
X106697742Y-72668443D01*
X106428368Y-72399069D01*
X106327353Y-72365398D01*
X106260010Y-72365398D01*
X106158994Y-72399069D01*
X106024307Y-72533756D01*
X105990636Y-72634772D01*
X105990636Y-72702115D01*
X106024307Y-72803130D01*
X106192666Y-72971489D01*
X106293681Y-73005161D01*
X106361025Y-73005161D01*
X106462040Y-72971489D01*
X106596727Y-72836802D01*
X106630399Y-72735787D01*
X106630399Y-72668443D01*
X106596727Y-72567428D01*
G04 #@! TO.C,R110*
X76902380Y-73419047D02*
X76426190Y-73752380D01*
X76902380Y-73990476D02*
X75902380Y-73990476D01*
X75902380Y-73609523D01*
X75950000Y-73514285D01*
X75997619Y-73466666D01*
X76092857Y-73419047D01*
X76235714Y-73419047D01*
X76330952Y-73466666D01*
X76378571Y-73514285D01*
X76426190Y-73609523D01*
X76426190Y-73990476D01*
X76902380Y-72466666D02*
X76902380Y-73038095D01*
X76902380Y-72752380D02*
X75902380Y-72752380D01*
X76045238Y-72847619D01*
X76140476Y-72942857D01*
X76188095Y-73038095D01*
X76902380Y-71514285D02*
X76902380Y-72085714D01*
X76902380Y-71800000D02*
X75902380Y-71800000D01*
X76045238Y-71895238D01*
X76140476Y-71990476D01*
X76188095Y-72085714D01*
X75902380Y-70895238D02*
X75902380Y-70800000D01*
X75950000Y-70704761D01*
X75997619Y-70657142D01*
X76092857Y-70609523D01*
X76283333Y-70561904D01*
X76521428Y-70561904D01*
X76711904Y-70609523D01*
X76807142Y-70657142D01*
X76854761Y-70704761D01*
X76902380Y-70800000D01*
X76902380Y-70895238D01*
X76854761Y-70990476D01*
X76807142Y-71038095D01*
X76711904Y-71085714D01*
X76521428Y-71133333D01*
X76283333Y-71133333D01*
X76092857Y-71085714D01*
X75997619Y-71038095D01*
X75950000Y-70990476D01*
X75902380Y-70895238D01*
G04 #@! TO.C,R111*
X129980952Y-65977380D02*
X129647619Y-65501190D01*
X129409523Y-65977380D02*
X129409523Y-64977380D01*
X129790476Y-64977380D01*
X129885714Y-65025000D01*
X129933333Y-65072619D01*
X129980952Y-65167857D01*
X129980952Y-65310714D01*
X129933333Y-65405952D01*
X129885714Y-65453571D01*
X129790476Y-65501190D01*
X129409523Y-65501190D01*
X130933333Y-65977380D02*
X130361904Y-65977380D01*
X130647619Y-65977380D02*
X130647619Y-64977380D01*
X130552380Y-65120238D01*
X130457142Y-65215476D01*
X130361904Y-65263095D01*
X131885714Y-65977380D02*
X131314285Y-65977380D01*
X131600000Y-65977380D02*
X131600000Y-64977380D01*
X131504761Y-65120238D01*
X131409523Y-65215476D01*
X131314285Y-65263095D01*
X132838095Y-65977380D02*
X132266666Y-65977380D01*
X132552380Y-65977380D02*
X132552380Y-64977380D01*
X132457142Y-65120238D01*
X132361904Y-65215476D01*
X132266666Y-65263095D01*
G04 #@! TO.C,SW101*
X76864285Y-93954761D02*
X77007142Y-94002380D01*
X77245238Y-94002380D01*
X77340476Y-93954761D01*
X77388095Y-93907142D01*
X77435714Y-93811904D01*
X77435714Y-93716666D01*
X77388095Y-93621428D01*
X77340476Y-93573809D01*
X77245238Y-93526190D01*
X77054761Y-93478571D01*
X76959523Y-93430952D01*
X76911904Y-93383333D01*
X76864285Y-93288095D01*
X76864285Y-93192857D01*
X76911904Y-93097619D01*
X76959523Y-93050000D01*
X77054761Y-93002380D01*
X77292857Y-93002380D01*
X77435714Y-93050000D01*
X77769047Y-93002380D02*
X78007142Y-94002380D01*
X78197619Y-93288095D01*
X78388095Y-94002380D01*
X78626190Y-93002380D01*
X79530952Y-94002380D02*
X78959523Y-94002380D01*
X79245238Y-94002380D02*
X79245238Y-93002380D01*
X79150000Y-93145238D01*
X79054761Y-93240476D01*
X78959523Y-93288095D01*
X80150000Y-93002380D02*
X80245238Y-93002380D01*
X80340476Y-93050000D01*
X80388095Y-93097619D01*
X80435714Y-93192857D01*
X80483333Y-93383333D01*
X80483333Y-93621428D01*
X80435714Y-93811904D01*
X80388095Y-93907142D01*
X80340476Y-93954761D01*
X80245238Y-94002380D01*
X80150000Y-94002380D01*
X80054761Y-93954761D01*
X80007142Y-93907142D01*
X79959523Y-93811904D01*
X79911904Y-93621428D01*
X79911904Y-93383333D01*
X79959523Y-93192857D01*
X80007142Y-93097619D01*
X80054761Y-93050000D01*
X80150000Y-93002380D01*
X81435714Y-94002380D02*
X80864285Y-94002380D01*
X81150000Y-94002380D02*
X81150000Y-93002380D01*
X81054761Y-93145238D01*
X80959523Y-93240476D01*
X80864285Y-93288095D01*
G04 #@! TO.C,TP101*
X84185714Y-68077380D02*
X84757142Y-68077380D01*
X84471428Y-69077380D02*
X84471428Y-68077380D01*
X85090476Y-69077380D02*
X85090476Y-68077380D01*
X85471428Y-68077380D01*
X85566666Y-68125000D01*
X85614285Y-68172619D01*
X85661904Y-68267857D01*
X85661904Y-68410714D01*
X85614285Y-68505952D01*
X85566666Y-68553571D01*
X85471428Y-68601190D01*
X85090476Y-68601190D01*
X86614285Y-69077380D02*
X86042857Y-69077380D01*
X86328571Y-69077380D02*
X86328571Y-68077380D01*
X86233333Y-68220238D01*
X86138095Y-68315476D01*
X86042857Y-68363095D01*
X87233333Y-68077380D02*
X87328571Y-68077380D01*
X87423809Y-68125000D01*
X87471428Y-68172619D01*
X87519047Y-68267857D01*
X87566666Y-68458333D01*
X87566666Y-68696428D01*
X87519047Y-68886904D01*
X87471428Y-68982142D01*
X87423809Y-69029761D01*
X87328571Y-69077380D01*
X87233333Y-69077380D01*
X87138095Y-69029761D01*
X87090476Y-68982142D01*
X87042857Y-68886904D01*
X86995238Y-68696428D01*
X86995238Y-68458333D01*
X87042857Y-68267857D01*
X87090476Y-68172619D01*
X87138095Y-68125000D01*
X87233333Y-68077380D01*
X88519047Y-69077380D02*
X87947619Y-69077380D01*
X88233333Y-69077380D02*
X88233333Y-68077380D01*
X88138095Y-68220238D01*
X88042857Y-68315476D01*
X87947619Y-68363095D01*
G04 #@! TO.C,TP103*
X122760714Y-109552380D02*
X123332142Y-109552380D01*
X123046428Y-110552380D02*
X123046428Y-109552380D01*
X123665476Y-110552380D02*
X123665476Y-109552380D01*
X124046428Y-109552380D01*
X124141666Y-109600000D01*
X124189285Y-109647619D01*
X124236904Y-109742857D01*
X124236904Y-109885714D01*
X124189285Y-109980952D01*
X124141666Y-110028571D01*
X124046428Y-110076190D01*
X123665476Y-110076190D01*
X125189285Y-110552380D02*
X124617857Y-110552380D01*
X124903571Y-110552380D02*
X124903571Y-109552380D01*
X124808333Y-109695238D01*
X124713095Y-109790476D01*
X124617857Y-109838095D01*
X125808333Y-109552380D02*
X125903571Y-109552380D01*
X125998809Y-109600000D01*
X126046428Y-109647619D01*
X126094047Y-109742857D01*
X126141666Y-109933333D01*
X126141666Y-110171428D01*
X126094047Y-110361904D01*
X126046428Y-110457142D01*
X125998809Y-110504761D01*
X125903571Y-110552380D01*
X125808333Y-110552380D01*
X125713095Y-110504761D01*
X125665476Y-110457142D01*
X125617857Y-110361904D01*
X125570238Y-110171428D01*
X125570238Y-109933333D01*
X125617857Y-109742857D01*
X125665476Y-109647619D01*
X125713095Y-109600000D01*
X125808333Y-109552380D01*
X126475000Y-109552380D02*
X127094047Y-109552380D01*
X126760714Y-109933333D01*
X126903571Y-109933333D01*
X126998809Y-109980952D01*
X127046428Y-110028571D01*
X127094047Y-110123809D01*
X127094047Y-110361904D01*
X127046428Y-110457142D01*
X126998809Y-110504761D01*
X126903571Y-110552380D01*
X126617857Y-110552380D01*
X126522619Y-110504761D01*
X126475000Y-110457142D01*
G04 #@! TO.C,TP104*
X125400954Y-113271820D02*
X125972382Y-113271820D01*
X125686668Y-114271820D02*
X125686668Y-113271820D01*
X126305716Y-114271820D02*
X126305716Y-113271820D01*
X126686668Y-113271820D01*
X126781906Y-113319440D01*
X126829525Y-113367059D01*
X126877144Y-113462297D01*
X126877144Y-113605154D01*
X126829525Y-113700392D01*
X126781906Y-113748011D01*
X126686668Y-113795630D01*
X126305716Y-113795630D01*
X127829525Y-114271820D02*
X127258097Y-114271820D01*
X127543811Y-114271820D02*
X127543811Y-113271820D01*
X127448573Y-113414678D01*
X127353335Y-113509916D01*
X127258097Y-113557535D01*
X128448573Y-113271820D02*
X128543811Y-113271820D01*
X128639049Y-113319440D01*
X128686668Y-113367059D01*
X128734287Y-113462297D01*
X128781906Y-113652773D01*
X128781906Y-113890868D01*
X128734287Y-114081344D01*
X128686668Y-114176582D01*
X128639049Y-114224201D01*
X128543811Y-114271820D01*
X128448573Y-114271820D01*
X128353335Y-114224201D01*
X128305716Y-114176582D01*
X128258097Y-114081344D01*
X128210478Y-113890868D01*
X128210478Y-113652773D01*
X128258097Y-113462297D01*
X128305716Y-113367059D01*
X128353335Y-113319440D01*
X128448573Y-113271820D01*
X129639049Y-113605154D02*
X129639049Y-114271820D01*
X129400954Y-113224201D02*
X129162859Y-113938487D01*
X129781906Y-113938487D01*
G04 #@! TO.C,TP105*
X121335714Y-89402380D02*
X121907142Y-89402380D01*
X121621428Y-90402380D02*
X121621428Y-89402380D01*
X122240476Y-90402380D02*
X122240476Y-89402380D01*
X122621428Y-89402380D01*
X122716666Y-89450000D01*
X122764285Y-89497619D01*
X122811904Y-89592857D01*
X122811904Y-89735714D01*
X122764285Y-89830952D01*
X122716666Y-89878571D01*
X122621428Y-89926190D01*
X122240476Y-89926190D01*
X123764285Y-90402380D02*
X123192857Y-90402380D01*
X123478571Y-90402380D02*
X123478571Y-89402380D01*
X123383333Y-89545238D01*
X123288095Y-89640476D01*
X123192857Y-89688095D01*
X124383333Y-89402380D02*
X124478571Y-89402380D01*
X124573809Y-89450000D01*
X124621428Y-89497619D01*
X124669047Y-89592857D01*
X124716666Y-89783333D01*
X124716666Y-90021428D01*
X124669047Y-90211904D01*
X124621428Y-90307142D01*
X124573809Y-90354761D01*
X124478571Y-90402380D01*
X124383333Y-90402380D01*
X124288095Y-90354761D01*
X124240476Y-90307142D01*
X124192857Y-90211904D01*
X124145238Y-90021428D01*
X124145238Y-89783333D01*
X124192857Y-89592857D01*
X124240476Y-89497619D01*
X124288095Y-89450000D01*
X124383333Y-89402380D01*
X125621428Y-89402380D02*
X125145238Y-89402380D01*
X125097619Y-89878571D01*
X125145238Y-89830952D01*
X125240476Y-89783333D01*
X125478571Y-89783333D01*
X125573809Y-89830952D01*
X125621428Y-89878571D01*
X125669047Y-89973809D01*
X125669047Y-90211904D01*
X125621428Y-90307142D01*
X125573809Y-90354761D01*
X125478571Y-90402380D01*
X125240476Y-90402380D01*
X125145238Y-90354761D01*
X125097619Y-90307142D01*
G04 #@! TO.C,TP106*
X112635714Y-93577380D02*
X113207142Y-93577380D01*
X112921428Y-94577380D02*
X112921428Y-93577380D01*
X113540476Y-94577380D02*
X113540476Y-93577380D01*
X113921428Y-93577380D01*
X114016666Y-93625000D01*
X114064285Y-93672619D01*
X114111904Y-93767857D01*
X114111904Y-93910714D01*
X114064285Y-94005952D01*
X114016666Y-94053571D01*
X113921428Y-94101190D01*
X113540476Y-94101190D01*
X115064285Y-94577380D02*
X114492857Y-94577380D01*
X114778571Y-94577380D02*
X114778571Y-93577380D01*
X114683333Y-93720238D01*
X114588095Y-93815476D01*
X114492857Y-93863095D01*
X115683333Y-93577380D02*
X115778571Y-93577380D01*
X115873809Y-93625000D01*
X115921428Y-93672619D01*
X115969047Y-93767857D01*
X116016666Y-93958333D01*
X116016666Y-94196428D01*
X115969047Y-94386904D01*
X115921428Y-94482142D01*
X115873809Y-94529761D01*
X115778571Y-94577380D01*
X115683333Y-94577380D01*
X115588095Y-94529761D01*
X115540476Y-94482142D01*
X115492857Y-94386904D01*
X115445238Y-94196428D01*
X115445238Y-93958333D01*
X115492857Y-93767857D01*
X115540476Y-93672619D01*
X115588095Y-93625000D01*
X115683333Y-93577380D01*
X116873809Y-93577380D02*
X116683333Y-93577380D01*
X116588095Y-93625000D01*
X116540476Y-93672619D01*
X116445238Y-93815476D01*
X116397619Y-94005952D01*
X116397619Y-94386904D01*
X116445238Y-94482142D01*
X116492857Y-94529761D01*
X116588095Y-94577380D01*
X116778571Y-94577380D01*
X116873809Y-94529761D01*
X116921428Y-94482142D01*
X116969047Y-94386904D01*
X116969047Y-94148809D01*
X116921428Y-94053571D01*
X116873809Y-94005952D01*
X116778571Y-93958333D01*
X116588095Y-93958333D01*
X116492857Y-94005952D01*
X116445238Y-94053571D01*
X116397619Y-94148809D01*
G04 #@! TO.C,TP107*
X116112234Y-71903380D02*
X116683662Y-71903380D01*
X116397948Y-72903380D02*
X116397948Y-71903380D01*
X117016996Y-72903380D02*
X117016996Y-71903380D01*
X117397948Y-71903380D01*
X117493186Y-71951000D01*
X117540805Y-71998619D01*
X117588424Y-72093857D01*
X117588424Y-72236714D01*
X117540805Y-72331952D01*
X117493186Y-72379571D01*
X117397948Y-72427190D01*
X117016996Y-72427190D01*
X118540805Y-72903380D02*
X117969377Y-72903380D01*
X118255091Y-72903380D02*
X118255091Y-71903380D01*
X118159853Y-72046238D01*
X118064615Y-72141476D01*
X117969377Y-72189095D01*
X119159853Y-71903380D02*
X119255091Y-71903380D01*
X119350329Y-71951000D01*
X119397948Y-71998619D01*
X119445567Y-72093857D01*
X119493186Y-72284333D01*
X119493186Y-72522428D01*
X119445567Y-72712904D01*
X119397948Y-72808142D01*
X119350329Y-72855761D01*
X119255091Y-72903380D01*
X119159853Y-72903380D01*
X119064615Y-72855761D01*
X119016996Y-72808142D01*
X118969377Y-72712904D01*
X118921758Y-72522428D01*
X118921758Y-72284333D01*
X118969377Y-72093857D01*
X119016996Y-71998619D01*
X119064615Y-71951000D01*
X119159853Y-71903380D01*
X119826520Y-71903380D02*
X120493186Y-71903380D01*
X120064615Y-72903380D01*
G04 #@! TO.C,TP108*
X130327380Y-70814285D02*
X130327380Y-70242857D01*
X131327380Y-70528571D02*
X130327380Y-70528571D01*
X131327380Y-69909523D02*
X130327380Y-69909523D01*
X130327380Y-69528571D01*
X130375000Y-69433333D01*
X130422619Y-69385714D01*
X130517857Y-69338095D01*
X130660714Y-69338095D01*
X130755952Y-69385714D01*
X130803571Y-69433333D01*
X130851190Y-69528571D01*
X130851190Y-69909523D01*
X131327380Y-68385714D02*
X131327380Y-68957142D01*
X131327380Y-68671428D02*
X130327380Y-68671428D01*
X130470238Y-68766666D01*
X130565476Y-68861904D01*
X130613095Y-68957142D01*
X130327380Y-67766666D02*
X130327380Y-67671428D01*
X130375000Y-67576190D01*
X130422619Y-67528571D01*
X130517857Y-67480952D01*
X130708333Y-67433333D01*
X130946428Y-67433333D01*
X131136904Y-67480952D01*
X131232142Y-67528571D01*
X131279761Y-67576190D01*
X131327380Y-67671428D01*
X131327380Y-67766666D01*
X131279761Y-67861904D01*
X131232142Y-67909523D01*
X131136904Y-67957142D01*
X130946428Y-68004761D01*
X130708333Y-68004761D01*
X130517857Y-67957142D01*
X130422619Y-67909523D01*
X130375000Y-67861904D01*
X130327380Y-67766666D01*
X130755952Y-66861904D02*
X130708333Y-66957142D01*
X130660714Y-67004761D01*
X130565476Y-67052380D01*
X130517857Y-67052380D01*
X130422619Y-67004761D01*
X130375000Y-66957142D01*
X130327380Y-66861904D01*
X130327380Y-66671428D01*
X130375000Y-66576190D01*
X130422619Y-66528571D01*
X130517857Y-66480952D01*
X130565476Y-66480952D01*
X130660714Y-66528571D01*
X130708333Y-66576190D01*
X130755952Y-66671428D01*
X130755952Y-66861904D01*
X130803571Y-66957142D01*
X130851190Y-67004761D01*
X130946428Y-67052380D01*
X131136904Y-67052380D01*
X131232142Y-67004761D01*
X131279761Y-66957142D01*
X131327380Y-66861904D01*
X131327380Y-66671428D01*
X131279761Y-66576190D01*
X131232142Y-66528571D01*
X131136904Y-66480952D01*
X130946428Y-66480952D01*
X130851190Y-66528571D01*
X130803571Y-66576190D01*
X130755952Y-66671428D01*
G04 #@! TO.C,TP109*
X94902380Y-65089285D02*
X94902380Y-64517857D01*
X95902380Y-64803571D02*
X94902380Y-64803571D01*
X95902380Y-64184523D02*
X94902380Y-64184523D01*
X94902380Y-63803571D01*
X94950000Y-63708333D01*
X94997619Y-63660714D01*
X95092857Y-63613095D01*
X95235714Y-63613095D01*
X95330952Y-63660714D01*
X95378571Y-63708333D01*
X95426190Y-63803571D01*
X95426190Y-64184523D01*
X95902380Y-62660714D02*
X95902380Y-63232142D01*
X95902380Y-62946428D02*
X94902380Y-62946428D01*
X95045238Y-63041666D01*
X95140476Y-63136904D01*
X95188095Y-63232142D01*
X94902380Y-62041666D02*
X94902380Y-61946428D01*
X94950000Y-61851190D01*
X94997619Y-61803571D01*
X95092857Y-61755952D01*
X95283333Y-61708333D01*
X95521428Y-61708333D01*
X95711904Y-61755952D01*
X95807142Y-61803571D01*
X95854761Y-61851190D01*
X95902380Y-61946428D01*
X95902380Y-62041666D01*
X95854761Y-62136904D01*
X95807142Y-62184523D01*
X95711904Y-62232142D01*
X95521428Y-62279761D01*
X95283333Y-62279761D01*
X95092857Y-62232142D01*
X94997619Y-62184523D01*
X94950000Y-62136904D01*
X94902380Y-62041666D01*
X95902380Y-61232142D02*
X95902380Y-61041666D01*
X95854761Y-60946428D01*
X95807142Y-60898809D01*
X95664285Y-60803571D01*
X95473809Y-60755952D01*
X95092857Y-60755952D01*
X94997619Y-60803571D01*
X94950000Y-60851190D01*
X94902380Y-60946428D01*
X94902380Y-61136904D01*
X94950000Y-61232142D01*
X94997619Y-61279761D01*
X95092857Y-61327380D01*
X95330952Y-61327380D01*
X95426190Y-61279761D01*
X95473809Y-61232142D01*
X95521428Y-61136904D01*
X95521428Y-60946428D01*
X95473809Y-60851190D01*
X95426190Y-60803571D01*
X95330952Y-60755952D01*
G04 #@! TO.C,U101*
X87007902Y-76536932D02*
X86435482Y-77109352D01*
X86401810Y-77210367D01*
X86401810Y-77277711D01*
X86435482Y-77378726D01*
X86570169Y-77513413D01*
X86671184Y-77547085D01*
X86738528Y-77547085D01*
X86839543Y-77513413D01*
X87411963Y-76940993D01*
X87411963Y-78355207D02*
X87007902Y-77951146D01*
X87209932Y-78153176D02*
X87917039Y-77446070D01*
X87748680Y-77479741D01*
X87613993Y-77479741D01*
X87512978Y-77446070D01*
X88556802Y-78085833D02*
X88624146Y-78153176D01*
X88657817Y-78254192D01*
X88657817Y-78321535D01*
X88624146Y-78422550D01*
X88523130Y-78590909D01*
X88354772Y-78759268D01*
X88186413Y-78860283D01*
X88085398Y-78893955D01*
X88018054Y-78893955D01*
X87917039Y-78860283D01*
X87849695Y-78792940D01*
X87816024Y-78691924D01*
X87816024Y-78624581D01*
X87849695Y-78523566D01*
X87950711Y-78355207D01*
X88119069Y-78186848D01*
X88287428Y-78085833D01*
X88388443Y-78052161D01*
X88455787Y-78052161D01*
X88556802Y-78085833D01*
X88758833Y-79702077D02*
X88354772Y-79298016D01*
X88556802Y-79500046D02*
X89263909Y-78792940D01*
X89095550Y-78826611D01*
X88960863Y-78826611D01*
X88859848Y-78792940D01*
G04 #@! TO.C,U103*
X84600591Y-61624957D02*
X85173011Y-62197377D01*
X85274026Y-62231049D01*
X85341370Y-62231049D01*
X85442385Y-62197377D01*
X85577072Y-62062690D01*
X85610744Y-61961675D01*
X85610744Y-61894331D01*
X85577072Y-61793316D01*
X85004652Y-61220896D01*
X86418866Y-61220896D02*
X86014805Y-61624957D01*
X86216835Y-61422927D02*
X85509729Y-60715820D01*
X85543400Y-60884179D01*
X85543400Y-61018866D01*
X85509729Y-61119881D01*
X86149492Y-60076057D02*
X86216835Y-60008713D01*
X86317851Y-59975042D01*
X86385194Y-59975042D01*
X86486209Y-60008713D01*
X86654568Y-60109729D01*
X86822927Y-60278087D01*
X86923942Y-60446446D01*
X86957614Y-60547461D01*
X86957614Y-60614805D01*
X86923942Y-60715820D01*
X86856599Y-60783164D01*
X86755583Y-60816835D01*
X86688240Y-60816835D01*
X86587225Y-60783164D01*
X86418866Y-60682148D01*
X86250507Y-60513790D01*
X86149492Y-60345431D01*
X86115820Y-60244416D01*
X86115820Y-60177072D01*
X86149492Y-60076057D01*
X86620896Y-59604652D02*
X87058629Y-59166920D01*
X87092301Y-59671996D01*
X87193316Y-59570981D01*
X87294331Y-59537309D01*
X87361675Y-59537309D01*
X87462690Y-59570981D01*
X87631049Y-59739339D01*
X87664721Y-59840355D01*
X87664721Y-59907698D01*
X87631049Y-60008713D01*
X87429018Y-60210744D01*
X87328003Y-60244416D01*
X87260660Y-60244416D01*
G04 #@! TO.C,U104*
X132885714Y-59227380D02*
X132885714Y-60036904D01*
X132933333Y-60132142D01*
X132980952Y-60179761D01*
X133076190Y-60227380D01*
X133266666Y-60227380D01*
X133361904Y-60179761D01*
X133409523Y-60132142D01*
X133457142Y-60036904D01*
X133457142Y-59227380D01*
X134457142Y-60227380D02*
X133885714Y-60227380D01*
X134171428Y-60227380D02*
X134171428Y-59227380D01*
X134076190Y-59370238D01*
X133980952Y-59465476D01*
X133885714Y-59513095D01*
X135076190Y-59227380D02*
X135171428Y-59227380D01*
X135266666Y-59275000D01*
X135314285Y-59322619D01*
X135361904Y-59417857D01*
X135409523Y-59608333D01*
X135409523Y-59846428D01*
X135361904Y-60036904D01*
X135314285Y-60132142D01*
X135266666Y-60179761D01*
X135171428Y-60227380D01*
X135076190Y-60227380D01*
X134980952Y-60179761D01*
X134933333Y-60132142D01*
X134885714Y-60036904D01*
X134838095Y-59846428D01*
X134838095Y-59608333D01*
X134885714Y-59417857D01*
X134933333Y-59322619D01*
X134980952Y-59275000D01*
X135076190Y-59227380D01*
X136266666Y-59560714D02*
X136266666Y-60227380D01*
X136028571Y-59179761D02*
X135790476Y-59894047D01*
X136409523Y-59894047D01*
G04 #@! TO.C,R107*
X121552380Y-116069047D02*
X121076190Y-116402380D01*
X121552380Y-116640476D02*
X120552380Y-116640476D01*
X120552380Y-116259523D01*
X120600000Y-116164285D01*
X120647619Y-116116666D01*
X120742857Y-116069047D01*
X120885714Y-116069047D01*
X120980952Y-116116666D01*
X121028571Y-116164285D01*
X121076190Y-116259523D01*
X121076190Y-116640476D01*
X121552380Y-115116666D02*
X121552380Y-115688095D01*
X121552380Y-115402380D02*
X120552380Y-115402380D01*
X120695238Y-115497619D01*
X120790476Y-115592857D01*
X120838095Y-115688095D01*
X120552380Y-114497619D02*
X120552380Y-114402380D01*
X120600000Y-114307142D01*
X120647619Y-114259523D01*
X120742857Y-114211904D01*
X120933333Y-114164285D01*
X121171428Y-114164285D01*
X121361904Y-114211904D01*
X121457142Y-114259523D01*
X121504761Y-114307142D01*
X121552380Y-114402380D01*
X121552380Y-114497619D01*
X121504761Y-114592857D01*
X121457142Y-114640476D01*
X121361904Y-114688095D01*
X121171428Y-114735714D01*
X120933333Y-114735714D01*
X120742857Y-114688095D01*
X120647619Y-114640476D01*
X120600000Y-114592857D01*
X120552380Y-114497619D01*
X120552380Y-113830952D02*
X120552380Y-113164285D01*
X121552380Y-113592857D01*
G04 #@! TO.C,R112*
X118302380Y-116269047D02*
X117826190Y-116602380D01*
X118302380Y-116840476D02*
X117302380Y-116840476D01*
X117302380Y-116459523D01*
X117350000Y-116364285D01*
X117397619Y-116316666D01*
X117492857Y-116269047D01*
X117635714Y-116269047D01*
X117730952Y-116316666D01*
X117778571Y-116364285D01*
X117826190Y-116459523D01*
X117826190Y-116840476D01*
X118302380Y-115316666D02*
X118302380Y-115888095D01*
X118302380Y-115602380D02*
X117302380Y-115602380D01*
X117445238Y-115697619D01*
X117540476Y-115792857D01*
X117588095Y-115888095D01*
X118302380Y-114364285D02*
X118302380Y-114935714D01*
X118302380Y-114650000D02*
X117302380Y-114650000D01*
X117445238Y-114745238D01*
X117540476Y-114840476D01*
X117588095Y-114935714D01*
X117397619Y-113983333D02*
X117350000Y-113935714D01*
X117302380Y-113840476D01*
X117302380Y-113602380D01*
X117350000Y-113507142D01*
X117397619Y-113459523D01*
X117492857Y-113411904D01*
X117588095Y-113411904D01*
X117730952Y-113459523D01*
X118302380Y-114030952D01*
X118302380Y-113411904D01*
G04 #@! TO.C,RV102*
X109052380Y-113652380D02*
X108719047Y-113176190D01*
X108480952Y-113652380D02*
X108480952Y-112652380D01*
X108861904Y-112652380D01*
X108957142Y-112700000D01*
X109004761Y-112747619D01*
X109052380Y-112842857D01*
X109052380Y-112985714D01*
X109004761Y-113080952D01*
X108957142Y-113128571D01*
X108861904Y-113176190D01*
X108480952Y-113176190D01*
X109338095Y-112652380D02*
X109671428Y-113652380D01*
X110004761Y-112652380D01*
X110861904Y-113652380D02*
X110290476Y-113652380D01*
X110576190Y-113652380D02*
X110576190Y-112652380D01*
X110480952Y-112795238D01*
X110385714Y-112890476D01*
X110290476Y-112938095D01*
X111480952Y-112652380D02*
X111576190Y-112652380D01*
X111671428Y-112700000D01*
X111719047Y-112747619D01*
X111766666Y-112842857D01*
X111814285Y-113033333D01*
X111814285Y-113271428D01*
X111766666Y-113461904D01*
X111719047Y-113557142D01*
X111671428Y-113604761D01*
X111576190Y-113652380D01*
X111480952Y-113652380D01*
X111385714Y-113604761D01*
X111338095Y-113557142D01*
X111290476Y-113461904D01*
X111242857Y-113271428D01*
X111242857Y-113033333D01*
X111290476Y-112842857D01*
X111338095Y-112747619D01*
X111385714Y-112700000D01*
X111480952Y-112652380D01*
X112195238Y-112747619D02*
X112242857Y-112700000D01*
X112338095Y-112652380D01*
X112576190Y-112652380D01*
X112671428Y-112700000D01*
X112719047Y-112747619D01*
X112766666Y-112842857D01*
X112766666Y-112938095D01*
X112719047Y-113080952D01*
X112147619Y-113652380D01*
X112766666Y-113652380D01*
G04 #@! TO.C,C107*
X115291102Y-106612807D02*
X115338721Y-106660426D01*
X115386340Y-106803283D01*
X115386340Y-106898521D01*
X115338721Y-107041379D01*
X115243483Y-107136617D01*
X115148245Y-107184236D01*
X114957769Y-107231855D01*
X114814912Y-107231855D01*
X114624436Y-107184236D01*
X114529198Y-107136617D01*
X114433960Y-107041379D01*
X114386340Y-106898521D01*
X114386340Y-106803283D01*
X114433960Y-106660426D01*
X114481579Y-106612807D01*
X115386340Y-105660426D02*
X115386340Y-106231855D01*
X115386340Y-105946140D02*
X114386340Y-105946140D01*
X114529198Y-106041379D01*
X114624436Y-106136617D01*
X114672055Y-106231855D01*
X114386340Y-105041379D02*
X114386340Y-104946140D01*
X114433960Y-104850902D01*
X114481579Y-104803283D01*
X114576817Y-104755664D01*
X114767293Y-104708045D01*
X115005388Y-104708045D01*
X115195864Y-104755664D01*
X115291102Y-104803283D01*
X115338721Y-104850902D01*
X115386340Y-104946140D01*
X115386340Y-105041379D01*
X115338721Y-105136617D01*
X115291102Y-105184236D01*
X115195864Y-105231855D01*
X115005388Y-105279474D01*
X114767293Y-105279474D01*
X114576817Y-105231855D01*
X114481579Y-105184236D01*
X114433960Y-105136617D01*
X114386340Y-105041379D01*
X114386340Y-104374712D02*
X114386340Y-103708045D01*
X115386340Y-104136617D01*
G04 #@! TO.C,C124*
X140807142Y-91494047D02*
X140854761Y-91541666D01*
X140902380Y-91684523D01*
X140902380Y-91779761D01*
X140854761Y-91922619D01*
X140759523Y-92017857D01*
X140664285Y-92065476D01*
X140473809Y-92113095D01*
X140330952Y-92113095D01*
X140140476Y-92065476D01*
X140045238Y-92017857D01*
X139950000Y-91922619D01*
X139902380Y-91779761D01*
X139902380Y-91684523D01*
X139950000Y-91541666D01*
X139997619Y-91494047D01*
X140902380Y-90541666D02*
X140902380Y-91113095D01*
X140902380Y-90827380D02*
X139902380Y-90827380D01*
X140045238Y-90922619D01*
X140140476Y-91017857D01*
X140188095Y-91113095D01*
X139997619Y-90160714D02*
X139950000Y-90113095D01*
X139902380Y-90017857D01*
X139902380Y-89779761D01*
X139950000Y-89684523D01*
X139997619Y-89636904D01*
X140092857Y-89589285D01*
X140188095Y-89589285D01*
X140330952Y-89636904D01*
X140902380Y-90208333D01*
X140902380Y-89589285D01*
X140235714Y-88732142D02*
X140902380Y-88732142D01*
X139854761Y-88970238D02*
X140569047Y-89208333D01*
X140569047Y-88589285D01*
G04 #@! TO.C,C125*
X144432142Y-83094047D02*
X144479761Y-83141666D01*
X144527380Y-83284523D01*
X144527380Y-83379761D01*
X144479761Y-83522619D01*
X144384523Y-83617857D01*
X144289285Y-83665476D01*
X144098809Y-83713095D01*
X143955952Y-83713095D01*
X143765476Y-83665476D01*
X143670238Y-83617857D01*
X143575000Y-83522619D01*
X143527380Y-83379761D01*
X143527380Y-83284523D01*
X143575000Y-83141666D01*
X143622619Y-83094047D01*
X144527380Y-82141666D02*
X144527380Y-82713095D01*
X144527380Y-82427380D02*
X143527380Y-82427380D01*
X143670238Y-82522619D01*
X143765476Y-82617857D01*
X143813095Y-82713095D01*
X143622619Y-81760714D02*
X143575000Y-81713095D01*
X143527380Y-81617857D01*
X143527380Y-81379761D01*
X143575000Y-81284523D01*
X143622619Y-81236904D01*
X143717857Y-81189285D01*
X143813095Y-81189285D01*
X143955952Y-81236904D01*
X144527380Y-81808333D01*
X144527380Y-81189285D01*
X143527380Y-80284523D02*
X143527380Y-80760714D01*
X144003571Y-80808333D01*
X143955952Y-80760714D01*
X143908333Y-80665476D01*
X143908333Y-80427380D01*
X143955952Y-80332142D01*
X144003571Y-80284523D01*
X144098809Y-80236904D01*
X144336904Y-80236904D01*
X144432142Y-80284523D01*
X144479761Y-80332142D01*
X144527380Y-80427380D01*
X144527380Y-80665476D01*
X144479761Y-80760714D01*
X144432142Y-80808333D01*
G04 #@! TO.C,C126*
X135905952Y-99457142D02*
X135858333Y-99504761D01*
X135715476Y-99552380D01*
X135620238Y-99552380D01*
X135477380Y-99504761D01*
X135382142Y-99409523D01*
X135334523Y-99314285D01*
X135286904Y-99123809D01*
X135286904Y-98980952D01*
X135334523Y-98790476D01*
X135382142Y-98695238D01*
X135477380Y-98600000D01*
X135620238Y-98552380D01*
X135715476Y-98552380D01*
X135858333Y-98600000D01*
X135905952Y-98647619D01*
X136858333Y-99552380D02*
X136286904Y-99552380D01*
X136572619Y-99552380D02*
X136572619Y-98552380D01*
X136477380Y-98695238D01*
X136382142Y-98790476D01*
X136286904Y-98838095D01*
X137239285Y-98647619D02*
X137286904Y-98600000D01*
X137382142Y-98552380D01*
X137620238Y-98552380D01*
X137715476Y-98600000D01*
X137763095Y-98647619D01*
X137810714Y-98742857D01*
X137810714Y-98838095D01*
X137763095Y-98980952D01*
X137191666Y-99552380D01*
X137810714Y-99552380D01*
X138667857Y-98552380D02*
X138477380Y-98552380D01*
X138382142Y-98600000D01*
X138334523Y-98647619D01*
X138239285Y-98790476D01*
X138191666Y-98980952D01*
X138191666Y-99361904D01*
X138239285Y-99457142D01*
X138286904Y-99504761D01*
X138382142Y-99552380D01*
X138572619Y-99552380D01*
X138667857Y-99504761D01*
X138715476Y-99457142D01*
X138763095Y-99361904D01*
X138763095Y-99123809D01*
X138715476Y-99028571D01*
X138667857Y-98980952D01*
X138572619Y-98933333D01*
X138382142Y-98933333D01*
X138286904Y-98980952D01*
X138239285Y-99028571D01*
X138191666Y-99123809D01*
G04 #@! TO.C,C127*
X132100952Y-102027142D02*
X132053333Y-102074761D01*
X131910476Y-102122380D01*
X131815238Y-102122380D01*
X131672380Y-102074761D01*
X131577142Y-101979523D01*
X131529523Y-101884285D01*
X131481904Y-101693809D01*
X131481904Y-101550952D01*
X131529523Y-101360476D01*
X131577142Y-101265238D01*
X131672380Y-101170000D01*
X131815238Y-101122380D01*
X131910476Y-101122380D01*
X132053333Y-101170000D01*
X132100952Y-101217619D01*
X133053333Y-102122380D02*
X132481904Y-102122380D01*
X132767619Y-102122380D02*
X132767619Y-101122380D01*
X132672380Y-101265238D01*
X132577142Y-101360476D01*
X132481904Y-101408095D01*
X133434285Y-101217619D02*
X133481904Y-101170000D01*
X133577142Y-101122380D01*
X133815238Y-101122380D01*
X133910476Y-101170000D01*
X133958095Y-101217619D01*
X134005714Y-101312857D01*
X134005714Y-101408095D01*
X133958095Y-101550952D01*
X133386666Y-102122380D01*
X134005714Y-102122380D01*
X134339047Y-101122380D02*
X135005714Y-101122380D01*
X134577142Y-102122380D01*
G04 #@! TO.C,J106*
X143224285Y-68342380D02*
X143224285Y-69056666D01*
X143176666Y-69199523D01*
X143081428Y-69294761D01*
X142938571Y-69342380D01*
X142843333Y-69342380D01*
X144224285Y-69342380D02*
X143652857Y-69342380D01*
X143938571Y-69342380D02*
X143938571Y-68342380D01*
X143843333Y-68485238D01*
X143748095Y-68580476D01*
X143652857Y-68628095D01*
X144843333Y-68342380D02*
X144938571Y-68342380D01*
X145033809Y-68390000D01*
X145081428Y-68437619D01*
X145129047Y-68532857D01*
X145176666Y-68723333D01*
X145176666Y-68961428D01*
X145129047Y-69151904D01*
X145081428Y-69247142D01*
X145033809Y-69294761D01*
X144938571Y-69342380D01*
X144843333Y-69342380D01*
X144748095Y-69294761D01*
X144700476Y-69247142D01*
X144652857Y-69151904D01*
X144605238Y-68961428D01*
X144605238Y-68723333D01*
X144652857Y-68532857D01*
X144700476Y-68437619D01*
X144748095Y-68390000D01*
X144843333Y-68342380D01*
X146033809Y-68342380D02*
X145843333Y-68342380D01*
X145748095Y-68390000D01*
X145700476Y-68437619D01*
X145605238Y-68580476D01*
X145557619Y-68770952D01*
X145557619Y-69151904D01*
X145605238Y-69247142D01*
X145652857Y-69294761D01*
X145748095Y-69342380D01*
X145938571Y-69342380D01*
X146033809Y-69294761D01*
X146081428Y-69247142D01*
X146129047Y-69151904D01*
X146129047Y-68913809D01*
X146081428Y-68818571D01*
X146033809Y-68770952D01*
X145938571Y-68723333D01*
X145748095Y-68723333D01*
X145652857Y-68770952D01*
X145605238Y-68818571D01*
X145557619Y-68913809D01*
G04 #@! TO.C,R102*
X131952380Y-79769047D02*
X131476190Y-80102380D01*
X131952380Y-80340476D02*
X130952380Y-80340476D01*
X130952380Y-79959523D01*
X131000000Y-79864285D01*
X131047619Y-79816666D01*
X131142857Y-79769047D01*
X131285714Y-79769047D01*
X131380952Y-79816666D01*
X131428571Y-79864285D01*
X131476190Y-79959523D01*
X131476190Y-80340476D01*
X131952380Y-78816666D02*
X131952380Y-79388095D01*
X131952380Y-79102380D02*
X130952380Y-79102380D01*
X131095238Y-79197619D01*
X131190476Y-79292857D01*
X131238095Y-79388095D01*
X130952380Y-78197619D02*
X130952380Y-78102380D01*
X131000000Y-78007142D01*
X131047619Y-77959523D01*
X131142857Y-77911904D01*
X131333333Y-77864285D01*
X131571428Y-77864285D01*
X131761904Y-77911904D01*
X131857142Y-77959523D01*
X131904761Y-78007142D01*
X131952380Y-78102380D01*
X131952380Y-78197619D01*
X131904761Y-78292857D01*
X131857142Y-78340476D01*
X131761904Y-78388095D01*
X131571428Y-78435714D01*
X131333333Y-78435714D01*
X131142857Y-78388095D01*
X131047619Y-78340476D01*
X131000000Y-78292857D01*
X130952380Y-78197619D01*
X131047619Y-77483333D02*
X131000000Y-77435714D01*
X130952380Y-77340476D01*
X130952380Y-77102380D01*
X131000000Y-77007142D01*
X131047619Y-76959523D01*
X131142857Y-76911904D01*
X131238095Y-76911904D01*
X131380952Y-76959523D01*
X131952380Y-77530952D01*
X131952380Y-76911904D01*
G04 #@! TO.C,R104*
X132480952Y-106802380D02*
X132147619Y-106326190D01*
X131909523Y-106802380D02*
X131909523Y-105802380D01*
X132290476Y-105802380D01*
X132385714Y-105850000D01*
X132433333Y-105897619D01*
X132480952Y-105992857D01*
X132480952Y-106135714D01*
X132433333Y-106230952D01*
X132385714Y-106278571D01*
X132290476Y-106326190D01*
X131909523Y-106326190D01*
X133433333Y-106802380D02*
X132861904Y-106802380D01*
X133147619Y-106802380D02*
X133147619Y-105802380D01*
X133052380Y-105945238D01*
X132957142Y-106040476D01*
X132861904Y-106088095D01*
X134052380Y-105802380D02*
X134147619Y-105802380D01*
X134242857Y-105850000D01*
X134290476Y-105897619D01*
X134338095Y-105992857D01*
X134385714Y-106183333D01*
X134385714Y-106421428D01*
X134338095Y-106611904D01*
X134290476Y-106707142D01*
X134242857Y-106754761D01*
X134147619Y-106802380D01*
X134052380Y-106802380D01*
X133957142Y-106754761D01*
X133909523Y-106707142D01*
X133861904Y-106611904D01*
X133814285Y-106421428D01*
X133814285Y-106183333D01*
X133861904Y-105992857D01*
X133909523Y-105897619D01*
X133957142Y-105850000D01*
X134052380Y-105802380D01*
X135242857Y-106135714D02*
X135242857Y-106802380D01*
X135004761Y-105754761D02*
X134766666Y-106469047D01*
X135385714Y-106469047D01*
G04 #@! TO.C,R105*
X132002380Y-83644047D02*
X131526190Y-83977380D01*
X132002380Y-84215476D02*
X131002380Y-84215476D01*
X131002380Y-83834523D01*
X131050000Y-83739285D01*
X131097619Y-83691666D01*
X131192857Y-83644047D01*
X131335714Y-83644047D01*
X131430952Y-83691666D01*
X131478571Y-83739285D01*
X131526190Y-83834523D01*
X131526190Y-84215476D01*
X132002380Y-82691666D02*
X132002380Y-83263095D01*
X132002380Y-82977380D02*
X131002380Y-82977380D01*
X131145238Y-83072619D01*
X131240476Y-83167857D01*
X131288095Y-83263095D01*
X131002380Y-82072619D02*
X131002380Y-81977380D01*
X131050000Y-81882142D01*
X131097619Y-81834523D01*
X131192857Y-81786904D01*
X131383333Y-81739285D01*
X131621428Y-81739285D01*
X131811904Y-81786904D01*
X131907142Y-81834523D01*
X131954761Y-81882142D01*
X132002380Y-81977380D01*
X132002380Y-82072619D01*
X131954761Y-82167857D01*
X131907142Y-82215476D01*
X131811904Y-82263095D01*
X131621428Y-82310714D01*
X131383333Y-82310714D01*
X131192857Y-82263095D01*
X131097619Y-82215476D01*
X131050000Y-82167857D01*
X131002380Y-82072619D01*
X131002380Y-80834523D02*
X131002380Y-81310714D01*
X131478571Y-81358333D01*
X131430952Y-81310714D01*
X131383333Y-81215476D01*
X131383333Y-80977380D01*
X131430952Y-80882142D01*
X131478571Y-80834523D01*
X131573809Y-80786904D01*
X131811904Y-80786904D01*
X131907142Y-80834523D01*
X131954761Y-80882142D01*
X132002380Y-80977380D01*
X132002380Y-81215476D01*
X131954761Y-81310714D01*
X131907142Y-81358333D01*
G04 #@! TO.C,R106*
X120952380Y-92919047D02*
X120476190Y-93252380D01*
X120952380Y-93490476D02*
X119952380Y-93490476D01*
X119952380Y-93109523D01*
X120000000Y-93014285D01*
X120047619Y-92966666D01*
X120142857Y-92919047D01*
X120285714Y-92919047D01*
X120380952Y-92966666D01*
X120428571Y-93014285D01*
X120476190Y-93109523D01*
X120476190Y-93490476D01*
X120952380Y-91966666D02*
X120952380Y-92538095D01*
X120952380Y-92252380D02*
X119952380Y-92252380D01*
X120095238Y-92347619D01*
X120190476Y-92442857D01*
X120238095Y-92538095D01*
X119952380Y-91347619D02*
X119952380Y-91252380D01*
X120000000Y-91157142D01*
X120047619Y-91109523D01*
X120142857Y-91061904D01*
X120333333Y-91014285D01*
X120571428Y-91014285D01*
X120761904Y-91061904D01*
X120857142Y-91109523D01*
X120904761Y-91157142D01*
X120952380Y-91252380D01*
X120952380Y-91347619D01*
X120904761Y-91442857D01*
X120857142Y-91490476D01*
X120761904Y-91538095D01*
X120571428Y-91585714D01*
X120333333Y-91585714D01*
X120142857Y-91538095D01*
X120047619Y-91490476D01*
X120000000Y-91442857D01*
X119952380Y-91347619D01*
X119952380Y-90157142D02*
X119952380Y-90347619D01*
X120000000Y-90442857D01*
X120047619Y-90490476D01*
X120190476Y-90585714D01*
X120380952Y-90633333D01*
X120761904Y-90633333D01*
X120857142Y-90585714D01*
X120904761Y-90538095D01*
X120952380Y-90442857D01*
X120952380Y-90252380D01*
X120904761Y-90157142D01*
X120857142Y-90109523D01*
X120761904Y-90061904D01*
X120523809Y-90061904D01*
X120428571Y-90109523D01*
X120380952Y-90157142D01*
X120333333Y-90252380D01*
X120333333Y-90442857D01*
X120380952Y-90538095D01*
X120428571Y-90585714D01*
X120523809Y-90633333D01*
G04 #@! TO.C,R113*
X108030952Y-88452380D02*
X107697619Y-87976190D01*
X107459523Y-88452380D02*
X107459523Y-87452380D01*
X107840476Y-87452380D01*
X107935714Y-87500000D01*
X107983333Y-87547619D01*
X108030952Y-87642857D01*
X108030952Y-87785714D01*
X107983333Y-87880952D01*
X107935714Y-87928571D01*
X107840476Y-87976190D01*
X107459523Y-87976190D01*
X108983333Y-88452380D02*
X108411904Y-88452380D01*
X108697619Y-88452380D02*
X108697619Y-87452380D01*
X108602380Y-87595238D01*
X108507142Y-87690476D01*
X108411904Y-87738095D01*
X109935714Y-88452380D02*
X109364285Y-88452380D01*
X109650000Y-88452380D02*
X109650000Y-87452380D01*
X109554761Y-87595238D01*
X109459523Y-87690476D01*
X109364285Y-87738095D01*
X110269047Y-87452380D02*
X110888095Y-87452380D01*
X110554761Y-87833333D01*
X110697619Y-87833333D01*
X110792857Y-87880952D01*
X110840476Y-87928571D01*
X110888095Y-88023809D01*
X110888095Y-88261904D01*
X110840476Y-88357142D01*
X110792857Y-88404761D01*
X110697619Y-88452380D01*
X110411904Y-88452380D01*
X110316666Y-88404761D01*
X110269047Y-88357142D01*
G04 #@! TO.C,R114*
X112980952Y-88452380D02*
X112647619Y-87976190D01*
X112409523Y-88452380D02*
X112409523Y-87452380D01*
X112790476Y-87452380D01*
X112885714Y-87500000D01*
X112933333Y-87547619D01*
X112980952Y-87642857D01*
X112980952Y-87785714D01*
X112933333Y-87880952D01*
X112885714Y-87928571D01*
X112790476Y-87976190D01*
X112409523Y-87976190D01*
X113933333Y-88452380D02*
X113361904Y-88452380D01*
X113647619Y-88452380D02*
X113647619Y-87452380D01*
X113552380Y-87595238D01*
X113457142Y-87690476D01*
X113361904Y-87738095D01*
X114885714Y-88452380D02*
X114314285Y-88452380D01*
X114600000Y-88452380D02*
X114600000Y-87452380D01*
X114504761Y-87595238D01*
X114409523Y-87690476D01*
X114314285Y-87738095D01*
X115742857Y-87785714D02*
X115742857Y-88452380D01*
X115504761Y-87404761D02*
X115266666Y-88119047D01*
X115885714Y-88119047D01*
G04 #@! TO.C,R115*
X109102380Y-94394047D02*
X108626190Y-94727380D01*
X109102380Y-94965476D02*
X108102380Y-94965476D01*
X108102380Y-94584523D01*
X108150000Y-94489285D01*
X108197619Y-94441666D01*
X108292857Y-94394047D01*
X108435714Y-94394047D01*
X108530952Y-94441666D01*
X108578571Y-94489285D01*
X108626190Y-94584523D01*
X108626190Y-94965476D01*
X109102380Y-93441666D02*
X109102380Y-94013095D01*
X109102380Y-93727380D02*
X108102380Y-93727380D01*
X108245238Y-93822619D01*
X108340476Y-93917857D01*
X108388095Y-94013095D01*
X109102380Y-92489285D02*
X109102380Y-93060714D01*
X109102380Y-92775000D02*
X108102380Y-92775000D01*
X108245238Y-92870238D01*
X108340476Y-92965476D01*
X108388095Y-93060714D01*
X108102380Y-91584523D02*
X108102380Y-92060714D01*
X108578571Y-92108333D01*
X108530952Y-92060714D01*
X108483333Y-91965476D01*
X108483333Y-91727380D01*
X108530952Y-91632142D01*
X108578571Y-91584523D01*
X108673809Y-91536904D01*
X108911904Y-91536904D01*
X109007142Y-91584523D01*
X109054761Y-91632142D01*
X109102380Y-91727380D01*
X109102380Y-91965476D01*
X109054761Y-92060714D01*
X109007142Y-92108333D01*
G04 #@! TO.C,R117*
X147677380Y-94719047D02*
X147201190Y-95052380D01*
X147677380Y-95290476D02*
X146677380Y-95290476D01*
X146677380Y-94909523D01*
X146725000Y-94814285D01*
X146772619Y-94766666D01*
X146867857Y-94719047D01*
X147010714Y-94719047D01*
X147105952Y-94766666D01*
X147153571Y-94814285D01*
X147201190Y-94909523D01*
X147201190Y-95290476D01*
X147677380Y-93766666D02*
X147677380Y-94338095D01*
X147677380Y-94052380D02*
X146677380Y-94052380D01*
X146820238Y-94147619D01*
X146915476Y-94242857D01*
X146963095Y-94338095D01*
X147677380Y-92814285D02*
X147677380Y-93385714D01*
X147677380Y-93100000D02*
X146677380Y-93100000D01*
X146820238Y-93195238D01*
X146915476Y-93290476D01*
X146963095Y-93385714D01*
X146677380Y-92480952D02*
X146677380Y-91814285D01*
X147677380Y-92242857D01*
G04 #@! TO.C,R118*
X143102380Y-94919047D02*
X142626190Y-95252380D01*
X143102380Y-95490476D02*
X142102380Y-95490476D01*
X142102380Y-95109523D01*
X142150000Y-95014285D01*
X142197619Y-94966666D01*
X142292857Y-94919047D01*
X142435714Y-94919047D01*
X142530952Y-94966666D01*
X142578571Y-95014285D01*
X142626190Y-95109523D01*
X142626190Y-95490476D01*
X143102380Y-93966666D02*
X143102380Y-94538095D01*
X143102380Y-94252380D02*
X142102380Y-94252380D01*
X142245238Y-94347619D01*
X142340476Y-94442857D01*
X142388095Y-94538095D01*
X143102380Y-93014285D02*
X143102380Y-93585714D01*
X143102380Y-93300000D02*
X142102380Y-93300000D01*
X142245238Y-93395238D01*
X142340476Y-93490476D01*
X142388095Y-93585714D01*
X142530952Y-92442857D02*
X142483333Y-92538095D01*
X142435714Y-92585714D01*
X142340476Y-92633333D01*
X142292857Y-92633333D01*
X142197619Y-92585714D01*
X142150000Y-92538095D01*
X142102380Y-92442857D01*
X142102380Y-92252380D01*
X142150000Y-92157142D01*
X142197619Y-92109523D01*
X142292857Y-92061904D01*
X142340476Y-92061904D01*
X142435714Y-92109523D01*
X142483333Y-92157142D01*
X142530952Y-92252380D01*
X142530952Y-92442857D01*
X142578571Y-92538095D01*
X142626190Y-92585714D01*
X142721428Y-92633333D01*
X142911904Y-92633333D01*
X143007142Y-92585714D01*
X143054761Y-92538095D01*
X143102380Y-92442857D01*
X143102380Y-92252380D01*
X143054761Y-92157142D01*
X143007142Y-92109523D01*
X142911904Y-92061904D01*
X142721428Y-92061904D01*
X142626190Y-92109523D01*
X142578571Y-92157142D01*
X142530952Y-92252380D01*
G04 #@! TO.C,R119*
X135830952Y-88542380D02*
X135497619Y-88066190D01*
X135259523Y-88542380D02*
X135259523Y-87542380D01*
X135640476Y-87542380D01*
X135735714Y-87590000D01*
X135783333Y-87637619D01*
X135830952Y-87732857D01*
X135830952Y-87875714D01*
X135783333Y-87970952D01*
X135735714Y-88018571D01*
X135640476Y-88066190D01*
X135259523Y-88066190D01*
X136783333Y-88542380D02*
X136211904Y-88542380D01*
X136497619Y-88542380D02*
X136497619Y-87542380D01*
X136402380Y-87685238D01*
X136307142Y-87780476D01*
X136211904Y-87828095D01*
X137735714Y-88542380D02*
X137164285Y-88542380D01*
X137450000Y-88542380D02*
X137450000Y-87542380D01*
X137354761Y-87685238D01*
X137259523Y-87780476D01*
X137164285Y-87828095D01*
X138211904Y-88542380D02*
X138402380Y-88542380D01*
X138497619Y-88494761D01*
X138545238Y-88447142D01*
X138640476Y-88304285D01*
X138688095Y-88113809D01*
X138688095Y-87732857D01*
X138640476Y-87637619D01*
X138592857Y-87590000D01*
X138497619Y-87542380D01*
X138307142Y-87542380D01*
X138211904Y-87590000D01*
X138164285Y-87637619D01*
X138116666Y-87732857D01*
X138116666Y-87970952D01*
X138164285Y-88066190D01*
X138211904Y-88113809D01*
X138307142Y-88161428D01*
X138497619Y-88161428D01*
X138592857Y-88113809D01*
X138640476Y-88066190D01*
X138688095Y-87970952D01*
G04 #@! TO.C,R122*
X117810952Y-96262380D02*
X117477619Y-95786190D01*
X117239523Y-96262380D02*
X117239523Y-95262380D01*
X117620476Y-95262380D01*
X117715714Y-95310000D01*
X117763333Y-95357619D01*
X117810952Y-95452857D01*
X117810952Y-95595714D01*
X117763333Y-95690952D01*
X117715714Y-95738571D01*
X117620476Y-95786190D01*
X117239523Y-95786190D01*
X118763333Y-96262380D02*
X118191904Y-96262380D01*
X118477619Y-96262380D02*
X118477619Y-95262380D01*
X118382380Y-95405238D01*
X118287142Y-95500476D01*
X118191904Y-95548095D01*
X119144285Y-95357619D02*
X119191904Y-95310000D01*
X119287142Y-95262380D01*
X119525238Y-95262380D01*
X119620476Y-95310000D01*
X119668095Y-95357619D01*
X119715714Y-95452857D01*
X119715714Y-95548095D01*
X119668095Y-95690952D01*
X119096666Y-96262380D01*
X119715714Y-96262380D01*
X120096666Y-95357619D02*
X120144285Y-95310000D01*
X120239523Y-95262380D01*
X120477619Y-95262380D01*
X120572857Y-95310000D01*
X120620476Y-95357619D01*
X120668095Y-95452857D01*
X120668095Y-95548095D01*
X120620476Y-95690952D01*
X120049047Y-96262380D01*
X120668095Y-96262380D01*
G04 #@! TO.C,R123*
X118180952Y-102302380D02*
X117847619Y-101826190D01*
X117609523Y-102302380D02*
X117609523Y-101302380D01*
X117990476Y-101302380D01*
X118085714Y-101350000D01*
X118133333Y-101397619D01*
X118180952Y-101492857D01*
X118180952Y-101635714D01*
X118133333Y-101730952D01*
X118085714Y-101778571D01*
X117990476Y-101826190D01*
X117609523Y-101826190D01*
X119133333Y-102302380D02*
X118561904Y-102302380D01*
X118847619Y-102302380D02*
X118847619Y-101302380D01*
X118752380Y-101445238D01*
X118657142Y-101540476D01*
X118561904Y-101588095D01*
X119514285Y-101397619D02*
X119561904Y-101350000D01*
X119657142Y-101302380D01*
X119895238Y-101302380D01*
X119990476Y-101350000D01*
X120038095Y-101397619D01*
X120085714Y-101492857D01*
X120085714Y-101588095D01*
X120038095Y-101730952D01*
X119466666Y-102302380D01*
X120085714Y-102302380D01*
X120419047Y-101302380D02*
X121038095Y-101302380D01*
X120704761Y-101683333D01*
X120847619Y-101683333D01*
X120942857Y-101730952D01*
X120990476Y-101778571D01*
X121038095Y-101873809D01*
X121038095Y-102111904D01*
X120990476Y-102207142D01*
X120942857Y-102254761D01*
X120847619Y-102302380D01*
X120561904Y-102302380D01*
X120466666Y-102254761D01*
X120419047Y-102207142D01*
G04 #@! TO.C,R124*
X123390952Y-80202380D02*
X123057619Y-79726190D01*
X122819523Y-80202380D02*
X122819523Y-79202380D01*
X123200476Y-79202380D01*
X123295714Y-79250000D01*
X123343333Y-79297619D01*
X123390952Y-79392857D01*
X123390952Y-79535714D01*
X123343333Y-79630952D01*
X123295714Y-79678571D01*
X123200476Y-79726190D01*
X122819523Y-79726190D01*
X124343333Y-80202380D02*
X123771904Y-80202380D01*
X124057619Y-80202380D02*
X124057619Y-79202380D01*
X123962380Y-79345238D01*
X123867142Y-79440476D01*
X123771904Y-79488095D01*
X124724285Y-79297619D02*
X124771904Y-79250000D01*
X124867142Y-79202380D01*
X125105238Y-79202380D01*
X125200476Y-79250000D01*
X125248095Y-79297619D01*
X125295714Y-79392857D01*
X125295714Y-79488095D01*
X125248095Y-79630952D01*
X124676666Y-80202380D01*
X125295714Y-80202380D01*
X126152857Y-79535714D02*
X126152857Y-80202380D01*
X125914761Y-79154761D02*
X125676666Y-79869047D01*
X126295714Y-79869047D01*
G04 #@! TO.C,R125*
X120880952Y-105852380D02*
X120547619Y-105376190D01*
X120309523Y-105852380D02*
X120309523Y-104852380D01*
X120690476Y-104852380D01*
X120785714Y-104900000D01*
X120833333Y-104947619D01*
X120880952Y-105042857D01*
X120880952Y-105185714D01*
X120833333Y-105280952D01*
X120785714Y-105328571D01*
X120690476Y-105376190D01*
X120309523Y-105376190D01*
X121833333Y-105852380D02*
X121261904Y-105852380D01*
X121547619Y-105852380D02*
X121547619Y-104852380D01*
X121452380Y-104995238D01*
X121357142Y-105090476D01*
X121261904Y-105138095D01*
X122214285Y-104947619D02*
X122261904Y-104900000D01*
X122357142Y-104852380D01*
X122595238Y-104852380D01*
X122690476Y-104900000D01*
X122738095Y-104947619D01*
X122785714Y-105042857D01*
X122785714Y-105138095D01*
X122738095Y-105280952D01*
X122166666Y-105852380D01*
X122785714Y-105852380D01*
X123690476Y-104852380D02*
X123214285Y-104852380D01*
X123166666Y-105328571D01*
X123214285Y-105280952D01*
X123309523Y-105233333D01*
X123547619Y-105233333D01*
X123642857Y-105280952D01*
X123690476Y-105328571D01*
X123738095Y-105423809D01*
X123738095Y-105661904D01*
X123690476Y-105757142D01*
X123642857Y-105804761D01*
X123547619Y-105852380D01*
X123309523Y-105852380D01*
X123214285Y-105804761D01*
X123166666Y-105757142D01*
G04 #@! TO.C,R126*
X134830952Y-98252380D02*
X134497619Y-97776190D01*
X134259523Y-98252380D02*
X134259523Y-97252380D01*
X134640476Y-97252380D01*
X134735714Y-97300000D01*
X134783333Y-97347619D01*
X134830952Y-97442857D01*
X134830952Y-97585714D01*
X134783333Y-97680952D01*
X134735714Y-97728571D01*
X134640476Y-97776190D01*
X134259523Y-97776190D01*
X135783333Y-98252380D02*
X135211904Y-98252380D01*
X135497619Y-98252380D02*
X135497619Y-97252380D01*
X135402380Y-97395238D01*
X135307142Y-97490476D01*
X135211904Y-97538095D01*
X136164285Y-97347619D02*
X136211904Y-97300000D01*
X136307142Y-97252380D01*
X136545238Y-97252380D01*
X136640476Y-97300000D01*
X136688095Y-97347619D01*
X136735714Y-97442857D01*
X136735714Y-97538095D01*
X136688095Y-97680952D01*
X136116666Y-98252380D01*
X136735714Y-98252380D01*
X137592857Y-97252380D02*
X137402380Y-97252380D01*
X137307142Y-97300000D01*
X137259523Y-97347619D01*
X137164285Y-97490476D01*
X137116666Y-97680952D01*
X137116666Y-98061904D01*
X137164285Y-98157142D01*
X137211904Y-98204761D01*
X137307142Y-98252380D01*
X137497619Y-98252380D01*
X137592857Y-98204761D01*
X137640476Y-98157142D01*
X137688095Y-98061904D01*
X137688095Y-97823809D01*
X137640476Y-97728571D01*
X137592857Y-97680952D01*
X137497619Y-97633333D01*
X137307142Y-97633333D01*
X137211904Y-97680952D01*
X137164285Y-97728571D01*
X137116666Y-97823809D01*
G04 #@! TO.C,R127*
X146227380Y-94744047D02*
X145751190Y-95077380D01*
X146227380Y-95315476D02*
X145227380Y-95315476D01*
X145227380Y-94934523D01*
X145275000Y-94839285D01*
X145322619Y-94791666D01*
X145417857Y-94744047D01*
X145560714Y-94744047D01*
X145655952Y-94791666D01*
X145703571Y-94839285D01*
X145751190Y-94934523D01*
X145751190Y-95315476D01*
X146227380Y-93791666D02*
X146227380Y-94363095D01*
X146227380Y-94077380D02*
X145227380Y-94077380D01*
X145370238Y-94172619D01*
X145465476Y-94267857D01*
X145513095Y-94363095D01*
X145322619Y-93410714D02*
X145275000Y-93363095D01*
X145227380Y-93267857D01*
X145227380Y-93029761D01*
X145275000Y-92934523D01*
X145322619Y-92886904D01*
X145417857Y-92839285D01*
X145513095Y-92839285D01*
X145655952Y-92886904D01*
X146227380Y-93458333D01*
X146227380Y-92839285D01*
X145227380Y-92505952D02*
X145227380Y-91839285D01*
X146227380Y-92267857D01*
G04 #@! TO.C,TP102*
X134960714Y-85952380D02*
X135532142Y-85952380D01*
X135246428Y-86952380D02*
X135246428Y-85952380D01*
X135865476Y-86952380D02*
X135865476Y-85952380D01*
X136246428Y-85952380D01*
X136341666Y-86000000D01*
X136389285Y-86047619D01*
X136436904Y-86142857D01*
X136436904Y-86285714D01*
X136389285Y-86380952D01*
X136341666Y-86428571D01*
X136246428Y-86476190D01*
X135865476Y-86476190D01*
X137389285Y-86952380D02*
X136817857Y-86952380D01*
X137103571Y-86952380D02*
X137103571Y-85952380D01*
X137008333Y-86095238D01*
X136913095Y-86190476D01*
X136817857Y-86238095D01*
X138008333Y-85952380D02*
X138103571Y-85952380D01*
X138198809Y-86000000D01*
X138246428Y-86047619D01*
X138294047Y-86142857D01*
X138341666Y-86333333D01*
X138341666Y-86571428D01*
X138294047Y-86761904D01*
X138246428Y-86857142D01*
X138198809Y-86904761D01*
X138103571Y-86952380D01*
X138008333Y-86952380D01*
X137913095Y-86904761D01*
X137865476Y-86857142D01*
X137817857Y-86761904D01*
X137770238Y-86571428D01*
X137770238Y-86333333D01*
X137817857Y-86142857D01*
X137865476Y-86047619D01*
X137913095Y-86000000D01*
X138008333Y-85952380D01*
X138722619Y-86047619D02*
X138770238Y-86000000D01*
X138865476Y-85952380D01*
X139103571Y-85952380D01*
X139198809Y-86000000D01*
X139246428Y-86047619D01*
X139294047Y-86142857D01*
X139294047Y-86238095D01*
X139246428Y-86380952D01*
X138675000Y-86952380D01*
X139294047Y-86952380D01*
G04 #@! TO.C,TP110*
X129310714Y-90627380D02*
X129882142Y-90627380D01*
X129596428Y-91627380D02*
X129596428Y-90627380D01*
X130215476Y-91627380D02*
X130215476Y-90627380D01*
X130596428Y-90627380D01*
X130691666Y-90675000D01*
X130739285Y-90722619D01*
X130786904Y-90817857D01*
X130786904Y-90960714D01*
X130739285Y-91055952D01*
X130691666Y-91103571D01*
X130596428Y-91151190D01*
X130215476Y-91151190D01*
X131739285Y-91627380D02*
X131167857Y-91627380D01*
X131453571Y-91627380D02*
X131453571Y-90627380D01*
X131358333Y-90770238D01*
X131263095Y-90865476D01*
X131167857Y-90913095D01*
X132691666Y-91627380D02*
X132120238Y-91627380D01*
X132405952Y-91627380D02*
X132405952Y-90627380D01*
X132310714Y-90770238D01*
X132215476Y-90865476D01*
X132120238Y-90913095D01*
X133310714Y-90627380D02*
X133405952Y-90627380D01*
X133501190Y-90675000D01*
X133548809Y-90722619D01*
X133596428Y-90817857D01*
X133644047Y-91008333D01*
X133644047Y-91246428D01*
X133596428Y-91436904D01*
X133548809Y-91532142D01*
X133501190Y-91579761D01*
X133405952Y-91627380D01*
X133310714Y-91627380D01*
X133215476Y-91579761D01*
X133167857Y-91532142D01*
X133120238Y-91436904D01*
X133072619Y-91246428D01*
X133072619Y-91008333D01*
X133120238Y-90817857D01*
X133167857Y-90722619D01*
X133215476Y-90675000D01*
X133310714Y-90627380D01*
G04 #@! TO.C,TP111*
X111085714Y-102402380D02*
X111657142Y-102402380D01*
X111371428Y-103402380D02*
X111371428Y-102402380D01*
X111990476Y-103402380D02*
X111990476Y-102402380D01*
X112371428Y-102402380D01*
X112466666Y-102450000D01*
X112514285Y-102497619D01*
X112561904Y-102592857D01*
X112561904Y-102735714D01*
X112514285Y-102830952D01*
X112466666Y-102878571D01*
X112371428Y-102926190D01*
X111990476Y-102926190D01*
X113514285Y-103402380D02*
X112942857Y-103402380D01*
X113228571Y-103402380D02*
X113228571Y-102402380D01*
X113133333Y-102545238D01*
X113038095Y-102640476D01*
X112942857Y-102688095D01*
X114466666Y-103402380D02*
X113895238Y-103402380D01*
X114180952Y-103402380D02*
X114180952Y-102402380D01*
X114085714Y-102545238D01*
X113990476Y-102640476D01*
X113895238Y-102688095D01*
X115419047Y-103402380D02*
X114847619Y-103402380D01*
X115133333Y-103402380D02*
X115133333Y-102402380D01*
X115038095Y-102545238D01*
X114942857Y-102640476D01*
X114847619Y-102688095D01*
G04 #@! TO.C,TP112*
X138135714Y-99802380D02*
X138707142Y-99802380D01*
X138421428Y-100802380D02*
X138421428Y-99802380D01*
X139040476Y-100802380D02*
X139040476Y-99802380D01*
X139421428Y-99802380D01*
X139516666Y-99850000D01*
X139564285Y-99897619D01*
X139611904Y-99992857D01*
X139611904Y-100135714D01*
X139564285Y-100230952D01*
X139516666Y-100278571D01*
X139421428Y-100326190D01*
X139040476Y-100326190D01*
X140564285Y-100802380D02*
X139992857Y-100802380D01*
X140278571Y-100802380D02*
X140278571Y-99802380D01*
X140183333Y-99945238D01*
X140088095Y-100040476D01*
X139992857Y-100088095D01*
X141516666Y-100802380D02*
X140945238Y-100802380D01*
X141230952Y-100802380D02*
X141230952Y-99802380D01*
X141135714Y-99945238D01*
X141040476Y-100040476D01*
X140945238Y-100088095D01*
X141897619Y-99897619D02*
X141945238Y-99850000D01*
X142040476Y-99802380D01*
X142278571Y-99802380D01*
X142373809Y-99850000D01*
X142421428Y-99897619D01*
X142469047Y-99992857D01*
X142469047Y-100088095D01*
X142421428Y-100230952D01*
X141850000Y-100802380D01*
X142469047Y-100802380D01*
G04 #@! TO.C,U102*
X122927380Y-94264285D02*
X123736904Y-94264285D01*
X123832142Y-94216666D01*
X123879761Y-94169047D01*
X123927380Y-94073809D01*
X123927380Y-93883333D01*
X123879761Y-93788095D01*
X123832142Y-93740476D01*
X123736904Y-93692857D01*
X122927380Y-93692857D01*
X123927380Y-92692857D02*
X123927380Y-93264285D01*
X123927380Y-92978571D02*
X122927380Y-92978571D01*
X123070238Y-93073809D01*
X123165476Y-93169047D01*
X123213095Y-93264285D01*
X122927380Y-92073809D02*
X122927380Y-91978571D01*
X122975000Y-91883333D01*
X123022619Y-91835714D01*
X123117857Y-91788095D01*
X123308333Y-91740476D01*
X123546428Y-91740476D01*
X123736904Y-91788095D01*
X123832142Y-91835714D01*
X123879761Y-91883333D01*
X123927380Y-91978571D01*
X123927380Y-92073809D01*
X123879761Y-92169047D01*
X123832142Y-92216666D01*
X123736904Y-92264285D01*
X123546428Y-92311904D01*
X123308333Y-92311904D01*
X123117857Y-92264285D01*
X123022619Y-92216666D01*
X122975000Y-92169047D01*
X122927380Y-92073809D01*
X123022619Y-91359523D02*
X122975000Y-91311904D01*
X122927380Y-91216666D01*
X122927380Y-90978571D01*
X122975000Y-90883333D01*
X123022619Y-90835714D01*
X123117857Y-90788095D01*
X123213095Y-90788095D01*
X123355952Y-90835714D01*
X123927380Y-91407142D01*
X123927380Y-90788095D01*
G04 #@! TO.C,J103*
X99360027Y-62478302D02*
X99865103Y-62983378D01*
X99932447Y-63118065D01*
X99932447Y-63252752D01*
X99865103Y-63387439D01*
X99797760Y-63454782D01*
X100774241Y-62478302D02*
X100370180Y-62882363D01*
X100572210Y-62680332D02*
X99865103Y-61973225D01*
X99898775Y-62141584D01*
X99898775Y-62276271D01*
X99865103Y-62377286D01*
X100504867Y-61333462D02*
X100572210Y-61266119D01*
X100673225Y-61232447D01*
X100740569Y-61232447D01*
X100841584Y-61266119D01*
X101009943Y-61367134D01*
X101178302Y-61535493D01*
X101279317Y-61703851D01*
X101312989Y-61804867D01*
X101312989Y-61872210D01*
X101279317Y-61973225D01*
X101211973Y-62040569D01*
X101110958Y-62074241D01*
X101043615Y-62074241D01*
X100942599Y-62040569D01*
X100774241Y-61939554D01*
X100605882Y-61771195D01*
X100504867Y-61602836D01*
X100471195Y-61501821D01*
X100471195Y-61434477D01*
X100504867Y-61333462D01*
X100976271Y-60862058D02*
X101414004Y-60424325D01*
X101447676Y-60929401D01*
X101548691Y-60828386D01*
X101649706Y-60794714D01*
X101717050Y-60794714D01*
X101818065Y-60828386D01*
X101986424Y-60996745D01*
X102020095Y-61097760D01*
X102020095Y-61165103D01*
X101986424Y-61266119D01*
X101784393Y-61468149D01*
X101683378Y-61501821D01*
X101616034Y-61501821D01*
G04 #@! TO.C,C123*
X136482142Y-83744047D02*
X136529761Y-83791666D01*
X136577380Y-83934523D01*
X136577380Y-84029761D01*
X136529761Y-84172619D01*
X136434523Y-84267857D01*
X136339285Y-84315476D01*
X136148809Y-84363095D01*
X136005952Y-84363095D01*
X135815476Y-84315476D01*
X135720238Y-84267857D01*
X135625000Y-84172619D01*
X135577380Y-84029761D01*
X135577380Y-83934523D01*
X135625000Y-83791666D01*
X135672619Y-83744047D01*
X136577380Y-82791666D02*
X136577380Y-83363095D01*
X136577380Y-83077380D02*
X135577380Y-83077380D01*
X135720238Y-83172619D01*
X135815476Y-83267857D01*
X135863095Y-83363095D01*
X135672619Y-82410714D02*
X135625000Y-82363095D01*
X135577380Y-82267857D01*
X135577380Y-82029761D01*
X135625000Y-81934523D01*
X135672619Y-81886904D01*
X135767857Y-81839285D01*
X135863095Y-81839285D01*
X136005952Y-81886904D01*
X136577380Y-82458333D01*
X136577380Y-81839285D01*
X135577380Y-81505952D02*
X135577380Y-80886904D01*
X135958333Y-81220238D01*
X135958333Y-81077380D01*
X136005952Y-80982142D01*
X136053571Y-80934523D01*
X136148809Y-80886904D01*
X136386904Y-80886904D01*
X136482142Y-80934523D01*
X136529761Y-80982142D01*
X136577380Y-81077380D01*
X136577380Y-81363095D01*
X136529761Y-81458333D01*
X136482142Y-81505952D01*
G04 #@! TO.C,R120*
X123390952Y-78532380D02*
X123057619Y-78056190D01*
X122819523Y-78532380D02*
X122819523Y-77532380D01*
X123200476Y-77532380D01*
X123295714Y-77580000D01*
X123343333Y-77627619D01*
X123390952Y-77722857D01*
X123390952Y-77865714D01*
X123343333Y-77960952D01*
X123295714Y-78008571D01*
X123200476Y-78056190D01*
X122819523Y-78056190D01*
X124343333Y-78532380D02*
X123771904Y-78532380D01*
X124057619Y-78532380D02*
X124057619Y-77532380D01*
X123962380Y-77675238D01*
X123867142Y-77770476D01*
X123771904Y-77818095D01*
X124724285Y-77627619D02*
X124771904Y-77580000D01*
X124867142Y-77532380D01*
X125105238Y-77532380D01*
X125200476Y-77580000D01*
X125248095Y-77627619D01*
X125295714Y-77722857D01*
X125295714Y-77818095D01*
X125248095Y-77960952D01*
X124676666Y-78532380D01*
X125295714Y-78532380D01*
X125914761Y-77532380D02*
X126010000Y-77532380D01*
X126105238Y-77580000D01*
X126152857Y-77627619D01*
X126200476Y-77722857D01*
X126248095Y-77913333D01*
X126248095Y-78151428D01*
X126200476Y-78341904D01*
X126152857Y-78437142D01*
X126105238Y-78484761D01*
X126010000Y-78532380D01*
X125914761Y-78532380D01*
X125819523Y-78484761D01*
X125771904Y-78437142D01*
X125724285Y-78341904D01*
X125676666Y-78151428D01*
X125676666Y-77913333D01*
X125724285Y-77722857D01*
X125771904Y-77627619D01*
X125819523Y-77580000D01*
X125914761Y-77532380D01*
G04 #@! TO.C,R121*
X145812380Y-95359047D02*
X145336190Y-95692380D01*
X145812380Y-95930476D02*
X144812380Y-95930476D01*
X144812380Y-95549523D01*
X144860000Y-95454285D01*
X144907619Y-95406666D01*
X145002857Y-95359047D01*
X145145714Y-95359047D01*
X145240952Y-95406666D01*
X145288571Y-95454285D01*
X145336190Y-95549523D01*
X145336190Y-95930476D01*
X145812380Y-94406666D02*
X145812380Y-94978095D01*
X145812380Y-94692380D02*
X144812380Y-94692380D01*
X144955238Y-94787619D01*
X145050476Y-94882857D01*
X145098095Y-94978095D01*
X144907619Y-94025714D02*
X144860000Y-93978095D01*
X144812380Y-93882857D01*
X144812380Y-93644761D01*
X144860000Y-93549523D01*
X144907619Y-93501904D01*
X145002857Y-93454285D01*
X145098095Y-93454285D01*
X145240952Y-93501904D01*
X145812380Y-94073333D01*
X145812380Y-93454285D01*
X145812380Y-92501904D02*
X145812380Y-93073333D01*
X145812380Y-92787619D02*
X144812380Y-92787619D01*
X144955238Y-92882857D01*
X145050476Y-92978095D01*
X145098095Y-93073333D01*
G04 #@! TD*
M02*
