G04 #@! TF.GenerationSoftware,KiCad,Pcbnew,5.0.0*
G04 #@! TF.CreationDate,2018-08-03T22:44:58-04:00*
G04 #@! TF.ProjectId,capacitive,636170616369746976652E6B69636164,rev?*
G04 #@! TF.SameCoordinates,Original*
G04 #@! TF.FileFunction,Copper,L2,Bot,Signal*
G04 #@! TF.FilePolarity,Positive*
%FSLAX46Y46*%
G04 Gerber Fmt 4.6, Leading zero omitted, Abs format (unit mm)*
G04 Created by KiCad (PCBNEW 5.0.0) date Fri Aug  3 22:44:58 2018*
%MOMM*%
%LPD*%
G01*
G04 APERTURE LIST*
G04 #@! TA.AperFunction,ComponentPad*
%ADD10C,1.000000*%
G04 #@! TD*
G04 #@! TA.AperFunction,ComponentPad*
%ADD11R,1.700000X1.700000*%
G04 #@! TD*
G04 #@! TA.AperFunction,ComponentPad*
%ADD12O,1.700000X1.700000*%
G04 #@! TD*
G04 #@! TA.AperFunction,SMDPad,CuDef*
%ADD13R,0.360000X0.250000*%
G04 #@! TD*
G04 #@! TA.AperFunction,SMDPad,CuDef*
%ADD14R,5.000000X0.781250*%
G04 #@! TD*
G04 #@! TA.AperFunction,SMDPad,CuDef*
%ADD15R,5.000000X43.750000*%
G04 #@! TD*
G04 #@! TA.AperFunction,ComponentPad*
%ADD16C,4.175000*%
G04 #@! TD*
G04 #@! TA.AperFunction,ViaPad*
%ADD17C,0.685800*%
G04 #@! TD*
G04 #@! TA.AperFunction,Conductor*
%ADD18C,0.600000*%
G04 #@! TD*
G04 #@! TA.AperFunction,Conductor*
%ADD19C,1.200000*%
G04 #@! TD*
G04 #@! TA.AperFunction,Conductor*
%ADD20C,0.450000*%
G04 #@! TD*
G04 #@! TA.AperFunction,Conductor*
%ADD21C,0.300000*%
G04 #@! TD*
G04 #@! TA.AperFunction,Conductor*
%ADD22C,0.254000*%
G04 #@! TD*
G04 APERTURE END LIST*
D10*
G04 #@! TO.P,RV101,2*
G04 #@! TO.N,Net-(RV101-Pad2)*
X124540000Y-88080000D03*
G04 #@! TO.P,RV101,3*
G04 #@! TO.N,Net-(R101-Pad2)*
X127080000Y-85540000D03*
G04 #@! TO.P,RV101,1*
G04 #@! TO.N,Net-(R103-Pad1)*
X122000000Y-85540000D03*
G04 #@! TD*
D11*
G04 #@! TO.P,J102,1*
G04 #@! TO.N,+5V*
X125950000Y-60310000D03*
D12*
G04 #@! TO.P,J102,2*
G04 #@! TO.N,/UART_TX*
X123410000Y-60310000D03*
G04 #@! TO.P,J102,3*
G04 #@! TO.N,/UART_RX*
X120870000Y-60310000D03*
G04 #@! TO.P,J102,4*
G04 #@! TO.N,GND*
X118330000Y-60310000D03*
G04 #@! TD*
D13*
G04 #@! TO.P,D101,1*
G04 #@! TO.N,/UART_RX*
X120870000Y-62250000D03*
G04 #@! TO.P,D101,2*
G04 #@! TO.N,GND*
X120030000Y-62250000D03*
G04 #@! TD*
G04 #@! TO.P,D103,1*
G04 #@! TO.N,/UART_TX*
X123420000Y-62300000D03*
G04 #@! TO.P,D103,2*
G04 #@! TO.N,GND*
X122580000Y-62300000D03*
G04 #@! TD*
D14*
G04 #@! TO.P,J104,1*
G04 #@! TO.N,/PHASE0*
X92020000Y-123359375D03*
G04 #@! TO.P,J104,2*
G04 #@! TO.N,/PHASE1*
X97180000Y-122578125D03*
G04 #@! TO.P,J104,3*
G04 #@! TO.N,/PHASE2*
X92020000Y-121796875D03*
G04 #@! TO.P,J104,4*
G04 #@! TO.N,/PHASE3*
X97180000Y-121015625D03*
G04 #@! TO.P,J104,5*
G04 #@! TO.N,/PHASE4*
X92020000Y-120234375D03*
G04 #@! TO.P,J104,6*
G04 #@! TO.N,/PHASE5*
X97180000Y-119453125D03*
G04 #@! TO.P,J104,7*
G04 #@! TO.N,/PHASE6*
X92020000Y-118671875D03*
G04 #@! TO.P,J104,8*
G04 #@! TO.N,/PHASE7*
X97180000Y-117890625D03*
G04 #@! TO.P,J104,1*
G04 #@! TO.N,/PHASE0*
X92020000Y-117109375D03*
G04 #@! TO.P,J104,2*
G04 #@! TO.N,/PHASE1*
X97180000Y-116328125D03*
G04 #@! TO.P,J104,3*
G04 #@! TO.N,/PHASE2*
X92020000Y-115546875D03*
G04 #@! TO.P,J104,4*
G04 #@! TO.N,/PHASE3*
X97180000Y-114765625D03*
G04 #@! TO.P,J104,5*
G04 #@! TO.N,/PHASE4*
X92020000Y-113984375D03*
G04 #@! TO.P,J104,6*
G04 #@! TO.N,/PHASE5*
X97180000Y-113203125D03*
G04 #@! TO.P,J104,7*
G04 #@! TO.N,/PHASE6*
X92020000Y-112421875D03*
G04 #@! TO.P,J104,8*
G04 #@! TO.N,/PHASE7*
X97180000Y-111640625D03*
G04 #@! TO.P,J104,1*
G04 #@! TO.N,/PHASE0*
X92020000Y-110859375D03*
G04 #@! TO.P,J104,2*
G04 #@! TO.N,/PHASE1*
X97180000Y-110078125D03*
G04 #@! TO.P,J104,3*
G04 #@! TO.N,/PHASE2*
X92020000Y-109296875D03*
G04 #@! TO.P,J104,4*
G04 #@! TO.N,/PHASE3*
X97180000Y-108515625D03*
G04 #@! TO.P,J104,5*
G04 #@! TO.N,/PHASE4*
X92020000Y-107734375D03*
G04 #@! TO.P,J104,6*
G04 #@! TO.N,/PHASE5*
X97180000Y-106953125D03*
G04 #@! TO.P,J104,7*
G04 #@! TO.N,/PHASE6*
X92020000Y-106171875D03*
G04 #@! TO.P,J104,8*
G04 #@! TO.N,/PHASE7*
X97180000Y-105390625D03*
G04 #@! TO.P,J104,1*
G04 #@! TO.N,/PHASE0*
X92020000Y-104609375D03*
G04 #@! TO.P,J104,2*
G04 #@! TO.N,/PHASE1*
X97180000Y-103828125D03*
G04 #@! TO.P,J104,3*
G04 #@! TO.N,/PHASE2*
X92020000Y-103046875D03*
G04 #@! TO.P,J104,4*
G04 #@! TO.N,/PHASE3*
X97180000Y-102265625D03*
G04 #@! TO.P,J104,5*
G04 #@! TO.N,/PHASE4*
X92020000Y-101484375D03*
G04 #@! TO.P,J104,6*
G04 #@! TO.N,/PHASE5*
X97180000Y-100703125D03*
G04 #@! TO.P,J104,7*
G04 #@! TO.N,/PHASE6*
X92020000Y-99921875D03*
G04 #@! TO.P,J104,8*
G04 #@! TO.N,/PHASE7*
X97180000Y-99140625D03*
G04 #@! TO.P,J104,1*
G04 #@! TO.N,/PHASE0*
X92020000Y-98359375D03*
G04 #@! TO.P,J104,2*
G04 #@! TO.N,/PHASE1*
X97180000Y-97578125D03*
G04 #@! TO.P,J104,3*
G04 #@! TO.N,/PHASE2*
X92020000Y-96796875D03*
G04 #@! TO.P,J104,4*
G04 #@! TO.N,/PHASE3*
X97180000Y-96015625D03*
G04 #@! TO.P,J104,5*
G04 #@! TO.N,/PHASE4*
X92020000Y-95234375D03*
G04 #@! TO.P,J104,6*
G04 #@! TO.N,/PHASE5*
X97180000Y-94453125D03*
G04 #@! TO.P,J104,7*
G04 #@! TO.N,/PHASE6*
X92020000Y-93671875D03*
G04 #@! TO.P,J104,8*
G04 #@! TO.N,/PHASE7*
X97180000Y-92890625D03*
G04 #@! TO.P,J104,1*
G04 #@! TO.N,/PHASE0*
X92020000Y-92109375D03*
G04 #@! TO.P,J104,2*
G04 #@! TO.N,/PHASE1*
X97180000Y-91328125D03*
G04 #@! TO.P,J104,3*
G04 #@! TO.N,/PHASE2*
X92020000Y-90546875D03*
G04 #@! TO.P,J104,4*
G04 #@! TO.N,/PHASE3*
X97180000Y-89765625D03*
G04 #@! TO.P,J104,5*
G04 #@! TO.N,/PHASE4*
X92020000Y-88984375D03*
G04 #@! TO.P,J104,6*
G04 #@! TO.N,/PHASE5*
X97180000Y-88203125D03*
G04 #@! TO.P,J104,7*
G04 #@! TO.N,/PHASE6*
X92020000Y-87421875D03*
G04 #@! TO.P,J104,8*
G04 #@! TO.N,/PHASE7*
X97180000Y-86640625D03*
G04 #@! TD*
D15*
G04 #@! TO.P,J105,1*
G04 #@! TO.N,/RX_PAD*
X102820000Y-105000000D03*
G04 #@! TD*
D16*
G04 #@! TO.P,J101,1*
G04 #@! TO.N,GND*
X79485100Y-80000000D03*
G04 #@! TD*
G04 #@! TO.P,J107,1*
G04 #@! TO.N,GND*
X114902500Y-80000000D03*
G04 #@! TD*
G04 #@! TO.P,J108,1*
G04 #@! TO.N,GND*
X79485100Y-120000000D03*
G04 #@! TD*
G04 #@! TO.P,J109,1*
G04 #@! TO.N,GND*
X114902500Y-120000000D03*
G04 #@! TD*
D17*
G04 #@! TO.N,+3V3*
X101688523Y-78844284D03*
X74700000Y-68300000D03*
X103460000Y-74150000D03*
X103160000Y-76220000D03*
X92084783Y-82286663D03*
X92450000Y-66000000D03*
X101710000Y-63460000D03*
G04 #@! TO.N,GND*
X143100000Y-60500000D03*
X130075000Y-65125000D03*
X134200000Y-75750000D03*
X109325000Y-73725000D03*
X78850000Y-90150000D03*
X112000000Y-65050000D03*
X105250000Y-72600000D03*
X137250000Y-62700000D03*
X133100000Y-62350000D03*
X92651441Y-74215482D03*
X103396304Y-68206304D03*
X96450000Y-76900000D03*
X99130000Y-78150000D03*
X92770000Y-76270000D03*
X93710000Y-69520000D03*
X97480000Y-69690000D03*
X130310000Y-101500000D03*
X131050000Y-106370000D03*
X130730000Y-88210000D03*
X130470000Y-98430000D03*
X139200000Y-79740000D03*
X140280000Y-67280000D03*
X117610000Y-104600000D03*
X115000000Y-108450000D03*
G04 #@! TO.N,+3.3VA*
X128332401Y-84370000D03*
X133990000Y-77790000D03*
X126610000Y-98360000D03*
G04 #@! TO.N,+5V*
X113880000Y-59007599D03*
X109670000Y-63410000D03*
G04 #@! TO.N,/UART_TX*
X96066228Y-73469169D03*
G04 #@! TO.N,/UART_RX*
X95263209Y-73228838D03*
G04 #@! TO.N,/SWDIO*
X97191997Y-76394703D03*
X100000000Y-73920000D03*
G04 #@! TO.N,/PHASE0*
X90000000Y-92100000D03*
X90000000Y-98400000D03*
X90000000Y-104600000D03*
X90000000Y-110800000D03*
X90000000Y-117100000D03*
X90000000Y-123400000D03*
G04 #@! TO.N,/PHASE1*
X96000000Y-91300000D03*
X96000000Y-97550000D03*
X96000000Y-103800000D03*
X96000000Y-110050000D03*
X96000000Y-116300000D03*
X96000000Y-122600000D03*
G04 #@! TO.N,/PHASE2*
X91000000Y-90500000D03*
X91000000Y-96800000D03*
X91000000Y-103000000D03*
X91000000Y-109300000D03*
X91000000Y-115500000D03*
X91000000Y-121800000D03*
G04 #@! TO.N,/PHASE3*
X97000000Y-89750000D03*
X97000000Y-96000000D03*
X97000000Y-102250000D03*
X97000000Y-108500000D03*
X97000000Y-114800000D03*
X97000000Y-121000000D03*
G04 #@! TO.N,/PHASE4*
X92000000Y-89000000D03*
X92000000Y-95200000D03*
X92000000Y-101500000D03*
X92000000Y-107700000D03*
X92000000Y-114000000D03*
X92000000Y-120300000D03*
G04 #@! TO.N,/PHASE5*
X98047589Y-88250000D03*
X98047589Y-94450000D03*
X98047589Y-100700000D03*
X98047589Y-106950000D03*
X98047589Y-113200000D03*
X98047589Y-119500000D03*
G04 #@! TO.N,/PHASE6*
X93000000Y-87400000D03*
X93000000Y-93700000D03*
X93000000Y-99900000D03*
X93000000Y-106200000D03*
X93000000Y-112400000D03*
X93000000Y-118700000D03*
G04 #@! TO.N,/PHASE7*
X99000000Y-86600000D03*
X99000000Y-92900000D03*
X99000000Y-99100000D03*
X99000000Y-105350000D03*
X99000000Y-111650000D03*
X99000000Y-117900000D03*
G04 #@! TO.N,/RX_PAD*
X103050000Y-113000000D03*
X103050000Y-101000000D03*
X103050000Y-101000000D03*
X103050000Y-123950000D03*
X103050000Y-89650000D03*
G04 #@! TO.N,/+1V65*
X135650000Y-91820000D03*
X132084308Y-94693209D03*
X130830000Y-89720000D03*
X126060000Y-86460000D03*
X123400000Y-94770000D03*
G04 #@! TO.N,/A*
X124080391Y-103504690D03*
X130380000Y-83190000D03*
G04 #@! TO.N,Net-(C124-Pad2)*
X138190000Y-91810000D03*
X132480000Y-92430000D03*
G04 #@! TO.N,Net-(R118-Pad1)*
X132960000Y-95360000D03*
X119330000Y-105460000D03*
G04 #@! TD*
D18*
G04 #@! TO.N,+3V3*
X95321446Y-79050000D02*
X101482807Y-79050000D01*
X92084783Y-82286663D02*
X95321446Y-79050000D01*
X101482807Y-79050000D02*
X101688523Y-78844284D01*
X92450000Y-66000000D02*
X77000000Y-66000000D01*
X77000000Y-66000000D02*
X74700000Y-68300000D01*
X103160000Y-76220000D02*
X103160000Y-74450000D01*
X103160000Y-74450000D02*
X103460000Y-74150000D01*
X101710000Y-63460000D02*
X99170000Y-66000000D01*
X99170000Y-66000000D02*
X92450000Y-66000000D01*
G04 #@! TO.N,GND*
X143100000Y-60500000D02*
X140280000Y-63320000D01*
X140280000Y-63320000D02*
X140280000Y-67280000D01*
X130075000Y-65125000D02*
X130325000Y-65125000D01*
X130325000Y-65125000D02*
X133100000Y-62350000D01*
X134200000Y-75750000D02*
X138190000Y-79740000D01*
X138190000Y-79740000D02*
X139200000Y-79740000D01*
X107075000Y-74425000D02*
X112650000Y-80000000D01*
X105250000Y-72600000D02*
X107075000Y-74425000D01*
X107075000Y-74425000D02*
X108625000Y-74425000D01*
X108625000Y-74425000D02*
X109325000Y-73725000D01*
D19*
X139200000Y-79740000D02*
X129350000Y-89590000D01*
X129350000Y-89590000D02*
X128970000Y-89970000D01*
D20*
X130730000Y-88210000D02*
X129350000Y-89590000D01*
D18*
X115000000Y-110950000D02*
X115000000Y-119902500D01*
X115000000Y-119902500D02*
X114902500Y-120000000D01*
X78850000Y-90150000D02*
X79485100Y-89514900D01*
X79485100Y-89514900D02*
X79485100Y-80000000D01*
X112000000Y-65050000D02*
X106552608Y-65050000D01*
X106552608Y-65050000D02*
X103396304Y-68206304D01*
X118330000Y-60310000D02*
X116740000Y-60310000D01*
X116740000Y-60310000D02*
X112000000Y-65050000D01*
X112650000Y-80000000D02*
X114902500Y-80000000D01*
D21*
X122580000Y-62300000D02*
X122580000Y-61875000D01*
X122580000Y-61875000D02*
X122022401Y-61317401D01*
X122022401Y-61317401D02*
X122022401Y-59756847D01*
X122022401Y-59756847D02*
X121423153Y-59157599D01*
X121423153Y-59157599D02*
X119482401Y-59157599D01*
X119482401Y-59157599D02*
X119179999Y-59460001D01*
X119179999Y-59460001D02*
X118330000Y-60310000D01*
X120030000Y-62250000D02*
X120030000Y-62010000D01*
X120030000Y-62010000D02*
X118330000Y-60310000D01*
D18*
X133100000Y-62350000D02*
X136900000Y-62350000D01*
X136900000Y-62350000D02*
X137250000Y-62700000D01*
D21*
X92651441Y-74261441D02*
X92651441Y-74215482D01*
X92770000Y-74380000D02*
X92651441Y-74261441D01*
X92770000Y-76270000D02*
X92770000Y-74380000D01*
X99130000Y-78150000D02*
X97700000Y-78150000D01*
X96792899Y-77242899D02*
X96450000Y-76900000D01*
X97700000Y-78150000D02*
X96792899Y-77242899D01*
D18*
X98963696Y-68206304D02*
X102911371Y-68206304D01*
X97480000Y-69690000D02*
X98963696Y-68206304D01*
X102911371Y-68206304D02*
X103396304Y-68206304D01*
X97480000Y-69690000D02*
X93880000Y-69690000D01*
X93880000Y-69690000D02*
X93710000Y-69520000D01*
D19*
X119748147Y-104257101D02*
X117952899Y-104257101D01*
X120091046Y-104600000D02*
X119748147Y-104257101D01*
X130127101Y-99234586D02*
X124761687Y-104600000D01*
X117952899Y-104257101D02*
X117610000Y-104600000D01*
X130127101Y-98772899D02*
X130127101Y-99234586D01*
X130470000Y-98430000D02*
X130127101Y-98772899D01*
X124761687Y-104600000D02*
X120091046Y-104600000D01*
X117610000Y-104600000D02*
X117610000Y-108340000D01*
X128970000Y-89970000D02*
X128970000Y-96930000D01*
X128970000Y-96930000D02*
X130470000Y-98430000D01*
D18*
X115000000Y-108450000D02*
X115000000Y-108540000D01*
D19*
X117610000Y-108340000D02*
X116205000Y-109745000D01*
D18*
X115000000Y-108540000D02*
X116205000Y-109745000D01*
D19*
X116205000Y-109745000D02*
X115000000Y-110950000D01*
G04 #@! TO.N,+3.3VA*
X128332401Y-86141154D02*
X128332401Y-84370000D01*
X128332401Y-84370000D02*
X128332401Y-83447599D01*
X128332401Y-83447599D02*
X133647101Y-78132899D01*
X126610000Y-87863555D02*
X128332401Y-86141154D01*
X126610000Y-98360000D02*
X126610000Y-87863555D01*
X133647101Y-78132899D02*
X133990000Y-77790000D01*
D18*
G04 #@! TO.N,+5V*
X109670000Y-63410000D02*
X113880000Y-59200000D01*
X113880000Y-59200000D02*
X113880000Y-59007599D01*
D21*
G04 #@! TO.N,/UART_TX*
X97835397Y-71700000D02*
X96066228Y-73469169D01*
X112100000Y-71700000D02*
X97835397Y-71700000D01*
X120700000Y-63100000D02*
X112100000Y-71700000D01*
X123045000Y-63100000D02*
X120700000Y-63100000D01*
X123420000Y-62300000D02*
X123420000Y-62725000D01*
X123420000Y-62725000D02*
X123045000Y-63100000D01*
X123410000Y-60310000D02*
X123410000Y-62290000D01*
X123410000Y-62290000D02*
X123420000Y-62300000D01*
G04 #@! TO.N,/UART_RX*
X120815000Y-62250000D02*
X111965000Y-71100000D01*
X111965000Y-71100000D02*
X97392047Y-71100000D01*
X120870000Y-62250000D02*
X120815000Y-62250000D01*
X97392047Y-71100000D02*
X95606108Y-72885939D01*
X95606108Y-72885939D02*
X95263209Y-73228838D01*
X120870000Y-60310000D02*
X120870000Y-62250000D01*
G04 #@! TO.N,/SWDIO*
X97525297Y-76394703D02*
X97191997Y-76394703D01*
X100000000Y-73920000D02*
X97525297Y-76394703D01*
D20*
G04 #@! TO.N,/+1V65*
X130830000Y-91360000D02*
X130830000Y-93438901D01*
X130830000Y-89720000D02*
X130830000Y-91360000D01*
X130830000Y-91360000D02*
X135190000Y-91360000D01*
X135190000Y-91360000D02*
X135650000Y-91820000D01*
X131741409Y-94350310D02*
X132084308Y-94693209D01*
X130830000Y-93438901D02*
X131741409Y-94350310D01*
X125620000Y-92550000D02*
X125620000Y-86900000D01*
X125620000Y-86900000D02*
X126060000Y-86460000D01*
X123400000Y-94770000D02*
X125620000Y-92550000D01*
G04 #@! TO.N,/A*
X127860000Y-87995821D02*
X127860000Y-99725081D01*
X124423290Y-103161791D02*
X124080391Y-103504690D01*
X130380000Y-83190000D02*
X130380000Y-85475821D01*
X130380000Y-85475821D02*
X127860000Y-87995821D01*
X127860000Y-99725081D02*
X124423290Y-103161791D01*
D21*
G04 #@! TO.N,Net-(C124-Pad2)*
X133720000Y-93130000D02*
X136870000Y-93130000D01*
X136870000Y-93130000D02*
X138190000Y-91810000D01*
X133720000Y-93130000D02*
X133180000Y-93130000D01*
X133180000Y-93130000D02*
X132480000Y-92430000D01*
D20*
G04 #@! TO.N,Net-(R118-Pad1)*
X132960000Y-95360000D02*
X132960000Y-95844933D01*
X132960000Y-95844933D02*
X133230000Y-96114933D01*
X133230000Y-96114933D02*
X133230000Y-97513954D01*
X119330000Y-105460000D02*
X119672899Y-105802899D01*
X124941055Y-105802899D02*
X133230000Y-97513954D01*
X119672899Y-105802899D02*
X124941055Y-105802899D01*
G04 #@! TD*
D22*
G04 #@! TO.N,GND*
G36*
X142026919Y-56784487D02*
X143033349Y-57001166D01*
X143999209Y-57357491D01*
X144905226Y-57846352D01*
X145733322Y-58457992D01*
X146466977Y-59180213D01*
X147091551Y-59998601D01*
X147594580Y-60896825D01*
X147966033Y-61856972D01*
X148198493Y-62859870D01*
X148289254Y-63907815D01*
X148290000Y-64002776D01*
X148290001Y-119974882D01*
X148215513Y-121026919D01*
X147998834Y-122033349D01*
X147642509Y-122999209D01*
X147153648Y-123905227D01*
X146542005Y-124733325D01*
X145819787Y-125466978D01*
X145001399Y-126091551D01*
X144103178Y-126594579D01*
X143143028Y-126966033D01*
X142140130Y-127198493D01*
X141092186Y-127289254D01*
X140997224Y-127290000D01*
X106427000Y-127290000D01*
X106427000Y-121938183D01*
X113143923Y-121938183D01*
X113375358Y-122317996D01*
X114378663Y-122725961D01*
X115461718Y-122718923D01*
X116429642Y-122317996D01*
X116661077Y-121938183D01*
X114902500Y-120179605D01*
X113143923Y-121938183D01*
X106427000Y-121938183D01*
X106427000Y-119476163D01*
X112176539Y-119476163D01*
X112183577Y-120559218D01*
X112584504Y-121527142D01*
X112964317Y-121758577D01*
X114722895Y-120000000D01*
X115082105Y-120000000D01*
X116840683Y-121758577D01*
X117220496Y-121527142D01*
X117628461Y-120523837D01*
X117621423Y-119440782D01*
X117220496Y-118472858D01*
X116840683Y-118241423D01*
X115082105Y-120000000D01*
X114722895Y-120000000D01*
X112964317Y-118241423D01*
X112584504Y-118472858D01*
X112176539Y-119476163D01*
X106427000Y-119476163D01*
X106427000Y-118061817D01*
X113143923Y-118061817D01*
X114902500Y-119820395D01*
X116661077Y-118061817D01*
X116429642Y-117682004D01*
X115426337Y-117274039D01*
X114343282Y-117281077D01*
X113375358Y-117682004D01*
X113143923Y-118061817D01*
X106427000Y-118061817D01*
X106427000Y-105265484D01*
X118352100Y-105265484D01*
X118352100Y-105654516D01*
X118500977Y-106013936D01*
X118776064Y-106289023D01*
X119035096Y-106396318D01*
X119052874Y-106422924D01*
X119337344Y-106613001D01*
X119588198Y-106662899D01*
X119588202Y-106662899D01*
X119672898Y-106679746D01*
X119757594Y-106662899D01*
X124856359Y-106662899D01*
X124941055Y-106679746D01*
X125025751Y-106662899D01*
X125025756Y-106662899D01*
X125276610Y-106613001D01*
X125561080Y-106422924D01*
X125609060Y-106351117D01*
X133778221Y-98181957D01*
X133850025Y-98133979D01*
X134040102Y-97849509D01*
X134090000Y-97598655D01*
X134090000Y-97598651D01*
X134106847Y-97513955D01*
X134090000Y-97429259D01*
X134090000Y-96199634D01*
X134106848Y-96114933D01*
X134089760Y-96029023D01*
X134040102Y-95779378D01*
X133919514Y-95598905D01*
X133937900Y-95554516D01*
X133937900Y-95165484D01*
X133789023Y-94806064D01*
X133513936Y-94530977D01*
X133154516Y-94382100D01*
X133013913Y-94382100D01*
X132913331Y-94139273D01*
X132638244Y-93864186D01*
X132353609Y-93746286D01*
X131690000Y-93082678D01*
X131690000Y-93022959D01*
X131926064Y-93259023D01*
X132285484Y-93407900D01*
X132347742Y-93407900D01*
X132570253Y-93630410D01*
X132614047Y-93695953D01*
X132679589Y-93739747D01*
X132679591Y-93739749D01*
X132731534Y-93774456D01*
X132873708Y-93869454D01*
X133102684Y-93915000D01*
X133102688Y-93915000D01*
X133179999Y-93930378D01*
X133257310Y-93915000D01*
X136792688Y-93915000D01*
X136870000Y-93930378D01*
X136947312Y-93915000D01*
X136947316Y-93915000D01*
X137176292Y-93869454D01*
X137435953Y-93695953D01*
X137479749Y-93630408D01*
X138322258Y-92787900D01*
X138384516Y-92787900D01*
X138743936Y-92639023D01*
X139019023Y-92363936D01*
X139167900Y-92004516D01*
X139167900Y-91615484D01*
X139019023Y-91256064D01*
X138743936Y-90980977D01*
X138384516Y-90832100D01*
X137995484Y-90832100D01*
X137636064Y-90980977D01*
X137360977Y-91256064D01*
X137212100Y-91615484D01*
X137212100Y-91677742D01*
X136544843Y-92345000D01*
X136491009Y-92345000D01*
X136627900Y-92014516D01*
X136627900Y-91625484D01*
X136479023Y-91266064D01*
X136203936Y-90990977D01*
X135919299Y-90873076D01*
X135858005Y-90811782D01*
X135810025Y-90739975D01*
X135525555Y-90549898D01*
X135274701Y-90500000D01*
X135274696Y-90500000D01*
X135190000Y-90483153D01*
X135105304Y-90500000D01*
X131690000Y-90500000D01*
X131690000Y-90199151D01*
X131807900Y-89914516D01*
X131807900Y-89525484D01*
X131659023Y-89166064D01*
X131383936Y-88890977D01*
X131024516Y-88742100D01*
X130635484Y-88742100D01*
X130276064Y-88890977D01*
X130000977Y-89166064D01*
X129852100Y-89525484D01*
X129852100Y-89914516D01*
X129970000Y-90199152D01*
X129970001Y-91275295D01*
X129953152Y-91360000D01*
X129970000Y-91444701D01*
X129970001Y-93354201D01*
X129953153Y-93438901D01*
X130019899Y-93774456D01*
X130161996Y-93987120D01*
X130161998Y-93987122D01*
X130209976Y-94058926D01*
X130281780Y-94106904D01*
X131137385Y-94962510D01*
X131255285Y-95247145D01*
X131530372Y-95522232D01*
X131889792Y-95671109D01*
X132030395Y-95671109D01*
X132089396Y-95813550D01*
X132083153Y-95844933D01*
X132100000Y-95929629D01*
X132100000Y-95929634D01*
X132149898Y-96180488D01*
X132339976Y-96464958D01*
X132370000Y-96485020D01*
X132370001Y-97157729D01*
X124584832Y-104942899D01*
X120174281Y-104942899D01*
X120159023Y-104906064D01*
X119883936Y-104630977D01*
X119524516Y-104482100D01*
X119135484Y-104482100D01*
X118776064Y-104630977D01*
X118500977Y-104906064D01*
X118352100Y-105265484D01*
X106427000Y-105265484D01*
X106427000Y-94575484D01*
X122422100Y-94575484D01*
X122422100Y-94964516D01*
X122570977Y-95323936D01*
X122846064Y-95599023D01*
X123205484Y-95747900D01*
X123594516Y-95747900D01*
X123953936Y-95599023D01*
X124229023Y-95323936D01*
X124346924Y-95039300D01*
X125375000Y-94011223D01*
X125375000Y-98481635D01*
X125446656Y-98841872D01*
X125719615Y-99250385D01*
X126128127Y-99523344D01*
X126610000Y-99619195D01*
X126784341Y-99584516D01*
X123875071Y-102493787D01*
X123811092Y-102557766D01*
X123526455Y-102675667D01*
X123251368Y-102950754D01*
X123102491Y-103310174D01*
X123102491Y-103699206D01*
X123251368Y-104058626D01*
X123526455Y-104333713D01*
X123885875Y-104482590D01*
X124274907Y-104482590D01*
X124634327Y-104333713D01*
X124909414Y-104058626D01*
X125027315Y-103773989D01*
X125091294Y-103710010D01*
X128408221Y-100393084D01*
X128480025Y-100345106D01*
X128670102Y-100060636D01*
X128720000Y-99809782D01*
X128720000Y-99809777D01*
X128736847Y-99725081D01*
X128720000Y-99640385D01*
X128720000Y-88352044D01*
X130928221Y-86143824D01*
X131000025Y-86095846D01*
X131190102Y-85811376D01*
X131240000Y-85560522D01*
X131240000Y-85560518D01*
X131256847Y-85475822D01*
X131240000Y-85391126D01*
X131240000Y-83669151D01*
X131357900Y-83384516D01*
X131357900Y-82995484D01*
X131209023Y-82636064D01*
X131049756Y-82476797D01*
X134606387Y-78920167D01*
X134606389Y-78920164D01*
X134949286Y-78577267D01*
X135153343Y-78271873D01*
X135249194Y-77790001D01*
X135153343Y-77308128D01*
X134880385Y-76899615D01*
X134471872Y-76626657D01*
X133989999Y-76530806D01*
X133508127Y-76626657D01*
X133202733Y-76830714D01*
X132859836Y-77173611D01*
X132859833Y-77173613D01*
X127545133Y-82488314D01*
X127442017Y-82557214D01*
X127373117Y-82660330D01*
X127373115Y-82660332D01*
X127368532Y-82667191D01*
X127169057Y-82965726D01*
X127097401Y-83325963D01*
X127097401Y-83325967D01*
X127073207Y-83447599D01*
X127097401Y-83569231D01*
X127097401Y-84405000D01*
X126854234Y-84405000D01*
X126437074Y-84577793D01*
X126117793Y-84897074D01*
X125945000Y-85314234D01*
X125945000Y-85482100D01*
X125865484Y-85482100D01*
X125506064Y-85630977D01*
X125230977Y-85906064D01*
X125113076Y-86190701D01*
X125071780Y-86231997D01*
X124999976Y-86279975D01*
X124951998Y-86351779D01*
X124951996Y-86351781D01*
X124809899Y-86564445D01*
X124743153Y-86900000D01*
X124752104Y-86945000D01*
X124314234Y-86945000D01*
X123897074Y-87117793D01*
X123577793Y-87437074D01*
X123405000Y-87854234D01*
X123405000Y-88305766D01*
X123577793Y-88722926D01*
X123897074Y-89042207D01*
X124314234Y-89215000D01*
X124760001Y-89215000D01*
X124760000Y-92193776D01*
X123130700Y-93823076D01*
X122846064Y-93940977D01*
X122570977Y-94216064D01*
X122422100Y-94575484D01*
X106427000Y-94575484D01*
X106427000Y-85314234D01*
X120865000Y-85314234D01*
X120865000Y-85765766D01*
X121037793Y-86182926D01*
X121357074Y-86502207D01*
X121774234Y-86675000D01*
X122225766Y-86675000D01*
X122642926Y-86502207D01*
X122962207Y-86182926D01*
X123135000Y-85765766D01*
X123135000Y-85314234D01*
X122962207Y-84897074D01*
X122642926Y-84577793D01*
X122225766Y-84405000D01*
X121774234Y-84405000D01*
X121357074Y-84577793D01*
X121037793Y-84897074D01*
X120865000Y-85314234D01*
X106427000Y-85314234D01*
X106427000Y-82100000D01*
X106417333Y-82051399D01*
X106389803Y-82010197D01*
X106348601Y-81982667D01*
X106300000Y-81973000D01*
X99300000Y-81973000D01*
X99251399Y-81982667D01*
X99210197Y-82010197D01*
X99182667Y-82051399D01*
X99173000Y-82100000D01*
X99173000Y-85073000D01*
X93700000Y-85073000D01*
X93651399Y-85082667D01*
X93610197Y-85110197D01*
X93582667Y-85151399D01*
X93573000Y-85200000D01*
X93573000Y-85873000D01*
X88500000Y-85873000D01*
X88451399Y-85882667D01*
X88410197Y-85910197D01*
X88382667Y-85951399D01*
X88373000Y-86000000D01*
X88373000Y-127290000D01*
X79025104Y-127290000D01*
X77973081Y-127215513D01*
X76966651Y-126998834D01*
X76000791Y-126642509D01*
X75094773Y-126153648D01*
X74266675Y-125542005D01*
X73533022Y-124819787D01*
X72908449Y-124001399D01*
X72405421Y-123103178D01*
X72033967Y-122143028D01*
X71986487Y-121938183D01*
X77726523Y-121938183D01*
X77957958Y-122317996D01*
X78961263Y-122725961D01*
X80044318Y-122718923D01*
X81012242Y-122317996D01*
X81243677Y-121938183D01*
X79485100Y-120179605D01*
X77726523Y-121938183D01*
X71986487Y-121938183D01*
X71801507Y-121140130D01*
X71710746Y-120092186D01*
X71710000Y-119997224D01*
X71710000Y-119476163D01*
X76759139Y-119476163D01*
X76766177Y-120559218D01*
X77167104Y-121527142D01*
X77546917Y-121758577D01*
X79305495Y-120000000D01*
X79664705Y-120000000D01*
X81423283Y-121758577D01*
X81803096Y-121527142D01*
X82211061Y-120523837D01*
X82204023Y-119440782D01*
X81803096Y-118472858D01*
X81423283Y-118241423D01*
X79664705Y-120000000D01*
X79305495Y-120000000D01*
X77546917Y-118241423D01*
X77167104Y-118472858D01*
X76759139Y-119476163D01*
X71710000Y-119476163D01*
X71710000Y-118061817D01*
X77726523Y-118061817D01*
X79485100Y-119820395D01*
X81243677Y-118061817D01*
X81012242Y-117682004D01*
X80008937Y-117274039D01*
X78925882Y-117281077D01*
X77957958Y-117682004D01*
X77726523Y-118061817D01*
X71710000Y-118061817D01*
X71710000Y-81938183D01*
X77726523Y-81938183D01*
X77957958Y-82317996D01*
X78961263Y-82725961D01*
X80044318Y-82718923D01*
X81012242Y-82317996D01*
X81149860Y-82092147D01*
X91106883Y-82092147D01*
X91106883Y-82481179D01*
X91255760Y-82840599D01*
X91530847Y-83115686D01*
X91890267Y-83264563D01*
X92279299Y-83264563D01*
X92638719Y-83115686D01*
X92913806Y-82840599D01*
X92956706Y-82737029D01*
X93755552Y-81938183D01*
X113143923Y-81938183D01*
X113375358Y-82317996D01*
X114378663Y-82725961D01*
X115461718Y-82718923D01*
X116429642Y-82317996D01*
X116661077Y-81938183D01*
X114902500Y-80179605D01*
X113143923Y-81938183D01*
X93755552Y-81938183D01*
X95708736Y-79985000D01*
X101390721Y-79985000D01*
X101482807Y-80003317D01*
X101574893Y-79985000D01*
X101847626Y-79930750D01*
X102156904Y-79724097D01*
X102171087Y-79702870D01*
X102242459Y-79673307D01*
X102439603Y-79476163D01*
X112176539Y-79476163D01*
X112183577Y-80559218D01*
X112584504Y-81527142D01*
X112964317Y-81758577D01*
X114722895Y-80000000D01*
X115082105Y-80000000D01*
X116840683Y-81758577D01*
X117220496Y-81527142D01*
X117628461Y-80523837D01*
X117621423Y-79440782D01*
X117220496Y-78472858D01*
X116840683Y-78241423D01*
X115082105Y-80000000D01*
X114722895Y-80000000D01*
X112964317Y-78241423D01*
X112584504Y-78472858D01*
X112176539Y-79476163D01*
X102439603Y-79476163D01*
X102517546Y-79398220D01*
X102666423Y-79038800D01*
X102666423Y-78649768D01*
X102517546Y-78290348D01*
X102289015Y-78061817D01*
X113143923Y-78061817D01*
X114902500Y-79820395D01*
X116661077Y-78061817D01*
X116429642Y-77682004D01*
X115426337Y-77274039D01*
X114343282Y-77281077D01*
X113375358Y-77682004D01*
X113143923Y-78061817D01*
X102289015Y-78061817D01*
X102242459Y-78015261D01*
X101883039Y-77866384D01*
X101494007Y-77866384D01*
X101134587Y-78015261D01*
X101034848Y-78115000D01*
X95413532Y-78115000D01*
X95321446Y-78096683D01*
X95229360Y-78115000D01*
X94956627Y-78169250D01*
X94647349Y-78375903D01*
X94595187Y-78453969D01*
X91634417Y-81414740D01*
X91530847Y-81457640D01*
X91255760Y-81732727D01*
X91106883Y-82092147D01*
X81149860Y-82092147D01*
X81243677Y-81938183D01*
X79485100Y-80179605D01*
X77726523Y-81938183D01*
X71710000Y-81938183D01*
X71710000Y-79476163D01*
X76759139Y-79476163D01*
X76766177Y-80559218D01*
X77167104Y-81527142D01*
X77546917Y-81758577D01*
X79305495Y-80000000D01*
X79664705Y-80000000D01*
X81423283Y-81758577D01*
X81803096Y-81527142D01*
X82211061Y-80523837D01*
X82204023Y-79440782D01*
X81803096Y-78472858D01*
X81423283Y-78241423D01*
X79664705Y-80000000D01*
X79305495Y-80000000D01*
X77546917Y-78241423D01*
X77167104Y-78472858D01*
X76759139Y-79476163D01*
X71710000Y-79476163D01*
X71710000Y-78061817D01*
X77726523Y-78061817D01*
X79485100Y-79820395D01*
X81243677Y-78061817D01*
X81012242Y-77682004D01*
X80008937Y-77274039D01*
X78925882Y-77281077D01*
X77957958Y-77682004D01*
X77726523Y-78061817D01*
X71710000Y-78061817D01*
X71710000Y-76200187D01*
X96214097Y-76200187D01*
X96214097Y-76589219D01*
X96362974Y-76948639D01*
X96638061Y-77223726D01*
X96997481Y-77372603D01*
X97386513Y-77372603D01*
X97745933Y-77223726D01*
X97843382Y-77126277D01*
X98091250Y-76960656D01*
X98135046Y-76895111D01*
X99004673Y-76025484D01*
X102182100Y-76025484D01*
X102182100Y-76414516D01*
X102330977Y-76773936D01*
X102606064Y-77049023D01*
X102965484Y-77197900D01*
X103354516Y-77197900D01*
X103713936Y-77049023D01*
X103989023Y-76773936D01*
X104137900Y-76414516D01*
X104137900Y-76025484D01*
X104095000Y-75921914D01*
X104095000Y-74897959D01*
X104289023Y-74703936D01*
X104437900Y-74344516D01*
X104437900Y-73955484D01*
X104289023Y-73596064D01*
X104013936Y-73320977D01*
X103654516Y-73172100D01*
X103265484Y-73172100D01*
X102906064Y-73320977D01*
X102630977Y-73596064D01*
X102588077Y-73699634D01*
X102563970Y-73723741D01*
X102485904Y-73775903D01*
X102433742Y-73853969D01*
X102433741Y-73853970D01*
X102279250Y-74085182D01*
X102206683Y-74450000D01*
X102225001Y-74542090D01*
X102225000Y-75921914D01*
X102182100Y-76025484D01*
X99004673Y-76025484D01*
X100132257Y-74897900D01*
X100194516Y-74897900D01*
X100553936Y-74749023D01*
X100829023Y-74473936D01*
X100977900Y-74114516D01*
X100977900Y-73725484D01*
X100829023Y-73366064D01*
X100553936Y-73090977D01*
X100194516Y-72942100D01*
X99805484Y-72942100D01*
X99446064Y-73090977D01*
X99170977Y-73366064D01*
X99022100Y-73725484D01*
X99022100Y-73787743D01*
X97391128Y-75418715D01*
X97386513Y-75416803D01*
X96997481Y-75416803D01*
X96638061Y-75565680D01*
X96362974Y-75840767D01*
X96214097Y-76200187D01*
X71710000Y-76200187D01*
X71710000Y-73034322D01*
X94285309Y-73034322D01*
X94285309Y-73423354D01*
X94434186Y-73782774D01*
X94709273Y-74057861D01*
X95068693Y-74206738D01*
X95420838Y-74206738D01*
X95512292Y-74298192D01*
X95871712Y-74447069D01*
X96260744Y-74447069D01*
X96620164Y-74298192D01*
X96895251Y-74023105D01*
X97044128Y-73663685D01*
X97044128Y-73601426D01*
X98160555Y-72485000D01*
X112022688Y-72485000D01*
X112100000Y-72500378D01*
X112177312Y-72485000D01*
X112177316Y-72485000D01*
X112406292Y-72439454D01*
X112665953Y-72265953D01*
X112709749Y-72200408D01*
X121025157Y-63885000D01*
X122967688Y-63885000D01*
X123045000Y-63900378D01*
X123122312Y-63885000D01*
X123122316Y-63885000D01*
X123351292Y-63839454D01*
X123610953Y-63665953D01*
X123654749Y-63600408D01*
X123920408Y-63334749D01*
X123985953Y-63290953D01*
X124159454Y-63031292D01*
X124205000Y-62802315D01*
X124205000Y-62802313D01*
X124220378Y-62725001D01*
X124205000Y-62647689D01*
X124205000Y-62638363D01*
X124247440Y-62425000D01*
X124247440Y-62175000D01*
X124198157Y-61927235D01*
X124195000Y-61922510D01*
X124195000Y-61571474D01*
X124480625Y-61380625D01*
X124492816Y-61362381D01*
X124501843Y-61407765D01*
X124642191Y-61617809D01*
X124852235Y-61758157D01*
X125100000Y-61807440D01*
X126800000Y-61807440D01*
X127047765Y-61758157D01*
X127257809Y-61617809D01*
X127398157Y-61407765D01*
X127447440Y-61160000D01*
X127447440Y-59460000D01*
X127398157Y-59212235D01*
X127257809Y-59002191D01*
X127047765Y-58861843D01*
X126800000Y-58812560D01*
X125100000Y-58812560D01*
X124852235Y-58861843D01*
X124642191Y-59002191D01*
X124501843Y-59212235D01*
X124492816Y-59257619D01*
X124480625Y-59239375D01*
X123989418Y-58911161D01*
X123556256Y-58825000D01*
X123263744Y-58825000D01*
X122830582Y-58911161D01*
X122339375Y-59239375D01*
X122140000Y-59537761D01*
X121940625Y-59239375D01*
X121449418Y-58911161D01*
X121016256Y-58825000D01*
X120723744Y-58825000D01*
X120290582Y-58911161D01*
X119799375Y-59239375D01*
X119586157Y-59558478D01*
X119525183Y-59428642D01*
X119096924Y-59038355D01*
X118686890Y-58868524D01*
X118457000Y-58989845D01*
X118457000Y-60183000D01*
X118477000Y-60183000D01*
X118477000Y-60437000D01*
X118457000Y-60437000D01*
X118457000Y-61630155D01*
X118686890Y-61751476D01*
X119096924Y-61581645D01*
X119525183Y-61191358D01*
X119586157Y-61061522D01*
X119799375Y-61380625D01*
X119963066Y-61490000D01*
X119902998Y-61490000D01*
X119902998Y-61611748D01*
X119781250Y-61490000D01*
X119723691Y-61490000D01*
X119490302Y-61586673D01*
X119311673Y-61765301D01*
X119215000Y-61998690D01*
X119215000Y-62028750D01*
X119373750Y-62187500D01*
X119767342Y-62187500D01*
X119642342Y-62312500D01*
X119373750Y-62312500D01*
X119215000Y-62471250D01*
X119215000Y-62501310D01*
X119284864Y-62669978D01*
X111639843Y-70315000D01*
X97469357Y-70315000D01*
X97392046Y-70299622D01*
X97314735Y-70315000D01*
X97314731Y-70315000D01*
X97085755Y-70360546D01*
X96966672Y-70440115D01*
X96891638Y-70490251D01*
X96891636Y-70490253D01*
X96826094Y-70534047D01*
X96782300Y-70599589D01*
X95130952Y-72250938D01*
X95068693Y-72250938D01*
X94709273Y-72399815D01*
X94434186Y-72674902D01*
X94285309Y-73034322D01*
X71710000Y-73034322D01*
X71710000Y-68105484D01*
X73722100Y-68105484D01*
X73722100Y-68494516D01*
X73870977Y-68853936D01*
X74146064Y-69129023D01*
X74505484Y-69277900D01*
X74894516Y-69277900D01*
X75253936Y-69129023D01*
X75529023Y-68853936D01*
X75571923Y-68750366D01*
X77387290Y-66935000D01*
X92151914Y-66935000D01*
X92255484Y-66977900D01*
X92644516Y-66977900D01*
X92748086Y-66935000D01*
X99077914Y-66935000D01*
X99170000Y-66953317D01*
X99262086Y-66935000D01*
X99534819Y-66880750D01*
X99844097Y-66674097D01*
X99896261Y-66596028D01*
X102160367Y-64331923D01*
X102263936Y-64289023D01*
X102539023Y-64013936D01*
X102687900Y-63654516D01*
X102687900Y-63265484D01*
X102667190Y-63215484D01*
X108692100Y-63215484D01*
X108692100Y-63604516D01*
X108840977Y-63963936D01*
X109116064Y-64239023D01*
X109475484Y-64387900D01*
X109864516Y-64387900D01*
X110223936Y-64239023D01*
X110499023Y-63963936D01*
X110541923Y-63860366D01*
X113735397Y-60666892D01*
X116888514Y-60666892D01*
X117134817Y-61191358D01*
X117563076Y-61581645D01*
X117973110Y-61751476D01*
X118203000Y-61630155D01*
X118203000Y-60437000D01*
X117009181Y-60437000D01*
X116888514Y-60666892D01*
X113735397Y-60666892D01*
X114449181Y-59953108D01*
X116888514Y-59953108D01*
X117009181Y-60183000D01*
X118203000Y-60183000D01*
X118203000Y-58989845D01*
X117973110Y-58868524D01*
X117563076Y-59038355D01*
X117134817Y-59428642D01*
X116888514Y-59953108D01*
X114449181Y-59953108D01*
X114476031Y-59926259D01*
X114554097Y-59874097D01*
X114760750Y-59564819D01*
X114792818Y-59403601D01*
X114809796Y-59318247D01*
X114857900Y-59202115D01*
X114857900Y-58813083D01*
X114709023Y-58453663D01*
X114433936Y-58178576D01*
X114074516Y-58029699D01*
X113685484Y-58029699D01*
X113326064Y-58178576D01*
X113050977Y-58453663D01*
X112902100Y-58813083D01*
X112902100Y-58855610D01*
X109219634Y-62538077D01*
X109116064Y-62580977D01*
X108840977Y-62856064D01*
X108692100Y-63215484D01*
X102667190Y-63215484D01*
X102539023Y-62906064D01*
X102263936Y-62630977D01*
X101904516Y-62482100D01*
X101515484Y-62482100D01*
X101156064Y-62630977D01*
X100880977Y-62906064D01*
X100838077Y-63009633D01*
X98782711Y-65065000D01*
X92748086Y-65065000D01*
X92644516Y-65022100D01*
X92255484Y-65022100D01*
X92151914Y-65065000D01*
X77092081Y-65065000D01*
X76999999Y-65046684D01*
X76907917Y-65065000D01*
X76907914Y-65065000D01*
X76635181Y-65119250D01*
X76325903Y-65325903D01*
X76273741Y-65403969D01*
X74249634Y-67428077D01*
X74146064Y-67470977D01*
X73870977Y-67746064D01*
X73722100Y-68105484D01*
X71710000Y-68105484D01*
X71710000Y-64025104D01*
X71784487Y-62973081D01*
X72001166Y-61966651D01*
X72357491Y-61000791D01*
X72846352Y-60094774D01*
X73457992Y-59266678D01*
X74180213Y-58533023D01*
X74998601Y-57908449D01*
X75896825Y-57405420D01*
X76856972Y-57033967D01*
X77859870Y-56801507D01*
X78907815Y-56710746D01*
X79002776Y-56710000D01*
X140974896Y-56710000D01*
X142026919Y-56784487D01*
X142026919Y-56784487D01*
G37*
X142026919Y-56784487D02*
X143033349Y-57001166D01*
X143999209Y-57357491D01*
X144905226Y-57846352D01*
X145733322Y-58457992D01*
X146466977Y-59180213D01*
X147091551Y-59998601D01*
X147594580Y-60896825D01*
X147966033Y-61856972D01*
X148198493Y-62859870D01*
X148289254Y-63907815D01*
X148290000Y-64002776D01*
X148290001Y-119974882D01*
X148215513Y-121026919D01*
X147998834Y-122033349D01*
X147642509Y-122999209D01*
X147153648Y-123905227D01*
X146542005Y-124733325D01*
X145819787Y-125466978D01*
X145001399Y-126091551D01*
X144103178Y-126594579D01*
X143143028Y-126966033D01*
X142140130Y-127198493D01*
X141092186Y-127289254D01*
X140997224Y-127290000D01*
X106427000Y-127290000D01*
X106427000Y-121938183D01*
X113143923Y-121938183D01*
X113375358Y-122317996D01*
X114378663Y-122725961D01*
X115461718Y-122718923D01*
X116429642Y-122317996D01*
X116661077Y-121938183D01*
X114902500Y-120179605D01*
X113143923Y-121938183D01*
X106427000Y-121938183D01*
X106427000Y-119476163D01*
X112176539Y-119476163D01*
X112183577Y-120559218D01*
X112584504Y-121527142D01*
X112964317Y-121758577D01*
X114722895Y-120000000D01*
X115082105Y-120000000D01*
X116840683Y-121758577D01*
X117220496Y-121527142D01*
X117628461Y-120523837D01*
X117621423Y-119440782D01*
X117220496Y-118472858D01*
X116840683Y-118241423D01*
X115082105Y-120000000D01*
X114722895Y-120000000D01*
X112964317Y-118241423D01*
X112584504Y-118472858D01*
X112176539Y-119476163D01*
X106427000Y-119476163D01*
X106427000Y-118061817D01*
X113143923Y-118061817D01*
X114902500Y-119820395D01*
X116661077Y-118061817D01*
X116429642Y-117682004D01*
X115426337Y-117274039D01*
X114343282Y-117281077D01*
X113375358Y-117682004D01*
X113143923Y-118061817D01*
X106427000Y-118061817D01*
X106427000Y-105265484D01*
X118352100Y-105265484D01*
X118352100Y-105654516D01*
X118500977Y-106013936D01*
X118776064Y-106289023D01*
X119035096Y-106396318D01*
X119052874Y-106422924D01*
X119337344Y-106613001D01*
X119588198Y-106662899D01*
X119588202Y-106662899D01*
X119672898Y-106679746D01*
X119757594Y-106662899D01*
X124856359Y-106662899D01*
X124941055Y-106679746D01*
X125025751Y-106662899D01*
X125025756Y-106662899D01*
X125276610Y-106613001D01*
X125561080Y-106422924D01*
X125609060Y-106351117D01*
X133778221Y-98181957D01*
X133850025Y-98133979D01*
X134040102Y-97849509D01*
X134090000Y-97598655D01*
X134090000Y-97598651D01*
X134106847Y-97513955D01*
X134090000Y-97429259D01*
X134090000Y-96199634D01*
X134106848Y-96114933D01*
X134089760Y-96029023D01*
X134040102Y-95779378D01*
X133919514Y-95598905D01*
X133937900Y-95554516D01*
X133937900Y-95165484D01*
X133789023Y-94806064D01*
X133513936Y-94530977D01*
X133154516Y-94382100D01*
X133013913Y-94382100D01*
X132913331Y-94139273D01*
X132638244Y-93864186D01*
X132353609Y-93746286D01*
X131690000Y-93082678D01*
X131690000Y-93022959D01*
X131926064Y-93259023D01*
X132285484Y-93407900D01*
X132347742Y-93407900D01*
X132570253Y-93630410D01*
X132614047Y-93695953D01*
X132679589Y-93739747D01*
X132679591Y-93739749D01*
X132731534Y-93774456D01*
X132873708Y-93869454D01*
X133102684Y-93915000D01*
X133102688Y-93915000D01*
X133179999Y-93930378D01*
X133257310Y-93915000D01*
X136792688Y-93915000D01*
X136870000Y-93930378D01*
X136947312Y-93915000D01*
X136947316Y-93915000D01*
X137176292Y-93869454D01*
X137435953Y-93695953D01*
X137479749Y-93630408D01*
X138322258Y-92787900D01*
X138384516Y-92787900D01*
X138743936Y-92639023D01*
X139019023Y-92363936D01*
X139167900Y-92004516D01*
X139167900Y-91615484D01*
X139019023Y-91256064D01*
X138743936Y-90980977D01*
X138384516Y-90832100D01*
X137995484Y-90832100D01*
X137636064Y-90980977D01*
X137360977Y-91256064D01*
X137212100Y-91615484D01*
X137212100Y-91677742D01*
X136544843Y-92345000D01*
X136491009Y-92345000D01*
X136627900Y-92014516D01*
X136627900Y-91625484D01*
X136479023Y-91266064D01*
X136203936Y-90990977D01*
X135919299Y-90873076D01*
X135858005Y-90811782D01*
X135810025Y-90739975D01*
X135525555Y-90549898D01*
X135274701Y-90500000D01*
X135274696Y-90500000D01*
X135190000Y-90483153D01*
X135105304Y-90500000D01*
X131690000Y-90500000D01*
X131690000Y-90199151D01*
X131807900Y-89914516D01*
X131807900Y-89525484D01*
X131659023Y-89166064D01*
X131383936Y-88890977D01*
X131024516Y-88742100D01*
X130635484Y-88742100D01*
X130276064Y-88890977D01*
X130000977Y-89166064D01*
X129852100Y-89525484D01*
X129852100Y-89914516D01*
X129970000Y-90199152D01*
X129970001Y-91275295D01*
X129953152Y-91360000D01*
X129970000Y-91444701D01*
X129970001Y-93354201D01*
X129953153Y-93438901D01*
X130019899Y-93774456D01*
X130161996Y-93987120D01*
X130161998Y-93987122D01*
X130209976Y-94058926D01*
X130281780Y-94106904D01*
X131137385Y-94962510D01*
X131255285Y-95247145D01*
X131530372Y-95522232D01*
X131889792Y-95671109D01*
X132030395Y-95671109D01*
X132089396Y-95813550D01*
X132083153Y-95844933D01*
X132100000Y-95929629D01*
X132100000Y-95929634D01*
X132149898Y-96180488D01*
X132339976Y-96464958D01*
X132370000Y-96485020D01*
X132370001Y-97157729D01*
X124584832Y-104942899D01*
X120174281Y-104942899D01*
X120159023Y-104906064D01*
X119883936Y-104630977D01*
X119524516Y-104482100D01*
X119135484Y-104482100D01*
X118776064Y-104630977D01*
X118500977Y-104906064D01*
X118352100Y-105265484D01*
X106427000Y-105265484D01*
X106427000Y-94575484D01*
X122422100Y-94575484D01*
X122422100Y-94964516D01*
X122570977Y-95323936D01*
X122846064Y-95599023D01*
X123205484Y-95747900D01*
X123594516Y-95747900D01*
X123953936Y-95599023D01*
X124229023Y-95323936D01*
X124346924Y-95039300D01*
X125375000Y-94011223D01*
X125375000Y-98481635D01*
X125446656Y-98841872D01*
X125719615Y-99250385D01*
X126128127Y-99523344D01*
X126610000Y-99619195D01*
X126784341Y-99584516D01*
X123875071Y-102493787D01*
X123811092Y-102557766D01*
X123526455Y-102675667D01*
X123251368Y-102950754D01*
X123102491Y-103310174D01*
X123102491Y-103699206D01*
X123251368Y-104058626D01*
X123526455Y-104333713D01*
X123885875Y-104482590D01*
X124274907Y-104482590D01*
X124634327Y-104333713D01*
X124909414Y-104058626D01*
X125027315Y-103773989D01*
X125091294Y-103710010D01*
X128408221Y-100393084D01*
X128480025Y-100345106D01*
X128670102Y-100060636D01*
X128720000Y-99809782D01*
X128720000Y-99809777D01*
X128736847Y-99725081D01*
X128720000Y-99640385D01*
X128720000Y-88352044D01*
X130928221Y-86143824D01*
X131000025Y-86095846D01*
X131190102Y-85811376D01*
X131240000Y-85560522D01*
X131240000Y-85560518D01*
X131256847Y-85475822D01*
X131240000Y-85391126D01*
X131240000Y-83669151D01*
X131357900Y-83384516D01*
X131357900Y-82995484D01*
X131209023Y-82636064D01*
X131049756Y-82476797D01*
X134606387Y-78920167D01*
X134606389Y-78920164D01*
X134949286Y-78577267D01*
X135153343Y-78271873D01*
X135249194Y-77790001D01*
X135153343Y-77308128D01*
X134880385Y-76899615D01*
X134471872Y-76626657D01*
X133989999Y-76530806D01*
X133508127Y-76626657D01*
X133202733Y-76830714D01*
X132859836Y-77173611D01*
X132859833Y-77173613D01*
X127545133Y-82488314D01*
X127442017Y-82557214D01*
X127373117Y-82660330D01*
X127373115Y-82660332D01*
X127368532Y-82667191D01*
X127169057Y-82965726D01*
X127097401Y-83325963D01*
X127097401Y-83325967D01*
X127073207Y-83447599D01*
X127097401Y-83569231D01*
X127097401Y-84405000D01*
X126854234Y-84405000D01*
X126437074Y-84577793D01*
X126117793Y-84897074D01*
X125945000Y-85314234D01*
X125945000Y-85482100D01*
X125865484Y-85482100D01*
X125506064Y-85630977D01*
X125230977Y-85906064D01*
X125113076Y-86190701D01*
X125071780Y-86231997D01*
X124999976Y-86279975D01*
X124951998Y-86351779D01*
X124951996Y-86351781D01*
X124809899Y-86564445D01*
X124743153Y-86900000D01*
X124752104Y-86945000D01*
X124314234Y-86945000D01*
X123897074Y-87117793D01*
X123577793Y-87437074D01*
X123405000Y-87854234D01*
X123405000Y-88305766D01*
X123577793Y-88722926D01*
X123897074Y-89042207D01*
X124314234Y-89215000D01*
X124760001Y-89215000D01*
X124760000Y-92193776D01*
X123130700Y-93823076D01*
X122846064Y-93940977D01*
X122570977Y-94216064D01*
X122422100Y-94575484D01*
X106427000Y-94575484D01*
X106427000Y-85314234D01*
X120865000Y-85314234D01*
X120865000Y-85765766D01*
X121037793Y-86182926D01*
X121357074Y-86502207D01*
X121774234Y-86675000D01*
X122225766Y-86675000D01*
X122642926Y-86502207D01*
X122962207Y-86182926D01*
X123135000Y-85765766D01*
X123135000Y-85314234D01*
X122962207Y-84897074D01*
X122642926Y-84577793D01*
X122225766Y-84405000D01*
X121774234Y-84405000D01*
X121357074Y-84577793D01*
X121037793Y-84897074D01*
X120865000Y-85314234D01*
X106427000Y-85314234D01*
X106427000Y-82100000D01*
X106417333Y-82051399D01*
X106389803Y-82010197D01*
X106348601Y-81982667D01*
X106300000Y-81973000D01*
X99300000Y-81973000D01*
X99251399Y-81982667D01*
X99210197Y-82010197D01*
X99182667Y-82051399D01*
X99173000Y-82100000D01*
X99173000Y-85073000D01*
X93700000Y-85073000D01*
X93651399Y-85082667D01*
X93610197Y-85110197D01*
X93582667Y-85151399D01*
X93573000Y-85200000D01*
X93573000Y-85873000D01*
X88500000Y-85873000D01*
X88451399Y-85882667D01*
X88410197Y-85910197D01*
X88382667Y-85951399D01*
X88373000Y-86000000D01*
X88373000Y-127290000D01*
X79025104Y-127290000D01*
X77973081Y-127215513D01*
X76966651Y-126998834D01*
X76000791Y-126642509D01*
X75094773Y-126153648D01*
X74266675Y-125542005D01*
X73533022Y-124819787D01*
X72908449Y-124001399D01*
X72405421Y-123103178D01*
X72033967Y-122143028D01*
X71986487Y-121938183D01*
X77726523Y-121938183D01*
X77957958Y-122317996D01*
X78961263Y-122725961D01*
X80044318Y-122718923D01*
X81012242Y-122317996D01*
X81243677Y-121938183D01*
X79485100Y-120179605D01*
X77726523Y-121938183D01*
X71986487Y-121938183D01*
X71801507Y-121140130D01*
X71710746Y-120092186D01*
X71710000Y-119997224D01*
X71710000Y-119476163D01*
X76759139Y-119476163D01*
X76766177Y-120559218D01*
X77167104Y-121527142D01*
X77546917Y-121758577D01*
X79305495Y-120000000D01*
X79664705Y-120000000D01*
X81423283Y-121758577D01*
X81803096Y-121527142D01*
X82211061Y-120523837D01*
X82204023Y-119440782D01*
X81803096Y-118472858D01*
X81423283Y-118241423D01*
X79664705Y-120000000D01*
X79305495Y-120000000D01*
X77546917Y-118241423D01*
X77167104Y-118472858D01*
X76759139Y-119476163D01*
X71710000Y-119476163D01*
X71710000Y-118061817D01*
X77726523Y-118061817D01*
X79485100Y-119820395D01*
X81243677Y-118061817D01*
X81012242Y-117682004D01*
X80008937Y-117274039D01*
X78925882Y-117281077D01*
X77957958Y-117682004D01*
X77726523Y-118061817D01*
X71710000Y-118061817D01*
X71710000Y-81938183D01*
X77726523Y-81938183D01*
X77957958Y-82317996D01*
X78961263Y-82725961D01*
X80044318Y-82718923D01*
X81012242Y-82317996D01*
X81149860Y-82092147D01*
X91106883Y-82092147D01*
X91106883Y-82481179D01*
X91255760Y-82840599D01*
X91530847Y-83115686D01*
X91890267Y-83264563D01*
X92279299Y-83264563D01*
X92638719Y-83115686D01*
X92913806Y-82840599D01*
X92956706Y-82737029D01*
X93755552Y-81938183D01*
X113143923Y-81938183D01*
X113375358Y-82317996D01*
X114378663Y-82725961D01*
X115461718Y-82718923D01*
X116429642Y-82317996D01*
X116661077Y-81938183D01*
X114902500Y-80179605D01*
X113143923Y-81938183D01*
X93755552Y-81938183D01*
X95708736Y-79985000D01*
X101390721Y-79985000D01*
X101482807Y-80003317D01*
X101574893Y-79985000D01*
X101847626Y-79930750D01*
X102156904Y-79724097D01*
X102171087Y-79702870D01*
X102242459Y-79673307D01*
X102439603Y-79476163D01*
X112176539Y-79476163D01*
X112183577Y-80559218D01*
X112584504Y-81527142D01*
X112964317Y-81758577D01*
X114722895Y-80000000D01*
X115082105Y-80000000D01*
X116840683Y-81758577D01*
X117220496Y-81527142D01*
X117628461Y-80523837D01*
X117621423Y-79440782D01*
X117220496Y-78472858D01*
X116840683Y-78241423D01*
X115082105Y-80000000D01*
X114722895Y-80000000D01*
X112964317Y-78241423D01*
X112584504Y-78472858D01*
X112176539Y-79476163D01*
X102439603Y-79476163D01*
X102517546Y-79398220D01*
X102666423Y-79038800D01*
X102666423Y-78649768D01*
X102517546Y-78290348D01*
X102289015Y-78061817D01*
X113143923Y-78061817D01*
X114902500Y-79820395D01*
X116661077Y-78061817D01*
X116429642Y-77682004D01*
X115426337Y-77274039D01*
X114343282Y-77281077D01*
X113375358Y-77682004D01*
X113143923Y-78061817D01*
X102289015Y-78061817D01*
X102242459Y-78015261D01*
X101883039Y-77866384D01*
X101494007Y-77866384D01*
X101134587Y-78015261D01*
X101034848Y-78115000D01*
X95413532Y-78115000D01*
X95321446Y-78096683D01*
X95229360Y-78115000D01*
X94956627Y-78169250D01*
X94647349Y-78375903D01*
X94595187Y-78453969D01*
X91634417Y-81414740D01*
X91530847Y-81457640D01*
X91255760Y-81732727D01*
X91106883Y-82092147D01*
X81149860Y-82092147D01*
X81243677Y-81938183D01*
X79485100Y-80179605D01*
X77726523Y-81938183D01*
X71710000Y-81938183D01*
X71710000Y-79476163D01*
X76759139Y-79476163D01*
X76766177Y-80559218D01*
X77167104Y-81527142D01*
X77546917Y-81758577D01*
X79305495Y-80000000D01*
X79664705Y-80000000D01*
X81423283Y-81758577D01*
X81803096Y-81527142D01*
X82211061Y-80523837D01*
X82204023Y-79440782D01*
X81803096Y-78472858D01*
X81423283Y-78241423D01*
X79664705Y-80000000D01*
X79305495Y-80000000D01*
X77546917Y-78241423D01*
X77167104Y-78472858D01*
X76759139Y-79476163D01*
X71710000Y-79476163D01*
X71710000Y-78061817D01*
X77726523Y-78061817D01*
X79485100Y-79820395D01*
X81243677Y-78061817D01*
X81012242Y-77682004D01*
X80008937Y-77274039D01*
X78925882Y-77281077D01*
X77957958Y-77682004D01*
X77726523Y-78061817D01*
X71710000Y-78061817D01*
X71710000Y-76200187D01*
X96214097Y-76200187D01*
X96214097Y-76589219D01*
X96362974Y-76948639D01*
X96638061Y-77223726D01*
X96997481Y-77372603D01*
X97386513Y-77372603D01*
X97745933Y-77223726D01*
X97843382Y-77126277D01*
X98091250Y-76960656D01*
X98135046Y-76895111D01*
X99004673Y-76025484D01*
X102182100Y-76025484D01*
X102182100Y-76414516D01*
X102330977Y-76773936D01*
X102606064Y-77049023D01*
X102965484Y-77197900D01*
X103354516Y-77197900D01*
X103713936Y-77049023D01*
X103989023Y-76773936D01*
X104137900Y-76414516D01*
X104137900Y-76025484D01*
X104095000Y-75921914D01*
X104095000Y-74897959D01*
X104289023Y-74703936D01*
X104437900Y-74344516D01*
X104437900Y-73955484D01*
X104289023Y-73596064D01*
X104013936Y-73320977D01*
X103654516Y-73172100D01*
X103265484Y-73172100D01*
X102906064Y-73320977D01*
X102630977Y-73596064D01*
X102588077Y-73699634D01*
X102563970Y-73723741D01*
X102485904Y-73775903D01*
X102433742Y-73853969D01*
X102433741Y-73853970D01*
X102279250Y-74085182D01*
X102206683Y-74450000D01*
X102225001Y-74542090D01*
X102225000Y-75921914D01*
X102182100Y-76025484D01*
X99004673Y-76025484D01*
X100132257Y-74897900D01*
X100194516Y-74897900D01*
X100553936Y-74749023D01*
X100829023Y-74473936D01*
X100977900Y-74114516D01*
X100977900Y-73725484D01*
X100829023Y-73366064D01*
X100553936Y-73090977D01*
X100194516Y-72942100D01*
X99805484Y-72942100D01*
X99446064Y-73090977D01*
X99170977Y-73366064D01*
X99022100Y-73725484D01*
X99022100Y-73787743D01*
X97391128Y-75418715D01*
X97386513Y-75416803D01*
X96997481Y-75416803D01*
X96638061Y-75565680D01*
X96362974Y-75840767D01*
X96214097Y-76200187D01*
X71710000Y-76200187D01*
X71710000Y-73034322D01*
X94285309Y-73034322D01*
X94285309Y-73423354D01*
X94434186Y-73782774D01*
X94709273Y-74057861D01*
X95068693Y-74206738D01*
X95420838Y-74206738D01*
X95512292Y-74298192D01*
X95871712Y-74447069D01*
X96260744Y-74447069D01*
X96620164Y-74298192D01*
X96895251Y-74023105D01*
X97044128Y-73663685D01*
X97044128Y-73601426D01*
X98160555Y-72485000D01*
X112022688Y-72485000D01*
X112100000Y-72500378D01*
X112177312Y-72485000D01*
X112177316Y-72485000D01*
X112406292Y-72439454D01*
X112665953Y-72265953D01*
X112709749Y-72200408D01*
X121025157Y-63885000D01*
X122967688Y-63885000D01*
X123045000Y-63900378D01*
X123122312Y-63885000D01*
X123122316Y-63885000D01*
X123351292Y-63839454D01*
X123610953Y-63665953D01*
X123654749Y-63600408D01*
X123920408Y-63334749D01*
X123985953Y-63290953D01*
X124159454Y-63031292D01*
X124205000Y-62802315D01*
X124205000Y-62802313D01*
X124220378Y-62725001D01*
X124205000Y-62647689D01*
X124205000Y-62638363D01*
X124247440Y-62425000D01*
X124247440Y-62175000D01*
X124198157Y-61927235D01*
X124195000Y-61922510D01*
X124195000Y-61571474D01*
X124480625Y-61380625D01*
X124492816Y-61362381D01*
X124501843Y-61407765D01*
X124642191Y-61617809D01*
X124852235Y-61758157D01*
X125100000Y-61807440D01*
X126800000Y-61807440D01*
X127047765Y-61758157D01*
X127257809Y-61617809D01*
X127398157Y-61407765D01*
X127447440Y-61160000D01*
X127447440Y-59460000D01*
X127398157Y-59212235D01*
X127257809Y-59002191D01*
X127047765Y-58861843D01*
X126800000Y-58812560D01*
X125100000Y-58812560D01*
X124852235Y-58861843D01*
X124642191Y-59002191D01*
X124501843Y-59212235D01*
X124492816Y-59257619D01*
X124480625Y-59239375D01*
X123989418Y-58911161D01*
X123556256Y-58825000D01*
X123263744Y-58825000D01*
X122830582Y-58911161D01*
X122339375Y-59239375D01*
X122140000Y-59537761D01*
X121940625Y-59239375D01*
X121449418Y-58911161D01*
X121016256Y-58825000D01*
X120723744Y-58825000D01*
X120290582Y-58911161D01*
X119799375Y-59239375D01*
X119586157Y-59558478D01*
X119525183Y-59428642D01*
X119096924Y-59038355D01*
X118686890Y-58868524D01*
X118457000Y-58989845D01*
X118457000Y-60183000D01*
X118477000Y-60183000D01*
X118477000Y-60437000D01*
X118457000Y-60437000D01*
X118457000Y-61630155D01*
X118686890Y-61751476D01*
X119096924Y-61581645D01*
X119525183Y-61191358D01*
X119586157Y-61061522D01*
X119799375Y-61380625D01*
X119963066Y-61490000D01*
X119902998Y-61490000D01*
X119902998Y-61611748D01*
X119781250Y-61490000D01*
X119723691Y-61490000D01*
X119490302Y-61586673D01*
X119311673Y-61765301D01*
X119215000Y-61998690D01*
X119215000Y-62028750D01*
X119373750Y-62187500D01*
X119767342Y-62187500D01*
X119642342Y-62312500D01*
X119373750Y-62312500D01*
X119215000Y-62471250D01*
X119215000Y-62501310D01*
X119284864Y-62669978D01*
X111639843Y-70315000D01*
X97469357Y-70315000D01*
X97392046Y-70299622D01*
X97314735Y-70315000D01*
X97314731Y-70315000D01*
X97085755Y-70360546D01*
X96966672Y-70440115D01*
X96891638Y-70490251D01*
X96891636Y-70490253D01*
X96826094Y-70534047D01*
X96782300Y-70599589D01*
X95130952Y-72250938D01*
X95068693Y-72250938D01*
X94709273Y-72399815D01*
X94434186Y-72674902D01*
X94285309Y-73034322D01*
X71710000Y-73034322D01*
X71710000Y-68105484D01*
X73722100Y-68105484D01*
X73722100Y-68494516D01*
X73870977Y-68853936D01*
X74146064Y-69129023D01*
X74505484Y-69277900D01*
X74894516Y-69277900D01*
X75253936Y-69129023D01*
X75529023Y-68853936D01*
X75571923Y-68750366D01*
X77387290Y-66935000D01*
X92151914Y-66935000D01*
X92255484Y-66977900D01*
X92644516Y-66977900D01*
X92748086Y-66935000D01*
X99077914Y-66935000D01*
X99170000Y-66953317D01*
X99262086Y-66935000D01*
X99534819Y-66880750D01*
X99844097Y-66674097D01*
X99896261Y-66596028D01*
X102160367Y-64331923D01*
X102263936Y-64289023D01*
X102539023Y-64013936D01*
X102687900Y-63654516D01*
X102687900Y-63265484D01*
X102667190Y-63215484D01*
X108692100Y-63215484D01*
X108692100Y-63604516D01*
X108840977Y-63963936D01*
X109116064Y-64239023D01*
X109475484Y-64387900D01*
X109864516Y-64387900D01*
X110223936Y-64239023D01*
X110499023Y-63963936D01*
X110541923Y-63860366D01*
X113735397Y-60666892D01*
X116888514Y-60666892D01*
X117134817Y-61191358D01*
X117563076Y-61581645D01*
X117973110Y-61751476D01*
X118203000Y-61630155D01*
X118203000Y-60437000D01*
X117009181Y-60437000D01*
X116888514Y-60666892D01*
X113735397Y-60666892D01*
X114449181Y-59953108D01*
X116888514Y-59953108D01*
X117009181Y-60183000D01*
X118203000Y-60183000D01*
X118203000Y-58989845D01*
X117973110Y-58868524D01*
X117563076Y-59038355D01*
X117134817Y-59428642D01*
X116888514Y-59953108D01*
X114449181Y-59953108D01*
X114476031Y-59926259D01*
X114554097Y-59874097D01*
X114760750Y-59564819D01*
X114792818Y-59403601D01*
X114809796Y-59318247D01*
X114857900Y-59202115D01*
X114857900Y-58813083D01*
X114709023Y-58453663D01*
X114433936Y-58178576D01*
X114074516Y-58029699D01*
X113685484Y-58029699D01*
X113326064Y-58178576D01*
X113050977Y-58453663D01*
X112902100Y-58813083D01*
X112902100Y-58855610D01*
X109219634Y-62538077D01*
X109116064Y-62580977D01*
X108840977Y-62856064D01*
X108692100Y-63215484D01*
X102667190Y-63215484D01*
X102539023Y-62906064D01*
X102263936Y-62630977D01*
X101904516Y-62482100D01*
X101515484Y-62482100D01*
X101156064Y-62630977D01*
X100880977Y-62906064D01*
X100838077Y-63009633D01*
X98782711Y-65065000D01*
X92748086Y-65065000D01*
X92644516Y-65022100D01*
X92255484Y-65022100D01*
X92151914Y-65065000D01*
X77092081Y-65065000D01*
X76999999Y-65046684D01*
X76907917Y-65065000D01*
X76907914Y-65065000D01*
X76635181Y-65119250D01*
X76325903Y-65325903D01*
X76273741Y-65403969D01*
X74249634Y-67428077D01*
X74146064Y-67470977D01*
X73870977Y-67746064D01*
X73722100Y-68105484D01*
X71710000Y-68105484D01*
X71710000Y-64025104D01*
X71784487Y-62973081D01*
X72001166Y-61966651D01*
X72357491Y-61000791D01*
X72846352Y-60094774D01*
X73457992Y-59266678D01*
X74180213Y-58533023D01*
X74998601Y-57908449D01*
X75896825Y-57405420D01*
X76856972Y-57033967D01*
X77859870Y-56801507D01*
X78907815Y-56710746D01*
X79002776Y-56710000D01*
X140974896Y-56710000D01*
X142026919Y-56784487D01*
G36*
X122339375Y-61380625D02*
X122577897Y-61540000D01*
X122452998Y-61540000D01*
X122452998Y-61661748D01*
X122331250Y-61540000D01*
X122273691Y-61540000D01*
X122040302Y-61636673D01*
X121861673Y-61815301D01*
X121765000Y-62048690D01*
X121765000Y-62078750D01*
X121923750Y-62237500D01*
X122490000Y-62237500D01*
X122490000Y-62175000D01*
X122592560Y-62175000D01*
X122592560Y-62315000D01*
X121697440Y-62315000D01*
X121697440Y-62125000D01*
X121655000Y-61911637D01*
X121655000Y-61571474D01*
X121940625Y-61380625D01*
X122140000Y-61082239D01*
X122339375Y-61380625D01*
X122339375Y-61380625D01*
G37*
X122339375Y-61380625D02*
X122577897Y-61540000D01*
X122452998Y-61540000D01*
X122452998Y-61661748D01*
X122331250Y-61540000D01*
X122273691Y-61540000D01*
X122040302Y-61636673D01*
X121861673Y-61815301D01*
X121765000Y-62048690D01*
X121765000Y-62078750D01*
X121923750Y-62237500D01*
X122490000Y-62237500D01*
X122490000Y-62175000D01*
X122592560Y-62175000D01*
X122592560Y-62315000D01*
X121697440Y-62315000D01*
X121697440Y-62125000D01*
X121655000Y-61911637D01*
X121655000Y-61571474D01*
X121940625Y-61380625D01*
X122140000Y-61082239D01*
X122339375Y-61380625D01*
G04 #@! TD*
M02*
