%FSLAX45Y45*%
G04 Gerber Fmt 4.5, Leading zero omitted, Abs format (unit mm)*
G04 Created by KiCad (PCBNEW 5.0.0) date Fri Aug  3 19:09:42 2018*
%MOMM*%
%LPD*%
G01*
G04 APERTURE LIST*
%ADD10C,0.150000*%
%ADD11C,0.200000*%
%ADD12C,0.300000*%
G04 APERTURE END LIST*
D10*
X14100000Y-12800000D02*
G75*
G03X14900000Y-12000000I0J800000D01*
G01*
X7100000Y-12000000D02*
G75*
G03X7900000Y-12800000I800000J0D01*
G01*
X7900000Y-5600000D02*
G75*
G03X7100000Y-6400000I0J-800000D01*
G01*
X14900000Y-6400000D02*
G75*
G03X14100000Y-5600000I-800000J0D01*
G01*
X7100000Y-12000000D02*
X7100000Y-6400000D01*
X14100000Y-12800000D02*
X7900000Y-12800000D01*
X14900000Y-6400000D02*
X14900000Y-12000000D01*
X7900000Y-5600000D02*
X14100000Y-5600000D01*
D11*
D12*
X7378928Y-13273214D02*
X7378928Y-12973214D01*
X7450357Y-12973214D01*
X7493214Y-12987500D01*
X7521786Y-13016071D01*
X7536071Y-13044643D01*
X7550357Y-13101786D01*
X7550357Y-13144643D01*
X7536071Y-13201786D01*
X7521786Y-13230357D01*
X7493214Y-13258929D01*
X7450357Y-13273214D01*
X7378928Y-13273214D01*
X7678928Y-13273214D02*
X7678928Y-13073214D01*
X7678928Y-13130357D02*
X7693214Y-13101786D01*
X7707500Y-13087500D01*
X7736071Y-13073214D01*
X7764643Y-13073214D01*
X7864643Y-13273214D02*
X7864643Y-13073214D01*
X7864643Y-12973214D02*
X7850357Y-12987500D01*
X7864643Y-13001786D01*
X7878928Y-12987500D01*
X7864643Y-12973214D01*
X7864643Y-13001786D01*
X8050357Y-13273214D02*
X8021786Y-13258929D01*
X8007500Y-13230357D01*
X8007500Y-12973214D01*
X8207500Y-13273214D02*
X8178928Y-13258929D01*
X8164643Y-13230357D01*
X8164643Y-12973214D01*
X8550357Y-13273214D02*
X8550357Y-12973214D01*
X8650357Y-13187500D01*
X8750357Y-12973214D01*
X8750357Y-13273214D01*
X9021786Y-13273214D02*
X9021786Y-13116071D01*
X9007500Y-13087500D01*
X8978928Y-13073214D01*
X8921786Y-13073214D01*
X8893214Y-13087500D01*
X9021786Y-13258929D02*
X8993214Y-13273214D01*
X8921786Y-13273214D01*
X8893214Y-13258929D01*
X8878928Y-13230357D01*
X8878928Y-13201786D01*
X8893214Y-13173214D01*
X8921786Y-13158929D01*
X8993214Y-13158929D01*
X9021786Y-13144643D01*
X9164643Y-13073214D02*
X9164643Y-13373214D01*
X9164643Y-13087500D02*
X9193214Y-13073214D01*
X9250357Y-13073214D01*
X9278928Y-13087500D01*
X9293214Y-13101786D01*
X9307500Y-13130357D01*
X9307500Y-13216071D01*
X9293214Y-13244643D01*
X9278928Y-13258929D01*
X9250357Y-13273214D01*
X9193214Y-13273214D01*
X9164643Y-13258929D01*
X9436071Y-13244643D02*
X9450357Y-13258929D01*
X9436071Y-13273214D01*
X9421786Y-13258929D01*
X9436071Y-13244643D01*
X9436071Y-13273214D01*
X9436071Y-13087500D02*
X9450357Y-13101786D01*
X9436071Y-13116071D01*
X9421786Y-13101786D01*
X9436071Y-13087500D01*
X9436071Y-13116071D01*
M02*
